<?xml version="1.0" encoding="UTF-8" standalone="no"?>
<!DOCTYPE svg PUBLIC "-//W3C//DTD SVG 1.1//EN"
 "http://www.w3.org/Graphics/SVG/1.1/DTD/svg11.dtd">
<!-- Generated by graphviz version 2.40.1 (20161225.0304)
 -->
<!-- Title: G Pages: 1 -->
<svg width="528pt" height="1936pt"
 viewBox="0.00 0.00 528.00 1936.00" xmlns="http://www.w3.org/2000/svg" xmlns:xlink="http://www.w3.org/1999/xlink">
<g id="graph0" class="graph" transform="scale(1 1) rotate(0) translate(4 1932)">
<title>G</title>
<polygon fill="#ffffff" stroke="transparent" points="-4,4 -4,-1932 524,-1932 524,4 -4,4"/>
<g id="clust1" class="cluster">
<title>cluster_Global</title>
<polygon fill="none" stroke="#000000" points="8,-8 8,-1920 512,-1920 512,-8 8,-8"/>
<text text-anchor="middle" x="260" y="-1907.2" font-family="Times,serif" font-size="11.00" fill="#c0c0c0">Global</text>
</g>
<g id="clust2" class="cluster">
<title>cluster_\Controllers</title>
<polygon fill="none" stroke="#000000" points="19.5,-1712 19.5,-1892 489,-1892 489,-1712 19.5,-1712"/>
<text text-anchor="middle" x="254.25" y="-1879.2" font-family="Times,serif" font-size="11.00" fill="#c0c0c0">Controllers</text>
</g>
<g id="clust3" class="cluster">
<title>cluster_\Entities</title>
<polygon fill="none" stroke="#000000" points="179,-904 179,-1246 459,-1246 459,-904 179,-904"/>
<text text-anchor="middle" x="319" y="-1233.2" font-family="Times,serif" font-size="11.00" fill="#c0c0c0">Entities</text>
</g>
<g id="clust4" class="cluster">
<title>cluster_\Helpers</title>
<polygon fill="none" stroke="#000000" points="365.5,-662 365.5,-896 465.5,-896 465.5,-662 365.5,-662"/>
<text text-anchor="middle" x="415.5" y="-883.2" font-family="Times,serif" font-size="11.00" fill="#c0c0c0">Helpers</text>
</g>
<g id="clust5" class="cluster">
<title>cluster_\Interfaces</title>
<polygon fill="none" stroke="#000000" points="16,-1308 16,-1596 123,-1596 123,-1308 16,-1308"/>
<text text-anchor="middle" x="69.5" y="-1583.2" font-family="Times,serif" font-size="11.00" fill="#c0c0c0">Interfaces</text>
</g>
<g id="clust6" class="cluster">
<title>cluster_\Layouts</title>
<polygon fill="none" stroke="#000000" points="189,-286 189,-358 269,-358 269,-286 189,-286"/>
<text text-anchor="middle" x="229" y="-345.2" font-family="Times,serif" font-size="11.00" fill="#c0c0c0">Layouts</text>
</g>
<g id="clust7" class="cluster">
<title>cluster_\Models</title>
<polygon fill="none" stroke="#000000" points="19.5,-16 19.5,-278 504,-278 504,-16 19.5,-16"/>
<text text-anchor="middle" x="261.75" y="-265.2" font-family="Times,serif" font-size="11.00" fill="#c0c0c0">Models</text>
</g>
<g id="clust8" class="cluster">
<title>cluster_\Models\Endpoints</title>
<polygon fill="none" stroke="#000000" points="335,-70 335,-250 496,-250 496,-70 335,-70"/>
<text text-anchor="middle" x="415.5" y="-237.2" font-family="Times,serif" font-size="11.00" fill="#c0c0c0">Endpoints</text>
</g>
<g id="clust9" class="cluster">
<title>cluster_\Templates</title>
<polygon fill="none" stroke="#000000" points="179,-1254 179,-1704 279,-1704 279,-1254 179,-1254"/>
<text text-anchor="middle" x="229" y="-1691.2" font-family="Times,serif" font-size="11.00" fill="#c0c0c0">Templates</text>
</g>
<g id="clust10" class="cluster">
<title>cluster_\Views</title>
<polygon fill="none" stroke="#000000" points="179,-366 179,-654 489,-654 489,-366 179,-366"/>
<text text-anchor="middle" x="334" y="-641.2" font-family="Times,serif" font-size="11.00" fill="#c0c0c0">Views</text>
</g>
<!-- \\Controllers\\API -->
<g id="node1" class="node">
<title>\\Controllers\\API</title>
<polygon fill="none" stroke="#000000" points="271,-1864 187,-1864 187,-1828 271,-1828 271,-1864"/>
<text text-anchor="start" x="195" y="-1849.2" font-family="Courier,monospace" font-size="11.00" fill="#000000">«abstract»</text>
<text text-anchor="start" x="218.5" y="-1837.2" font-family="Courier,monospace" font-size="11.00" fill="#000000">API</text>
</g>
<!-- \\Controllers\\Controller -->
<g id="node3" class="node">
<title>\\Controllers\\Controller</title>
<polygon fill="none" stroke="#000000" points="111.5,-1810 27.5,-1810 27.5,-1774 111.5,-1774 111.5,-1810"/>
<text text-anchor="start" x="35.5" y="-1795.2" font-family="Courier,monospace" font-size="11.00" fill="#000000">«abstract»</text>
<text text-anchor="start" x="35.5" y="-1783.2" font-family="Courier,monospace" font-size="11.00" fill="#000000">Controller</text>
</g>
<!-- \\Controllers\\API&#45;&gt;\\Controllers\\Controller -->
<g id="edge1" class="edge">
<title>\\Controllers\\API&#45;&gt;\\Controllers\\Controller</title>
<path fill="none" stroke="#000000" d="M186.6757,-1831.6708C166.5874,-1824.8697 142.4018,-1816.6815 121.2333,-1809.5147"/>
<polygon fill="none" stroke="#000000" points="122.3394,-1806.1941 111.7451,-1806.3024 120.0946,-1812.8244 122.3394,-1806.1941"/>
</g>
<!-- \\Controllers\\ComparOperatorAPI -->
<g id="node2" class="node">
<title>\\Controllers\\ComparOperatorAPI</title>
<polygon fill="none" stroke="#000000" points="481,-1864 350,-1864 350,-1828 481,-1828 481,-1864"/>
<text text-anchor="middle" x="415.5" y="-1843.2" font-family="Courier,monospace" font-size="11.00" fill="#000000">ComparOperatorAPI</text>
</g>
<!-- \\Controllers\\ComparOperatorAPI&#45;&gt;\\Controllers\\API -->
<g id="edge2" class="edge">
<title>\\Controllers\\ComparOperatorAPI&#45;&gt;\\Controllers\\API</title>
<path fill="none" stroke="#000000" d="M349.7471,-1846C327.3061,-1846 302.5318,-1846 281.2944,-1846"/>
<polygon fill="none" stroke="#000000" points="281.1787,-1842.5001 271.1786,-1846 281.1786,-1849.5001 281.1787,-1842.5001"/>
</g>
<!-- \\Controllers\\Dashboard -->
<g id="node4" class="node">
<title>\\Controllers\\Dashboard</title>
<polygon fill="none" stroke="#000000" points="267.5,-1810 190.5,-1810 190.5,-1774 267.5,-1774 267.5,-1810"/>
<text text-anchor="middle" x="229" y="-1789.2" font-family="Courier,monospace" font-size="11.00" fill="#000000">Dashboard</text>
</g>
<!-- \\Controllers\\Dashboard&#45;&gt;\\Controllers\\Controller -->
<g id="edge3" class="edge">
<title>\\Controllers\\Dashboard&#45;&gt;\\Controllers\\Controller</title>
<path fill="none" stroke="#000000" d="M190.3895,-1792C169.762,-1792 144.078,-1792 121.6956,-1792"/>
<polygon fill="none" stroke="#000000" points="121.6742,-1788.5001 111.6741,-1792 121.6741,-1795.5001 121.6742,-1788.5001"/>
</g>
<!-- \\Controllers\\Home -->
<g id="node5" class="node">
<title>\\Controllers\\Home</title>
<polygon fill="none" stroke="#000000" points="256,-1756 202,-1756 202,-1720 256,-1720 256,-1756"/>
<text text-anchor="middle" x="229" y="-1735.2" font-family="Courier,monospace" font-size="11.00" fill="#000000">Home</text>
</g>
<!-- \\Controllers\\Home&#45;&gt;\\Controllers\\Controller -->
<g id="edge4" class="edge">
<title>\\Controllers\\Home&#45;&gt;\\Controllers\\Controller</title>
<path fill="none" stroke="#000000" d="M201.943,-1747.1604C179.9371,-1754.6106 148.2426,-1765.3411 121.376,-1774.437"/>
<polygon fill="none" stroke="#000000" points="120.0726,-1771.183 111.7231,-1777.705 122.3174,-1777.8134 120.0726,-1771.183"/>
</g>
<!-- \\Entities\\Entity -->
<g id="node6" class="node">
<title>\\Entities\\Entity</title>
<polygon fill="none" stroke="#000000" points="271,-1110 187,-1110 187,-1074 271,-1074 271,-1110"/>
<text text-anchor="start" x="195" y="-1095.2" font-family="Courier,monospace" font-size="11.00" fill="#000000">«abstract»</text>
<text text-anchor="start" x="208.5" y="-1083.2" font-family="Courier,monospace" font-size="11.00" fill="#000000">Entity</text>
</g>
<!-- \\Interfaces\\Validatable -->
<g id="node21" class="node">
<title>\\Interfaces\\Validatable</title>
<polygon fill="none" stroke="#000000" points="115,-1514 24,-1514 24,-1478 115,-1478 115,-1514"/>
<text text-anchor="middle" x="69.5" y="-1493.2" font-family="Courier,monospace" font-size="11.00" fill="#000000">Validatable</text>
</g>
<!-- \\Entities\\Entity&#45;&gt;\\Interfaces\\Validatable -->
<g id="edge5" class="edge">
<title>\\Entities\\Entity&#45;&gt;\\Interfaces\\Validatable</title>
<path fill="none" stroke="#000000" stroke-dasharray="1,5" d="M222.8121,-1110.385C213.0141,-1139.7453 193.5493,-1199.0994 179,-1250 151.3891,-1346.5964 185.9277,-1390.6844 123,-1469 122.4155,-1469.7274 121.8064,-1470.4369 121.1749,-1471.129"/>
<polygon fill="none" stroke="#000000" points="118.7554,-1468.5979 113.6691,-1477.892 123.4411,-1473.7983 118.7554,-1468.5979"/>
</g>
<!-- \\Entities\\Generic -->
<g id="node7" class="node">
<title>\\Entities\\Generic</title>
<polygon fill="none" stroke="#000000" points="447.5,-1002 383.5,-1002 383.5,-966 447.5,-966 447.5,-1002"/>
<text text-anchor="middle" x="415.5" y="-981.2" font-family="Courier,monospace" font-size="11.00" fill="#000000">Generic</text>
</g>
<!-- \\Entities\\Generic&#45;&gt;\\Entities\\Entity -->
<g id="edge6" class="edge">
<title>\\Entities\\Generic&#45;&gt;\\Entities\\Entity</title>
<path fill="none" stroke="#000000" d="M383.1571,-992.1989C368.0473,-996.6866 350.103,-1002.982 335,-1011 306.1051,-1026.3401 276.8259,-1049.4115 256.3831,-1067.0125"/>
<polygon fill="none" stroke="#000000" points="253.9563,-1064.4852 248.7309,-1073.7017 258.5633,-1069.7554 253.9563,-1064.4852"/>
</g>
<!-- \\Entities\\Location -->
<g id="node8" class="node">
<title>\\Entities\\Location</title>
<polygon fill="none" stroke="#000000" points="451,-948 380,-948 380,-912 451,-912 451,-948"/>
<text text-anchor="middle" x="415.5" y="-927.2" font-family="Courier,monospace" font-size="11.00" fill="#000000">Location</text>
</g>
<!-- \\Entities\\Location&#45;&gt;\\Entities\\Entity -->
<g id="edge7" class="edge">
<title>\\Entities\\Location&#45;&gt;\\Entities\\Entity</title>
<path fill="none" stroke="#000000" d="M379.7444,-937.2082C364.9758,-941.3533 348.2497,-947.6528 335,-957 294.1764,-985.7996 261.3604,-1034.779 243.5729,-1065.1542"/>
<polygon fill="none" stroke="#000000" points="240.4736,-1063.5233 238.5429,-1073.9408 246.5486,-1067.0011 240.4736,-1063.5233"/>
</g>
<!-- \\Entities\\Offering -->
<g id="node9" class="node">
<title>\\Entities\\Offering</title>
<polygon fill="none" stroke="#000000" points="451,-1218 380,-1218 380,-1182 451,-1182 451,-1218"/>
<text text-anchor="middle" x="415.5" y="-1197.2" font-family="Courier,monospace" font-size="11.00" fill="#000000">Offering</text>
</g>
<!-- \\Entities\\Offering&#45;&gt;\\Entities\\Entity -->
<g id="edge8" class="edge">
<title>\\Entities\\Offering&#45;&gt;\\Entities\\Entity</title>
<path fill="none" stroke="#000000" d="M379.9923,-1190.8468C365.5858,-1186.4369 349.0614,-1180.4651 335,-1173 306.1051,-1157.6599 276.8259,-1134.5885 256.3831,-1116.9875"/>
<polygon fill="none" stroke="#000000" points="258.5633,-1114.2446 248.7309,-1110.2983 253.9563,-1119.5148 258.5633,-1114.2446"/>
</g>
<!-- \\Entities\\Operator -->
<g id="node10" class="node">
<title>\\Entities\\Operator</title>
<polygon fill="none" stroke="#000000" points="451,-1164 380,-1164 380,-1128 451,-1128 451,-1164"/>
<text text-anchor="middle" x="415.5" y="-1143.2" font-family="Courier,monospace" font-size="11.00" fill="#000000">Operator</text>
</g>
<!-- \\Entities\\Operator&#45;&gt;\\Entities\\Entity -->
<g id="edge9" class="edge">
<title>\\Entities\\Operator&#45;&gt;\\Entities\\Entity</title>
<path fill="none" stroke="#000000" d="M379.9818,-1135.7159C352.0398,-1127.6255 312.6961,-1116.2337 281.1766,-1107.1074"/>
<polygon fill="none" stroke="#000000" points="281.8213,-1103.6504 271.2423,-1104.231 279.8744,-1110.3742 281.8213,-1103.6504"/>
</g>
<!-- \\Entities\\Review -->
<g id="node11" class="node">
<title>\\Entities\\Review</title>
<polygon fill="none" stroke="#000000" points="444,-1110 387,-1110 387,-1074 444,-1074 444,-1110"/>
<text text-anchor="middle" x="415.5" y="-1089.2" font-family="Courier,monospace" font-size="11.00" fill="#000000">Review</text>
</g>
<!-- \\Entities\\Review&#45;&gt;\\Entities\\Entity -->
<g id="edge10" class="edge">
<title>\\Entities\\Review&#45;&gt;\\Entities\\Entity</title>
<path fill="none" stroke="#000000" d="M386.7681,-1092C358.8035,-1092 315.655,-1092 281.5463,-1092"/>
<polygon fill="none" stroke="#000000" points="281.2779,-1088.5001 271.2778,-1092 281.2778,-1095.5001 281.2779,-1088.5001"/>
</g>
<!-- \\Entities\\User -->
<g id="node12" class="node">
<title>\\Entities\\User</title>
<polygon fill="none" stroke="#000000" points="442.5,-1056 388.5,-1056 388.5,-1020 442.5,-1020 442.5,-1056"/>
<text text-anchor="middle" x="415.5" y="-1035.2" font-family="Courier,monospace" font-size="11.00" fill="#000000">User</text>
</g>
<!-- \\Entities\\User&#45;&gt;\\Entities\\Entity -->
<g id="edge11" class="edge">
<title>\\Entities\\User&#45;&gt;\\Entities\\Entity</title>
<path fill="none" stroke="#000000" d="M388.3813,-1045.8521C360.4287,-1053.9456 316.1422,-1066.7685 281.3388,-1076.8456"/>
<polygon fill="none" stroke="#000000" points="279.9663,-1073.5992 271.3343,-1079.7423 281.9132,-1080.323 279.9663,-1073.5992"/>
</g>
<!-- \\Helpers\\Cache -->
<g id="node13" class="node">
<title>\\Helpers\\Cache</title>
<polygon fill="none" stroke="#000000" points="442.5,-868 388.5,-868 388.5,-832 442.5,-832 442.5,-868"/>
<text text-anchor="middle" x="415.5" y="-847.2" font-family="Courier,monospace" font-size="11.00" fill="#000000">Cache</text>
</g>
<!-- \\Helpers\\CacheItem -->
<g id="node14" class="node">
<title>\\Helpers\\CacheItem</title>
<polygon fill="none" stroke="#000000" points="454,-814 377,-814 377,-778 454,-778 454,-814"/>
<text text-anchor="middle" x="415.5" y="-793.2" font-family="Courier,monospace" font-size="11.00" fill="#000000">CacheItem</text>
</g>
<!-- \\Helpers\\DB -->
<g id="node15" class="node">
<title>\\Helpers\\DB</title>
<polygon fill="none" stroke="#000000" points="442.5,-760 388.5,-760 388.5,-724 442.5,-724 442.5,-760"/>
<text text-anchor="middle" x="415.5" y="-739.2" font-family="Courier,monospace" font-size="11.00" fill="#000000">DB</text>
</g>
<!-- \\Helpers\\Dispatcher -->
<g id="node16" class="node">
<title>\\Helpers\\Dispatcher</title>
<polygon fill="none" stroke="#000000" points="457.5,-706 373.5,-706 373.5,-670 457.5,-670 457.5,-706"/>
<text text-anchor="middle" x="415.5" y="-685.2" font-family="Courier,monospace" font-size="11.00" fill="#000000">Dispatcher</text>
</g>
<!-- \\Interfaces\\Cacheable -->
<g id="node17" class="node">
<title>\\Interfaces\\Cacheable</title>
<polygon fill="none" stroke="#000000" points="108,-1568 31,-1568 31,-1532 108,-1532 108,-1568"/>
<text text-anchor="middle" x="69.5" y="-1547.2" font-family="Courier,monospace" font-size="11.00" fill="#000000">Cacheable</text>
</g>
<!-- \\Interfaces\\Layoutable -->
<g id="node18" class="node">
<title>\\Interfaces\\Layoutable</title>
<polygon fill="none" stroke="#000000" points="111.5,-1352 27.5,-1352 27.5,-1316 111.5,-1316 111.5,-1352"/>
<text text-anchor="middle" x="69.5" y="-1331.2" font-family="Courier,monospace" font-size="11.00" fill="#000000">Layoutable</text>
</g>
<!-- \\Interfaces\\Loadable -->
<g id="node19" class="node">
<title>\\Interfaces\\Loadable</title>
<polygon fill="none" stroke="#000000" points="105,-1460 34,-1460 34,-1424 105,-1424 105,-1460"/>
<text text-anchor="middle" x="69.5" y="-1439.2" font-family="Courier,monospace" font-size="11.00" fill="#000000">Loadable</text>
</g>
<!-- \\Interfaces\\Templatable -->
<g id="node20" class="node">
<title>\\Interfaces\\Templatable</title>
<polygon fill="none" stroke="#000000" points="115,-1406 24,-1406 24,-1370 115,-1370 115,-1406"/>
<text text-anchor="middle" x="69.5" y="-1385.2" font-family="Courier,monospace" font-size="11.00" fill="#000000">Templatable</text>
</g>
<!-- \\Layouts\\Minimal -->
<g id="node22" class="node">
<title>\\Layouts\\Minimal</title>
<polygon fill="none" stroke="#000000" points="261,-330 197,-330 197,-294 261,-294 261,-330"/>
<text text-anchor="middle" x="229" y="-309.2" font-family="Courier,monospace" font-size="11.00" fill="#000000">Minimal</text>
</g>
<!-- \\Layouts\\Minimal&#45;&gt;\\Interfaces\\Templatable -->
<g id="edge12" class="edge">
<title>\\Layouts\\Minimal&#45;&gt;\\Interfaces\\Templatable</title>
<path fill="none" stroke="#000000" stroke-dasharray="1,5" d="M204.1426,-330.2111C194.522,-338.7087 184.5149,-349.6737 179,-362 88.1934,-564.9607 244.7979,-1174.9781 123,-1361 122.7293,-1361.4135 122.4502,-1361.8209 122.1632,-1362.2223"/>
<polygon fill="none" stroke="#000000" points="119.3564,-1360.1005 115.1022,-1369.8037 124.4789,-1364.8713 119.3564,-1360.1005"/>
</g>
<!-- \\Models\\Endpoints\\DestinationEndpoint -->
<g id="node23" class="node">
<title>\\Models\\Endpoints\\DestinationEndpoint</title>
<polygon fill="none" stroke="#000000" points="488,-222 343,-222 343,-186 488,-186 488,-222"/>
<text text-anchor="middle" x="415.5" y="-201.2" font-family="Courier,monospace" font-size="11.00" fill="#000000">DestinationEndpoint</text>
</g>
<!-- \\Models\\Endpoints\\OperatorEndpoint -->
<g id="node24" class="node">
<title>\\Models\\Endpoints\\OperatorEndpoint</title>
<polygon fill="none" stroke="#000000" points="478,-168 353,-168 353,-132 478,-132 478,-168"/>
<text text-anchor="middle" x="415.5" y="-147.2" font-family="Courier,monospace" font-size="11.00" fill="#000000">OperatorEndpoint</text>
</g>
<!-- \\Models\\Endpoints\\UserEndpoint -->
<g id="node25" class="node">
<title>\\Models\\Endpoints\\UserEndpoint</title>
<polygon fill="none" stroke="#000000" points="464.5,-114 366.5,-114 366.5,-78 464.5,-78 464.5,-114"/>
<text text-anchor="middle" x="415.5" y="-93.2" font-family="Courier,monospace" font-size="11.00" fill="#000000">UserEndpoint</text>
</g>
<!-- \\Models\\ComparOperatorAPI -->
<g id="node26" class="node">
<title>\\Models\\ComparOperatorAPI</title>
<polygon fill="none" stroke="#000000" points="481,-60 350,-60 350,-24 481,-24 481,-60"/>
<text text-anchor="middle" x="415.5" y="-39.2" font-family="Courier,monospace" font-size="11.00" fill="#000000">ComparOperatorAPI</text>
</g>
<!-- \\Models\\DBPDO -->
<g id="node27" class="node">
<title>\\Models\\DBPDO</title>
<polygon fill="none" stroke="#000000" points="256,-60 202,-60 202,-24 256,-24 256,-60"/>
<text text-anchor="middle" x="229" y="-39.2" font-family="Courier,monospace" font-size="11.00" fill="#000000">DBPDO</text>
</g>
<!-- \\Models\\ComparOperatorAPI&#45;&gt;\\Models\\DBPDO -->
<g id="edge13" class="edge">
<title>\\Models\\ComparOperatorAPI&#45;&gt;\\Models\\DBPDO</title>
<path fill="none" stroke="#000000" d="M349.7471,-42C321.793,-42 290.2182,-42 266.3695,-42"/>
<polygon fill="none" stroke="#000000" points="266.3263,-38.5001 256.3262,-42 266.3262,-45.5001 266.3263,-38.5001"/>
</g>
<!-- \\Models\\Model -->
<g id="node28" class="node">
<title>\\Models\\Model</title>
<polygon fill="none" stroke="#000000" points="111.5,-60 27.5,-60 27.5,-24 111.5,-24 111.5,-60"/>
<text text-anchor="start" x="35.5" y="-45.2" font-family="Courier,monospace" font-size="11.00" fill="#000000">«abstract»</text>
<text text-anchor="start" x="52.5" y="-33.2" font-family="Courier,monospace" font-size="11.00" fill="#000000">Model</text>
</g>
<!-- \\Models\\DBPDO&#45;&gt;\\Models\\Model -->
<g id="edge14" class="edge">
<title>\\Models\\DBPDO&#45;&gt;\\Models\\Model</title>
<path fill="none" stroke="#000000" d="M201.943,-42C180.0336,-42 148.5204,-42 121.7298,-42"/>
<polygon fill="none" stroke="#000000" points="121.7231,-38.5001 111.7231,-42 121.723,-45.5001 121.7231,-38.5001"/>
</g>
<!-- \\Templates\\Console -->
<g id="node29" class="node">
<title>\\Templates\\Console</title>
<polygon fill="none" stroke="#000000" points="261,-1352 197,-1352 197,-1316 261,-1316 261,-1352"/>
<text text-anchor="middle" x="229" y="-1331.2" font-family="Courier,monospace" font-size="11.00" fill="#000000">Console</text>
</g>
<!-- \\Templates\\Console&#45;&gt;\\Interfaces\\Templatable -->
<g id="edge15" class="edge">
<title>\\Templates\\Console&#45;&gt;\\Interfaces\\Templatable</title>
<path fill="none" stroke="#000000" stroke-dasharray="1,5" d="M196.7228,-1344.9277C176.0815,-1351.916 148.7691,-1361.1628 124.7435,-1369.2969"/>
<polygon fill="none" stroke="#000000" points="123.3757,-1366.0647 115.0262,-1372.5867 125.6205,-1372.6951 123.3757,-1366.0647"/>
</g>
<!-- \\Templates\\Fonts -->
<g id="node30" class="node">
<title>\\Templates\\Fonts</title>
<polygon fill="none" stroke="#000000" points="256,-1298 202,-1298 202,-1262 256,-1262 256,-1298"/>
<text text-anchor="middle" x="229" y="-1277.2" font-family="Courier,monospace" font-size="11.00" fill="#000000">Fonts</text>
</g>
<!-- \\Templates\\Fonts&#45;&gt;\\Interfaces\\Templatable -->
<g id="edge16" class="edge">
<title>\\Templates\\Fonts&#45;&gt;\\Interfaces\\Templatable</title>
<path fill="none" stroke="#000000" stroke-dasharray="1,5" d="M201.9774,-1292.8645C194.2915,-1296.9769 186.0885,-1301.8189 179,-1307 151.0861,-1327.4027 151.1943,-1340.9866 123,-1361 121.3456,-1362.1743 119.6329,-1363.3264 117.8803,-1364.4528"/>
<polygon fill="none" stroke="#000000" points="115.6469,-1361.7109 108.8703,-1369.8551 119.2466,-1367.7145 115.6469,-1361.7109"/>
</g>
<!-- \\Templates\\Footer -->
<g id="node31" class="node">
<title>\\Templates\\Footer</title>
<polygon fill="none" stroke="#000000" points="257.5,-1676 200.5,-1676 200.5,-1640 257.5,-1640 257.5,-1676"/>
<text text-anchor="middle" x="229" y="-1655.2" font-family="Courier,monospace" font-size="11.00" fill="#000000">Footer</text>
</g>
<!-- \\Templates\\Footer&#45;&gt;\\Interfaces\\Templatable -->
<g id="edge17" class="edge">
<title>\\Templates\\Footer&#45;&gt;\\Interfaces\\Templatable</title>
<path fill="none" stroke="#000000" stroke-dasharray="1,5" d="M200.363,-1647.616C192.4558,-1643.5206 184.5373,-1638.0663 179,-1631 117.8297,-1552.9381 185.2476,-1492.2055 123,-1415 122.4143,-1414.2736 121.804,-1413.5649 121.1715,-1412.8737"/>
<polygon fill="none" stroke="#000000" points="123.4337,-1410.2009 113.6574,-1406.1174 118.7534,-1415.4062 123.4337,-1410.2009"/>
</g>
<!-- \\Templates\\Image -->
<g id="node32" class="node">
<title>\\Templates\\Image</title>
<polygon fill="none" stroke="#000000" points="256,-1622 202,-1622 202,-1586 256,-1586 256,-1622"/>
<text text-anchor="middle" x="229" y="-1601.2" font-family="Courier,monospace" font-size="11.00" fill="#000000">Image</text>
</g>
<!-- \\Templates\\Image&#45;&gt;\\Interfaces\\Templatable -->
<g id="edge18" class="edge">
<title>\\Templates\\Image&#45;&gt;\\Interfaces\\Templatable</title>
<path fill="none" stroke="#000000" stroke-dasharray="1,5" d="M201.7463,-1593.87C193.5179,-1589.7021 185.068,-1584.1425 179,-1577 129.6765,-1518.9427 173.1244,-1472.3673 123,-1415 122.3711,-1414.2802 121.7184,-1413.5773 121.0444,-1412.891"/>
<polygon fill="none" stroke="#000000" points="123.0114,-1409.9694 113.1251,-1406.16 118.478,-1415.3031 123.0114,-1409.9694"/>
</g>
<!-- \\Templates\\InlinedCss -->
<g id="node33" class="node">
<title>\\Templates\\InlinedCss</title>
<polygon fill="none" stroke="#000000" points="271,-1568 187,-1568 187,-1532 271,-1532 271,-1568"/>
<text text-anchor="middle" x="229" y="-1547.2" font-family="Courier,monospace" font-size="11.00" fill="#000000">InlinedCss</text>
</g>
<!-- \\Templates\\InlinedCss&#45;&gt;\\Interfaces\\Templatable -->
<g id="edge19" class="edge">
<title>\\Templates\\InlinedCss&#45;&gt;\\Interfaces\\Templatable</title>
<path fill="none" stroke="#000000" stroke-dasharray="1,5" d="M189.6863,-1531.834C185.8346,-1529.1803 182.1819,-1526.2357 179,-1523 141.0896,-1484.448 161.4418,-1453.0222 123,-1415 122.0638,-1414.074 121.0894,-1413.1736 120.0829,-1412.2985"/>
<polygon fill="none" stroke="#000000" points="121.9296,-1409.3075 111.8381,-1406.0807 117.7147,-1414.8963 121.9296,-1409.3075"/>
</g>
<!-- \\Templates\\InlinedJs -->
<g id="node34" class="node">
<title>\\Templates\\InlinedJs</title>
<polygon fill="none" stroke="#000000" points="267.5,-1514 190.5,-1514 190.5,-1478 267.5,-1478 267.5,-1514"/>
<text text-anchor="middle" x="229" y="-1493.2" font-family="Courier,monospace" font-size="11.00" fill="#000000">InlinedJs</text>
</g>
<!-- \\Templates\\InlinedJs&#45;&gt;\\Interfaces\\Templatable -->
<g id="edge20" class="edge">
<title>\\Templates\\InlinedJs&#45;&gt;\\Interfaces\\Templatable</title>
<path fill="none" stroke="#000000" stroke-dasharray="1,5" d="M192.7691,-1477.969C188.0121,-1475.1623 183.3009,-1472.1436 179,-1469 151.0861,-1448.5973 151.1943,-1435.0134 123,-1415 121.3456,-1413.8257 119.6329,-1412.6736 117.8803,-1411.5472"/>
<polygon fill="none" stroke="#000000" points="119.2466,-1408.2855 108.8703,-1406.1449 115.6469,-1414.2891 119.2466,-1408.2855"/>
</g>
<!-- \\Templates\\Nav -->
<g id="node35" class="node">
<title>\\Templates\\Nav</title>
<polygon fill="none" stroke="#000000" points="256,-1460 202,-1460 202,-1424 256,-1424 256,-1460"/>
<text text-anchor="middle" x="229" y="-1439.2" font-family="Courier,monospace" font-size="11.00" fill="#000000">Nav</text>
</g>
<!-- \\Templates\\Nav&#45;&gt;\\Interfaces\\Templatable -->
<g id="edge21" class="edge">
<title>\\Templates\\Nav&#45;&gt;\\Interfaces\\Templatable</title>
<path fill="none" stroke="#000000" stroke-dasharray="1,5" d="M201.943,-1432.8396C180.9005,-1425.7155 150.9992,-1415.5922 124.9312,-1406.7667"/>
<polygon fill="none" stroke="#000000" points="125.7489,-1403.3484 115.1546,-1403.4567 123.5041,-1409.9787 125.7489,-1403.3484"/>
</g>
<!-- \\Templates\\Table -->
<g id="node36" class="node">
<title>\\Templates\\Table</title>
<polygon fill="none" stroke="#000000" points="256,-1406 202,-1406 202,-1370 256,-1370 256,-1406"/>
<text text-anchor="middle" x="229" y="-1385.2" font-family="Courier,monospace" font-size="11.00" fill="#000000">Table</text>
</g>
<!-- \\Templates\\Table&#45;&gt;\\Interfaces\\Templatable -->
<g id="edge22" class="edge">
<title>\\Templates\\Table&#45;&gt;\\Interfaces\\Templatable</title>
<path fill="none" stroke="#000000" stroke-dasharray="1,5" d="M201.943,-1388C180.9932,-1388 151.2625,-1388 125.276,-1388"/>
<polygon fill="none" stroke="#000000" points="125.1546,-1384.5001 115.1546,-1388 125.1545,-1391.5001 125.1546,-1384.5001"/>
</g>
<!-- \\Views\\AdminDashboard -->
<g id="node37" class="node">
<title>\\Views\\AdminDashboard</title>
<polygon fill="none" stroke="#000000" points="471,-626 360,-626 360,-590 471,-590 471,-626"/>
<text text-anchor="middle" x="415.5" y="-605.2" font-family="Courier,monospace" font-size="11.00" fill="#000000">AdminDashboard</text>
</g>
<!-- \\Views\\View -->
<g id="node42" class="node">
<title>\\Views\\View</title>
<polygon fill="none" stroke="#000000" points="271,-545 187,-545 187,-509 271,-509 271,-545"/>
<text text-anchor="start" x="195" y="-530.2" font-family="Courier,monospace" font-size="11.00" fill="#000000">«abstract»</text>
<text text-anchor="start" x="215" y="-518.2" font-family="Courier,monospace" font-size="11.00" fill="#000000">View</text>
</g>
<!-- \\Views\\AdminDashboard&#45;&gt;\\Views\\View -->
<g id="edge23" class="edge">
<title>\\Views\\AdminDashboard&#45;&gt;\\Views\\View</title>
<path fill="none" stroke="#000000" d="M359.6717,-590.4679C351.3268,-587.5043 342.8835,-584.3088 335,-581 313.1347,-571.8227 289.5603,-560.0152 270.2082,-549.7828"/>
<polygon fill="none" stroke="#000000" points="271.825,-546.6784 261.3551,-545.0565 268.5284,-552.8535 271.825,-546.6784"/>
</g>
<!-- \\Views\\Error404 -->
<g id="node38" class="node">
<title>\\Views\\Error404</title>
<polygon fill="none" stroke="#000000" points="451,-572 380,-572 380,-536 451,-536 451,-572"/>
<text text-anchor="middle" x="415.5" y="-551.2" font-family="Courier,monospace" font-size="11.00" fill="#000000">Error404</text>
</g>
<!-- \\Views\\Error404&#45;&gt;\\Views\\View -->
<g id="edge24" class="edge">
<title>\\Views\\Error404&#45;&gt;\\Views\\View</title>
<path fill="none" stroke="#000000" d="M379.9818,-548.858C352.0398,-544.8127 312.6961,-539.1169 281.1766,-534.5537"/>
<polygon fill="none" stroke="#000000" points="281.6407,-531.0845 271.2423,-533.1155 280.6377,-538.0123 281.6407,-531.0845"/>
</g>
<!-- \\Views\\Home -->
<g id="node39" class="node">
<title>\\Views\\Home</title>
<polygon fill="none" stroke="#000000" points="442.5,-518 388.5,-518 388.5,-482 442.5,-482 442.5,-518"/>
<text text-anchor="middle" x="415.5" y="-497.2" font-family="Courier,monospace" font-size="11.00" fill="#000000">Home</text>
</g>
<!-- \\Views\\Home&#45;&gt;\\Views\\View -->
<g id="edge25" class="edge">
<title>\\Views\\Home&#45;&gt;\\Views\\View</title>
<path fill="none" stroke="#000000" d="M388.3813,-503.926C360.4287,-507.9728 316.1422,-514.3842 281.3388,-519.4228"/>
<polygon fill="none" stroke="#000000" points="280.7296,-515.9744 271.3343,-520.8712 281.7326,-522.9022 280.7296,-515.9744"/>
</g>
<!-- \\Views\\OfferingList -->
<g id="node40" class="node">
<title>\\Views\\OfferingList</title>
<polygon fill="none" stroke="#000000" points="464.5,-464 366.5,-464 366.5,-428 464.5,-428 464.5,-464"/>
<text text-anchor="middle" x="415.5" y="-443.2" font-family="Courier,monospace" font-size="11.00" fill="#000000">OfferingList</text>
</g>
<!-- \\Views\\OfferingList&#45;&gt;\\Views\\View -->
<g id="edge26" class="edge">
<title>\\Views\\OfferingList&#45;&gt;\\Views\\View</title>
<path fill="none" stroke="#000000" d="M366.1151,-461.2814C355.7315,-464.8505 344.9223,-468.8354 335,-473 313.1347,-482.1773 289.5603,-493.9848 270.2082,-504.2172"/>
<polygon fill="none" stroke="#000000" points="268.5284,-501.1465 261.3551,-508.9435 271.825,-507.3216 268.5284,-501.1465"/>
</g>
<!-- \\Views\\OperatorDashboard -->
<g id="node41" class="node">
<title>\\Views\\OperatorDashboard</title>
<polygon fill="none" stroke="#000000" points="481,-410 350,-410 350,-374 481,-374 481,-410"/>
<text text-anchor="middle" x="415.5" y="-389.2" font-family="Courier,monospace" font-size="11.00" fill="#000000">OperatorDashboard</text>
</g>
<!-- \\Views\\OperatorDashboard&#45;&gt;\\Views\\View -->
<g id="edge27" class="edge">
<title>\\Views\\OperatorDashboard&#45;&gt;\\Views\\View</title>
<path fill="none" stroke="#000000" d="M351.7915,-410.173C345.9411,-412.7822 340.2482,-415.7157 335,-419 300.1369,-440.8175 268.2748,-476.3366 248.7797,-500.6421"/>
<polygon fill="none" stroke="#000000" points="245.8483,-498.7075 242.4152,-508.7307 251.3496,-503.0362 245.8483,-498.7075"/>
</g>
<!-- \\Views\\View&#45;&gt;\\Interfaces\\Layoutable -->
<g id="edge28" class="edge">
<title>\\Views\\View&#45;&gt;\\Interfaces\\Layoutable</title>
<path fill="none" stroke="#000000" stroke-dasharray="1,5" d="M225.3689,-545.3716C204.5542,-650.6852 100.43,-1177.5079 75.0735,-1305.8004"/>
<polygon fill="none" stroke="#000000" points="71.6308,-1305.1682 73.1254,-1315.6571 78.498,-1306.5255 71.6308,-1305.1682"/>
</g>
</g>
</svg>
