<?xml version="1.0" encoding="UTF-8" standalone="no"?>
<!DOCTYPE svg PUBLIC "-//W3C//DTD SVG 1.1//EN"
 "http://www.w3.org/Graphics/SVG/1.1/DTD/svg11.dtd">
<!-- Generated by graphviz version 2.38.0 (20140413.2041)
 -->
<!-- Title: G Pages: 1 -->
<svg width="528pt" height="2044pt"
 viewBox="0.00 0.00 528.00 2044.00" xmlns="http://www.w3.org/2000/svg" xmlns:xlink="http://www.w3.org/1999/xlink">
<g id="graph0" class="graph" transform="scale(1 1) rotate(0) translate(4 2040)">
<title>G</title>
<polygon fill="white" stroke="none" points="-4,4 -4,-2040 524,-2040 524,4 -4,4"/>
<g id="clust1" class="cluster"><title>cluster_Global</title>
<polygon fill="none" stroke="black" points="8,-8 8,-2028 512,-2028 512,-8 8,-8"/>
<text text-anchor="middle" x="260" y="-2015.2" font-family="Times,serif" font-size="11.00" fill="gray">Global</text>
</g>
<g id="clust2" class="cluster"><title>cluster_\Controllers</title>
<polygon fill="none" stroke="black" points="19.5,-1820 19.5,-2000 489,-2000 489,-1820 19.5,-1820"/>
<text text-anchor="middle" x="254.25" y="-1987.2" font-family="Times,serif" font-size="11.00" fill="gray">Controllers</text>
</g>
<g id="clust3" class="cluster"><title>cluster_\Entities</title>
<polygon fill="none" stroke="black" points="179,-1012 179,-1354 459,-1354 459,-1012 179,-1012"/>
<text text-anchor="middle" x="319" y="-1341.2" font-family="Times,serif" font-size="11.00" fill="gray">Entities</text>
</g>
<g id="clust4" class="cluster"><title>cluster_\Helpers</title>
<polygon fill="none" stroke="black" points="365.5,-770 365.5,-1004 465.5,-1004 465.5,-770 365.5,-770"/>
<text text-anchor="middle" x="415.5" y="-991.2" font-family="Times,serif" font-size="11.00" fill="gray">Helpers</text>
</g>
<g id="clust5" class="cluster"><title>cluster_\Interfaces</title>
<polygon fill="none" stroke="black" points="16,-1362 16,-1650 123,-1650 123,-1362 16,-1362"/>
<text text-anchor="middle" x="69.5" y="-1637.2" font-family="Times,serif" font-size="11.00" fill="gray">Interfaces</text>
</g>
<g id="clust6" class="cluster"><title>cluster_\Layouts</title>
<polygon fill="none" stroke="black" points="182.5,-286 182.5,-466 275.5,-466 275.5,-286 182.5,-286"/>
<text text-anchor="middle" x="229" y="-453.2" font-family="Times,serif" font-size="11.00" fill="gray">Layouts</text>
</g>
<g id="clust7" class="cluster"><title>cluster_\Models</title>
<polygon fill="none" stroke="black" points="19.5,-16 19.5,-278 504,-278 504,-16 19.5,-16"/>
<text text-anchor="middle" x="261.75" y="-265.2" font-family="Times,serif" font-size="11.00" fill="gray">Models</text>
</g>
<g id="clust8" class="cluster"><title>cluster_\Models\Endpoints</title>
<polygon fill="none" stroke="black" points="335,-70 335,-250 496,-250 496,-70 335,-70"/>
<text text-anchor="middle" x="415.5" y="-237.2" font-family="Times,serif" font-size="11.00" fill="gray">Endpoints</text>
</g>
<g id="clust9" class="cluster"><title>cluster_\Templates</title>
<polygon fill="none" stroke="black" points="179,-1362 179,-1812 279,-1812 279,-1362 179,-1362"/>
<text text-anchor="middle" x="229" y="-1799.2" font-family="Times,serif" font-size="11.00" fill="gray">Templates</text>
</g>
<g id="clust10" class="cluster"><title>cluster_\Views</title>
<polygon fill="none" stroke="black" points="179,-474 179,-762 489,-762 489,-474 179,-474"/>
<text text-anchor="middle" x="334" y="-749.2" font-family="Times,serif" font-size="11.00" fill="gray">Views</text>
</g>
<!-- \\Controllers\\API -->
<g id="node1" class="node"><title>\\Controllers\\API</title>
<polygon fill="none" stroke="black" points="271,-1918 187,-1918 187,-1882 271,-1882 271,-1918"/>
<text text-anchor="start" x="195" y="-1903.2" font-family="Courier,monospace" font-size="11.00">«abstract»</text>
<text text-anchor="start" x="218.5" y="-1891.2" font-family="Courier,monospace" font-size="11.00">API</text>
</g>
<!-- \\Controllers\\Controller -->
<g id="node3" class="node"><title>\\Controllers\\Controller</title>
<polygon fill="none" stroke="black" points="111.5,-1918 27.5,-1918 27.5,-1882 111.5,-1882 111.5,-1918"/>
<text text-anchor="start" x="35.5" y="-1903.2" font-family="Courier,monospace" font-size="11.00">«abstract»</text>
<text text-anchor="start" x="35.5" y="-1891.2" font-family="Courier,monospace" font-size="11.00">Controller</text>
</g>
<!-- \\Controllers\\API&#45;&gt;\\Controllers\\Controller -->
<g id="edge1" class="edge"><title>\\Controllers\\API&#45;&gt;\\Controllers\\Controller</title>
<path fill="none" stroke="black" d="M186.619,-1900C166.724,-1900 142.687,-1900 121.656,-1900"/>
<polygon fill="none" stroke="black" points="121.605,-1896.5 111.605,-1900 121.605,-1903.5 121.605,-1896.5"/>
</g>
<!-- \\Controllers\\ComparOperatorAPI -->
<g id="node2" class="node"><title>\\Controllers\\ComparOperatorAPI</title>
<polygon fill="none" stroke="black" points="481,-1918 350,-1918 350,-1882 481,-1882 481,-1918"/>
<text text-anchor="middle" x="415.5" y="-1897.2" font-family="Courier,monospace" font-size="11.00">ComparOperatorAPI</text>
</g>
<!-- \\Controllers\\ComparOperatorAPI&#45;&gt;\\Controllers\\API -->
<g id="edge2" class="edge"><title>\\Controllers\\ComparOperatorAPI&#45;&gt;\\Controllers\\API</title>
<path fill="none" stroke="black" d="M349.971,-1900C327.467,-1900 302.536,-1900 281.258,-1900"/>
<polygon fill="none" stroke="black" points="281.133,-1896.5 271.133,-1900 281.133,-1903.5 281.133,-1896.5"/>
</g>
<!-- \\Controllers\\Dashboard -->
<g id="node4" class="node"><title>\\Controllers\\Dashboard</title>
<polygon fill="none" stroke="black" points="267.5,-1864 190.5,-1864 190.5,-1828 267.5,-1828 267.5,-1864"/>
<text text-anchor="middle" x="229" y="-1843.2" font-family="Courier,monospace" font-size="11.00">Dashboard</text>
</g>
<!-- \\Controllers\\Dashboard&#45;&gt;\\Controllers\\Controller -->
<g id="edge3" class="edge"><title>\\Controllers\\Dashboard&#45;&gt;\\Controllers\\Controller</title>
<path fill="none" stroke="black" d="M190.275,-1858.93C169.584,-1866.03 143.651,-1874.92 121.212,-1882.61"/>
<polygon fill="none" stroke="black" points="119.832,-1879.39 111.508,-1885.94 122.102,-1886.01 119.832,-1879.39"/>
</g>
<!-- \\Controllers\\Home -->
<g id="node5" class="node"><title>\\Controllers\\Home</title>
<polygon fill="none" stroke="black" points="256,-1972 202,-1972 202,-1936 256,-1936 256,-1972"/>
<text text-anchor="middle" x="229" y="-1951.2" font-family="Courier,monospace" font-size="11.00">Home</text>
</g>
<!-- \\Controllers\\Home&#45;&gt;\\Controllers\\Controller -->
<g id="edge4" class="edge"><title>\\Controllers\\Home&#45;&gt;\\Controllers\\Controller</title>
<path fill="none" stroke="black" d="M201.992,-1945.08C180.126,-1937.59 148.219,-1926.65 121.312,-1917.42"/>
<polygon fill="none" stroke="black" points="122.248,-1914.04 111.653,-1914.11 119.977,-1920.66 122.248,-1914.04"/>
</g>
<!-- \\Entities\\Entity -->
<g id="node6" class="node"><title>\\Entities\\Entity</title>
<polygon fill="none" stroke="black" points="271,-1218 187,-1218 187,-1182 271,-1182 271,-1218"/>
<text text-anchor="start" x="195" y="-1203.2" font-family="Courier,monospace" font-size="11.00">«abstract»</text>
<text text-anchor="start" x="208.5" y="-1191.2" font-family="Courier,monospace" font-size="11.00">Entity</text>
</g>
<!-- \\Interfaces\\Validatable -->
<g id="node21" class="node"><title>\\Interfaces\\Validatable</title>
<polygon fill="none" stroke="black" points="115,-1568 24,-1568 24,-1532 115,-1532 115,-1568"/>
<text text-anchor="middle" x="69.5" y="-1547.2" font-family="Courier,monospace" font-size="11.00">Validatable</text>
</g>
<!-- \\Entities\\Entity&#45;&gt;\\Interfaces\\Validatable -->
<g id="edge5" class="edge"><title>\\Entities\\Entity&#45;&gt;\\Interfaces\\Validatable</title>
<path fill="none" stroke="black" stroke-dasharray="1,5" d="M222.237,-1218.37C201.02,-1285.9 128.218,-1516.87 123,-1523 122.39,-1523.72 121.756,-1524.42 121.1,-1525.1"/>
<polygon fill="none" stroke="black" points="118.628,-1522.61 113.376,-1531.81 123.22,-1527.9 118.628,-1522.61"/>
</g>
<!-- \\Entities\\Generic -->
<g id="node7" class="node"><title>\\Entities\\Generic</title>
<polygon fill="none" stroke="black" points="447.5,-1110 383.5,-1110 383.5,-1074 447.5,-1074 447.5,-1110"/>
<text text-anchor="middle" x="415.5" y="-1089.2" font-family="Courier,monospace" font-size="11.00">Generic</text>
</g>
<!-- \\Entities\\Generic&#45;&gt;\\Entities\\Entity -->
<g id="edge6" class="edge"><title>\\Entities\\Generic&#45;&gt;\\Entities\\Entity</title>
<path fill="none" stroke="black" d="M383.316,-1099.99C368.233,-1104.5 350.158,-1110.87 335,-1119 306.341,-1134.37 277.342,-1157.44 257.103,-1175.03"/>
<polygon fill="none" stroke="black" points="254.709,-1172.47 249.527,-1181.72 259.341,-1177.72 254.709,-1172.47"/>
</g>
<!-- \\Entities\\Location -->
<g id="node8" class="node"><title>\\Entities\\Location</title>
<polygon fill="none" stroke="black" points="451,-1056 380,-1056 380,-1020 451,-1020 451,-1056"/>
<text text-anchor="middle" x="415.5" y="-1035.2" font-family="Courier,monospace" font-size="11.00">Location</text>
</g>
<!-- \\Entities\\Location&#45;&gt;\\Entities\\Entity -->
<g id="edge7" class="edge"><title>\\Entities\\Location&#45;&gt;\\Entities\\Entity</title>
<path fill="none" stroke="black" d="M379.961,-1045.03C365.18,-1049.18 348.3,-1055.53 335,-1065 294.444,-1093.87 261.974,-1142.83 244.393,-1173.18"/>
<polygon fill="none" stroke="black" points="241.304,-1171.53 239.423,-1181.96 247.395,-1174.98 241.304,-1171.53"/>
</g>
<!-- \\Entities\\Offering -->
<g id="node9" class="node"><title>\\Entities\\Offering</title>
<polygon fill="none" stroke="black" points="451,-1326 380,-1326 380,-1290 451,-1290 451,-1326"/>
<text text-anchor="middle" x="415.5" y="-1305.2" font-family="Courier,monospace" font-size="11.00">Offering</text>
</g>
<!-- \\Entities\\Offering&#45;&gt;\\Entities\\Entity -->
<g id="edge8" class="edge"><title>\\Entities\\Offering&#45;&gt;\\Entities\\Entity</title>
<path fill="none" stroke="black" d="M379.815,-1298.94C365.493,-1294.52 349.002,-1288.51 335,-1281 306.341,-1265.63 277.342,-1242.56 257.103,-1224.97"/>
<polygon fill="none" stroke="black" points="259.341,-1222.28 249.527,-1218.28 254.709,-1227.53 259.341,-1222.28"/>
</g>
<!-- \\Entities\\Operator -->
<g id="node10" class="node"><title>\\Entities\\Operator</title>
<polygon fill="none" stroke="black" points="451,-1272 380,-1272 380,-1236 451,-1236 451,-1272"/>
<text text-anchor="middle" x="415.5" y="-1251.2" font-family="Courier,monospace" font-size="11.00">Operator</text>
</g>
<!-- \\Entities\\Operator&#45;&gt;\\Entities\\Entity -->
<g id="edge9" class="edge"><title>\\Entities\\Operator&#45;&gt;\\Entities\\Entity</title>
<path fill="none" stroke="black" d="M379.797,-1243.84C352.011,-1235.71 312.626,-1224.18 281.215,-1214.99"/>
<polygon fill="none" stroke="black" points="281.902,-1211.54 271.321,-1212.09 279.935,-1218.26 281.902,-1211.54"/>
</g>
<!-- \\Entities\\Review -->
<g id="node11" class="node"><title>\\Entities\\Review</title>
<polygon fill="none" stroke="black" points="444,-1218 387,-1218 387,-1182 444,-1182 444,-1218"/>
<text text-anchor="middle" x="415.5" y="-1197.2" font-family="Courier,monospace" font-size="11.00">Review</text>
</g>
<!-- \\Entities\\Review&#45;&gt;\\Entities\\Entity -->
<g id="edge10" class="edge"><title>\\Entities\\Review&#45;&gt;\\Entities\\Entity</title>
<path fill="none" stroke="black" d="M386.878,-1200C359.092,-1200 315.586,-1200 281.431,-1200"/>
<polygon fill="none" stroke="black" points="281.159,-1196.5 271.159,-1200 281.159,-1203.5 281.159,-1196.5"/>
</g>
<!-- \\Entities\\User -->
<g id="node12" class="node"><title>\\Entities\\User</title>
<polygon fill="none" stroke="black" points="442.5,-1164 388.5,-1164 388.5,-1128 442.5,-1128 442.5,-1164"/>
<text text-anchor="middle" x="415.5" y="-1143.2" font-family="Courier,monospace" font-size="11.00">User</text>
</g>
<!-- \\Entities\\User&#45;&gt;\\Entities\\Entity -->
<g id="edge11" class="edge"><title>\\Entities\\User&#45;&gt;\\Entities\\Entity</title>
<path fill="none" stroke="black" d="M388.457,-1153.62C360.702,-1161.75 316.048,-1174.82 281.206,-1185.01"/>
<polygon fill="none" stroke="black" points="279.814,-1181.77 271.2,-1187.94 281.781,-1188.49 279.814,-1181.77"/>
</g>
<!-- \\Helpers\\Cache -->
<g id="node13" class="node"><title>\\Helpers\\Cache</title>
<polygon fill="none" stroke="black" points="442.5,-976 388.5,-976 388.5,-940 442.5,-940 442.5,-976"/>
<text text-anchor="middle" x="415.5" y="-955.2" font-family="Courier,monospace" font-size="11.00">Cache</text>
</g>
<!-- \\Helpers\\CacheItem -->
<g id="node14" class="node"><title>\\Helpers\\CacheItem</title>
<polygon fill="none" stroke="black" points="454,-922 377,-922 377,-886 454,-886 454,-922"/>
<text text-anchor="middle" x="415.5" y="-901.2" font-family="Courier,monospace" font-size="11.00">CacheItem</text>
</g>
<!-- \\Helpers\\DB -->
<g id="node15" class="node"><title>\\Helpers\\DB</title>
<polygon fill="none" stroke="black" points="442.5,-868 388.5,-868 388.5,-832 442.5,-832 442.5,-868"/>
<text text-anchor="middle" x="415.5" y="-847.2" font-family="Courier,monospace" font-size="11.00">DB</text>
</g>
<!-- \\Helpers\\Dispatcher -->
<g id="node16" class="node"><title>\\Helpers\\Dispatcher</title>
<polygon fill="none" stroke="black" points="457.5,-814 373.5,-814 373.5,-778 457.5,-778 457.5,-814"/>
<text text-anchor="middle" x="415.5" y="-793.2" font-family="Courier,monospace" font-size="11.00">Dispatcher</text>
</g>
<!-- \\Interfaces\\Cacheable -->
<g id="node17" class="node"><title>\\Interfaces\\Cacheable</title>
<polygon fill="none" stroke="black" points="108,-1622 31,-1622 31,-1586 108,-1586 108,-1622"/>
<text text-anchor="middle" x="69.5" y="-1601.2" font-family="Courier,monospace" font-size="11.00">Cacheable</text>
</g>
<!-- \\Interfaces\\Layoutable -->
<g id="node18" class="node"><title>\\Interfaces\\Layoutable</title>
<polygon fill="none" stroke="black" points="111.5,-1406 27.5,-1406 27.5,-1370 111.5,-1370 111.5,-1406"/>
<text text-anchor="middle" x="69.5" y="-1385.2" font-family="Courier,monospace" font-size="11.00">Layoutable</text>
</g>
<!-- \\Interfaces\\Loadable -->
<g id="node19" class="node"><title>\\Interfaces\\Loadable</title>
<polygon fill="none" stroke="black" points="105,-1514 34,-1514 34,-1478 105,-1478 105,-1514"/>
<text text-anchor="middle" x="69.5" y="-1493.2" font-family="Courier,monospace" font-size="11.00">Loadable</text>
</g>
<!-- \\Interfaces\\Templatable -->
<g id="node20" class="node"><title>\\Interfaces\\Templatable</title>
<polygon fill="none" stroke="black" points="115,-1460 24,-1460 24,-1424 115,-1424 115,-1460"/>
<text text-anchor="middle" x="69.5" y="-1439.2" font-family="Courier,monospace" font-size="11.00">Templatable</text>
</g>
<!-- \\Layouts\\Dashboard -->
<g id="node22" class="node"><title>\\Layouts\\Dashboard</title>
<polygon fill="none" stroke="black" points="267.5,-384 190.5,-384 190.5,-348 267.5,-348 267.5,-384"/>
<text text-anchor="middle" x="229" y="-363.2" font-family="Courier,monospace" font-size="11.00">Dashboard</text>
</g>
<!-- \\Layouts\\Dashboard&#45;&gt;\\Interfaces\\Templatable -->
<g id="edge12" class="edge"><title>\\Layouts\\Dashboard&#45;&gt;\\Interfaces\\Templatable</title>
<path fill="none" stroke="black" stroke-dasharray="1,5" d="M190.307,-381.256C185.866,-384.512 181.894,-388.394 179,-393 57.9968,-585.594 246.746,-1224.16 123,-1415 122.735,-1415.41 122.462,-1415.81 122.181,-1416.21"/>
<polygon fill="none" stroke="black" points="119.465,-1413.99 115.263,-1423.72 124.613,-1418.73 119.465,-1413.99"/>
</g>
<!-- \\Layouts\\Home -->
<g id="node23" class="node"><title>\\Layouts\\Home</title>
<polygon fill="none" stroke="black" points="256,-330 202,-330 202,-294 256,-294 256,-330"/>
<text text-anchor="middle" x="229" y="-309.2" font-family="Courier,monospace" font-size="11.00">Home</text>
</g>
<!-- \\Layouts\\Home&#45;&gt;\\Interfaces\\Templatable -->
<g id="edge13" class="edge"><title>\\Layouts\\Home&#45;&gt;\\Interfaces\\Templatable</title>
<path fill="none" stroke="black" stroke-dasharray="1,5" d="M201.847,-320.442C193.106,-324.612 184.259,-330.604 179,-339 51.9,-541.915 252.99,-1213.92 123,-1415 122.736,-1415.41 122.463,-1415.81 122.183,-1416.21"/>
<polygon fill="none" stroke="black" points="119.465,-1413.99 115.273,-1423.72 124.618,-1418.73 119.465,-1413.99"/>
</g>
<!-- \\Layouts\\Minimal -->
<g id="node24" class="node"><title>\\Layouts\\Minimal</title>
<polygon fill="none" stroke="black" points="261,-438 197,-438 197,-402 261,-402 261,-438"/>
<text text-anchor="middle" x="229" y="-417.2" font-family="Courier,monospace" font-size="11.00">Minimal</text>
</g>
<!-- \\Layouts\\Minimal&#45;&gt;\\Interfaces\\Templatable -->
<g id="edge14" class="edge"><title>\\Layouts\\Minimal&#45;&gt;\\Interfaces\\Templatable</title>
<path fill="none" stroke="black" stroke-dasharray="1,5" d="M203.91,-438.081C194.405,-446.628 184.467,-457.666 179,-470 93.7498,-662.321 237.844,-1238.75 123,-1415 122.734,-1415.41 122.46,-1415.81 122.178,-1416.21"/>
<polygon fill="none" stroke="black" points="119.464,-1413.99 115.248,-1423.71 124.605,-1418.74 119.464,-1413.99"/>
</g>
<!-- \\Models\\Endpoints\\DestinationEndpoint -->
<g id="node25" class="node"><title>\\Models\\Endpoints\\DestinationEndpoint</title>
<polygon fill="none" stroke="black" points="488,-222 343,-222 343,-186 488,-186 488,-222"/>
<text text-anchor="middle" x="415.5" y="-201.2" font-family="Courier,monospace" font-size="11.00">DestinationEndpoint</text>
</g>
<!-- \\Models\\Endpoints\\OperatorEndpoint -->
<g id="node26" class="node"><title>\\Models\\Endpoints\\OperatorEndpoint</title>
<polygon fill="none" stroke="black" points="478,-168 353,-168 353,-132 478,-132 478,-168"/>
<text text-anchor="middle" x="415.5" y="-147.2" font-family="Courier,monospace" font-size="11.00">OperatorEndpoint</text>
</g>
<!-- \\Models\\Endpoints\\UserEndpoint -->
<g id="node27" class="node"><title>\\Models\\Endpoints\\UserEndpoint</title>
<polygon fill="none" stroke="black" points="464.5,-114 366.5,-114 366.5,-78 464.5,-78 464.5,-114"/>
<text text-anchor="middle" x="415.5" y="-93.2" font-family="Courier,monospace" font-size="11.00">UserEndpoint</text>
</g>
<!-- \\Models\\ComparOperatorAPI -->
<g id="node28" class="node"><title>\\Models\\ComparOperatorAPI</title>
<polygon fill="none" stroke="black" points="481,-60 350,-60 350,-24 481,-24 481,-60"/>
<text text-anchor="middle" x="415.5" y="-39.2" font-family="Courier,monospace" font-size="11.00">ComparOperatorAPI</text>
</g>
<!-- \\Models\\DBPDO -->
<g id="node29" class="node"><title>\\Models\\DBPDO</title>
<polygon fill="none" stroke="black" points="256,-60 202,-60 202,-24 256,-24 256,-60"/>
<text text-anchor="middle" x="229" y="-39.2" font-family="Courier,monospace" font-size="11.00">DBPDO</text>
</g>
<!-- \\Models\\ComparOperatorAPI&#45;&gt;\\Models\\DBPDO -->
<g id="edge15" class="edge"><title>\\Models\\ComparOperatorAPI&#45;&gt;\\Models\\DBPDO</title>
<path fill="none" stroke="black" d="M349.971,-42C321.91,-42 290.076,-42 266.255,-42"/>
<polygon fill="none" stroke="black" points="266.245,-38.5001 256.245,-42 266.244,-45.5001 266.245,-38.5001"/>
</g>
<!-- \\Models\\Model -->
<g id="node30" class="node"><title>\\Models\\Model</title>
<polygon fill="none" stroke="black" points="111.5,-60 27.5,-60 27.5,-24 111.5,-24 111.5,-60"/>
<text text-anchor="start" x="35.5" y="-45.2" font-family="Courier,monospace" font-size="11.00">«abstract»</text>
<text text-anchor="start" x="52.5" y="-33.2" font-family="Courier,monospace" font-size="11.00">Model</text>
</g>
<!-- \\Models\\DBPDO&#45;&gt;\\Models\\Model -->
<g id="edge16" class="edge"><title>\\Models\\DBPDO&#45;&gt;\\Models\\Model</title>
<path fill="none" stroke="black" d="M201.992,-42C180.222,-42 148.499,-42 121.666,-42"/>
<polygon fill="none" stroke="black" points="121.653,-38.5001 111.653,-42 121.653,-45.5001 121.653,-38.5001"/>
</g>
<!-- \\Templates\\Console -->
<g id="node31" class="node"><title>\\Templates\\Console</title>
<polygon fill="none" stroke="black" points="261,-1676 197,-1676 197,-1640 261,-1640 261,-1676"/>
<text text-anchor="middle" x="229" y="-1655.2" font-family="Courier,monospace" font-size="11.00">Console</text>
</g>
<!-- \\Templates\\Console&#45;&gt;\\Interfaces\\Templatable -->
<g id="edge17" class="edge"><title>\\Templates\\Console&#45;&gt;\\Interfaces\\Templatable</title>
<path fill="none" stroke="black" stroke-dasharray="1,5" d="M196.953,-1645.4C190.336,-1641.56 183.881,-1636.79 179,-1631 129.924,-1572.73 172.905,-1526.56 123,-1469 122.278,-1468.17 121.524,-1467.36 120.743,-1466.57"/>
<polygon fill="none" stroke="black" points="122.949,-1463.85 113.058,-1460.06 118.423,-1469.19 122.949,-1463.85"/>
</g>
<!-- \\Templates\\Fonts -->
<g id="node32" class="node"><title>\\Templates\\Fonts</title>
<polygon fill="none" stroke="black" points="256,-1622 202,-1622 202,-1586 256,-1586 256,-1622"/>
<text text-anchor="middle" x="229" y="-1601.2" font-family="Courier,monospace" font-size="11.00">Fonts</text>
</g>
<!-- \\Templates\\Fonts&#45;&gt;\\Interfaces\\Templatable -->
<g id="edge18" class="edge"><title>\\Templates\\Fonts&#45;&gt;\\Interfaces\\Templatable</title>
<path fill="none" stroke="black" stroke-dasharray="1,5" d="M201.879,-1593.23C193.85,-1589.03 185.442,-1583.61 179,-1577 141.254,-1538.29 161.296,-1507.17 123,-1469 122.081,-1468.08 121.125,-1467.19 120.137,-1466.33"/>
<polygon fill="none" stroke="black" points="122.12,-1463.44 112.046,-1460.16 117.875,-1469 122.12,-1463.44"/>
</g>
<!-- \\Templates\\Footer -->
<g id="node33" class="node"><title>\\Templates\\Footer</title>
<polygon fill="none" stroke="black" points="257.5,-1568 200.5,-1568 200.5,-1532 257.5,-1532 257.5,-1568"/>
<text text-anchor="middle" x="229" y="-1547.2" font-family="Courier,monospace" font-size="11.00">Footer</text>
</g>
<!-- \\Templates\\Footer&#45;&gt;\\Interfaces\\Templatable -->
<g id="edge19" class="edge"><title>\\Templates\\Footer&#45;&gt;\\Interfaces\\Templatable</title>
<path fill="none" stroke="black" stroke-dasharray="1,5" d="M200.257,-1536.37C193.099,-1532.41 185.566,-1527.84 179,-1523 151.173,-1502.48 151.118,-1489.12 123,-1469 121.205,-1467.72 119.341,-1466.46 117.432,-1465.23"/>
<polygon fill="none" stroke="black" points="119.217,-1462.22 108.848,-1460.04 115.599,-1468.21 119.217,-1462.22"/>
</g>
<!-- \\Templates\\Image -->
<g id="node34" class="node"><title>\\Templates\\Image</title>
<polygon fill="none" stroke="black" points="256,-1514 202,-1514 202,-1478 256,-1478 256,-1514"/>
<text text-anchor="middle" x="229" y="-1493.2" font-family="Courier,monospace" font-size="11.00">Image</text>
</g>
<!-- \\Templates\\Image&#45;&gt;\\Interfaces\\Templatable -->
<g id="edge20" class="edge"><title>\\Templates\\Image&#45;&gt;\\Interfaces\\Templatable</title>
<path fill="none" stroke="black" stroke-dasharray="1,5" d="M201.992,-1487.08C181.074,-1479.91 150.967,-1469.59 124.839,-1460.63"/>
<polygon fill="none" stroke="black" points="125.642,-1457.21 115.048,-1457.27 123.372,-1463.83 125.642,-1457.21"/>
</g>
<!-- \\Templates\\InlinedCss -->
<g id="node35" class="node"><title>\\Templates\\InlinedCss</title>
<polygon fill="none" stroke="black" points="271,-1460 187,-1460 187,-1424 271,-1424 271,-1460"/>
<text text-anchor="middle" x="229" y="-1439.2" font-family="Courier,monospace" font-size="11.00">InlinedCss</text>
</g>
<!-- \\Templates\\InlinedCss&#45;&gt;\\Interfaces\\Templatable -->
<g id="edge21" class="edge"><title>\\Templates\\InlinedCss&#45;&gt;\\Interfaces\\Templatable</title>
<path fill="none" stroke="black" stroke-dasharray="1,5" d="M186.619,-1442C167.914,-1442 145.548,-1442 125.461,-1442"/>
<polygon fill="none" stroke="black" points="125.195,-1438.5 115.195,-1442 125.195,-1445.5 125.195,-1438.5"/>
</g>
<!-- \\Templates\\InlinedJs -->
<g id="node36" class="node"><title>\\Templates\\InlinedJs</title>
<polygon fill="none" stroke="black" points="267.5,-1406 190.5,-1406 190.5,-1370 267.5,-1370 267.5,-1406"/>
<text text-anchor="middle" x="229" y="-1385.2" font-family="Courier,monospace" font-size="11.00">InlinedJs</text>
</g>
<!-- \\Templates\\InlinedJs&#45;&gt;\\Interfaces\\Templatable -->
<g id="edge22" class="edge"><title>\\Templates\\InlinedJs&#45;&gt;\\Interfaces\\Templatable</title>
<path fill="none" stroke="black" stroke-dasharray="1,5" d="M190.275,-1400.93C170.703,-1407.64 146.44,-1415.96 124.881,-1423.36"/>
<polygon fill="none" stroke="black" points="123.516,-1420.12 115.192,-1426.68 125.787,-1426.74 123.516,-1420.12"/>
</g>
<!-- \\Templates\\Nav -->
<g id="node37" class="node"><title>\\Templates\\Nav</title>
<polygon fill="none" stroke="black" points="256,-1784 202,-1784 202,-1748 256,-1748 256,-1784"/>
<text text-anchor="middle" x="229" y="-1763.2" font-family="Courier,monospace" font-size="11.00">Nav</text>
</g>
<!-- \\Templates\\Nav&#45;&gt;\\Interfaces\\Templatable -->
<g id="edge23" class="edge"><title>\\Templates\\Nav&#45;&gt;\\Interfaces\\Templatable</title>
<path fill="none" stroke="black" stroke-dasharray="1,5" d="M201.76,-1756.72C193.332,-1752.53 184.71,-1746.74 179,-1739 106.221,-1640.4 197.182,-1566.55 123,-1469 122.535,-1468.39 122.052,-1467.79 121.552,-1467.2"/>
<polygon fill="none" stroke="black" points="123.912,-1464.62 114.255,-1460.26 119.087,-1469.69 123.912,-1464.62"/>
</g>
<!-- \\Templates\\Table -->
<g id="node38" class="node"><title>\\Templates\\Table</title>
<polygon fill="none" stroke="black" points="256,-1730 202,-1730 202,-1694 256,-1694 256,-1730"/>
<text text-anchor="middle" x="229" y="-1709.2" font-family="Courier,monospace" font-size="11.00">Table</text>
</g>
<!-- \\Templates\\Table&#45;&gt;\\Interfaces\\Templatable -->
<g id="edge24" class="edge"><title>\\Templates\\Table&#45;&gt;\\Interfaces\\Templatable</title>
<path fill="none" stroke="black" stroke-dasharray="1,5" d="M201.972,-1702.56C193.563,-1698.35 184.899,-1692.59 179,-1685 118.162,-1606.68 184.953,-1546.44 123,-1469 122.412,-1468.26 121.798,-1467.55 121.162,-1466.85"/>
<polygon fill="none" stroke="black" points="123.356,-1464.11 113.587,-1460.01 118.666,-1469.31 123.356,-1464.11"/>
</g>
<!-- \\Views\\AdminDashboard -->
<g id="node39" class="node"><title>\\Views\\AdminDashboard</title>
<polygon fill="none" stroke="black" points="471,-734 360,-734 360,-698 471,-698 471,-734"/>
<text text-anchor="middle" x="415.5" y="-713.2" font-family="Courier,monospace" font-size="11.00">AdminDashboard</text>
</g>
<!-- \\Views\\View -->
<g id="node44" class="node"><title>\\Views\\View</title>
<polygon fill="none" stroke="black" points="271,-653 187,-653 187,-617 271,-617 271,-653"/>
<text text-anchor="start" x="195" y="-638.2" font-family="Courier,monospace" font-size="11.00">«abstract»</text>
<text text-anchor="start" x="215" y="-626.2" font-family="Courier,monospace" font-size="11.00">View</text>
</g>
<!-- \\Views\\AdminDashboard&#45;&gt;\\Views\\View -->
<g id="edge25" class="edge"><title>\\Views\\AdminDashboard&#45;&gt;\\Views\\View</title>
<path fill="none" stroke="black" d="M359.787,-698.608C351.408,-695.603 342.917,-692.359 335,-689 313.431,-679.85 290.192,-668.106 271.073,-657.909"/>
<polygon fill="none" stroke="black" points="272.507,-654.706 262.044,-653.045 269.188,-660.869 272.507,-654.706"/>
</g>
<!-- \\Views\\Error404 -->
<g id="node40" class="node"><title>\\Views\\Error404</title>
<polygon fill="none" stroke="black" points="451,-680 380,-680 380,-644 451,-644 451,-680"/>
<text text-anchor="middle" x="415.5" y="-659.2" font-family="Courier,monospace" font-size="11.00">Error404</text>
</g>
<!-- \\Views\\Error404&#45;&gt;\\Views\\View -->
<g id="edge26" class="edge"><title>\\Views\\Error404&#45;&gt;\\Views\\View</title>
<path fill="none" stroke="black" d="M379.797,-656.922C352.131,-652.873 312.967,-647.142 281.623,-642.555"/>
<polygon fill="none" stroke="black" points="281.722,-639.032 271.321,-641.047 280.709,-645.958 281.722,-639.032"/>
</g>
<!-- \\Views\\Home -->
<g id="node41" class="node"><title>\\Views\\Home</title>
<polygon fill="none" stroke="black" points="442.5,-626 388.5,-626 388.5,-590 442.5,-590 442.5,-626"/>
<text text-anchor="middle" x="415.5" y="-605.2" font-family="Courier,monospace" font-size="11.00">Home</text>
</g>
<!-- \\Views\\Home&#45;&gt;\\Views\\View -->
<g id="edge27" class="edge"><title>\\Views\\Home&#45;&gt;\\Views\\View</title>
<path fill="none" stroke="black" d="M388.457,-611.811C360.702,-615.873 316.048,-622.408 281.206,-627.507"/>
<polygon fill="none" stroke="black" points="280.588,-624.06 271.2,-628.971 281.601,-630.986 280.588,-624.06"/>
</g>
<!-- \\Views\\OfferingList -->
<g id="node42" class="node"><title>\\Views\\OfferingList</title>
<polygon fill="none" stroke="black" points="464.5,-572 366.5,-572 366.5,-536 464.5,-536 464.5,-572"/>
<text text-anchor="middle" x="415.5" y="-551.2" font-family="Courier,monospace" font-size="11.00">OfferingList</text>
</g>
<!-- \\Views\\OfferingList&#45;&gt;\\Views\\View -->
<g id="edge28" class="edge"><title>\\Views\\OfferingList&#45;&gt;\\Views\\View</title>
<path fill="none" stroke="black" d="M366.145,-569.149C355.762,-572.754 344.93,-576.788 335,-581 313.431,-590.15 290.192,-601.894 271.073,-612.091"/>
<polygon fill="none" stroke="black" points="269.188,-609.131 262.044,-616.955 272.507,-615.294 269.188,-609.131"/>
</g>
<!-- \\Views\\OperatorDashboard -->
<g id="node43" class="node"><title>\\Views\\OperatorDashboard</title>
<polygon fill="none" stroke="black" points="481,-518 350,-518 350,-482 481,-482 481,-518"/>
<text text-anchor="middle" x="415.5" y="-497.2" font-family="Courier,monospace" font-size="11.00">OperatorDashboard</text>
</g>
<!-- \\Views\\OperatorDashboard&#45;&gt;\\Views\\View -->
<g id="edge29" class="edge"><title>\\Views\\OperatorDashboard&#45;&gt;\\Views\\View</title>
<path fill="none" stroke="black" d="M351.98,-518.018C346.061,-520.668 340.299,-523.652 335,-527 300.391,-548.865 268.846,-584.373 249.559,-608.663"/>
<polygon fill="none" stroke="black" points="246.647,-606.706 243.263,-616.747 252.17,-611.008 246.647,-606.706"/>
</g>
<!-- \\Views\\View&#45;&gt;\\Interfaces\\Layoutable -->
<g id="edge30" class="edge"><title>\\Views\\View&#45;&gt;\\Interfaces\\Layoutable</title>
<path fill="none" stroke="black" stroke-dasharray="1,5" d="M224.185,-653.24C203.208,-753.53 101.929,-1237.74 76.3682,-1359.94"/>
<polygon fill="none" stroke="black" points="72.8866,-1359.49 74.265,-1370 79.7383,-1360.93 72.8866,-1359.49"/>
</g>
</g>
</svg>
