<?xml version="1.0" encoding="UTF-8" standalone="no"?>
<!DOCTYPE svg PUBLIC "-//W3C//DTD SVG 1.1//EN"
 "http://www.w3.org/Graphics/SVG/1.1/DTD/svg11.dtd">
<!-- Generated by graphviz version 2.40.1 (20161225.0304)
 -->
<!-- Title: G Pages: 1 -->
<svg width="506pt" height="1746pt"
 viewBox="0.00 0.00 506.00 1746.00" xmlns="http://www.w3.org/2000/svg" xmlns:xlink="http://www.w3.org/1999/xlink">
<g id="graph0" class="graph" transform="scale(1 1) rotate(0) translate(4 1742)">
<title>G</title>
<polygon fill="#ffffff" stroke="transparent" points="-4,4 -4,-1742 502,-1742 502,4 -4,4"/>
<g id="clust1" class="cluster">
<title>cluster_Global</title>
<polygon fill="none" stroke="#000000" points="8,-8 8,-1730 490,-1730 490,-8 8,-8"/>
<text text-anchor="middle" x="249" y="-1717.2" font-family="Times,serif" font-size="11.00" fill="#c0c0c0">Global</text>
</g>
<g id="clust2" class="cluster">
<title>cluster_\Controllers</title>
<polygon fill="none" stroke="#000000" points="19.5,-1522 19.5,-1702 482,-1702 482,-1522 19.5,-1522"/>
<text text-anchor="middle" x="250.75" y="-1689.2" font-family="Times,serif" font-size="11.00" fill="#c0c0c0">Controllers</text>
</g>
<g id="clust3" class="cluster">
<title>cluster_\Entities</title>
<polygon fill="none" stroke="#000000" points="179,-714 179,-1056 452,-1056 452,-714 179,-714"/>
<text text-anchor="middle" x="315.5" y="-1043.2" font-family="Times,serif" font-size="11.00" fill="#c0c0c0">Entities</text>
</g>
<g id="clust4" class="cluster">
<title>cluster_\Helpers</title>
<polygon fill="none" stroke="#000000" points="358.5,-472 358.5,-706 458.5,-706 458.5,-472 358.5,-472"/>
<text text-anchor="middle" x="408.5" y="-693.2" font-family="Times,serif" font-size="11.00" fill="#c0c0c0">Helpers</text>
</g>
<g id="clust5" class="cluster">
<title>cluster_\Interfaces</title>
<polygon fill="none" stroke="#000000" points="16,-1118 16,-1406 123,-1406 123,-1118 16,-1118"/>
<text text-anchor="middle" x="69.5" y="-1393.2" font-family="Times,serif" font-size="11.00" fill="#c0c0c0">Interfaces</text>
</g>
<g id="clust6" class="cluster">
<title>cluster_\Layouts</title>
<polygon fill="none" stroke="#000000" points="189,-96 189,-168 269,-168 269,-96 189,-96"/>
<text text-anchor="middle" x="229" y="-155.2" font-family="Times,serif" font-size="11.00" fill="#c0c0c0">Layouts</text>
</g>
<g id="clust7" class="cluster">
<title>cluster_\Models</title>
<polygon fill="none" stroke="#000000" points="19.5,-16 19.5,-88 482,-88 482,-16 19.5,-16"/>
<text text-anchor="middle" x="250.75" y="-75.2" font-family="Times,serif" font-size="11.00" fill="#c0c0c0">Models</text>
</g>
<g id="clust8" class="cluster">
<title>cluster_\Templates</title>
<polygon fill="none" stroke="#000000" points="179,-1064 179,-1514 279,-1514 279,-1064 179,-1064"/>
<text text-anchor="middle" x="229" y="-1501.2" font-family="Times,serif" font-size="11.00" fill="#c0c0c0">Templates</text>
</g>
<g id="clust9" class="cluster">
<title>cluster_\Views</title>
<polygon fill="none" stroke="#000000" points="179,-176 179,-464 482,-464 482,-176 179,-176"/>
<text text-anchor="middle" x="330.5" y="-451.2" font-family="Times,serif" font-size="11.00" fill="#c0c0c0">Views</text>
</g>
<!-- \\Controllers\\API -->
<g id="node1" class="node">
<title>\\Controllers\\API</title>
<polygon fill="none" stroke="#000000" points="271,-1674 187,-1674 187,-1638 271,-1638 271,-1674"/>
<text text-anchor="start" x="195" y="-1659.2" font-family="Courier,monospace" font-size="11.00" fill="#000000">«abstract»</text>
<text text-anchor="start" x="218.5" y="-1647.2" font-family="Courier,monospace" font-size="11.00" fill="#000000">API</text>
</g>
<!-- \\Controllers\\Controller -->
<g id="node3" class="node">
<title>\\Controllers\\Controller</title>
<polygon fill="none" stroke="#000000" points="111.5,-1620 27.5,-1620 27.5,-1584 111.5,-1584 111.5,-1620"/>
<text text-anchor="start" x="35.5" y="-1605.2" font-family="Courier,monospace" font-size="11.00" fill="#000000">«abstract»</text>
<text text-anchor="start" x="35.5" y="-1593.2" font-family="Courier,monospace" font-size="11.00" fill="#000000">Controller</text>
</g>
<!-- \\Controllers\\API&#45;&gt;\\Controllers\\Controller -->
<g id="edge1" class="edge">
<title>\\Controllers\\API&#45;&gt;\\Controllers\\Controller</title>
<path fill="none" stroke="#000000" d="M186.6757,-1641.6708C166.5874,-1634.8697 142.4018,-1626.6815 121.2333,-1619.5147"/>
<polygon fill="none" stroke="#000000" points="122.3394,-1616.1941 111.7451,-1616.3024 120.0946,-1622.8244 122.3394,-1616.1941"/>
</g>
<!-- \\Controllers\\ComparOperatorAPI -->
<g id="node2" class="node">
<title>\\Controllers\\ComparOperatorAPI</title>
<polygon fill="none" stroke="#000000" points="474,-1674 343,-1674 343,-1638 474,-1638 474,-1674"/>
<text text-anchor="middle" x="408.5" y="-1653.2" font-family="Courier,monospace" font-size="11.00" fill="#000000">ComparOperatorAPI</text>
</g>
<!-- \\Controllers\\ComparOperatorAPI&#45;&gt;\\Controllers\\API -->
<g id="edge2" class="edge">
<title>\\Controllers\\ComparOperatorAPI&#45;&gt;\\Controllers\\API</title>
<path fill="none" stroke="#000000" d="M342.9344,-1656C322.6451,-1656 300.5739,-1656 281.3076,-1656"/>
<polygon fill="none" stroke="#000000" points="281.2182,-1652.5001 271.2181,-1656 281.2181,-1659.5001 281.2182,-1652.5001"/>
</g>
<!-- \\Controllers\\Dashboard -->
<g id="node4" class="node">
<title>\\Controllers\\Dashboard</title>
<polygon fill="none" stroke="#000000" points="267.5,-1620 190.5,-1620 190.5,-1584 267.5,-1584 267.5,-1620"/>
<text text-anchor="middle" x="229" y="-1599.2" font-family="Courier,monospace" font-size="11.00" fill="#000000">Dashboard</text>
</g>
<!-- \\Controllers\\Dashboard&#45;&gt;\\Controllers\\Controller -->
<g id="edge3" class="edge">
<title>\\Controllers\\Dashboard&#45;&gt;\\Controllers\\Controller</title>
<path fill="none" stroke="#000000" d="M190.3895,-1602C169.762,-1602 144.078,-1602 121.6956,-1602"/>
<polygon fill="none" stroke="#000000" points="121.6742,-1598.5001 111.6741,-1602 121.6741,-1605.5001 121.6742,-1598.5001"/>
</g>
<!-- \\Controllers\\Home -->
<g id="node5" class="node">
<title>\\Controllers\\Home</title>
<polygon fill="none" stroke="#000000" points="256,-1566 202,-1566 202,-1530 256,-1530 256,-1566"/>
<text text-anchor="middle" x="229" y="-1545.2" font-family="Courier,monospace" font-size="11.00" fill="#000000">Home</text>
</g>
<!-- \\Controllers\\Home&#45;&gt;\\Controllers\\Controller -->
<g id="edge4" class="edge">
<title>\\Controllers\\Home&#45;&gt;\\Controllers\\Controller</title>
<path fill="none" stroke="#000000" d="M201.943,-1557.1604C179.9371,-1564.6106 148.2426,-1575.3411 121.376,-1584.437"/>
<polygon fill="none" stroke="#000000" points="120.0726,-1581.183 111.7231,-1587.705 122.3174,-1587.8134 120.0726,-1581.183"/>
</g>
<!-- \\Entities\\Entity -->
<g id="node6" class="node">
<title>\\Entities\\Entity</title>
<polygon fill="none" stroke="#000000" points="271,-920 187,-920 187,-884 271,-884 271,-920"/>
<text text-anchor="start" x="195" y="-905.2" font-family="Courier,monospace" font-size="11.00" fill="#000000">«abstract»</text>
<text text-anchor="start" x="208.5" y="-893.2" font-family="Courier,monospace" font-size="11.00" fill="#000000">Entity</text>
</g>
<!-- \\Interfaces\\Validatable -->
<g id="node21" class="node">
<title>\\Interfaces\\Validatable</title>
<polygon fill="none" stroke="#000000" points="115,-1324 24,-1324 24,-1288 115,-1288 115,-1324"/>
<text text-anchor="middle" x="69.5" y="-1303.2" font-family="Courier,monospace" font-size="11.00" fill="#000000">Validatable</text>
</g>
<!-- \\Entities\\Entity&#45;&gt;\\Interfaces\\Validatable -->
<g id="edge5" class="edge">
<title>\\Entities\\Entity&#45;&gt;\\Interfaces\\Validatable</title>
<path fill="none" stroke="#000000" stroke-dasharray="1,5" d="M222.8121,-920.385C213.0141,-949.7453 193.5493,-1009.0994 179,-1060 151.3891,-1156.5964 185.9277,-1200.6844 123,-1279 122.4155,-1279.7274 121.8064,-1280.4369 121.1749,-1281.129"/>
<polygon fill="none" stroke="#000000" points="118.7554,-1278.5979 113.6691,-1287.892 123.4411,-1283.7983 118.7554,-1278.5979"/>
</g>
<!-- \\Entities\\Generic -->
<g id="node7" class="node">
<title>\\Entities\\Generic</title>
<polygon fill="none" stroke="#000000" points="440.5,-812 376.5,-812 376.5,-776 440.5,-776 440.5,-812"/>
<text text-anchor="middle" x="408.5" y="-791.2" font-family="Courier,monospace" font-size="11.00" fill="#000000">Generic</text>
</g>
<!-- \\Entities\\Generic&#45;&gt;\\Entities\\Entity -->
<g id="edge6" class="edge">
<title>\\Entities\\Generic&#45;&gt;\\Entities\\Entity</title>
<path fill="none" stroke="#000000" d="M376.173,-805.636C365.3786,-809.9616 353.4451,-815.2343 343,-821 313.0321,-837.5421 281.4957,-860.4317 259.208,-877.6597"/>
<polygon fill="none" stroke="#000000" points="256.8679,-875.0464 251.1414,-883.9603 261.1768,-880.563 256.8679,-875.0464"/>
</g>
<!-- \\Entities\\Location -->
<g id="node8" class="node">
<title>\\Entities\\Location</title>
<polygon fill="none" stroke="#000000" points="444,-758 373,-758 373,-722 444,-722 444,-758"/>
<text text-anchor="middle" x="408.5" y="-737.2" font-family="Courier,monospace" font-size="11.00" fill="#000000">Location</text>
</g>
<!-- \\Entities\\Location&#45;&gt;\\Entities\\Entity -->
<g id="edge7" class="edge">
<title>\\Entities\\Location&#45;&gt;\\Entities\\Entity</title>
<path fill="none" stroke="#000000" d="M372.8753,-751.1056C362.6935,-755.202 351.943,-760.4759 343,-767 301.6753,-797.1471 265.8179,-845.2982 245.8385,-875.2081"/>
<polygon fill="none" stroke="#000000" points="242.7184,-873.5836 240.1593,-883.8648 248.5712,-877.4234 242.7184,-873.5836"/>
</g>
<!-- \\Entities\\Offering -->
<g id="node9" class="node">
<title>\\Entities\\Offering</title>
<polygon fill="none" stroke="#000000" points="444,-1028 373,-1028 373,-992 444,-992 444,-1028"/>
<text text-anchor="middle" x="408.5" y="-1007.2" font-family="Courier,monospace" font-size="11.00" fill="#000000">Offering</text>
</g>
<!-- \\Entities\\Offering&#45;&gt;\\Entities\\Entity -->
<g id="edge8" class="edge">
<title>\\Entities\\Offering&#45;&gt;\\Entities\\Entity</title>
<path fill="none" stroke="#000000" d="M372.8011,-996.9965C362.9339,-992.946 352.3683,-988.1713 343,-983 313.0321,-966.4579 281.4957,-943.5683 259.208,-926.3403"/>
<polygon fill="none" stroke="#000000" points="261.1768,-923.437 251.1414,-920.0397 256.8679,-928.9536 261.1768,-923.437"/>
</g>
<!-- \\Entities\\Operator -->
<g id="node10" class="node">
<title>\\Entities\\Operator</title>
<polygon fill="none" stroke="#000000" points="444,-974 373,-974 373,-938 444,-938 444,-974"/>
<text text-anchor="middle" x="408.5" y="-953.2" font-family="Courier,monospace" font-size="11.00" fill="#000000">Operator</text>
</g>
<!-- \\Entities\\Operator&#45;&gt;\\Entities\\Entity -->
<g id="edge9" class="edge">
<title>\\Entities\\Operator&#45;&gt;\\Entities\\Entity</title>
<path fill="none" stroke="#000000" d="M372.6069,-945.2021C346.3181,-937.2935 310.2464,-926.4418 280.8324,-917.593"/>
<polygon fill="none" stroke="#000000" points="281.7205,-914.2053 271.1362,-914.6761 279.7039,-920.9086 281.7205,-914.2053"/>
</g>
<!-- \\Entities\\Review -->
<g id="node11" class="node">
<title>\\Entities\\Review</title>
<polygon fill="none" stroke="#000000" points="437,-920 380,-920 380,-884 437,-884 437,-920"/>
<text text-anchor="middle" x="408.5" y="-899.2" font-family="Courier,monospace" font-size="11.00" fill="#000000">Review</text>
</g>
<!-- \\Entities\\Review&#45;&gt;\\Entities\\Entity -->
<g id="edge10" class="edge">
<title>\\Entities\\Review&#45;&gt;\\Entities\\Entity</title>
<path fill="none" stroke="#000000" d="M379.6602,-902C353.1906,-902 313.3374,-902 281.2676,-902"/>
<polygon fill="none" stroke="#000000" points="281.1557,-898.5001 271.1556,-902 281.1556,-905.5001 281.1557,-898.5001"/>
</g>
<!-- \\Entities\\User -->
<g id="node12" class="node">
<title>\\Entities\\User</title>
<polygon fill="none" stroke="#000000" points="435.5,-866 381.5,-866 381.5,-830 435.5,-830 435.5,-866"/>
<text text-anchor="middle" x="408.5" y="-845.2" font-family="Courier,monospace" font-size="11.00" fill="#000000">User</text>
</g>
<!-- \\Entities\\User&#45;&gt;\\Entities\\Entity -->
<g id="edge11" class="edge">
<title>\\Entities\\User&#45;&gt;\\Entities\\Entity</title>
<path fill="none" stroke="#000000" d="M381.2378,-856.2014C354.7513,-864.1695 313.8507,-876.4739 281.1108,-886.3232"/>
<polygon fill="none" stroke="#000000" points="279.8049,-883.061 271.2372,-889.2935 281.8216,-889.7643 279.8049,-883.061"/>
</g>
<!-- \\Helpers\\Cache -->
<g id="node13" class="node">
<title>\\Helpers\\Cache</title>
<polygon fill="none" stroke="#000000" points="435.5,-678 381.5,-678 381.5,-642 435.5,-642 435.5,-678"/>
<text text-anchor="middle" x="408.5" y="-657.2" font-family="Courier,monospace" font-size="11.00" fill="#000000">Cache</text>
</g>
<!-- \\Helpers\\CacheItem -->
<g id="node14" class="node">
<title>\\Helpers\\CacheItem</title>
<polygon fill="none" stroke="#000000" points="447,-624 370,-624 370,-588 447,-588 447,-624"/>
<text text-anchor="middle" x="408.5" y="-603.2" font-family="Courier,monospace" font-size="11.00" fill="#000000">CacheItem</text>
</g>
<!-- \\Helpers\\DB -->
<g id="node15" class="node">
<title>\\Helpers\\DB</title>
<polygon fill="none" stroke="#000000" points="435.5,-570 381.5,-570 381.5,-534 435.5,-534 435.5,-570"/>
<text text-anchor="middle" x="408.5" y="-549.2" font-family="Courier,monospace" font-size="11.00" fill="#000000">DB</text>
</g>
<!-- \\Helpers\\Dispatcher -->
<g id="node16" class="node">
<title>\\Helpers\\Dispatcher</title>
<polygon fill="none" stroke="#000000" points="450.5,-516 366.5,-516 366.5,-480 450.5,-480 450.5,-516"/>
<text text-anchor="middle" x="408.5" y="-495.2" font-family="Courier,monospace" font-size="11.00" fill="#000000">Dispatcher</text>
</g>
<!-- \\Interfaces\\Cacheable -->
<g id="node17" class="node">
<title>\\Interfaces\\Cacheable</title>
<polygon fill="none" stroke="#000000" points="108,-1378 31,-1378 31,-1342 108,-1342 108,-1378"/>
<text text-anchor="middle" x="69.5" y="-1357.2" font-family="Courier,monospace" font-size="11.00" fill="#000000">Cacheable</text>
</g>
<!-- \\Interfaces\\Layoutable -->
<g id="node18" class="node">
<title>\\Interfaces\\Layoutable</title>
<polygon fill="none" stroke="#000000" points="111.5,-1162 27.5,-1162 27.5,-1126 111.5,-1126 111.5,-1162"/>
<text text-anchor="middle" x="69.5" y="-1141.2" font-family="Courier,monospace" font-size="11.00" fill="#000000">Layoutable</text>
</g>
<!-- \\Interfaces\\Loadable -->
<g id="node19" class="node">
<title>\\Interfaces\\Loadable</title>
<polygon fill="none" stroke="#000000" points="105,-1270 34,-1270 34,-1234 105,-1234 105,-1270"/>
<text text-anchor="middle" x="69.5" y="-1249.2" font-family="Courier,monospace" font-size="11.00" fill="#000000">Loadable</text>
</g>
<!-- \\Interfaces\\Templatable -->
<g id="node20" class="node">
<title>\\Interfaces\\Templatable</title>
<polygon fill="none" stroke="#000000" points="115,-1216 24,-1216 24,-1180 115,-1180 115,-1216"/>
<text text-anchor="middle" x="69.5" y="-1195.2" font-family="Courier,monospace" font-size="11.00" fill="#000000">Templatable</text>
</g>
<!-- \\Layouts\\Minimal -->
<g id="node22" class="node">
<title>\\Layouts\\Minimal</title>
<polygon fill="none" stroke="#000000" points="261,-140 197,-140 197,-104 261,-104 261,-140"/>
<text text-anchor="middle" x="229" y="-119.2" font-family="Courier,monospace" font-size="11.00" fill="#000000">Minimal</text>
</g>
<!-- \\Layouts\\Minimal&#45;&gt;\\Interfaces\\Templatable -->
<g id="edge12" class="edge">
<title>\\Layouts\\Minimal&#45;&gt;\\Interfaces\\Templatable</title>
<path fill="none" stroke="#000000" stroke-dasharray="1,5" d="M204.1426,-140.2111C194.522,-148.7087 184.5149,-159.6737 179,-172 88.1934,-374.9607 244.7979,-984.9781 123,-1171 122.7293,-1171.4135 122.4502,-1171.8209 122.1632,-1172.2223"/>
<polygon fill="none" stroke="#000000" points="119.3564,-1170.1005 115.1022,-1179.8037 124.4789,-1174.8713 119.3564,-1170.1005"/>
</g>
<!-- \\Models\\ComparOperatorAPI -->
<g id="node23" class="node">
<title>\\Models\\ComparOperatorAPI</title>
<polygon fill="none" stroke="#000000" points="474,-60 343,-60 343,-24 474,-24 474,-60"/>
<text text-anchor="middle" x="408.5" y="-39.2" font-family="Courier,monospace" font-size="11.00" fill="#000000">ComparOperatorAPI</text>
</g>
<!-- \\Models\\DBPDO -->
<g id="node24" class="node">
<title>\\Models\\DBPDO</title>
<polygon fill="none" stroke="#000000" points="256,-60 202,-60 202,-24 256,-24 256,-60"/>
<text text-anchor="middle" x="229" y="-39.2" font-family="Courier,monospace" font-size="11.00" fill="#000000">DBPDO</text>
</g>
<!-- \\Models\\ComparOperatorAPI&#45;&gt;\\Models\\DBPDO -->
<g id="edge13" class="edge">
<title>\\Models\\ComparOperatorAPI&#45;&gt;\\Models\\DBPDO</title>
<path fill="none" stroke="#000000" d="M342.9344,-42C317.2867,-42 288.7917,-42 266.7142,-42"/>
<polygon fill="none" stroke="#000000" points="266.4324,-38.5001 256.4324,-42 266.4323,-45.5001 266.4324,-38.5001"/>
</g>
<!-- \\Models\\Model -->
<g id="node25" class="node">
<title>\\Models\\Model</title>
<polygon fill="none" stroke="#000000" points="111.5,-60 27.5,-60 27.5,-24 111.5,-24 111.5,-60"/>
<text text-anchor="start" x="35.5" y="-45.2" font-family="Courier,monospace" font-size="11.00" fill="#000000">«abstract»</text>
<text text-anchor="start" x="52.5" y="-33.2" font-family="Courier,monospace" font-size="11.00" fill="#000000">Model</text>
</g>
<!-- \\Models\\DBPDO&#45;&gt;\\Models\\Model -->
<g id="edge14" class="edge">
<title>\\Models\\DBPDO&#45;&gt;\\Models\\Model</title>
<path fill="none" stroke="#000000" d="M201.943,-42C180.0336,-42 148.5204,-42 121.7298,-42"/>
<polygon fill="none" stroke="#000000" points="121.7231,-38.5001 111.7231,-42 121.723,-45.5001 121.7231,-38.5001"/>
</g>
<!-- \\Templates\\Console -->
<g id="node26" class="node">
<title>\\Templates\\Console</title>
<polygon fill="none" stroke="#000000" points="261,-1162 197,-1162 197,-1126 261,-1126 261,-1162"/>
<text text-anchor="middle" x="229" y="-1141.2" font-family="Courier,monospace" font-size="11.00" fill="#000000">Console</text>
</g>
<!-- \\Templates\\Console&#45;&gt;\\Interfaces\\Templatable -->
<g id="edge15" class="edge">
<title>\\Templates\\Console&#45;&gt;\\Interfaces\\Templatable</title>
<path fill="none" stroke="#000000" stroke-dasharray="1,5" d="M196.7228,-1154.9277C176.0815,-1161.916 148.7691,-1171.1628 124.7435,-1179.2969"/>
<polygon fill="none" stroke="#000000" points="123.3757,-1176.0647 115.0262,-1182.5867 125.6205,-1182.6951 123.3757,-1176.0647"/>
</g>
<!-- \\Templates\\Fonts -->
<g id="node27" class="node">
<title>\\Templates\\Fonts</title>
<polygon fill="none" stroke="#000000" points="256,-1108 202,-1108 202,-1072 256,-1072 256,-1108"/>
<text text-anchor="middle" x="229" y="-1087.2" font-family="Courier,monospace" font-size="11.00" fill="#000000">Fonts</text>
</g>
<!-- \\Templates\\Fonts&#45;&gt;\\Interfaces\\Templatable -->
<g id="edge16" class="edge">
<title>\\Templates\\Fonts&#45;&gt;\\Interfaces\\Templatable</title>
<path fill="none" stroke="#000000" stroke-dasharray="1,5" d="M201.9774,-1102.8645C194.2915,-1106.9769 186.0885,-1111.8189 179,-1117 151.0861,-1137.4027 151.1943,-1150.9866 123,-1171 121.3456,-1172.1743 119.6329,-1173.3264 117.8803,-1174.4528"/>
<polygon fill="none" stroke="#000000" points="115.6469,-1171.7109 108.8703,-1179.8551 119.2466,-1177.7145 115.6469,-1171.7109"/>
</g>
<!-- \\Templates\\Footer -->
<g id="node28" class="node">
<title>\\Templates\\Footer</title>
<polygon fill="none" stroke="#000000" points="257.5,-1486 200.5,-1486 200.5,-1450 257.5,-1450 257.5,-1486"/>
<text text-anchor="middle" x="229" y="-1465.2" font-family="Courier,monospace" font-size="11.00" fill="#000000">Footer</text>
</g>
<!-- \\Templates\\Footer&#45;&gt;\\Interfaces\\Templatable -->
<g id="edge17" class="edge">
<title>\\Templates\\Footer&#45;&gt;\\Interfaces\\Templatable</title>
<path fill="none" stroke="#000000" stroke-dasharray="1,5" d="M200.363,-1457.616C192.4558,-1453.5206 184.5373,-1448.0663 179,-1441 117.8297,-1362.9381 185.2476,-1302.2055 123,-1225 122.4143,-1224.2736 121.804,-1223.5649 121.1715,-1222.8737"/>
<polygon fill="none" stroke="#000000" points="123.4337,-1220.2009 113.6574,-1216.1174 118.7534,-1225.4062 123.4337,-1220.2009"/>
</g>
<!-- \\Templates\\Image -->
<g id="node29" class="node">
<title>\\Templates\\Image</title>
<polygon fill="none" stroke="#000000" points="256,-1432 202,-1432 202,-1396 256,-1396 256,-1432"/>
<text text-anchor="middle" x="229" y="-1411.2" font-family="Courier,monospace" font-size="11.00" fill="#000000">Image</text>
</g>
<!-- \\Templates\\Image&#45;&gt;\\Interfaces\\Templatable -->
<g id="edge18" class="edge">
<title>\\Templates\\Image&#45;&gt;\\Interfaces\\Templatable</title>
<path fill="none" stroke="#000000" stroke-dasharray="1,5" d="M201.7463,-1403.87C193.5179,-1399.7021 185.068,-1394.1425 179,-1387 129.6765,-1328.9427 173.1244,-1282.3673 123,-1225 122.3711,-1224.2802 121.7184,-1223.5773 121.0444,-1222.891"/>
<polygon fill="none" stroke="#000000" points="123.0114,-1219.9694 113.1251,-1216.16 118.478,-1225.3031 123.0114,-1219.9694"/>
</g>
<!-- \\Templates\\InlinedCss -->
<g id="node30" class="node">
<title>\\Templates\\InlinedCss</title>
<polygon fill="none" stroke="#000000" points="271,-1378 187,-1378 187,-1342 271,-1342 271,-1378"/>
<text text-anchor="middle" x="229" y="-1357.2" font-family="Courier,monospace" font-size="11.00" fill="#000000">InlinedCss</text>
</g>
<!-- \\Templates\\InlinedCss&#45;&gt;\\Interfaces\\Templatable -->
<g id="edge19" class="edge">
<title>\\Templates\\InlinedCss&#45;&gt;\\Interfaces\\Templatable</title>
<path fill="none" stroke="#000000" stroke-dasharray="1,5" d="M189.6863,-1341.834C185.8346,-1339.1803 182.1819,-1336.2357 179,-1333 141.0896,-1294.448 161.4418,-1263.0222 123,-1225 122.0638,-1224.074 121.0894,-1223.1736 120.0829,-1222.2985"/>
<polygon fill="none" stroke="#000000" points="121.9296,-1219.3075 111.8381,-1216.0807 117.7147,-1224.8963 121.9296,-1219.3075"/>
</g>
<!-- \\Templates\\InlinedJs -->
<g id="node31" class="node">
<title>\\Templates\\InlinedJs</title>
<polygon fill="none" stroke="#000000" points="267.5,-1324 190.5,-1324 190.5,-1288 267.5,-1288 267.5,-1324"/>
<text text-anchor="middle" x="229" y="-1303.2" font-family="Courier,monospace" font-size="11.00" fill="#000000">InlinedJs</text>
</g>
<!-- \\Templates\\InlinedJs&#45;&gt;\\Interfaces\\Templatable -->
<g id="edge20" class="edge">
<title>\\Templates\\InlinedJs&#45;&gt;\\Interfaces\\Templatable</title>
<path fill="none" stroke="#000000" stroke-dasharray="1,5" d="M192.7691,-1287.969C188.0121,-1285.1623 183.3009,-1282.1436 179,-1279 151.0861,-1258.5973 151.1943,-1245.0134 123,-1225 121.3456,-1223.8257 119.6329,-1222.6736 117.8803,-1221.5472"/>
<polygon fill="none" stroke="#000000" points="119.2466,-1218.2855 108.8703,-1216.1449 115.6469,-1224.2891 119.2466,-1218.2855"/>
</g>
<!-- \\Templates\\Nav -->
<g id="node32" class="node">
<title>\\Templates\\Nav</title>
<polygon fill="none" stroke="#000000" points="256,-1270 202,-1270 202,-1234 256,-1234 256,-1270"/>
<text text-anchor="middle" x="229" y="-1249.2" font-family="Courier,monospace" font-size="11.00" fill="#000000">Nav</text>
</g>
<!-- \\Templates\\Nav&#45;&gt;\\Interfaces\\Templatable -->
<g id="edge21" class="edge">
<title>\\Templates\\Nav&#45;&gt;\\Interfaces\\Templatable</title>
<path fill="none" stroke="#000000" stroke-dasharray="1,5" d="M201.943,-1242.8396C180.9005,-1235.7155 150.9992,-1225.5922 124.9312,-1216.7667"/>
<polygon fill="none" stroke="#000000" points="125.7489,-1213.3484 115.1546,-1213.4567 123.5041,-1219.9787 125.7489,-1213.3484"/>
</g>
<!-- \\Templates\\Table -->
<g id="node33" class="node">
<title>\\Templates\\Table</title>
<polygon fill="none" stroke="#000000" points="256,-1216 202,-1216 202,-1180 256,-1180 256,-1216"/>
<text text-anchor="middle" x="229" y="-1195.2" font-family="Courier,monospace" font-size="11.00" fill="#000000">Table</text>
</g>
<!-- \\Templates\\Table&#45;&gt;\\Interfaces\\Templatable -->
<g id="edge22" class="edge">
<title>\\Templates\\Table&#45;&gt;\\Interfaces\\Templatable</title>
<path fill="none" stroke="#000000" stroke-dasharray="1,5" d="M201.943,-1198C180.9932,-1198 151.2625,-1198 125.276,-1198"/>
<polygon fill="none" stroke="#000000" points="125.1546,-1194.5001 115.1546,-1198 125.1545,-1201.5001 125.1546,-1194.5001"/>
</g>
<!-- \\Views\\AdminDashboard -->
<g id="node34" class="node">
<title>\\Views\\AdminDashboard</title>
<polygon fill="none" stroke="#000000" points="464,-220 353,-220 353,-184 464,-184 464,-220"/>
<text text-anchor="middle" x="408.5" y="-199.2" font-family="Courier,monospace" font-size="11.00" fill="#000000">AdminDashboard</text>
</g>
<!-- \\Views\\View -->
<g id="node39" class="node">
<title>\\Views\\View</title>
<polygon fill="none" stroke="#000000" points="271,-355 187,-355 187,-319 271,-319 271,-355"/>
<text text-anchor="start" x="195" y="-340.2" font-family="Courier,monospace" font-size="11.00" fill="#000000">«abstract»</text>
<text text-anchor="start" x="215" y="-328.2" font-family="Courier,monospace" font-size="11.00" fill="#000000">View</text>
</g>
<!-- \\Views\\AdminDashboard&#45;&gt;\\Views\\View -->
<g id="edge23" class="edge">
<title>\\Views\\AdminDashboard&#45;&gt;\\Views\\View</title>
<path fill="none" stroke="#000000" d="M358.8589,-220.1526C353.3554,-222.8359 347.9555,-225.7908 343,-229 307.2265,-252.1668 272.6329,-287.3131 251.1181,-311.1692"/>
<polygon fill="none" stroke="#000000" points="248.3688,-308.9939 244.3404,-318.7931 253.6004,-313.6449 248.3688,-308.9939"/>
</g>
<!-- \\Views\\Error404 -->
<g id="node35" class="node">
<title>\\Views\\Error404</title>
<polygon fill="none" stroke="#000000" points="444,-436 373,-436 373,-400 444,-400 444,-436"/>
<text text-anchor="middle" x="408.5" y="-415.2" font-family="Courier,monospace" font-size="11.00" fill="#000000">Error404</text>
</g>
<!-- \\Views\\Error404&#45;&gt;\\Views\\View -->
<g id="edge24" class="edge">
<title>\\Views\\Error404&#45;&gt;\\Views\\View</title>
<path fill="none" stroke="#000000" d="M372.6647,-403.617C362.9929,-399.6294 352.5603,-395.2314 343,-391 320.5107,-381.0462 295.8147,-369.4339 275.1758,-359.5336"/>
<polygon fill="none" stroke="#000000" points="276.5296,-356.3009 266.0011,-355.1173 273.4935,-362.6082 276.5296,-356.3009"/>
</g>
<!-- \\Views\\Home -->
<g id="node36" class="node">
<title>\\Views\\Home</title>
<polygon fill="none" stroke="#000000" points="435.5,-382 381.5,-382 381.5,-346 435.5,-346 435.5,-382"/>
<text text-anchor="middle" x="408.5" y="-361.2" font-family="Courier,monospace" font-size="11.00" fill="#000000">Home</text>
</g>
<!-- \\Views\\Home&#45;&gt;\\Views\\View -->
<g id="edge25" class="edge">
<title>\\Views\\Home&#45;&gt;\\Views\\View</title>
<path fill="none" stroke="#000000" d="M381.2378,-359.8993C354.8655,-355.9324 314.203,-349.816 281.5346,-344.9021"/>
<polygon fill="none" stroke="#000000" points="281.6466,-341.3797 271.2372,-343.3532 280.6053,-348.3018 281.6466,-341.3797"/>
</g>
<!-- \\Views\\OfferingList -->
<g id="node37" class="node">
<title>\\Views\\OfferingList</title>
<polygon fill="none" stroke="#000000" points="457.5,-328 359.5,-328 359.5,-292 457.5,-292 457.5,-328"/>
<text text-anchor="middle" x="408.5" y="-307.2" font-family="Courier,monospace" font-size="11.00" fill="#000000">OfferingList</text>
</g>
<!-- \\Views\\OfferingList&#45;&gt;\\Views\\View -->
<g id="edge26" class="edge">
<title>\\Views\\OfferingList&#45;&gt;\\Views\\View</title>
<path fill="none" stroke="#000000" d="M359.4508,-317.3779C335.1831,-321.0282 305.8784,-325.4361 281.1966,-329.1487"/>
<polygon fill="none" stroke="#000000" points="280.6514,-325.6912 271.2833,-330.6398 281.6927,-332.6134 280.6514,-325.6912"/>
</g>
<!-- \\Views\\OperatorDashboard -->
<g id="node38" class="node">
<title>\\Views\\OperatorDashboard</title>
<polygon fill="none" stroke="#000000" points="474,-274 343,-274 343,-238 474,-238 474,-274"/>
<text text-anchor="middle" x="408.5" y="-253.2" font-family="Courier,monospace" font-size="11.00" fill="#000000">OperatorDashboard</text>
</g>
<!-- \\Views\\OperatorDashboard&#45;&gt;\\Views\\View -->
<g id="edge27" class="edge">
<title>\\Views\\OperatorDashboard&#45;&gt;\\Views\\View</title>
<path fill="none" stroke="#000000" d="M363.6226,-274.1409C356.6922,-277.0455 349.6359,-280.0629 343,-283 320.5107,-292.9538 295.8147,-304.5661 275.1758,-314.4664"/>
<polygon fill="none" stroke="#000000" points="273.4935,-311.3918 266.0011,-318.8827 276.5296,-317.6991 273.4935,-311.3918"/>
</g>
<!-- \\Views\\View&#45;&gt;\\Interfaces\\Layoutable -->
<g id="edge28" class="edge">
<title>\\Views\\View&#45;&gt;\\Interfaces\\Layoutable</title>
<path fill="none" stroke="#000000" stroke-dasharray="1,5" d="M225.3689,-355.3716C204.5542,-460.6852 100.43,-987.5079 75.0735,-1115.8004"/>
<polygon fill="none" stroke="#000000" points="71.6308,-1115.1682 73.1254,-1125.6571 78.498,-1116.5255 71.6308,-1115.1682"/>
</g>
</g>
</svg>
