<?xml version="1.0" encoding="UTF-8" standalone="no"?>
<!DOCTYPE svg PUBLIC "-//W3C//DTD SVG 1.1//EN"
 "http://www.w3.org/Graphics/SVG/1.1/DTD/svg11.dtd">
<!-- Generated by graphviz version 2.40.1 (20161225.0304)
 -->
<!-- Title: G Pages: 1 -->
<svg width="542pt" height="2044pt"
 viewBox="0.00 0.00 542.00 2044.00" xmlns="http://www.w3.org/2000/svg" xmlns:xlink="http://www.w3.org/1999/xlink">
<g id="graph0" class="graph" transform="scale(1 1) rotate(0) translate(4 2040)">
<title>G</title>
<polygon fill="#ffffff" stroke="transparent" points="-4,4 -4,-2040 538,-2040 538,4 -4,4"/>
<g id="clust1" class="cluster">
<title>cluster_Global</title>
<polygon fill="none" stroke="#000000" points="8,-8 8,-2028 526,-2028 526,-8 8,-8"/>
<text text-anchor="middle" x="267" y="-2015.2" font-family="Times,serif" font-size="11.00" fill="#c0c0c0">Global</text>
</g>
<g id="clust2" class="cluster">
<title>cluster_\Controllers</title>
<polygon fill="none" stroke="#000000" points="19.5,-1820 19.5,-2000 503,-2000 503,-1820 19.5,-1820"/>
<text text-anchor="middle" x="261.25" y="-1987.2" font-family="Times,serif" font-size="11.00" fill="#c0c0c0">Controllers</text>
</g>
<g id="clust3" class="cluster">
<title>cluster_\Entities</title>
<polygon fill="none" stroke="#000000" points="186,-1012 186,-1354 473,-1354 473,-1012 186,-1012"/>
<text text-anchor="middle" x="329.5" y="-1341.2" font-family="Times,serif" font-size="11.00" fill="#c0c0c0">Entities</text>
</g>
<g id="clust4" class="cluster">
<title>cluster_\Helpers</title>
<polygon fill="none" stroke="#000000" points="379.5,-770 379.5,-1004 479.5,-1004 479.5,-770 379.5,-770"/>
<text text-anchor="middle" x="429.5" y="-991.2" font-family="Times,serif" font-size="11.00" fill="#c0c0c0">Helpers</text>
</g>
<g id="clust5" class="cluster">
<title>cluster_\Interfaces</title>
<polygon fill="none" stroke="#000000" points="16,-1362 16,-1650 123,-1650 123,-1362 16,-1362"/>
<text text-anchor="middle" x="69.5" y="-1637.2" font-family="Times,serif" font-size="11.00" fill="#c0c0c0">Interfaces</text>
</g>
<g id="clust6" class="cluster">
<title>cluster_\Layouts</title>
<polygon fill="none" stroke="#000000" points="189.5,-286 189.5,-466 282.5,-466 282.5,-286 189.5,-286"/>
<text text-anchor="middle" x="236" y="-453.2" font-family="Times,serif" font-size="11.00" fill="#c0c0c0">Layouts</text>
</g>
<g id="clust7" class="cluster">
<title>cluster_\Models</title>
<polygon fill="none" stroke="#000000" points="19.5,-16 19.5,-278 518,-278 518,-16 19.5,-16"/>
<text text-anchor="middle" x="268.75" y="-265.2" font-family="Times,serif" font-size="11.00" fill="#c0c0c0">Models</text>
</g>
<g id="clust8" class="cluster">
<title>cluster_\Models\Endpoints</title>
<polygon fill="none" stroke="#000000" points="349,-70 349,-250 510,-250 510,-70 349,-70"/>
<text text-anchor="middle" x="429.5" y="-237.2" font-family="Times,serif" font-size="11.00" fill="#c0c0c0">Endpoints</text>
</g>
<g id="clust9" class="cluster">
<title>cluster_\Templates</title>
<polygon fill="none" stroke="#000000" points="179,-1362 179,-1812 293,-1812 293,-1362 179,-1362"/>
<text text-anchor="middle" x="236" y="-1799.2" font-family="Times,serif" font-size="11.00" fill="#c0c0c0">Templates</text>
</g>
<g id="clust10" class="cluster">
<title>cluster_\Views</title>
<polygon fill="none" stroke="#000000" points="186,-474 186,-762 503,-762 503,-474 186,-474"/>
<text text-anchor="middle" x="344.5" y="-749.2" font-family="Times,serif" font-size="11.00" fill="#c0c0c0">Views</text>
</g>
<!-- \\Controllers\\API -->
<g id="node1" class="node">
<title>\\Controllers\\API</title>
<polygon fill="none" stroke="#000000" points="278,-1918 194,-1918 194,-1882 278,-1882 278,-1918"/>
<text text-anchor="start" x="202" y="-1903.2" font-family="Courier,monospace" font-size="11.00" fill="#000000">«abstract»</text>
<text text-anchor="start" x="225.5" y="-1891.2" font-family="Courier,monospace" font-size="11.00" fill="#000000">API</text>
</g>
<!-- \\Controllers\\Controller -->
<g id="node3" class="node">
<title>\\Controllers\\Controller</title>
<polygon fill="none" stroke="#000000" points="111.5,-1918 27.5,-1918 27.5,-1882 111.5,-1882 111.5,-1918"/>
<text text-anchor="start" x="35.5" y="-1903.2" font-family="Courier,monospace" font-size="11.00" fill="#000000">«abstract»</text>
<text text-anchor="start" x="35.5" y="-1891.2" font-family="Courier,monospace" font-size="11.00" fill="#000000">Controller</text>
</g>
<!-- \\Controllers\\API&#45;&gt;\\Controllers\\Controller -->
<g id="edge1" class="edge">
<title>\\Controllers\\API&#45;&gt;\\Controllers\\Controller</title>
<path fill="none" stroke="#000000" d="M193.985,-1900C171.9985,-1900 144.8783,-1900 121.5698,-1900"/>
<polygon fill="none" stroke="#000000" points="121.5016,-1896.5001 111.5015,-1900 121.5015,-1903.5001 121.5016,-1896.5001"/>
</g>
<!-- \\Controllers\\ComparOperatorAPI -->
<g id="node2" class="node">
<title>\\Controllers\\ComparOperatorAPI</title>
<polygon fill="none" stroke="#000000" points="495,-1918 364,-1918 364,-1882 495,-1882 495,-1918"/>
<text text-anchor="middle" x="429.5" y="-1897.2" font-family="Courier,monospace" font-size="11.00" fill="#000000">ComparOperatorAPI</text>
</g>
<!-- \\Controllers\\ComparOperatorAPI&#45;&gt;\\Controllers\\API -->
<g id="edge2" class="edge">
<title>\\Controllers\\ComparOperatorAPI&#45;&gt;\\Controllers\\API</title>
<path fill="none" stroke="#000000" d="M363.9897,-1900C339.2534,-1900 311.4651,-1900 288.1176,-1900"/>
<polygon fill="none" stroke="#000000" points="288.0686,-1896.5001 278.0686,-1900 288.0686,-1903.5001 288.0686,-1896.5001"/>
</g>
<!-- \\Controllers\\Dashboard -->
<g id="node4" class="node">
<title>\\Controllers\\Dashboard</title>
<polygon fill="none" stroke="#000000" points="274.5,-1864 197.5,-1864 197.5,-1828 274.5,-1828 274.5,-1864"/>
<text text-anchor="middle" x="236" y="-1843.2" font-family="Courier,monospace" font-size="11.00" fill="#000000">Dashboard</text>
</g>
<!-- \\Controllers\\Dashboard&#45;&gt;\\Controllers\\Controller -->
<g id="edge3" class="edge">
<title>\\Controllers\\Dashboard&#45;&gt;\\Controllers\\Controller</title>
<path fill="none" stroke="#000000" d="M197.3831,-1858.5244C174.7393,-1865.8684 145.8407,-1875.2409 121.2456,-1883.2176"/>
<polygon fill="none" stroke="#000000" points="120.1357,-1879.898 111.7033,-1886.3124 122.2953,-1886.5566 120.1357,-1879.898"/>
</g>
<!-- \\Controllers\\Home -->
<g id="node5" class="node">
<title>\\Controllers\\Home</title>
<polygon fill="none" stroke="#000000" points="263,-1972 209,-1972 209,-1936 263,-1936 263,-1972"/>
<text text-anchor="middle" x="236" y="-1951.2" font-family="Courier,monospace" font-size="11.00" fill="#000000">Home</text>
</g>
<!-- \\Controllers\\Home&#45;&gt;\\Controllers\\Controller -->
<g id="edge4" class="edge">
<title>\\Controllers\\Home&#45;&gt;\\Controllers\\Controller</title>
<path fill="none" stroke="#000000" d="M208.8783,-1945.2038C185.2006,-1937.5245 150.1843,-1926.1679 121.1737,-1916.759"/>
<polygon fill="none" stroke="#000000" points="122.1826,-1913.4068 111.5906,-1913.651 120.0231,-1920.0654 122.1826,-1913.4068"/>
</g>
<!-- \\Entities\\Entity -->
<g id="node6" class="node">
<title>\\Entities\\Entity</title>
<polygon fill="none" stroke="#000000" points="278,-1218 194,-1218 194,-1182 278,-1182 278,-1218"/>
<text text-anchor="start" x="202" y="-1203.2" font-family="Courier,monospace" font-size="11.00" fill="#000000">«abstract»</text>
<text text-anchor="start" x="215.5" y="-1191.2" font-family="Courier,monospace" font-size="11.00" fill="#000000">Entity</text>
</g>
<!-- \\Interfaces\\Validatable -->
<g id="node21" class="node">
<title>\\Interfaces\\Validatable</title>
<polygon fill="none" stroke="#000000" points="115,-1568 24,-1568 24,-1532 115,-1532 115,-1568"/>
<text text-anchor="middle" x="69.5" y="-1547.2" font-family="Courier,monospace" font-size="11.00" fill="#000000">Validatable</text>
</g>
<!-- \\Entities\\Entity&#45;&gt;\\Interfaces\\Validatable -->
<g id="edge5" class="edge">
<title>\\Entities\\Entity&#45;&gt;\\Interfaces\\Validatable</title>
<path fill="none" stroke="#000000" stroke-dasharray="1,5" d="M229.2166,-1218.4461C218.4178,-1247.8901 196.7272,-1307.3568 179,-1358 153.4144,-1431.0932 173.7901,-1464.5398 123,-1523 122.3731,-1523.7216 121.7223,-1524.4261 121.0501,-1525.114"/>
<polygon fill="none" stroke="#000000" points="118.4816,-1522.7045 113.1445,-1531.857 123.0242,-1528.0304 118.4816,-1522.7045"/>
</g>
<!-- \\Entities\\Generic -->
<g id="node7" class="node">
<title>\\Entities\\Generic</title>
<polygon fill="none" stroke="#000000" points="461.5,-1110 397.5,-1110 397.5,-1074 461.5,-1074 461.5,-1110"/>
<text text-anchor="middle" x="429.5" y="-1089.2" font-family="Courier,monospace" font-size="11.00" fill="#000000">Generic</text>
</g>
<!-- \\Entities\\Generic&#45;&gt;\\Entities\\Entity -->
<g id="edge6" class="edge">
<title>\\Entities\\Generic&#45;&gt;\\Entities\\Entity</title>
<path fill="none" stroke="#000000" d="M397.2655,-1100.4069C382.1795,-1104.9401 364.2238,-1111.2138 349,-1119 318.5111,-1134.5936 287.1096,-1157.7814 265.1713,-1175.3565"/>
<polygon fill="none" stroke="#000000" points="262.805,-1172.7694 257.2482,-1181.7901 267.2175,-1178.2035 262.805,-1172.7694"/>
</g>
<!-- \\Entities\\Location -->
<g id="node8" class="node">
<title>\\Entities\\Location</title>
<polygon fill="none" stroke="#000000" points="465,-1056 394,-1056 394,-1020 465,-1020 465,-1056"/>
<text text-anchor="middle" x="429.5" y="-1035.2" font-family="Courier,monospace" font-size="11.00" fill="#000000">Location</text>
</g>
<!-- \\Entities\\Location&#45;&gt;\\Entities\\Entity -->
<g id="edge7" class="edge">
<title>\\Entities\\Location&#45;&gt;\\Entities\\Entity</title>
<path fill="none" stroke="#000000" d="M393.8854,-1045.4115C379.1406,-1049.591 362.3942,-1055.8612 349,-1065 306.6709,-1093.881 271.319,-1142.8352 251.9605,-1173.1833"/>
<polygon fill="none" stroke="#000000" points="248.8065,-1171.6261 246.4762,-1181.9615 254.7431,-1175.3351 248.8065,-1171.6261"/>
</g>
<!-- \\Entities\\Offering -->
<g id="node9" class="node">
<title>\\Entities\\Offering</title>
<polygon fill="none" stroke="#000000" points="465,-1326 394,-1326 394,-1290 465,-1290 465,-1326"/>
<text text-anchor="middle" x="429.5" y="-1305.2" font-family="Courier,monospace" font-size="11.00" fill="#000000">Offering</text>
</g>
<!-- \\Entities\\Offering&#45;&gt;\\Entities\\Entity -->
<g id="edge8" class="edge">
<title>\\Entities\\Offering&#45;&gt;\\Entities\\Entity</title>
<path fill="none" stroke="#000000" d="M393.7049,-1298.5066C379.4097,-1294.0773 363.0426,-1288.1821 349,-1281 318.5111,-1265.4064 287.1096,-1242.2186 265.1713,-1224.6435"/>
<polygon fill="none" stroke="#000000" points="267.2175,-1221.7965 257.2482,-1218.2099 262.805,-1227.2306 267.2175,-1221.7965"/>
</g>
<!-- \\Entities\\Operator -->
<g id="node10" class="node">
<title>\\Entities\\Operator</title>
<polygon fill="none" stroke="#000000" points="465,-1272 394,-1272 394,-1236 465,-1236 465,-1272"/>
<text text-anchor="middle" x="429.5" y="-1251.2" font-family="Courier,monospace" font-size="11.00" fill="#000000">Operator</text>
</g>
<!-- \\Entities\\Operator&#45;&gt;\\Entities\\Entity -->
<g id="edge9" class="edge">
<title>\\Entities\\Operator&#45;&gt;\\Entities\\Entity</title>
<path fill="none" stroke="#000000" d="M393.5576,-1243.9696C363.9422,-1235.7048 321.5435,-1223.8726 288.1872,-1214.5639"/>
<polygon fill="none" stroke="#000000" points="288.7225,-1211.0796 278.1497,-1211.7627 286.8409,-1217.822 288.7225,-1211.0796"/>
</g>
<!-- \\Entities\\Review -->
<g id="node11" class="node">
<title>\\Entities\\Review</title>
<polygon fill="none" stroke="#000000" points="458,-1218 401,-1218 401,-1182 458,-1182 458,-1218"/>
<text text-anchor="middle" x="429.5" y="-1197.2" font-family="Courier,monospace" font-size="11.00" fill="#000000">Review</text>
</g>
<!-- \\Entities\\Review&#45;&gt;\\Entities\\Entity -->
<g id="edge10" class="edge">
<title>\\Entities\\Review&#45;&gt;\\Entities\\Entity</title>
<path fill="none" stroke="#000000" d="M400.9484,-1200C371.4782,-1200 324.8316,-1200 288.6517,-1200"/>
<polygon fill="none" stroke="#000000" points="288.2701,-1196.5001 278.2701,-1200 288.2701,-1203.5001 288.2701,-1196.5001"/>
</g>
<!-- \\Entities\\User -->
<g id="node12" class="node">
<title>\\Entities\\User</title>
<polygon fill="none" stroke="#000000" points="456.5,-1164 402.5,-1164 402.5,-1128 456.5,-1128 456.5,-1164"/>
<text text-anchor="middle" x="429.5" y="-1143.2" font-family="Courier,monospace" font-size="11.00" fill="#000000">User</text>
</g>
<!-- \\Entities\\User&#45;&gt;\\Entities\\Entity -->
<g id="edge11" class="edge">
<title>\\Entities\\User&#45;&gt;\\Entities\\Entity</title>
<path fill="none" stroke="#000000" d="M402.1866,-1153.6224C372.6672,-1161.8603 324.9204,-1175.185 288.1632,-1185.4428"/>
<polygon fill="none" stroke="#000000" points="286.8026,-1182.1887 278.1115,-1188.248 288.6843,-1188.9311 286.8026,-1182.1887"/>
</g>
<!-- \\Helpers\\Cache -->
<g id="node13" class="node">
<title>\\Helpers\\Cache</title>
<polygon fill="none" stroke="#000000" points="456.5,-976 402.5,-976 402.5,-940 456.5,-940 456.5,-976"/>
<text text-anchor="middle" x="429.5" y="-955.2" font-family="Courier,monospace" font-size="11.00" fill="#000000">Cache</text>
</g>
<!-- \\Helpers\\CacheItem -->
<g id="node14" class="node">
<title>\\Helpers\\CacheItem</title>
<polygon fill="none" stroke="#000000" points="468,-922 391,-922 391,-886 468,-886 468,-922"/>
<text text-anchor="middle" x="429.5" y="-901.2" font-family="Courier,monospace" font-size="11.00" fill="#000000">CacheItem</text>
</g>
<!-- \\Helpers\\DB -->
<g id="node15" class="node">
<title>\\Helpers\\DB</title>
<polygon fill="none" stroke="#000000" points="456.5,-868 402.5,-868 402.5,-832 456.5,-832 456.5,-868"/>
<text text-anchor="middle" x="429.5" y="-847.2" font-family="Courier,monospace" font-size="11.00" fill="#000000">DB</text>
</g>
<!-- \\Helpers\\Dispatcher -->
<g id="node16" class="node">
<title>\\Helpers\\Dispatcher</title>
<polygon fill="none" stroke="#000000" points="471.5,-814 387.5,-814 387.5,-778 471.5,-778 471.5,-814"/>
<text text-anchor="middle" x="429.5" y="-793.2" font-family="Courier,monospace" font-size="11.00" fill="#000000">Dispatcher</text>
</g>
<!-- \\Interfaces\\Cacheable -->
<g id="node17" class="node">
<title>\\Interfaces\\Cacheable</title>
<polygon fill="none" stroke="#000000" points="108,-1622 31,-1622 31,-1586 108,-1586 108,-1622"/>
<text text-anchor="middle" x="69.5" y="-1601.2" font-family="Courier,monospace" font-size="11.00" fill="#000000">Cacheable</text>
</g>
<!-- \\Interfaces\\Layoutable -->
<g id="node18" class="node">
<title>\\Interfaces\\Layoutable</title>
<polygon fill="none" stroke="#000000" points="111.5,-1406 27.5,-1406 27.5,-1370 111.5,-1370 111.5,-1406"/>
<text text-anchor="middle" x="69.5" y="-1385.2" font-family="Courier,monospace" font-size="11.00" fill="#000000">Layoutable</text>
</g>
<!-- \\Interfaces\\Loadable -->
<g id="node19" class="node">
<title>\\Interfaces\\Loadable</title>
<polygon fill="none" stroke="#000000" points="105,-1514 34,-1514 34,-1478 105,-1478 105,-1514"/>
<text text-anchor="middle" x="69.5" y="-1493.2" font-family="Courier,monospace" font-size="11.00" fill="#000000">Loadable</text>
</g>
<!-- \\Interfaces\\Templatable -->
<g id="node20" class="node">
<title>\\Interfaces\\Templatable</title>
<polygon fill="none" stroke="#000000" points="115,-1460 24,-1460 24,-1424 115,-1424 115,-1460"/>
<text text-anchor="middle" x="69.5" y="-1439.2" font-family="Courier,monospace" font-size="11.00" fill="#000000">Templatable</text>
</g>
<!-- \\Layouts\\Dashboard -->
<g id="node22" class="node">
<title>\\Layouts\\Dashboard</title>
<polygon fill="none" stroke="#000000" points="274.5,-384 197.5,-384 197.5,-348 274.5,-348 274.5,-384"/>
<text text-anchor="middle" x="236" y="-363.2" font-family="Courier,monospace" font-size="11.00" fill="#000000">Dashboard</text>
</g>
<!-- \\Layouts\\Dashboard&#45;&gt;\\Interfaces\\Templatable -->
<g id="edge12" class="edge">
<title>\\Layouts\\Dashboard&#45;&gt;\\Interfaces\\Templatable</title>
<path fill="none" stroke="#000000" stroke-dasharray="1,5" d="M197.3866,-377.3377C190.1879,-381.1806 183.5188,-386.2741 179,-393 52.156,-581.7987 247.4737,-1224.6303 123,-1415 122.7296,-1415.4136 122.4507,-1415.8212 122.1639,-1416.2228"/>
<polygon fill="none" stroke="#000000" points="119.3568,-1414.1016 115.1067,-1423.8067 124.4813,-1418.8702 119.3568,-1414.1016"/>
</g>
<!-- \\Layouts\\Home -->
<g id="node23" class="node">
<title>\\Layouts\\Home</title>
<polygon fill="none" stroke="#000000" points="263,-330 209,-330 209,-294 263,-294 263,-330"/>
<text text-anchor="middle" x="236" y="-309.2" font-family="Courier,monospace" font-size="11.00" fill="#000000">Home</text>
</g>
<!-- \\Layouts\\Home&#45;&gt;\\Interfaces\\Templatable -->
<g id="edge13" class="edge">
<title>\\Layouts\\Home&#45;&gt;\\Interfaces\\Templatable</title>
<path fill="none" stroke="#000000" stroke-dasharray="1,5" d="M208.9592,-318.2392C197.7991,-322.2545 185.8862,-328.7199 179,-339 45.7461,-537.9281 253.7565,-1214.4215 123,-1415 122.7301,-1415.414 122.4518,-1415.8219 122.1656,-1416.2239"/>
<polygon fill="none" stroke="#000000" points="119.3576,-1414.1041 115.1166,-1423.8131 124.4866,-1418.8679 119.3576,-1414.1041"/>
</g>
<!-- \\Layouts\\Minimal -->
<g id="node24" class="node">
<title>\\Layouts\\Minimal</title>
<polygon fill="none" stroke="#000000" points="268,-438 204,-438 204,-402 268,-402 268,-438"/>
<text text-anchor="middle" x="236" y="-417.2" font-family="Courier,monospace" font-size="11.00" fill="#000000">Minimal</text>
</g>
<!-- \\Layouts\\Minimal&#45;&gt;\\Interfaces\\Templatable -->
<g id="edge14" class="edge">
<title>\\Layouts\\Minimal&#45;&gt;\\Interfaces\\Templatable</title>
<path fill="none" stroke="#000000" stroke-dasharray="1,5" d="M207.1386,-438.0069C196.368,-446.3351 185.2471,-457.2295 179,-470 86.559,-658.9696 238.5162,-1239.1851 123,-1415 122.7286,-1415.413 122.4489,-1415.82 122.1613,-1416.221"/>
<polygon fill="none" stroke="#000000" points="119.3555,-1414.0976 115.0907,-1423.7962 124.4728,-1418.874 119.3555,-1414.0976"/>
</g>
<!-- \\Models\\Endpoints\\DestinationEndpoint -->
<g id="node25" class="node">
<title>\\Models\\Endpoints\\DestinationEndpoint</title>
<polygon fill="none" stroke="#000000" points="502,-222 357,-222 357,-186 502,-186 502,-222"/>
<text text-anchor="middle" x="429.5" y="-201.2" font-family="Courier,monospace" font-size="11.00" fill="#000000">DestinationEndpoint</text>
</g>
<!-- \\Models\\Endpoints\\OperatorEndpoint -->
<g id="node26" class="node">
<title>\\Models\\Endpoints\\OperatorEndpoint</title>
<polygon fill="none" stroke="#000000" points="492,-168 367,-168 367,-132 492,-132 492,-168"/>
<text text-anchor="middle" x="429.5" y="-147.2" font-family="Courier,monospace" font-size="11.00" fill="#000000">OperatorEndpoint</text>
</g>
<!-- \\Models\\Endpoints\\UserEndpoint -->
<g id="node27" class="node">
<title>\\Models\\Endpoints\\UserEndpoint</title>
<polygon fill="none" stroke="#000000" points="478.5,-114 380.5,-114 380.5,-78 478.5,-78 478.5,-114"/>
<text text-anchor="middle" x="429.5" y="-93.2" font-family="Courier,monospace" font-size="11.00" fill="#000000">UserEndpoint</text>
</g>
<!-- \\Models\\ComparOperatorAPI -->
<g id="node28" class="node">
<title>\\Models\\ComparOperatorAPI</title>
<polygon fill="none" stroke="#000000" points="495,-60 364,-60 364,-24 495,-24 495,-60"/>
<text text-anchor="middle" x="429.5" y="-39.2" font-family="Courier,monospace" font-size="11.00" fill="#000000">ComparOperatorAPI</text>
</g>
<!-- \\Models\\DBPDO -->
<g id="node29" class="node">
<title>\\Models\\DBPDO</title>
<polygon fill="none" stroke="#000000" points="263,-60 209,-60 209,-24 263,-24 263,-60"/>
<text text-anchor="middle" x="236" y="-39.2" font-family="Courier,monospace" font-size="11.00" fill="#000000">DBPDO</text>
</g>
<!-- \\Models\\ComparOperatorAPI&#45;&gt;\\Models\\DBPDO -->
<g id="edge15" class="edge">
<title>\\Models\\ComparOperatorAPI&#45;&gt;\\Models\\DBPDO</title>
<path fill="none" stroke="#000000" d="M363.9897,-42C333.7316,-42 298.9067,-42 273.2294,-42"/>
<polygon fill="none" stroke="#000000" points="273.1729,-38.5001 263.1729,-42 273.1728,-45.5001 273.1729,-38.5001"/>
</g>
<!-- \\Models\\Model -->
<g id="node30" class="node">
<title>\\Models\\Model</title>
<polygon fill="none" stroke="#000000" points="111.5,-60 27.5,-60 27.5,-24 111.5,-24 111.5,-60"/>
<text text-anchor="start" x="35.5" y="-45.2" font-family="Courier,monospace" font-size="11.00" fill="#000000">«abstract»</text>
<text text-anchor="start" x="52.5" y="-33.2" font-family="Courier,monospace" font-size="11.00" fill="#000000">Model</text>
</g>
<!-- \\Models\\DBPDO&#45;&gt;\\Models\\Model -->
<g id="edge16" class="edge">
<title>\\Models\\DBPDO&#45;&gt;\\Models\\Model</title>
<path fill="none" stroke="#000000" d="M208.8783,-42C185.4065,-42 150.7924,-42 121.9318,-42"/>
<polygon fill="none" stroke="#000000" points="121.5906,-38.5001 111.5906,-42 121.5906,-45.5001 121.5906,-38.5001"/>
</g>
<!-- \\Templates\\Console -->
<g id="node31" class="node">
<title>\\Templates\\Console</title>
<polygon fill="none" stroke="#000000" points="268,-1676 204,-1676 204,-1640 268,-1640 268,-1676"/>
<text text-anchor="middle" x="236" y="-1655.2" font-family="Courier,monospace" font-size="11.00" fill="#000000">Console</text>
</g>
<!-- \\Templates\\Console&#45;&gt;\\Interfaces\\Templatable -->
<g id="edge17" class="edge">
<title>\\Templates\\Console&#45;&gt;\\Interfaces\\Templatable</title>
<path fill="none" stroke="#000000" stroke-dasharray="1,5" d="M203.7739,-1648.0581C194.7741,-1643.9779 185.6496,-1638.4211 179,-1631 128.1623,-1574.2639 173.1244,-1526.3673 123,-1469 122.3711,-1468.2802 121.7184,-1467.5773 121.0444,-1466.891"/>
<polygon fill="none" stroke="#000000" points="123.0114,-1463.9694 113.1251,-1460.16 118.478,-1469.3031 123.0114,-1463.9694"/>
</g>
<!-- \\Templates\\Fonts -->
<g id="node32" class="node">
<title>\\Templates\\Fonts</title>
<polygon fill="none" stroke="#000000" points="263,-1622 209,-1622 209,-1586 263,-1586 263,-1622"/>
<text text-anchor="middle" x="236" y="-1601.2" font-family="Courier,monospace" font-size="11.00" fill="#000000">Fonts</text>
</g>
<!-- \\Templates\\Fonts&#45;&gt;\\Interfaces\\Templatable -->
<g id="edge18" class="edge">
<title>\\Templates\\Fonts&#45;&gt;\\Interfaces\\Templatable</title>
<path fill="none" stroke="#000000" stroke-dasharray="1,5" d="M208.8287,-1595.3536C198.5619,-1591.0725 187.3536,-1585.0583 179,-1577 140.0859,-1539.4614 161.4418,-1507.0222 123,-1469 122.0638,-1468.074 121.0894,-1467.1736 120.0829,-1466.2985"/>
<polygon fill="none" stroke="#000000" points="121.9296,-1463.3075 111.8381,-1460.0807 117.7147,-1468.8963 121.9296,-1463.3075"/>
</g>
<!-- \\Templates\\Footer -->
<g id="node33" class="node">
<title>\\Templates\\Footer</title>
<polygon fill="none" stroke="#000000" points="264.5,-1568 207.5,-1568 207.5,-1532 264.5,-1532 264.5,-1568"/>
<text text-anchor="middle" x="236" y="-1547.2" font-family="Courier,monospace" font-size="11.00" fill="#000000">Footer</text>
</g>
<!-- \\Templates\\Footer&#45;&gt;\\Interfaces\\Templatable -->
<g id="edge19" class="edge">
<title>\\Templates\\Footer&#45;&gt;\\Interfaces\\Templatable</title>
<path fill="none" stroke="#000000" stroke-dasharray="1,5" d="M207.4604,-1538.6807C198.0369,-1534.3783 187.7374,-1529.0393 179,-1523 150.5577,-1503.3406 151.1943,-1489.0134 123,-1469 121.3456,-1467.8257 119.6329,-1466.6736 117.8803,-1465.5472"/>
<polygon fill="none" stroke="#000000" points="119.2466,-1462.2855 108.8703,-1460.1449 115.6469,-1468.2891 119.2466,-1462.2855"/>
</g>
<!-- \\Templates\\Image -->
<g id="node34" class="node">
<title>\\Templates\\Image</title>
<polygon fill="none" stroke="#000000" points="263,-1514 209,-1514 209,-1478 263,-1478 263,-1514"/>
<text text-anchor="middle" x="236" y="-1493.2" font-family="Courier,monospace" font-size="11.00" fill="#000000">Image</text>
</g>
<!-- \\Templates\\Image&#45;&gt;\\Interfaces\\Templatable -->
<g id="edge20" class="edge">
<title>\\Templates\\Image&#45;&gt;\\Interfaces\\Templatable</title>
<path fill="none" stroke="#000000" stroke-dasharray="1,5" d="M208.8783,-1487.2038C186.2103,-1479.852 153.15,-1469.1297 124.9163,-1459.9729"/>
<polygon fill="none" stroke="#000000" points="125.748,-1456.5632 115.156,-1456.8073 123.5884,-1463.2217 125.748,-1456.5632"/>
</g>
<!-- \\Templates\\InlinedCss -->
<g id="node35" class="node">
<title>\\Templates\\InlinedCss</title>
<polygon fill="none" stroke="#000000" points="278,-1460 194,-1460 194,-1424 278,-1424 278,-1460"/>
<text text-anchor="middle" x="236" y="-1439.2" font-family="Courier,monospace" font-size="11.00" fill="#000000">InlinedCss</text>
</g>
<!-- \\Templates\\InlinedCss&#45;&gt;\\Interfaces\\Templatable -->
<g id="edge21" class="edge">
<title>\\Templates\\InlinedCss&#45;&gt;\\Interfaces\\Templatable</title>
<path fill="none" stroke="#000000" stroke-dasharray="1,5" d="M193.985,-1442C173.0996,-1442 147.5818,-1442 125.0993,-1442"/>
<polygon fill="none" stroke="#000000" points="125.0106,-1438.5001 115.0106,-1442 125.0106,-1445.5001 125.0106,-1438.5001"/>
</g>
<!-- \\Templates\\InlinedJs -->
<g id="node36" class="node">
<title>\\Templates\\InlinedJs</title>
<polygon fill="none" stroke="#000000" points="274.5,-1406 197.5,-1406 197.5,-1370 274.5,-1370 274.5,-1406"/>
<text text-anchor="middle" x="236" y="-1385.2" font-family="Courier,monospace" font-size="11.00" fill="#000000">InlinedJs</text>
</g>
<!-- \\Templates\\InlinedJs&#45;&gt;\\Interfaces\\Templatable -->
<g id="edge22" class="edge">
<title>\\Templates\\InlinedJs&#45;&gt;\\Interfaces\\Templatable</title>
<path fill="none" stroke="#000000" stroke-dasharray="1,5" d="M197.3831,-1400.5244C175.8526,-1407.5073 148.6674,-1416.3241 124.9036,-1424.0313"/>
<polygon fill="none" stroke="#000000" points="123.7322,-1420.7316 115.2997,-1427.146 125.8918,-1427.3902 123.7322,-1420.7316"/>
</g>
<!-- \\Templates\\LocationCard -->
<g id="node37" class="node">
<title>\\Templates\\LocationCard</title>
<polygon fill="none" stroke="#000000" points="285,-1784 187,-1784 187,-1748 285,-1748 285,-1784"/>
<text text-anchor="middle" x="236" y="-1763.2" font-family="Courier,monospace" font-size="11.00" fill="#000000">LocationCard</text>
</g>
<!-- \\Templates\\LocationCard&#45;&gt;\\Interfaces\\Templatable -->
<g id="edge23" class="edge">
<title>\\Templates\\LocationCard&#45;&gt;\\Interfaces\\Templatable</title>
<path fill="none" stroke="#000000" stroke-dasharray="1,5" d="M188.2564,-1747.9244C184.7986,-1745.3172 181.64,-1742.3566 179,-1739 103.2358,-1642.6712 197.554,-1566.2685 123,-1469 122.5253,-1468.3807 122.0325,-1467.7745 121.5231,-1467.1812"/>
<polygon fill="none" stroke="#000000" points="123.7622,-1464.4821 114.0828,-1460.1741 118.9631,-1469.5781 123.7622,-1464.4821"/>
</g>
<!-- \\Templates\\Table -->
<g id="node38" class="node">
<title>\\Templates\\Table</title>
<polygon fill="none" stroke="#000000" points="263,-1730 209,-1730 209,-1694 263,-1694 263,-1730"/>
<text text-anchor="middle" x="236" y="-1709.2" font-family="Courier,monospace" font-size="11.00" fill="#000000">Table</text>
</g>
<!-- \\Templates\\Table&#45;&gt;\\Interfaces\\Templatable -->
<g id="edge24" class="edge">
<title>\\Templates\\Table&#45;&gt;\\Interfaces\\Templatable</title>
<path fill="none" stroke="#000000" stroke-dasharray="1,5" d="M208.7256,-1704.6139C198.0696,-1700.4572 186.607,-1694.1971 179,-1685 115.792,-1608.5788 185.2476,-1546.2055 123,-1469 122.4143,-1468.2736 121.804,-1467.5649 121.1715,-1466.8737"/>
<polygon fill="none" stroke="#000000" points="123.4337,-1464.2009 113.6574,-1460.1174 118.7534,-1469.4062 123.4337,-1464.2009"/>
</g>
<!-- \\Views\\AdminDashboard -->
<g id="node39" class="node">
<title>\\Views\\AdminDashboard</title>
<polygon fill="none" stroke="#000000" points="485,-734 374,-734 374,-698 485,-698 485,-734"/>
<text text-anchor="middle" x="429.5" y="-713.2" font-family="Courier,monospace" font-size="11.00" fill="#000000">AdminDashboard</text>
</g>
<!-- \\Views\\View -->
<g id="node44" class="node">
<title>\\Views\\View</title>
<polygon fill="none" stroke="#000000" points="278,-653 194,-653 194,-617 278,-617 278,-653"/>
<text text-anchor="start" x="202" y="-638.2" font-family="Courier,monospace" font-size="11.00" fill="#000000">«abstract»</text>
<text text-anchor="start" x="222" y="-626.2" font-family="Courier,monospace" font-size="11.00" fill="#000000">View</text>
</g>
<!-- \\Views\\AdminDashboard&#45;&gt;\\Views\\View -->
<g id="edge25" class="edge">
<title>\\Views\\AdminDashboard&#45;&gt;\\Views\\View</title>
<path fill="none" stroke="#000000" d="M373.7459,-698.2879C365.3908,-695.3492 356.9248,-692.2086 349,-689 325.9302,-679.6596 300.8985,-667.8756 280.2719,-657.7007"/>
<polygon fill="none" stroke="#000000" points="281.6401,-654.4723 271.1277,-653.1536 278.5233,-660.7401 281.6401,-654.4723"/>
</g>
<!-- \\Views\\Error404 -->
<g id="node40" class="node">
<title>\\Views\\Error404</title>
<polygon fill="none" stroke="#000000" points="465,-680 394,-680 394,-644 465,-644 465,-680"/>
<text text-anchor="middle" x="429.5" y="-659.2" font-family="Courier,monospace" font-size="11.00" fill="#000000">Error404</text>
</g>
<!-- \\Views\\Error404&#45;&gt;\\Views\\View -->
<g id="edge26" class="edge">
<title>\\Views\\Error404&#45;&gt;\\Views\\View</title>
<path fill="none" stroke="#000000" d="M393.5576,-656.9848C363.9422,-652.8524 321.5435,-646.9363 288.1872,-642.2819"/>
<polygon fill="none" stroke="#000000" points="288.5375,-638.797 278.1497,-640.8814 287.5701,-645.7298 288.5375,-638.797"/>
</g>
<!-- \\Views\\Home -->
<g id="node41" class="node">
<title>\\Views\\Home</title>
<polygon fill="none" stroke="#000000" points="456.5,-626 402.5,-626 402.5,-590 456.5,-590 456.5,-626"/>
<text text-anchor="middle" x="429.5" y="-605.2" font-family="Courier,monospace" font-size="11.00" fill="#000000">Home</text>
</g>
<!-- \\Views\\Home&#45;&gt;\\Views\\View -->
<g id="edge27" class="edge">
<title>\\Views\\Home&#45;&gt;\\Views\\View</title>
<path fill="none" stroke="#000000" d="M402.1866,-611.8112C372.6672,-615.9302 324.9204,-622.5925 288.1632,-627.7214"/>
<polygon fill="none" stroke="#000000" points="287.5318,-624.2755 278.1115,-629.124 288.4993,-631.2084 287.5318,-624.2755"/>
</g>
<!-- \\Views\\OfferingList -->
<g id="node42" class="node">
<title>\\Views\\OfferingList</title>
<polygon fill="none" stroke="#000000" points="478.5,-572 380.5,-572 380.5,-536 478.5,-536 478.5,-572"/>
<text text-anchor="middle" x="429.5" y="-551.2" font-family="Courier,monospace" font-size="11.00" fill="#000000">OfferingList</text>
</g>
<!-- \\Views\\OfferingList&#45;&gt;\\Views\\View -->
<g id="edge28" class="edge">
<title>\\Views\\OfferingList&#45;&gt;\\Views\\View</title>
<path fill="none" stroke="#000000" d="M380.1949,-569.4748C369.8059,-573.0309 358.9743,-576.9616 349,-581 325.9302,-590.3404 300.8985,-602.1244 280.2719,-612.2993"/>
<polygon fill="none" stroke="#000000" points="278.5233,-609.2599 271.1277,-616.8464 281.6401,-615.5277 278.5233,-609.2599"/>
</g>
<!-- \\Views\\OperatorDashboard -->
<g id="node43" class="node">
<title>\\Views\\OperatorDashboard</title>
<polygon fill="none" stroke="#000000" points="495,-518 364,-518 364,-482 495,-482 495,-518"/>
<text text-anchor="middle" x="429.5" y="-497.2" font-family="Courier,monospace" font-size="11.00" fill="#000000">OperatorDashboard</text>
</g>
<!-- \\Views\\OperatorDashboard&#45;&gt;\\Views\\View -->
<g id="edge29" class="edge">
<title>\\Views\\OperatorDashboard&#45;&gt;\\Views\\View</title>
<path fill="none" stroke="#000000" d="M366.3199,-518.1664C360.3007,-520.7864 354.4262,-523.7238 349,-527 312.4744,-549.0534 278.1908,-584.7555 257.1727,-609.0227"/>
<polygon fill="none" stroke="#000000" points="254.3876,-606.8949 250.5693,-616.7778 259.7172,-611.433 254.3876,-606.8949"/>
</g>
<!-- \\Views\\View&#45;&gt;\\Interfaces\\Layoutable -->
<g id="edge30" class="edge">
<title>\\Views\\View&#45;&gt;\\Interfaces\\Layoutable</title>
<path fill="none" stroke="#000000" stroke-dasharray="1,5" d="M231.9667,-653.2405C209.7912,-753.5297 102.725,-1237.7394 75.7035,-1359.9445"/>
<polygon fill="none" stroke="#000000" points="72.2218,-1359.4797 73.4802,-1369.9996 79.0567,-1360.9911 72.2218,-1359.4797"/>
</g>
</g>
</svg>
