<?xml version="1.0" encoding="UTF-8" standalone="no"?>
<!DOCTYPE svg PUBLIC "-//W3C//DTD SVG 1.1//EN"
 "http://www.w3.org/Graphics/SVG/1.1/DTD/svg11.dtd">
<!-- Generated by graphviz version 2.40.1 (20161225.0304)
 -->
<!-- Title: G Pages: 1 -->
<svg width="522pt" height="2098pt"
 viewBox="0.00 0.00 521.50 2098.00" xmlns="http://www.w3.org/2000/svg" xmlns:xlink="http://www.w3.org/1999/xlink">
<g id="graph0" class="graph" transform="scale(1 1) rotate(0) translate(4 2094)">
<title>G</title>
<polygon fill="#ffffff" stroke="transparent" points="-4,4 -4,-2094 517.5,-2094 517.5,4 -4,4"/>
<g id="clust1" class="cluster">
<title>cluster_Global</title>
<polygon fill="none" stroke="#000000" points="8,-8 8,-2082 505.5,-2082 505.5,-8 8,-8"/>
<text text-anchor="middle" x="256.75" y="-2069.2" font-family="Times,serif" font-size="11.00" fill="#c0c0c0">Global</text>
</g>
<g id="clust2" class="cluster">
<title>cluster_\Controllers</title>
<polygon fill="none" stroke="#000000" points="19.5,-1874 19.5,-2054 496,-2054 496,-1874 19.5,-1874"/>
<text text-anchor="middle" x="257.75" y="-2041.2" font-family="Times,serif" font-size="11.00" fill="#c0c0c0">Controllers</text>
</g>
<g id="clust3" class="cluster">
<title>cluster_\Entities</title>
<polygon fill="none" stroke="#000000" points="186,-1012 186,-1354 466,-1354 466,-1012 186,-1012"/>
<text text-anchor="middle" x="326" y="-1341.2" font-family="Times,serif" font-size="11.00" fill="#c0c0c0">Entities</text>
</g>
<g id="clust4" class="cluster">
<title>cluster_\Helpers</title>
<polygon fill="none" stroke="#000000" points="372.5,-770 372.5,-1004 472.5,-1004 472.5,-770 372.5,-770"/>
<text text-anchor="middle" x="422.5" y="-991.2" font-family="Times,serif" font-size="11.00" fill="#c0c0c0">Helpers</text>
</g>
<g id="clust5" class="cluster">
<title>cluster_\Interfaces</title>
<polygon fill="none" stroke="#000000" points="16,-1389 16,-1677 123,-1677 123,-1389 16,-1389"/>
<text text-anchor="middle" x="69.5" y="-1664.2" font-family="Times,serif" font-size="11.00" fill="#c0c0c0">Interfaces</text>
</g>
<g id="clust6" class="cluster">
<title>cluster_\Layouts</title>
<polygon fill="none" stroke="#000000" points="189.5,-286 189.5,-466 282.5,-466 282.5,-286 189.5,-286"/>
<text text-anchor="middle" x="236" y="-453.2" font-family="Times,serif" font-size="11.00" fill="#c0c0c0">Layouts</text>
</g>
<g id="clust7" class="cluster">
<title>cluster_\Models</title>
<polygon fill="none" stroke="#000000" points="19.5,-16 19.5,-278 497.5,-278 497.5,-16 19.5,-16"/>
<text text-anchor="middle" x="258.5" y="-265.2" font-family="Times,serif" font-size="11.00" fill="#c0c0c0">Models</text>
</g>
<g id="clust8" class="cluster">
<title>cluster_\Models\Repos</title>
<polygon fill="none" stroke="#000000" points="355.5,-70 355.5,-250 489.5,-250 489.5,-70 355.5,-70"/>
<text text-anchor="middle" x="422.5" y="-237.2" font-family="Times,serif" font-size="11.00" fill="#c0c0c0">Repos</text>
</g>
<g id="clust9" class="cluster">
<title>cluster_\Templates</title>
<polygon fill="none" stroke="#000000" points="179,-1362 179,-1866 293,-1866 293,-1362 179,-1362"/>
<text text-anchor="middle" x="236" y="-1853.2" font-family="Times,serif" font-size="11.00" fill="#c0c0c0">Templates</text>
</g>
<g id="clust10" class="cluster">
<title>cluster_\Views</title>
<polygon fill="none" stroke="#000000" points="186,-474 186,-762 496,-762 496,-474 186,-474"/>
<text text-anchor="middle" x="341" y="-749.2" font-family="Times,serif" font-size="11.00" fill="#c0c0c0">Views</text>
</g>
<!-- \\Controllers\\API -->
<g id="node1" class="node">
<title>\\Controllers\\API</title>
<polygon fill="none" stroke="#000000" points="278,-2026 194,-2026 194,-1990 278,-1990 278,-2026"/>
<text text-anchor="start" x="202" y="-2011.2" font-family="Courier,monospace" font-size="11.00" fill="#000000">«abstract»</text>
<text text-anchor="start" x="225.5" y="-1999.2" font-family="Courier,monospace" font-size="11.00" fill="#000000">API</text>
</g>
<!-- \\Controllers\\Controller -->
<g id="node3" class="node">
<title>\\Controllers\\Controller</title>
<polygon fill="none" stroke="#000000" points="111.5,-1972 27.5,-1972 27.5,-1936 111.5,-1936 111.5,-1972"/>
<text text-anchor="start" x="35.5" y="-1957.2" font-family="Courier,monospace" font-size="11.00" fill="#000000">«abstract»</text>
<text text-anchor="start" x="35.5" y="-1945.2" font-family="Courier,monospace" font-size="11.00" fill="#000000">Controller</text>
</g>
<!-- \\Controllers\\API&#45;&gt;\\Controllers\\Controller -->
<g id="edge1" class="edge">
<title>\\Controllers\\API&#45;&gt;\\Controllers\\Controller</title>
<path fill="none" stroke="#000000" d="M193.985,-1994.3735C171.8999,-1987.2108 144.635,-1978.3681 121.2565,-1970.7859"/>
<polygon fill="none" stroke="#000000" points="122.0936,-1967.378 111.5015,-1967.6221 119.934,-1974.0365 122.0936,-1967.378"/>
</g>
<!-- \\Controllers\\ComparOperatorAPI -->
<g id="node2" class="node">
<title>\\Controllers\\ComparOperatorAPI</title>
<polygon fill="none" stroke="#000000" points="488,-2026 357,-2026 357,-1990 488,-1990 488,-2026"/>
<text text-anchor="middle" x="422.5" y="-2005.2" font-family="Courier,monospace" font-size="11.00" fill="#000000">ComparOperatorAPI</text>
</g>
<!-- \\Controllers\\ComparOperatorAPI&#45;&gt;\\Controllers\\API -->
<g id="edge2" class="edge">
<title>\\Controllers\\ComparOperatorAPI&#45;&gt;\\Controllers\\API</title>
<path fill="none" stroke="#000000" d="M356.7471,-2008C334.3061,-2008 309.5318,-2008 288.2944,-2008"/>
<polygon fill="none" stroke="#000000" points="288.1787,-2004.5001 278.1786,-2008 288.1786,-2011.5001 288.1787,-2004.5001"/>
</g>
<!-- \\Controllers\\Dashboard -->
<g id="node4" class="node">
<title>\\Controllers\\Dashboard</title>
<polygon fill="none" stroke="#000000" points="274.5,-1972 197.5,-1972 197.5,-1936 274.5,-1936 274.5,-1972"/>
<text text-anchor="middle" x="236" y="-1951.2" font-family="Courier,monospace" font-size="11.00" fill="#000000">Dashboard</text>
</g>
<!-- \\Controllers\\Dashboard&#45;&gt;\\Controllers\\Controller -->
<g id="edge3" class="edge">
<title>\\Controllers\\Dashboard&#45;&gt;\\Controllers\\Controller</title>
<path fill="none" stroke="#000000" d="M197.3831,-1954C174.9396,-1954 146.3517,-1954 121.8996,-1954"/>
<polygon fill="none" stroke="#000000" points="121.7033,-1950.5001 111.7033,-1954 121.7033,-1957.5001 121.7033,-1950.5001"/>
</g>
<!-- \\Controllers\\Home -->
<g id="node5" class="node">
<title>\\Controllers\\Home</title>
<polygon fill="none" stroke="#000000" points="263,-1918 209,-1918 209,-1882 263,-1882 263,-1918"/>
<text text-anchor="middle" x="236" y="-1897.2" font-family="Courier,monospace" font-size="11.00" fill="#000000">Home</text>
</g>
<!-- \\Controllers\\Home&#45;&gt;\\Controllers\\Controller -->
<g id="edge4" class="edge">
<title>\\Controllers\\Home&#45;&gt;\\Controllers\\Controller</title>
<path fill="none" stroke="#000000" d="M208.8783,-1908.7962C185.2006,-1916.4755 150.1843,-1927.8321 121.1737,-1937.241"/>
<polygon fill="none" stroke="#000000" points="120.0231,-1933.9346 111.5906,-1940.349 122.1826,-1940.5932 120.0231,-1933.9346"/>
</g>
<!-- \\Entities\\Entity -->
<g id="node6" class="node">
<title>\\Entities\\Entity</title>
<polygon fill="none" stroke="#000000" points="278,-1218 194,-1218 194,-1182 278,-1182 278,-1218"/>
<text text-anchor="start" x="202" y="-1203.2" font-family="Courier,monospace" font-size="11.00" fill="#000000">«abstract»</text>
<text text-anchor="start" x="215.5" y="-1191.2" font-family="Courier,monospace" font-size="11.00" fill="#000000">Entity</text>
</g>
<!-- \\Interfaces\\Validatable -->
<g id="node21" class="node">
<title>\\Interfaces\\Validatable</title>
<polygon fill="none" stroke="#000000" points="115,-1595 24,-1595 24,-1559 115,-1559 115,-1595"/>
<text text-anchor="middle" x="69.5" y="-1574.2" font-family="Courier,monospace" font-size="11.00" fill="#000000">Validatable</text>
</g>
<!-- \\Entities\\Entity&#45;&gt;\\Interfaces\\Validatable -->
<g id="edge5" class="edge">
<title>\\Entities\\Entity&#45;&gt;\\Interfaces\\Validatable</title>
<path fill="none" stroke="#000000" stroke-dasharray="1,5" d="M228.9548,-1218.3577C217.7974,-1247.6805 195.6241,-1306.9841 179,-1358 151.4598,-1442.5149 179.8279,-1481.6493 123,-1550 122.3889,-1550.735 121.7528,-1551.452 121.0942,-1552.1514"/>
<polygon fill="none" stroke="#000000" points="118.5097,-1549.7625 113.296,-1558.9857 123.1234,-1555.0269 118.5097,-1549.7625"/>
</g>
<!-- \\Entities\\Generic -->
<g id="node7" class="node">
<title>\\Entities\\Generic</title>
<polygon fill="none" stroke="#000000" points="454.5,-1110 390.5,-1110 390.5,-1074 454.5,-1074 454.5,-1110"/>
<text text-anchor="middle" x="422.5" y="-1089.2" font-family="Courier,monospace" font-size="11.00" fill="#000000">Generic</text>
</g>
<!-- \\Entities\\Generic&#45;&gt;\\Entities\\Entity -->
<g id="edge6" class="edge">
<title>\\Entities\\Generic&#45;&gt;\\Entities\\Entity</title>
<path fill="none" stroke="#000000" d="M390.1747,-1103.4241C378.9609,-1107.8035 366.4582,-1113.1637 355.5,-1119 324.1739,-1135.6841 290.939,-1158.6952 267.4925,-1175.9285"/>
<polygon fill="none" stroke="#000000" points="265.2638,-1173.2239 259.3189,-1181.9937 269.4351,-1178.8453 265.2638,-1173.2239"/>
</g>
<!-- \\Entities\\Location -->
<g id="node8" class="node">
<title>\\Entities\\Location</title>
<polygon fill="none" stroke="#000000" points="458,-1056 387,-1056 387,-1020 458,-1020 458,-1056"/>
<text text-anchor="middle" x="422.5" y="-1035.2" font-family="Courier,monospace" font-size="11.00" fill="#000000">Location</text>
</g>
<!-- \\Entities\\Location&#45;&gt;\\Entities\\Entity -->
<g id="edge7" class="edge">
<title>\\Entities\\Location&#45;&gt;\\Entities\\Entity</title>
<path fill="none" stroke="#000000" d="M386.8451,-1048.8534C376.2301,-1052.9882 364.926,-1058.3465 355.5,-1065 312.6751,-1095.2286 274.7407,-1143.6802 253.6251,-1173.5765"/>
<polygon fill="none" stroke="#000000" points="250.7068,-1171.6427 247.8751,-1181.8521 256.4554,-1175.637 250.7068,-1171.6427"/>
</g>
<!-- \\Entities\\Offering -->
<g id="node9" class="node">
<title>\\Entities\\Offering</title>
<polygon fill="none" stroke="#000000" points="458,-1326 387,-1326 387,-1290 458,-1290 458,-1326"/>
<text text-anchor="middle" x="422.5" y="-1305.2" font-family="Courier,monospace" font-size="11.00" fill="#000000">Offering</text>
</g>
<!-- \\Entities\\Offering&#45;&gt;\\Entities\\Entity -->
<g id="edge8" class="edge">
<title>\\Entities\\Offering&#45;&gt;\\Entities\\Entity</title>
<path fill="none" stroke="#000000" d="M386.74,-1295.2193C376.4509,-1291.1087 365.3513,-1286.2468 355.5,-1281 324.1739,-1264.3159 290.939,-1241.3048 267.4925,-1224.0715"/>
<polygon fill="none" stroke="#000000" points="269.4351,-1221.1547 259.3189,-1218.0063 265.2638,-1226.7761 269.4351,-1221.1547"/>
</g>
<!-- \\Entities\\Operator -->
<g id="node10" class="node">
<title>\\Entities\\Operator</title>
<polygon fill="none" stroke="#000000" points="458,-1272 387,-1272 387,-1236 458,-1236 458,-1272"/>
<text text-anchor="middle" x="422.5" y="-1251.2" font-family="Courier,monospace" font-size="11.00" fill="#000000">Operator</text>
</g>
<!-- \\Entities\\Operator&#45;&gt;\\Entities\\Entity -->
<g id="edge9" class="edge">
<title>\\Entities\\Operator&#45;&gt;\\Entities\\Entity</title>
<path fill="none" stroke="#000000" d="M386.9818,-1243.7159C359.0398,-1235.6255 319.6961,-1224.2337 288.1766,-1215.1074"/>
<polygon fill="none" stroke="#000000" points="288.8213,-1211.6504 278.2423,-1212.231 286.8744,-1218.3742 288.8213,-1211.6504"/>
</g>
<!-- \\Entities\\Review -->
<g id="node11" class="node">
<title>\\Entities\\Review</title>
<polygon fill="none" stroke="#000000" points="451,-1218 394,-1218 394,-1182 451,-1182 451,-1218"/>
<text text-anchor="middle" x="422.5" y="-1197.2" font-family="Courier,monospace" font-size="11.00" fill="#000000">Review</text>
</g>
<!-- \\Entities\\Review&#45;&gt;\\Entities\\Entity -->
<g id="edge10" class="edge">
<title>\\Entities\\Review&#45;&gt;\\Entities\\Entity</title>
<path fill="none" stroke="#000000" d="M393.7681,-1200C365.8035,-1200 322.655,-1200 288.5463,-1200"/>
<polygon fill="none" stroke="#000000" points="288.2779,-1196.5001 278.2778,-1200 288.2778,-1203.5001 288.2779,-1196.5001"/>
</g>
<!-- \\Entities\\User -->
<g id="node12" class="node">
<title>\\Entities\\User</title>
<polygon fill="none" stroke="#000000" points="449.5,-1164 395.5,-1164 395.5,-1128 449.5,-1128 449.5,-1164"/>
<text text-anchor="middle" x="422.5" y="-1143.2" font-family="Courier,monospace" font-size="11.00" fill="#000000">User</text>
</g>
<!-- \\Entities\\User&#45;&gt;\\Entities\\Entity -->
<g id="edge11" class="edge">
<title>\\Entities\\User&#45;&gt;\\Entities\\Entity</title>
<path fill="none" stroke="#000000" d="M395.3813,-1153.8521C367.4287,-1161.9456 323.1422,-1174.7685 288.3388,-1184.8456"/>
<polygon fill="none" stroke="#000000" points="286.9663,-1181.5992 278.3343,-1187.7423 288.9132,-1188.323 286.9663,-1181.5992"/>
</g>
<!-- \\Helpers\\Cache -->
<g id="node13" class="node">
<title>\\Helpers\\Cache</title>
<polygon fill="none" stroke="#000000" points="449.5,-976 395.5,-976 395.5,-940 449.5,-940 449.5,-976"/>
<text text-anchor="middle" x="422.5" y="-955.2" font-family="Courier,monospace" font-size="11.00" fill="#000000">Cache</text>
</g>
<!-- \\Helpers\\CacheItem -->
<g id="node14" class="node">
<title>\\Helpers\\CacheItem</title>
<polygon fill="none" stroke="#000000" points="461,-922 384,-922 384,-886 461,-886 461,-922"/>
<text text-anchor="middle" x="422.5" y="-901.2" font-family="Courier,monospace" font-size="11.00" fill="#000000">CacheItem</text>
</g>
<!-- \\Helpers\\DB -->
<g id="node15" class="node">
<title>\\Helpers\\DB</title>
<polygon fill="none" stroke="#000000" points="449.5,-868 395.5,-868 395.5,-832 449.5,-832 449.5,-868"/>
<text text-anchor="middle" x="422.5" y="-847.2" font-family="Courier,monospace" font-size="11.00" fill="#000000">DB</text>
</g>
<!-- \\Helpers\\Dispatcher -->
<g id="node16" class="node">
<title>\\Helpers\\Dispatcher</title>
<polygon fill="none" stroke="#000000" points="464.5,-814 380.5,-814 380.5,-778 464.5,-778 464.5,-814"/>
<text text-anchor="middle" x="422.5" y="-793.2" font-family="Courier,monospace" font-size="11.00" fill="#000000">Dispatcher</text>
</g>
<!-- \\Interfaces\\Cacheable -->
<g id="node17" class="node">
<title>\\Interfaces\\Cacheable</title>
<polygon fill="none" stroke="#000000" points="108,-1649 31,-1649 31,-1613 108,-1613 108,-1649"/>
<text text-anchor="middle" x="69.5" y="-1628.2" font-family="Courier,monospace" font-size="11.00" fill="#000000">Cacheable</text>
</g>
<!-- \\Interfaces\\Layoutable -->
<g id="node18" class="node">
<title>\\Interfaces\\Layoutable</title>
<polygon fill="none" stroke="#000000" points="111.5,-1433 27.5,-1433 27.5,-1397 111.5,-1397 111.5,-1433"/>
<text text-anchor="middle" x="69.5" y="-1412.2" font-family="Courier,monospace" font-size="11.00" fill="#000000">Layoutable</text>
</g>
<!-- \\Interfaces\\Loadable -->
<g id="node19" class="node">
<title>\\Interfaces\\Loadable</title>
<polygon fill="none" stroke="#000000" points="105,-1541 34,-1541 34,-1505 105,-1505 105,-1541"/>
<text text-anchor="middle" x="69.5" y="-1520.2" font-family="Courier,monospace" font-size="11.00" fill="#000000">Loadable</text>
</g>
<!-- \\Interfaces\\Templatable -->
<g id="node20" class="node">
<title>\\Interfaces\\Templatable</title>
<polygon fill="none" stroke="#000000" points="115,-1487 24,-1487 24,-1451 115,-1451 115,-1487"/>
<text text-anchor="middle" x="69.5" y="-1466.2" font-family="Courier,monospace" font-size="11.00" fill="#000000">Templatable</text>
</g>
<!-- \\Layouts\\Dashboard -->
<g id="node22" class="node">
<title>\\Layouts\\Dashboard</title>
<polygon fill="none" stroke="#000000" points="274.5,-438 197.5,-438 197.5,-402 274.5,-402 274.5,-438"/>
<text text-anchor="middle" x="236" y="-417.2" font-family="Courier,monospace" font-size="11.00" fill="#000000">Dashboard</text>
</g>
<!-- \\Layouts\\Dashboard&#45;&gt;\\Interfaces\\Templatable -->
<g id="edge12" class="edge">
<title>\\Layouts\\Dashboard&#45;&gt;\\Interfaces\\Templatable</title>
<path fill="none" stroke="#000000" stroke-dasharray="1,5" d="M207.1281,-438.0017C196.3559,-446.3292 185.2367,-457.2243 179,-470 84.0864,-664.4281 241.6569,-1261.0818 123,-1442 122.729,-1442.4132 122.4496,-1442.8204 122.1622,-1443.2217"/>
<polygon fill="none" stroke="#000000" points="119.356,-1441.0991 115.0966,-1450.8001 124.4759,-1445.8726 119.356,-1441.0991"/>
</g>
<!-- \\Layouts\\Home -->
<g id="node23" class="node">
<title>\\Layouts\\Home</title>
<polygon fill="none" stroke="#000000" points="263,-384 209,-384 209,-348 263,-348 263,-384"/>
<text text-anchor="middle" x="236" y="-363.2" font-family="Courier,monospace" font-size="11.00" fill="#000000">Home</text>
</g>
<!-- \\Layouts\\Home&#45;&gt;\\Interfaces\\Templatable -->
<g id="edge13" class="edge">
<title>\\Layouts\\Home&#45;&gt;\\Interfaces\\Templatable</title>
<path fill="none" stroke="#000000" stroke-dasharray="1,5" d="M208.9657,-372.2435C197.8067,-376.2597 185.8931,-382.7245 179,-393 48.9512,-586.8632 250.615,-1246.526 123,-1442 122.7298,-1442.4138 122.4513,-1442.8216 122.1648,-1443.2233"/>
<polygon fill="none" stroke="#000000" points="119.3572,-1441.1029 115.1118,-1450.81 124.484,-1445.8691 119.3572,-1441.1029"/>
</g>
<!-- \\Layouts\\Minimal -->
<g id="node24" class="node">
<title>\\Layouts\\Minimal</title>
<polygon fill="none" stroke="#000000" points="268,-330 204,-330 204,-294 268,-294 268,-330"/>
<text text-anchor="middle" x="236" y="-309.2" font-family="Courier,monospace" font-size="11.00" fill="#000000">Minimal</text>
</g>
<!-- \\Layouts\\Minimal&#45;&gt;\\Interfaces\\Templatable -->
<g id="edge14" class="edge">
<title>\\Layouts\\Minimal&#45;&gt;\\Interfaces\\Templatable</title>
<path fill="none" stroke="#000000" stroke-dasharray="1,5" d="M203.8844,-320.2181C194.3215,-324.2816 184.8447,-330.2627 179,-339 42.5409,-542.9932 256.8982,-1236.3167 123,-1442 122.7304,-1442.4142 122.4524,-1442.8223 122.1663,-1443.2243"/>
<polygon fill="none" stroke="#000000" points="119.3579,-1441.1053 115.1212,-1450.8161 124.489,-1445.8668 119.3579,-1441.1053"/>
</g>
<!-- \\Models\\Repos\\DestinationRepo -->
<g id="node25" class="node">
<title>\\Models\\Repos\\DestinationRepo</title>
<polygon fill="none" stroke="#000000" points="481.5,-222 363.5,-222 363.5,-186 481.5,-186 481.5,-222"/>
<text text-anchor="middle" x="422.5" y="-201.2" font-family="Courier,monospace" font-size="11.00" fill="#000000">DestinationRepo</text>
</g>
<!-- \\Models\\Repos\\OperatorRepo -->
<g id="node26" class="node">
<title>\\Models\\Repos\\OperatorRepo</title>
<polygon fill="none" stroke="#000000" points="471.5,-168 373.5,-168 373.5,-132 471.5,-132 471.5,-168"/>
<text text-anchor="middle" x="422.5" y="-147.2" font-family="Courier,monospace" font-size="11.00" fill="#000000">OperatorRepo</text>
</g>
<!-- \\Models\\Repos\\UserRepo -->
<g id="node27" class="node">
<title>\\Models\\Repos\\UserRepo</title>
<polygon fill="none" stroke="#000000" points="458,-114 387,-114 387,-78 458,-78 458,-114"/>
<text text-anchor="middle" x="422.5" y="-93.2" font-family="Courier,monospace" font-size="11.00" fill="#000000">UserRepo</text>
</g>
<!-- \\Models\\ComparOperatorAPI -->
<g id="node28" class="node">
<title>\\Models\\ComparOperatorAPI</title>
<polygon fill="none" stroke="#000000" points="488,-60 357,-60 357,-24 488,-24 488,-60"/>
<text text-anchor="middle" x="422.5" y="-39.2" font-family="Courier,monospace" font-size="11.00" fill="#000000">ComparOperatorAPI</text>
</g>
<!-- \\Models\\DBPDO -->
<g id="node29" class="node">
<title>\\Models\\DBPDO</title>
<polygon fill="none" stroke="#000000" points="263,-60 209,-60 209,-24 263,-24 263,-60"/>
<text text-anchor="middle" x="236" y="-39.2" font-family="Courier,monospace" font-size="11.00" fill="#000000">DBPDO</text>
</g>
<!-- \\Models\\ComparOperatorAPI&#45;&gt;\\Models\\DBPDO -->
<g id="edge15" class="edge">
<title>\\Models\\ComparOperatorAPI&#45;&gt;\\Models\\DBPDO</title>
<path fill="none" stroke="#000000" d="M356.7471,-42C328.793,-42 297.2182,-42 273.3695,-42"/>
<polygon fill="none" stroke="#000000" points="273.3263,-38.5001 263.3262,-42 273.3262,-45.5001 273.3263,-38.5001"/>
</g>
<!-- \\Models\\Model -->
<g id="node30" class="node">
<title>\\Models\\Model</title>
<polygon fill="none" stroke="#000000" points="111.5,-60 27.5,-60 27.5,-24 111.5,-24 111.5,-60"/>
<text text-anchor="start" x="35.5" y="-45.2" font-family="Courier,monospace" font-size="11.00" fill="#000000">«abstract»</text>
<text text-anchor="start" x="52.5" y="-33.2" font-family="Courier,monospace" font-size="11.00" fill="#000000">Model</text>
</g>
<!-- \\Models\\DBPDO&#45;&gt;\\Models\\Model -->
<g id="edge16" class="edge">
<title>\\Models\\DBPDO&#45;&gt;\\Models\\Model</title>
<path fill="none" stroke="#000000" d="M208.8783,-42C185.4065,-42 150.7924,-42 121.9318,-42"/>
<polygon fill="none" stroke="#000000" points="121.5906,-38.5001 111.5906,-42 121.5906,-45.5001 121.5906,-38.5001"/>
</g>
<!-- \\Templates\\Console -->
<g id="node31" class="node">
<title>\\Templates\\Console</title>
<polygon fill="none" stroke="#000000" points="268,-1838 204,-1838 204,-1802 268,-1802 268,-1838"/>
<text text-anchor="middle" x="236" y="-1817.2" font-family="Courier,monospace" font-size="11.00" fill="#000000">Console</text>
</g>
<!-- \\Templates\\Console&#45;&gt;\\Interfaces\\Templatable -->
<g id="edge17" class="edge">
<title>\\Templates\\Console&#45;&gt;\\Interfaces\\Templatable</title>
<path fill="none" stroke="#000000" stroke-dasharray="1,5" d="M203.9676,-1811.0359C194.6453,-1806.9523 185.2895,-1801.1477 179,-1793 96.9194,-1686.6692 203.7448,-1603.3486 123,-1496 122.531,-1495.3764 122.0435,-1494.7662 121.539,-1494.1691"/>
<polygon fill="none" stroke="#000000" points="123.8011,-1491.49 114.147,-1487.1254 118.9721,-1496.5577 123.8011,-1491.49"/>
</g>
<!-- \\Templates\\Fonts -->
<g id="node32" class="node">
<title>\\Templates\\Fonts</title>
<polygon fill="none" stroke="#000000" points="263,-1784 209,-1784 209,-1748 263,-1748 263,-1784"/>
<text text-anchor="middle" x="236" y="-1763.2" font-family="Courier,monospace" font-size="11.00" fill="#000000">Fonts</text>
</g>
<!-- \\Templates\\Fonts&#45;&gt;\\Interfaces\\Templatable -->
<g id="edge18" class="edge">
<title>\\Templates\\Fonts&#45;&gt;\\Interfaces\\Templatable</title>
<path fill="none" stroke="#000000" stroke-dasharray="1,5" d="M208.8949,-1758.8287C198.1356,-1754.6898 186.5499,-1748.385 179,-1739 109.5295,-1652.6443 191.3855,-1583.2175 123,-1496 122.4242,-1495.2657 121.8232,-1494.5497 121.1993,-1493.8516"/>
<polygon fill="none" stroke="#000000" points="123.4945,-1491.2078 113.7534,-1487.0411 118.77,-1496.373 123.4945,-1491.2078"/>
</g>
<!-- \\Templates\\Footer -->
<g id="node33" class="node">
<title>\\Templates\\Footer</title>
<polygon fill="none" stroke="#000000" points="264.5,-1730 207.5,-1730 207.5,-1694 264.5,-1694 264.5,-1730"/>
<text text-anchor="middle" x="236" y="-1709.2" font-family="Courier,monospace" font-size="11.00" fill="#000000">Footer</text>
</g>
<!-- \\Templates\\Footer&#45;&gt;\\Interfaces\\Templatable -->
<g id="edge19" class="edge">
<title>\\Templates\\Footer&#45;&gt;\\Interfaces\\Templatable</title>
<path fill="none" stroke="#000000" stroke-dasharray="1,5" d="M207.4129,-1703.8952C197.204,-1699.727 186.4078,-1693.6492 179,-1685 122.0102,-1618.4597 179.1535,-1563.2476 123,-1496 122.3873,-1495.2663 121.7497,-1494.5505 121.0898,-1493.8522"/>
<polygon fill="none" stroke="#000000" points="123.1137,-1490.9726 113.281,-1487.0268 118.5069,-1496.2431 123.1137,-1490.9726"/>
</g>
<!-- \\Templates\\Image -->
<g id="node34" class="node">
<title>\\Templates\\Image</title>
<polygon fill="none" stroke="#000000" points="263,-1676 209,-1676 209,-1640 263,-1640 263,-1676"/>
<text text-anchor="middle" x="236" y="-1655.2" font-family="Courier,monospace" font-size="11.00" fill="#000000">Image</text>
</g>
<!-- \\Templates\\Image&#45;&gt;\\Interfaces\\Templatable -->
<g id="edge20" class="edge">
<title>\\Templates\\Image&#45;&gt;\\Interfaces\\Templatable</title>
<path fill="none" stroke="#000000" stroke-dasharray="1,5" d="M208.7594,-1649.8316C198.3618,-1645.5949 187.0786,-1639.4859 179,-1631 134.211,-1583.9532 167.1973,-1543.6031 123,-1496 122.239,-1495.1804 121.4476,-1494.382 120.6297,-1493.6045"/>
<polygon fill="none" stroke="#000000" points="122.6348,-1490.7249 112.6571,-1487.1617 118.235,-1496.1693 122.6348,-1490.7249"/>
</g>
<!-- \\Templates\\InlinedCss -->
<g id="node35" class="node">
<title>\\Templates\\InlinedCss</title>
<polygon fill="none" stroke="#000000" points="278,-1622 194,-1622 194,-1586 278,-1586 278,-1622"/>
<text text-anchor="middle" x="236" y="-1601.2" font-family="Courier,monospace" font-size="11.00" fill="#000000">InlinedCss</text>
</g>
<!-- \\Templates\\InlinedCss&#45;&gt;\\Interfaces\\Templatable -->
<g id="edge21" class="edge">
<title>\\Templates\\InlinedCss&#45;&gt;\\Interfaces\\Templatable</title>
<path fill="none" stroke="#000000" stroke-dasharray="1,5" d="M193.9565,-1587.2472C188.6483,-1584.2422 183.5067,-1580.8279 179,-1577 145.6428,-1548.6671 156.0004,-1524.7477 123,-1496 121.7056,-1494.8724 120.3558,-1493.778 118.9632,-1492.7172"/>
<polygon fill="none" stroke="#000000" points="120.8377,-1489.7591 110.6053,-1487.0118 116.8911,-1495.5405 120.8377,-1489.7591"/>
</g>
<!-- \\Templates\\InlinedJs -->
<g id="node36" class="node">
<title>\\Templates\\InlinedJs</title>
<polygon fill="none" stroke="#000000" points="274.5,-1568 197.5,-1568 197.5,-1532 274.5,-1532 274.5,-1568"/>
<text text-anchor="middle" x="236" y="-1547.2" font-family="Courier,monospace" font-size="11.00" fill="#000000">InlinedJs</text>
</g>
<!-- \\Templates\\InlinedJs&#45;&gt;\\Interfaces\\Templatable -->
<g id="edge22" class="edge">
<title>\\Templates\\InlinedJs&#45;&gt;\\Interfaces\\Templatable</title>
<path fill="none" stroke="#000000" stroke-dasharray="1,5" d="M197.6345,-1531.9283C191.3979,-1528.9615 185.0137,-1525.9069 179,-1523 157.9124,-1512.8067 134.628,-1501.3521 114.9722,-1491.6243"/>
<polygon fill="none" stroke="#000000" points="116.4439,-1488.4475 105.9296,-1487.1443 113.3363,-1494.7199 116.4439,-1488.4475"/>
</g>
<!-- \\Templates\\LocationCard -->
<g id="node37" class="node">
<title>\\Templates\\LocationCard</title>
<polygon fill="none" stroke="#000000" points="285,-1514 187,-1514 187,-1478 285,-1478 285,-1514"/>
<text text-anchor="middle" x="236" y="-1493.2" font-family="Courier,monospace" font-size="11.00" fill="#000000">LocationCard</text>
</g>
<!-- \\Templates\\LocationCard&#45;&gt;\\Interfaces\\Templatable -->
<g id="edge23" class="edge">
<title>\\Templates\\LocationCard&#45;&gt;\\Interfaces\\Templatable</title>
<path fill="none" stroke="#000000" stroke-dasharray="1,5" d="M186.945,-1488.0451C167.4967,-1484.8914 145.0348,-1481.2489 124.9957,-1477.9993"/>
<polygon fill="none" stroke="#000000" points="125.5039,-1474.5361 115.0725,-1476.3901 124.3833,-1481.4458 125.5039,-1474.5361"/>
</g>
<!-- \\Templates\\Nav -->
<g id="node38" class="node">
<title>\\Templates\\Nav</title>
<polygon fill="none" stroke="#000000" points="263,-1460 209,-1460 209,-1424 263,-1424 263,-1460"/>
<text text-anchor="middle" x="236" y="-1439.2" font-family="Courier,monospace" font-size="11.00" fill="#000000">Nav</text>
</g>
<!-- \\Templates\\Nav&#45;&gt;\\Interfaces\\Templatable -->
<g id="edge24" class="edge">
<title>\\Templates\\Nav&#45;&gt;\\Interfaces\\Templatable</title>
<path fill="none" stroke="#000000" stroke-dasharray="1,5" d="M208.8783,-1446.3981C186.3093,-1450.058 153.4385,-1455.3883 125.2865,-1459.9535"/>
<polygon fill="none" stroke="#000000" points="124.4668,-1456.5407 115.156,-1461.5963 125.5873,-1463.4504 124.4668,-1456.5407"/>
</g>
<!-- \\Templates\\Table -->
<g id="node39" class="node">
<title>\\Templates\\Table</title>
<polygon fill="none" stroke="#000000" points="263,-1406 209,-1406 209,-1370 263,-1370 263,-1406"/>
<text text-anchor="middle" x="236" y="-1385.2" font-family="Courier,monospace" font-size="11.00" fill="#000000">Table</text>
</g>
<!-- \\Templates\\Table&#45;&gt;\\Interfaces\\Templatable -->
<g id="edge25" class="edge">
<title>\\Templates\\Table&#45;&gt;\\Interfaces\\Templatable</title>
<path fill="none" stroke="#000000" stroke-dasharray="1,5" d="M208.9927,-1400.6861C199.4956,-1405.1755 188.76,-1410.2822 179,-1415 157.9124,-1425.1933 134.628,-1436.6479 114.9722,-1446.3757"/>
<polygon fill="none" stroke="#000000" points="113.3363,-1443.2801 105.9296,-1450.8557 116.4439,-1449.5525 113.3363,-1443.2801"/>
</g>
<!-- \\Views\\AdminDashboard -->
<g id="node40" class="node">
<title>\\Views\\AdminDashboard</title>
<polygon fill="none" stroke="#000000" points="478,-734 367,-734 367,-698 478,-698 478,-734"/>
<text text-anchor="middle" x="422.5" y="-713.2" font-family="Courier,monospace" font-size="11.00" fill="#000000">AdminDashboard</text>
</g>
<!-- \\Views\\View -->
<g id="node45" class="node">
<title>\\Views\\View</title>
<polygon fill="none" stroke="#000000" points="278,-653 194,-653 194,-617 278,-617 278,-653"/>
<text text-anchor="start" x="202" y="-638.2" font-family="Courier,monospace" font-size="11.00" fill="#000000">«abstract»</text>
<text text-anchor="start" x="222" y="-626.2" font-family="Courier,monospace" font-size="11.00" fill="#000000">View</text>
</g>
<!-- \\Views\\AdminDashboard&#45;&gt;\\Views\\View -->
<g id="edge26" class="edge">
<title>\\Views\\AdminDashboard&#45;&gt;\\Views\\View</title>
<path fill="none" stroke="#000000" d="M376.9844,-697.9528C369.776,-695.0098 362.4195,-691.9562 355.5,-689 331.8829,-678.9104 305.8759,-667.2274 284.1711,-657.3144"/>
<polygon fill="none" stroke="#000000" points="285.3888,-654.0226 274.8396,-653.0408 282.4741,-660.3869 285.3888,-654.0226"/>
</g>
<!-- \\Views\\Error404 -->
<g id="node41" class="node">
<title>\\Views\\Error404</title>
<polygon fill="none" stroke="#000000" points="458,-680 387,-680 387,-644 458,-644 458,-680"/>
<text text-anchor="middle" x="422.5" y="-659.2" font-family="Courier,monospace" font-size="11.00" fill="#000000">Error404</text>
</g>
<!-- \\Views\\Error404&#45;&gt;\\Views\\View -->
<g id="edge27" class="edge">
<title>\\Views\\Error404&#45;&gt;\\Views\\View</title>
<path fill="none" stroke="#000000" d="M386.9818,-656.858C359.0398,-652.8127 319.6961,-647.1169 288.1766,-642.5537"/>
<polygon fill="none" stroke="#000000" points="288.6407,-639.0845 278.2423,-641.1155 287.6377,-646.0123 288.6407,-639.0845"/>
</g>
<!-- \\Views\\Home -->
<g id="node42" class="node">
<title>\\Views\\Home</title>
<polygon fill="none" stroke="#000000" points="449.5,-626 395.5,-626 395.5,-590 449.5,-590 449.5,-626"/>
<text text-anchor="middle" x="422.5" y="-605.2" font-family="Courier,monospace" font-size="11.00" fill="#000000">Home</text>
</g>
<!-- \\Views\\Home&#45;&gt;\\Views\\View -->
<g id="edge28" class="edge">
<title>\\Views\\Home&#45;&gt;\\Views\\View</title>
<path fill="none" stroke="#000000" d="M395.3813,-611.926C367.4287,-615.9728 323.1422,-622.3842 288.3388,-627.4228"/>
<polygon fill="none" stroke="#000000" points="287.7296,-623.9744 278.3343,-628.8712 288.7326,-630.9022 287.7296,-623.9744"/>
</g>
<!-- \\Views\\OfferingList -->
<g id="node43" class="node">
<title>\\Views\\OfferingList</title>
<polygon fill="none" stroke="#000000" points="471.5,-572 373.5,-572 373.5,-536 471.5,-536 471.5,-572"/>
<text text-anchor="middle" x="422.5" y="-551.2" font-family="Courier,monospace" font-size="11.00" fill="#000000">OfferingList</text>
</g>
<!-- \\Views\\OfferingList&#45;&gt;\\Views\\View -->
<g id="edge29" class="edge">
<title>\\Views\\OfferingList&#45;&gt;\\Views\\View</title>
<path fill="none" stroke="#000000" d="M376.9844,-572.0472C369.776,-574.9902 362.4195,-578.0438 355.5,-581 331.8829,-591.0896 305.8759,-602.7726 284.1711,-612.6856"/>
<polygon fill="none" stroke="#000000" points="282.4741,-609.6131 274.8396,-616.9592 285.3888,-615.9774 282.4741,-609.6131"/>
</g>
<!-- \\Views\\OperatorDashboard -->
<g id="node44" class="node">
<title>\\Views\\OperatorDashboard</title>
<polygon fill="none" stroke="#000000" points="488,-518 357,-518 357,-482 488,-482 488,-518"/>
<text text-anchor="middle" x="422.5" y="-497.2" font-family="Courier,monospace" font-size="11.00" fill="#000000">OperatorDashboard</text>
</g>
<!-- \\Views\\OperatorDashboard&#45;&gt;\\Views\\View -->
<g id="edge30" class="edge">
<title>\\Views\\OperatorDashboard&#45;&gt;\\Views\\View</title>
<path fill="none" stroke="#000000" d="M372.143,-518.0189C366.3798,-520.7406 360.7097,-523.7411 355.5,-527 318.2771,-550.2842 281.7626,-585.6318 259.089,-609.4872"/>
<polygon fill="none" stroke="#000000" points="256.5193,-607.1108 252.2305,-616.7987 261.6247,-611.8999 256.5193,-607.1108"/>
</g>
<!-- \\Views\\View&#45;&gt;\\Interfaces\\Layoutable -->
<g id="edge31" class="edge">
<title>\\Views\\View&#45;&gt;\\Interfaces\\Layoutable</title>
<path fill="none" stroke="#000000" stroke-dasharray="1,5" d="M232.1294,-653.1325C210.2578,-755.5941 102.1746,-1261.93 75.4726,-1387.0204"/>
<polygon fill="none" stroke="#000000" points="72.0141,-1386.4566 73.3494,-1396.9669 78.8599,-1387.9179 72.0141,-1386.4566"/>
</g>
</g>
</svg>
