<?xml version="1.0" encoding="UTF-8" standalone="no"?>
<!DOCTYPE svg PUBLIC "-//W3C//DTD SVG 1.1//EN"
 "http://www.w3.org/Graphics/SVG/1.1/DTD/svg11.dtd">
<!-- Generated by graphviz version 2.40.1 (20161225.0304)
 -->
<!-- Title: G Pages: 1 -->
<svg width="506pt" height="1476pt"
 viewBox="0.00 0.00 506.00 1476.00" xmlns="http://www.w3.org/2000/svg" xmlns:xlink="http://www.w3.org/1999/xlink">
<g id="graph0" class="graph" transform="scale(1 1) rotate(0) translate(4 1472)">
<title>G</title>
<polygon fill="#ffffff" stroke="transparent" points="-4,4 -4,-1472 502,-1472 502,4 -4,4"/>
<g id="clust1" class="cluster">
<title>cluster_Global</title>
<polygon fill="none" stroke="#000000" points="8,-8 8,-1460 490,-1460 490,-8 8,-8"/>
<text text-anchor="middle" x="249" y="-1447.2" font-family="Times,serif" font-size="11.00" fill="#c0c0c0">Global</text>
</g>
<g id="clust2" class="cluster">
<title>cluster_\Controllers</title>
<polygon fill="none" stroke="#000000" points="19.5,-1306 19.5,-1432 482,-1432 482,-1306 19.5,-1306"/>
<text text-anchor="middle" x="250.75" y="-1419.2" font-family="Times,serif" font-size="11.00" fill="#c0c0c0">Controllers</text>
</g>
<g id="clust3" class="cluster">
<title>cluster_\Entities</title>
<polygon fill="none" stroke="#000000" points="192.5,-552 192.5,-840 452,-840 452,-552 192.5,-552"/>
<text text-anchor="middle" x="322.25" y="-827.2" font-family="Times,serif" font-size="11.00" fill="#c0c0c0">Entities</text>
</g>
<g id="clust4" class="cluster">
<title>cluster_\Helpers</title>
<polygon fill="none" stroke="#000000" points="358.5,-310 358.5,-544 458.5,-544 458.5,-310 358.5,-310"/>
<text text-anchor="middle" x="408.5" y="-531.2" font-family="Times,serif" font-size="11.00" fill="#c0c0c0">Helpers</text>
</g>
<g id="clust5" class="cluster">
<title>cluster_\Interfaces</title>
<polygon fill="none" stroke="#000000" points="16,-902 16,-1190 123,-1190 123,-902 16,-902"/>
<text text-anchor="middle" x="69.5" y="-1177.2" font-family="Times,serif" font-size="11.00" fill="#c0c0c0">Interfaces</text>
</g>
<g id="clust6" class="cluster">
<title>cluster_\Layouts</title>
<polygon fill="none" stroke="#000000" points="189,-96 189,-168 269,-168 269,-96 189,-96"/>
<text text-anchor="middle" x="229" y="-155.2" font-family="Times,serif" font-size="11.00" fill="#c0c0c0">Layouts</text>
</g>
<g id="clust7" class="cluster">
<title>cluster_\Models</title>
<polygon fill="none" stroke="#000000" points="19.5,-16 19.5,-88 482,-88 482,-16 19.5,-16"/>
<text text-anchor="middle" x="250.75" y="-75.2" font-family="Times,serif" font-size="11.00" fill="#c0c0c0">Models</text>
</g>
<g id="clust8" class="cluster">
<title>cluster_\Templates</title>
<polygon fill="none" stroke="#000000" points="179,-848 179,-1298 279,-1298 279,-848 179,-848"/>
<text text-anchor="middle" x="229" y="-1285.2" font-family="Times,serif" font-size="11.00" fill="#c0c0c0">Templates</text>
</g>
<g id="clust9" class="cluster">
<title>cluster_\Views</title>
<polygon fill="none" stroke="#000000" points="179,-176 179,-302 452,-302 452,-176 179,-176"/>
<text text-anchor="middle" x="315.5" y="-289.2" font-family="Times,serif" font-size="11.00" fill="#c0c0c0">Views</text>
</g>
<!-- \\Controllers\\API -->
<g id="node1" class="node">
<title>\\Controllers\\API</title>
<polygon fill="none" stroke="#000000" points="271,-1404 187,-1404 187,-1368 271,-1368 271,-1404"/>
<text text-anchor="start" x="195" y="-1389.2" font-family="Courier,monospace" font-size="11.00" fill="#000000">«abstract»</text>
<text text-anchor="start" x="218.5" y="-1377.2" font-family="Courier,monospace" font-size="11.00" fill="#000000">API</text>
</g>
<!-- \\Controllers\\Controller -->
<g id="node3" class="node">
<title>\\Controllers\\Controller</title>
<polygon fill="none" stroke="#000000" points="111.5,-1377 27.5,-1377 27.5,-1341 111.5,-1341 111.5,-1377"/>
<text text-anchor="start" x="35.5" y="-1362.2" font-family="Courier,monospace" font-size="11.00" fill="#000000">«abstract»</text>
<text text-anchor="start" x="35.5" y="-1350.2" font-family="Courier,monospace" font-size="11.00" fill="#000000">Controller</text>
</g>
<!-- \\Controllers\\API&#45;&gt;\\Controllers\\Controller -->
<g id="edge1" class="edge">
<title>\\Controllers\\API&#45;&gt;\\Controllers\\Controller</title>
<path fill="none" stroke="#000000" d="M186.6757,-1378.8354C166.7684,-1375.4655 142.8373,-1371.4145 121.8062,-1367.8543"/>
<polygon fill="none" stroke="#000000" points="122.189,-1364.3694 111.7451,-1366.1512 121.0207,-1371.2712 122.189,-1364.3694"/>
</g>
<!-- \\Controllers\\ComparOperatorAPI -->
<g id="node2" class="node">
<title>\\Controllers\\ComparOperatorAPI</title>
<polygon fill="none" stroke="#000000" points="474,-1404 343,-1404 343,-1368 474,-1368 474,-1404"/>
<text text-anchor="middle" x="408.5" y="-1383.2" font-family="Courier,monospace" font-size="11.00" fill="#000000">ComparOperatorAPI</text>
</g>
<!-- \\Controllers\\ComparOperatorAPI&#45;&gt;\\Controllers\\API -->
<g id="edge2" class="edge">
<title>\\Controllers\\ComparOperatorAPI&#45;&gt;\\Controllers\\API</title>
<path fill="none" stroke="#000000" d="M342.9344,-1386C322.6451,-1386 300.5739,-1386 281.3076,-1386"/>
<polygon fill="none" stroke="#000000" points="281.2182,-1382.5001 271.2181,-1386 281.2181,-1389.5001 281.2182,-1382.5001"/>
</g>
<!-- \\Controllers\\Home -->
<g id="node4" class="node">
<title>\\Controllers\\Home</title>
<polygon fill="none" stroke="#000000" points="256,-1350 202,-1350 202,-1314 256,-1314 256,-1350"/>
<text text-anchor="middle" x="229" y="-1329.2" font-family="Courier,monospace" font-size="11.00" fill="#000000">Home</text>
</g>
<!-- \\Controllers\\Home&#45;&gt;\\Controllers\\Controller -->
<g id="edge3" class="edge">
<title>\\Controllers\\Home&#45;&gt;\\Controllers\\Controller</title>
<path fill="none" stroke="#000000" d="M201.943,-1336.5802C180.0336,-1340.289 148.5204,-1345.6235 121.7298,-1350.1586"/>
<polygon fill="none" stroke="#000000" points="120.9986,-1346.7325 111.7231,-1351.8525 122.167,-1353.6343 120.9986,-1346.7325"/>
</g>
<!-- \\Entities\\Entity -->
<g id="node5" class="node">
<title>\\Entities\\Entity</title>
<polygon fill="none" stroke="#000000" points="257.5,-731 200.5,-731 200.5,-695 257.5,-695 257.5,-731"/>
<text text-anchor="middle" x="229" y="-710.2" font-family="Courier,monospace" font-size="11.00" fill="#000000">Entity</text>
</g>
<!-- \\Interfaces\\Validatable -->
<g id="node19" class="node">
<title>\\Interfaces\\Validatable</title>
<polygon fill="none" stroke="#000000" points="115,-1108 24,-1108 24,-1072 115,-1072 115,-1108"/>
<text text-anchor="middle" x="69.5" y="-1087.2" font-family="Courier,monospace" font-size="11.00" fill="#000000">Validatable</text>
</g>
<!-- \\Entities\\Entity&#45;&gt;\\Interfaces\\Validatable -->
<g id="edge4" class="edge">
<title>\\Entities\\Entity&#45;&gt;\\Interfaces\\Validatable</title>
<path fill="none" stroke="#000000" stroke-dasharray="1,5" d="M221.2023,-731.42C210.7372,-756.5602 191.9671,-803.1651 179,-844 148.5936,-939.7533 185.9277,-984.6844 123,-1063 122.4155,-1063.7274 121.8064,-1064.4369 121.1749,-1065.129"/>
<polygon fill="none" stroke="#000000" points="118.7554,-1062.5979 113.6691,-1071.892 123.4411,-1067.7983 118.7554,-1062.5979"/>
</g>
<!-- \\Entities\\Location -->
<g id="node6" class="node">
<title>\\Entities\\Location</title>
<polygon fill="none" stroke="#000000" points="444,-758 373,-758 373,-722 444,-722 444,-758"/>
<text text-anchor="middle" x="408.5" y="-737.2" font-family="Courier,monospace" font-size="11.00" fill="#000000">Location</text>
</g>
<!-- \\Entities\\Location&#45;&gt;\\Entities\\Entity -->
<g id="edge5" class="edge">
<title>\\Entities\\Location&#45;&gt;\\Entities\\Entity</title>
<path fill="none" stroke="#000000" d="M372.6069,-734.601C342.2736,-730.0384 298.9159,-723.5166 267.7893,-718.8346"/>
<polygon fill="none" stroke="#000000" points="268.1481,-715.3493 257.7387,-717.3228 267.1068,-722.2714 268.1481,-715.3493"/>
</g>
<!-- \\Entities\\Offering -->
<g id="node7" class="node">
<title>\\Entities\\Offering</title>
<polygon fill="none" stroke="#000000" points="444,-704 373,-704 373,-668 444,-668 444,-704"/>
<text text-anchor="middle" x="408.5" y="-683.2" font-family="Courier,monospace" font-size="11.00" fill="#000000">Offering</text>
</g>
<!-- \\Entities\\Offering&#45;&gt;\\Entities\\Entity -->
<g id="edge6" class="edge">
<title>\\Entities\\Offering&#45;&gt;\\Entities\\Entity</title>
<path fill="none" stroke="#000000" d="M372.6069,-691.399C342.2736,-695.9616 298.9159,-702.4834 267.7893,-707.1654"/>
<polygon fill="none" stroke="#000000" points="267.1068,-703.7286 257.7387,-708.6772 268.1481,-710.6507 267.1068,-703.7286"/>
</g>
<!-- \\Entities\\Operator -->
<g id="node8" class="node">
<title>\\Entities\\Operator</title>
<polygon fill="none" stroke="#000000" points="444,-650 373,-650 373,-614 444,-614 444,-650"/>
<text text-anchor="middle" x="408.5" y="-629.2" font-family="Courier,monospace" font-size="11.00" fill="#000000">Operator</text>
</g>
<!-- \\Entities\\Operator&#45;&gt;\\Entities\\Entity -->
<g id="edge7" class="edge">
<title>\\Entities\\Operator&#45;&gt;\\Entities\\Entity</title>
<path fill="none" stroke="#000000" d="M372.6647,-646.383C362.9929,-650.3706 352.5603,-654.7686 343,-659 317.4168,-670.3231 288.9781,-683.7925 266.9046,-694.4464"/>
<polygon fill="none" stroke="#000000" points="265.3361,-691.3171 257.8611,-698.8255 268.3868,-697.6174 265.3361,-691.3171"/>
</g>
<!-- \\Entities\\Review -->
<g id="node9" class="node">
<title>\\Entities\\Review</title>
<polygon fill="none" stroke="#000000" points="437,-596 380,-596 380,-560 437,-560 437,-596"/>
<text text-anchor="middle" x="408.5" y="-575.2" font-family="Courier,monospace" font-size="11.00" fill="#000000">Review</text>
</g>
<!-- \\Entities\\Review&#45;&gt;\\Entities\\Entity -->
<g id="edge8" class="edge">
<title>\\Entities\\Review&#45;&gt;\\Entities\\Entity</title>
<path fill="none" stroke="#000000" d="M379.9685,-587.1527C368.0467,-591.6264 354.3564,-597.6456 343,-605 307.2265,-628.1668 272.6329,-663.3131 251.1181,-687.1692"/>
<polygon fill="none" stroke="#000000" points="248.3688,-684.9939 244.3404,-694.7931 253.6004,-689.6449 248.3688,-684.9939"/>
</g>
<!-- \\Entities\\User -->
<g id="node10" class="node">
<title>\\Entities\\User</title>
<polygon fill="none" stroke="#000000" points="435.5,-812 381.5,-812 381.5,-776 435.5,-776 435.5,-812"/>
<text text-anchor="middle" x="408.5" y="-791.2" font-family="Courier,monospace" font-size="11.00" fill="#000000">User</text>
</g>
<!-- \\Entities\\User&#45;&gt;\\Entities\\Entity -->
<g id="edge9" class="edge">
<title>\\Entities\\User&#45;&gt;\\Entities\\Entity</title>
<path fill="none" stroke="#000000" d="M381.2797,-783.1445C369.4569,-778.3356 355.4846,-772.5257 343,-767 317.4168,-755.6769 288.9781,-742.2075 266.9046,-731.5536"/>
<polygon fill="none" stroke="#000000" points="268.3868,-728.3826 257.8611,-727.1745 265.3361,-734.6829 268.3868,-728.3826"/>
</g>
<!-- \\Helpers\\Cache -->
<g id="node11" class="node">
<title>\\Helpers\\Cache</title>
<polygon fill="none" stroke="#000000" points="435.5,-516 381.5,-516 381.5,-480 435.5,-480 435.5,-516"/>
<text text-anchor="middle" x="408.5" y="-495.2" font-family="Courier,monospace" font-size="11.00" fill="#000000">Cache</text>
</g>
<!-- \\Helpers\\CacheItem -->
<g id="node12" class="node">
<title>\\Helpers\\CacheItem</title>
<polygon fill="none" stroke="#000000" points="447,-462 370,-462 370,-426 447,-426 447,-462"/>
<text text-anchor="middle" x="408.5" y="-441.2" font-family="Courier,monospace" font-size="11.00" fill="#000000">CacheItem</text>
</g>
<!-- \\Helpers\\DB -->
<g id="node13" class="node">
<title>\\Helpers\\DB</title>
<polygon fill="none" stroke="#000000" points="435.5,-408 381.5,-408 381.5,-372 435.5,-372 435.5,-408"/>
<text text-anchor="middle" x="408.5" y="-387.2" font-family="Courier,monospace" font-size="11.00" fill="#000000">DB</text>
</g>
<!-- \\Helpers\\Dispatcher -->
<g id="node14" class="node">
<title>\\Helpers\\Dispatcher</title>
<polygon fill="none" stroke="#000000" points="450.5,-354 366.5,-354 366.5,-318 450.5,-318 450.5,-354"/>
<text text-anchor="middle" x="408.5" y="-333.2" font-family="Courier,monospace" font-size="11.00" fill="#000000">Dispatcher</text>
</g>
<!-- \\Interfaces\\Cacheable -->
<g id="node15" class="node">
<title>\\Interfaces\\Cacheable</title>
<polygon fill="none" stroke="#000000" points="108,-1162 31,-1162 31,-1126 108,-1126 108,-1162"/>
<text text-anchor="middle" x="69.5" y="-1141.2" font-family="Courier,monospace" font-size="11.00" fill="#000000">Cacheable</text>
</g>
<!-- \\Interfaces\\Layoutable -->
<g id="node16" class="node">
<title>\\Interfaces\\Layoutable</title>
<polygon fill="none" stroke="#000000" points="111.5,-946 27.5,-946 27.5,-910 111.5,-910 111.5,-946"/>
<text text-anchor="middle" x="69.5" y="-925.2" font-family="Courier,monospace" font-size="11.00" fill="#000000">Layoutable</text>
</g>
<!-- \\Interfaces\\Loadable -->
<g id="node17" class="node">
<title>\\Interfaces\\Loadable</title>
<polygon fill="none" stroke="#000000" points="105,-1054 34,-1054 34,-1018 105,-1018 105,-1054"/>
<text text-anchor="middle" x="69.5" y="-1033.2" font-family="Courier,monospace" font-size="11.00" fill="#000000">Loadable</text>
</g>
<!-- \\Interfaces\\Templatable -->
<g id="node18" class="node">
<title>\\Interfaces\\Templatable</title>
<polygon fill="none" stroke="#000000" points="115,-1000 24,-1000 24,-964 115,-964 115,-1000"/>
<text text-anchor="middle" x="69.5" y="-979.2" font-family="Courier,monospace" font-size="11.00" fill="#000000">Templatable</text>
</g>
<!-- \\Layouts\\Minimal -->
<g id="node20" class="node">
<title>\\Layouts\\Minimal</title>
<polygon fill="none" stroke="#000000" points="261,-140 197,-140 197,-104 261,-104 261,-140"/>
<text text-anchor="middle" x="229" y="-119.2" font-family="Courier,monospace" font-size="11.00" fill="#000000">Minimal</text>
</g>
<!-- \\Layouts\\Minimal&#45;&gt;\\Interfaces\\Templatable -->
<g id="edge10" class="edge">
<title>\\Layouts\\Minimal&#45;&gt;\\Interfaces\\Templatable</title>
<path fill="none" stroke="#000000" stroke-dasharray="1,5" d="M204.4969,-140.0215C194.8126,-148.5585 184.6607,-159.6049 179,-172 106.5333,-330.6803 219.678,-809.7959 123,-955 122.6576,-955.5142 122.3024,-956.0191 121.935,-956.5148"/>
<polygon fill="none" stroke="#000000" points="119.3957,-954.106 115.0469,-963.7672 124.4714,-958.9266 119.3957,-954.106"/>
</g>
<!-- \\Models\\ComparOperatorAPI -->
<g id="node21" class="node">
<title>\\Models\\ComparOperatorAPI</title>
<polygon fill="none" stroke="#000000" points="474,-60 343,-60 343,-24 474,-24 474,-60"/>
<text text-anchor="middle" x="408.5" y="-39.2" font-family="Courier,monospace" font-size="11.00" fill="#000000">ComparOperatorAPI</text>
</g>
<!-- \\Models\\DBPDO -->
<g id="node22" class="node">
<title>\\Models\\DBPDO</title>
<polygon fill="none" stroke="#000000" points="256,-60 202,-60 202,-24 256,-24 256,-60"/>
<text text-anchor="middle" x="229" y="-39.2" font-family="Courier,monospace" font-size="11.00" fill="#000000">DBPDO</text>
</g>
<!-- \\Models\\ComparOperatorAPI&#45;&gt;\\Models\\DBPDO -->
<g id="edge11" class="edge">
<title>\\Models\\ComparOperatorAPI&#45;&gt;\\Models\\DBPDO</title>
<path fill="none" stroke="#000000" d="M342.9344,-42C317.2867,-42 288.7917,-42 266.7142,-42"/>
<polygon fill="none" stroke="#000000" points="266.4324,-38.5001 256.4324,-42 266.4323,-45.5001 266.4324,-38.5001"/>
</g>
<!-- \\Models\\Model -->
<g id="node23" class="node">
<title>\\Models\\Model</title>
<polygon fill="none" stroke="#000000" points="111.5,-60 27.5,-60 27.5,-24 111.5,-24 111.5,-60"/>
<text text-anchor="start" x="35.5" y="-45.2" font-family="Courier,monospace" font-size="11.00" fill="#000000">«abstract»</text>
<text text-anchor="start" x="52.5" y="-33.2" font-family="Courier,monospace" font-size="11.00" fill="#000000">Model</text>
</g>
<!-- \\Models\\DBPDO&#45;&gt;\\Models\\Model -->
<g id="edge12" class="edge">
<title>\\Models\\DBPDO&#45;&gt;\\Models\\Model</title>
<path fill="none" stroke="#000000" d="M201.943,-42C180.0336,-42 148.5204,-42 121.7298,-42"/>
<polygon fill="none" stroke="#000000" points="121.7231,-38.5001 111.7231,-42 121.723,-45.5001 121.7231,-38.5001"/>
</g>
<!-- \\Templates\\Console -->
<g id="node24" class="node">
<title>\\Templates\\Console</title>
<polygon fill="none" stroke="#000000" points="261,-1054 197,-1054 197,-1018 261,-1018 261,-1054"/>
<text text-anchor="middle" x="229" y="-1033.2" font-family="Courier,monospace" font-size="11.00" fill="#000000">Console</text>
</g>
<!-- \\Templates\\Console&#45;&gt;\\Interfaces\\Templatable -->
<g id="edge13" class="edge">
<title>\\Templates\\Console&#45;&gt;\\Interfaces\\Templatable</title>
<path fill="none" stroke="#000000" stroke-dasharray="1,5" d="M196.7228,-1025.0723C176.0815,-1018.084 148.7691,-1008.8372 124.7435,-1000.7031"/>
<polygon fill="none" stroke="#000000" points="125.6205,-997.3049 115.0262,-997.4133 123.3757,-1003.9353 125.6205,-997.3049"/>
</g>
<!-- \\Templates\\Fonts -->
<g id="node25" class="node">
<title>\\Templates\\Fonts</title>
<polygon fill="none" stroke="#000000" points="256,-1000 202,-1000 202,-964 256,-964 256,-1000"/>
<text text-anchor="middle" x="229" y="-979.2" font-family="Courier,monospace" font-size="11.00" fill="#000000">Fonts</text>
</g>
<!-- \\Templates\\Fonts&#45;&gt;\\Interfaces\\Templatable -->
<g id="edge14" class="edge">
<title>\\Templates\\Fonts&#45;&gt;\\Interfaces\\Templatable</title>
<path fill="none" stroke="#000000" stroke-dasharray="1,5" d="M201.943,-982C180.9932,-982 151.2625,-982 125.276,-982"/>
<polygon fill="none" stroke="#000000" points="125.1546,-978.5001 115.1546,-982 125.1545,-985.5001 125.1546,-978.5001"/>
</g>
<!-- \\Templates\\Footer -->
<g id="node26" class="node">
<title>\\Templates\\Footer</title>
<polygon fill="none" stroke="#000000" points="257.5,-946 200.5,-946 200.5,-910 257.5,-910 257.5,-946"/>
<text text-anchor="middle" x="229" y="-925.2" font-family="Courier,monospace" font-size="11.00" fill="#000000">Footer</text>
</g>
<!-- \\Templates\\Footer&#45;&gt;\\Interfaces\\Templatable -->
<g id="edge15" class="edge">
<title>\\Templates\\Footer&#45;&gt;\\Interfaces\\Templatable</title>
<path fill="none" stroke="#000000" stroke-dasharray="1,5" d="M200.4846,-937.6541C179.5086,-944.7557 150.332,-954.6337 124.8385,-963.2647"/>
<polygon fill="none" stroke="#000000" points="123.6225,-959.9812 115.2731,-966.5032 125.8673,-966.6115 123.6225,-959.9812"/>
</g>
<!-- \\Templates\\Image -->
<g id="node27" class="node">
<title>\\Templates\\Image</title>
<polygon fill="none" stroke="#000000" points="256,-892 202,-892 202,-856 256,-856 256,-892"/>
<text text-anchor="middle" x="229" y="-871.2" font-family="Courier,monospace" font-size="11.00" fill="#000000">Image</text>
</g>
<!-- \\Templates\\Image&#45;&gt;\\Interfaces\\Templatable -->
<g id="edge16" class="edge">
<title>\\Templates\\Image&#45;&gt;\\Interfaces\\Templatable</title>
<path fill="none" stroke="#000000" stroke-dasharray="1,5" d="M201.9774,-886.8645C194.2915,-890.9769 186.0885,-895.8189 179,-901 151.0861,-921.4027 151.1943,-934.9866 123,-955 121.3456,-956.1743 119.6329,-957.3264 117.8803,-958.4528"/>
<polygon fill="none" stroke="#000000" points="115.6469,-955.7109 108.8703,-963.8551 119.2466,-961.7145 115.6469,-955.7109"/>
</g>
<!-- \\Templates\\InlinedCss -->
<g id="node28" class="node">
<title>\\Templates\\InlinedCss</title>
<polygon fill="none" stroke="#000000" points="271,-1270 187,-1270 187,-1234 271,-1234 271,-1270"/>
<text text-anchor="middle" x="229" y="-1249.2" font-family="Courier,monospace" font-size="11.00" fill="#000000">InlinedCss</text>
</g>
<!-- \\Templates\\InlinedCss&#45;&gt;\\Interfaces\\Templatable -->
<g id="edge17" class="edge">
<title>\\Templates\\InlinedCss&#45;&gt;\\Interfaces\\Templatable</title>
<path fill="none" stroke="#000000" stroke-dasharray="1,5" d="M187.9535,-1233.7789C184.6186,-1231.1794 181.5557,-1228.2614 179,-1225 117.8297,-1146.9381 185.2476,-1086.2055 123,-1009 122.4143,-1008.2736 121.804,-1007.5649 121.1715,-1006.8737"/>
<polygon fill="none" stroke="#000000" points="123.4337,-1004.2009 113.6574,-1000.1174 118.7534,-1009.4062 123.4337,-1004.2009"/>
</g>
<!-- \\Templates\\InlinedJs -->
<g id="node29" class="node">
<title>\\Templates\\InlinedJs</title>
<polygon fill="none" stroke="#000000" points="267.5,-1216 190.5,-1216 190.5,-1180 267.5,-1180 267.5,-1216"/>
<text text-anchor="middle" x="229" y="-1195.2" font-family="Courier,monospace" font-size="11.00" fill="#000000">InlinedJs</text>
</g>
<!-- \\Templates\\InlinedJs&#45;&gt;\\Interfaces\\Templatable -->
<g id="edge18" class="edge">
<title>\\Templates\\InlinedJs&#45;&gt;\\Interfaces\\Templatable</title>
<path fill="none" stroke="#000000" stroke-dasharray="1,5" d="M190.1809,-1180.9901C186.0472,-1178.0799 182.1937,-1174.7592 179,-1171 129.6765,-1112.9427 173.1244,-1066.3673 123,-1009 122.3711,-1008.2802 121.7184,-1007.5773 121.0444,-1006.891"/>
<polygon fill="none" stroke="#000000" points="123.0114,-1003.9694 113.1251,-1000.16 118.478,-1009.3031 123.0114,-1003.9694"/>
</g>
<!-- \\Templates\\Nav -->
<g id="node30" class="node">
<title>\\Templates\\Nav</title>
<polygon fill="none" stroke="#000000" points="256,-1162 202,-1162 202,-1126 256,-1126 256,-1162"/>
<text text-anchor="middle" x="229" y="-1141.2" font-family="Courier,monospace" font-size="11.00" fill="#000000">Nav</text>
</g>
<!-- \\Templates\\Nav&#45;&gt;\\Interfaces\\Templatable -->
<g id="edge19" class="edge">
<title>\\Templates\\Nav&#45;&gt;\\Interfaces\\Templatable</title>
<path fill="none" stroke="#000000" stroke-dasharray="1,5" d="M201.8255,-1133.0572C193.7905,-1128.8938 185.4329,-1123.5417 179,-1117 141.0896,-1078.448 161.4418,-1047.0222 123,-1009 122.0638,-1008.074 121.0894,-1007.1736 120.0829,-1006.2985"/>
<polygon fill="none" stroke="#000000" points="121.9296,-1003.3075 111.8381,-1000.0807 117.7147,-1008.8963 121.9296,-1003.3075"/>
</g>
<!-- \\Templates\\Table -->
<g id="node31" class="node">
<title>\\Templates\\Table</title>
<polygon fill="none" stroke="#000000" points="256,-1108 202,-1108 202,-1072 256,-1072 256,-1108"/>
<text text-anchor="middle" x="229" y="-1087.2" font-family="Courier,monospace" font-size="11.00" fill="#000000">Table</text>
</g>
<!-- \\Templates\\Table&#45;&gt;\\Interfaces\\Templatable -->
<g id="edge20" class="edge">
<title>\\Templates\\Table&#45;&gt;\\Interfaces\\Templatable</title>
<path fill="none" stroke="#000000" stroke-dasharray="1,5" d="M201.9774,-1077.1355C194.2915,-1073.0231 186.0885,-1068.1811 179,-1063 151.0861,-1042.5973 151.1943,-1029.0134 123,-1009 121.3456,-1007.8257 119.6329,-1006.6736 117.8803,-1005.5472"/>
<polygon fill="none" stroke="#000000" points="119.2466,-1002.2855 108.8703,-1000.1449 115.6469,-1008.2891 119.2466,-1002.2855"/>
</g>
<!-- \\Views\\Error404 -->
<g id="node32" class="node">
<title>\\Views\\Error404</title>
<polygon fill="none" stroke="#000000" points="444,-274 373,-274 373,-238 444,-238 444,-274"/>
<text text-anchor="middle" x="408.5" y="-253.2" font-family="Courier,monospace" font-size="11.00" fill="#000000">Error404</text>
</g>
<!-- \\Views\\View -->
<g id="node34" class="node">
<title>\\Views\\View</title>
<polygon fill="none" stroke="#000000" points="271,-274 187,-274 187,-238 271,-238 271,-274"/>
<text text-anchor="start" x="195" y="-259.2" font-family="Courier,monospace" font-size="11.00" fill="#000000">«abstract»</text>
<text text-anchor="start" x="215" y="-247.2" font-family="Courier,monospace" font-size="11.00" fill="#000000">View</text>
</g>
<!-- \\Views\\Error404&#45;&gt;\\Views\\View -->
<g id="edge21" class="edge">
<title>\\Views\\Error404&#45;&gt;\\Views\\View</title>
<path fill="none" stroke="#000000" d="M372.6069,-256C346.4324,-256 310.5599,-256 281.2164,-256"/>
<polygon fill="none" stroke="#000000" points="281.1362,-252.5001 271.1362,-256 281.1361,-259.5001 281.1362,-252.5001"/>
</g>
<!-- \\Views\\Home -->
<g id="node33" class="node">
<title>\\Views\\Home</title>
<polygon fill="none" stroke="#000000" points="435.5,-220 381.5,-220 381.5,-184 435.5,-184 435.5,-220"/>
<text text-anchor="middle" x="408.5" y="-199.2" font-family="Courier,monospace" font-size="11.00" fill="#000000">Home</text>
</g>
<!-- \\Views\\Home&#45;&gt;\\Views\\View -->
<g id="edge22" class="edge">
<title>\\Views\\Home&#45;&gt;\\Views\\View</title>
<path fill="none" stroke="#000000" d="M381.2378,-210.2014C354.7513,-218.1695 313.8507,-230.4739 281.1108,-240.3232"/>
<polygon fill="none" stroke="#000000" points="279.8049,-237.061 271.2372,-243.2935 281.8216,-243.7643 279.8049,-237.061"/>
</g>
<!-- \\Views\\View&#45;&gt;\\Interfaces\\Layoutable -->
<g id="edge23" class="edge">
<title>\\Views\\View&#45;&gt;\\Interfaces\\Layoutable</title>
<path fill="none" stroke="#000000" stroke-dasharray="1,5" d="M224.651,-274.3229C202.5953,-367.2475 103.1024,-786.4276 76.2153,-899.7071"/>
<polygon fill="none" stroke="#000000" points="72.7491,-899.1555 73.8451,-909.6935 79.5599,-900.7721 72.7491,-899.1555"/>
</g>
</g>
</svg>
