<?xml version="1.0" encoding="UTF-8" standalone="no"?>
<!DOCTYPE svg PUBLIC "-//W3C//DTD SVG 1.1//EN"
 "http://www.w3.org/Graphics/SVG/1.1/DTD/svg11.dtd">
<!-- Generated by graphviz version 2.38.0 (20140413.2041)
 -->
<!-- Title: G Pages: 1 -->
<svg width="528pt" height="1990pt"
 viewBox="0.00 0.00 528.00 1990.00" xmlns="http://www.w3.org/2000/svg" xmlns:xlink="http://www.w3.org/1999/xlink">
<g id="graph0" class="graph" transform="scale(1 1) rotate(0) translate(4 1986)">
<title>G</title>
<polygon fill="white" stroke="none" points="-4,4 -4,-1986 524,-1986 524,4 -4,4"/>
<g id="clust1" class="cluster"><title>cluster_Global</title>
<polygon fill="none" stroke="black" points="8,-8 8,-1974 512,-1974 512,-8 8,-8"/>
<text text-anchor="middle" x="260" y="-1961.2" font-family="Times,serif" font-size="11.00" fill="gray">Global</text>
</g>
<g id="clust2" class="cluster"><title>cluster_\Controllers</title>
<polygon fill="none" stroke="black" points="19.5,-1766 19.5,-1946 489,-1946 489,-1766 19.5,-1766"/>
<text text-anchor="middle" x="254.25" y="-1933.2" font-family="Times,serif" font-size="11.00" fill="gray">Controllers</text>
</g>
<g id="clust3" class="cluster"><title>cluster_\Entities</title>
<polygon fill="none" stroke="black" points="179,-1012 179,-1354 459,-1354 459,-1012 179,-1012"/>
<text text-anchor="middle" x="319" y="-1341.2" font-family="Times,serif" font-size="11.00" fill="gray">Entities</text>
</g>
<g id="clust4" class="cluster"><title>cluster_\Helpers</title>
<polygon fill="none" stroke="black" points="365.5,-770 365.5,-1004 465.5,-1004 465.5,-770 365.5,-770"/>
<text text-anchor="middle" x="415.5" y="-991.2" font-family="Times,serif" font-size="11.00" fill="gray">Helpers</text>
</g>
<g id="clust5" class="cluster"><title>cluster_\Interfaces</title>
<polygon fill="none" stroke="black" points="16,-1335 16,-1623 123,-1623 123,-1335 16,-1335"/>
<text text-anchor="middle" x="69.5" y="-1610.2" font-family="Times,serif" font-size="11.00" fill="gray">Interfaces</text>
</g>
<g id="clust6" class="cluster"><title>cluster_\Layouts</title>
<polygon fill="none" stroke="black" points="182.5,-286 182.5,-466 275.5,-466 275.5,-286 182.5,-286"/>
<text text-anchor="middle" x="229" y="-453.2" font-family="Times,serif" font-size="11.00" fill="gray">Layouts</text>
</g>
<g id="clust7" class="cluster"><title>cluster_\Models</title>
<polygon fill="none" stroke="black" points="19.5,-16 19.5,-278 504,-278 504,-16 19.5,-16"/>
<text text-anchor="middle" x="261.75" y="-265.2" font-family="Times,serif" font-size="11.00" fill="gray">Models</text>
</g>
<g id="clust8" class="cluster"><title>cluster_\Models\Endpoints</title>
<polygon fill="none" stroke="black" points="335,-70 335,-250 496,-250 496,-70 335,-70"/>
<text text-anchor="middle" x="415.5" y="-237.2" font-family="Times,serif" font-size="11.00" fill="gray">Endpoints</text>
</g>
<g id="clust9" class="cluster"><title>cluster_\Templates</title>
<polygon fill="none" stroke="black" points="179,-1362 179,-1758 279,-1758 279,-1362 179,-1362"/>
<text text-anchor="middle" x="229" y="-1745.2" font-family="Times,serif" font-size="11.00" fill="gray">Templates</text>
</g>
<g id="clust10" class="cluster"><title>cluster_\Views</title>
<polygon fill="none" stroke="black" points="179,-474 179,-762 489,-762 489,-474 179,-474"/>
<text text-anchor="middle" x="334" y="-749.2" font-family="Times,serif" font-size="11.00" fill="gray">Views</text>
</g>
<!-- \\Controllers\\API -->
<g id="node1" class="node"><title>\\Controllers\\API</title>
<polygon fill="none" stroke="black" points="271,-1810 187,-1810 187,-1774 271,-1774 271,-1810"/>
<text text-anchor="start" x="195" y="-1795.2" font-family="Courier,monospace" font-size="11.00">«abstract»</text>
<text text-anchor="start" x="218.5" y="-1783.2" font-family="Courier,monospace" font-size="11.00">API</text>
</g>
<!-- \\Controllers\\Controller -->
<g id="node3" class="node"><title>\\Controllers\\Controller</title>
<polygon fill="none" stroke="black" points="111.5,-1864 27.5,-1864 27.5,-1828 111.5,-1828 111.5,-1864"/>
<text text-anchor="start" x="35.5" y="-1849.2" font-family="Courier,monospace" font-size="11.00">«abstract»</text>
<text text-anchor="start" x="35.5" y="-1837.2" font-family="Courier,monospace" font-size="11.00">Controller</text>
</g>
<!-- \\Controllers\\API&#45;&gt;\\Controllers\\Controller -->
<g id="edge1" class="edge"><title>\\Controllers\\API&#45;&gt;\\Controllers\\Controller</title>
<path fill="none" stroke="black" d="M186.619,-1806.19C166.543,-1813.07 142.25,-1821.4 121.084,-1828.66"/>
<polygon fill="none" stroke="black" points="119.929,-1825.35 111.605,-1831.91 122.2,-1831.97 119.929,-1825.35"/>
</g>
<!-- \\Controllers\\ComparOperatorAPI -->
<g id="node2" class="node"><title>\\Controllers\\ComparOperatorAPI</title>
<polygon fill="none" stroke="black" points="481,-1810 350,-1810 350,-1774 481,-1774 481,-1810"/>
<text text-anchor="middle" x="415.5" y="-1789.2" font-family="Courier,monospace" font-size="11.00">ComparOperatorAPI</text>
</g>
<!-- \\Controllers\\ComparOperatorAPI&#45;&gt;\\Controllers\\API -->
<g id="edge2" class="edge"><title>\\Controllers\\ComparOperatorAPI&#45;&gt;\\Controllers\\API</title>
<path fill="none" stroke="black" d="M349.971,-1792C327.467,-1792 302.536,-1792 281.258,-1792"/>
<polygon fill="none" stroke="black" points="281.133,-1788.5 271.133,-1792 281.133,-1795.5 281.133,-1788.5"/>
</g>
<!-- \\Controllers\\Dashboard -->
<g id="node4" class="node"><title>\\Controllers\\Dashboard</title>
<polygon fill="none" stroke="black" points="267.5,-1918 190.5,-1918 190.5,-1882 267.5,-1882 267.5,-1918"/>
<text text-anchor="middle" x="229" y="-1897.2" font-family="Courier,monospace" font-size="11.00">Dashboard</text>
</g>
<!-- \\Controllers\\Dashboard&#45;&gt;\\Controllers\\Controller -->
<g id="edge3" class="edge"><title>\\Controllers\\Dashboard&#45;&gt;\\Controllers\\Controller</title>
<path fill="none" stroke="black" d="M190.275,-1887.07C169.584,-1879.97 143.651,-1871.08 121.212,-1863.39"/>
<polygon fill="none" stroke="black" points="122.102,-1859.99 111.508,-1860.06 119.832,-1866.61 122.102,-1859.99"/>
</g>
<!-- \\Controllers\\Home -->
<g id="node5" class="node"><title>\\Controllers\\Home</title>
<polygon fill="none" stroke="black" points="256,-1864 202,-1864 202,-1828 256,-1828 256,-1864"/>
<text text-anchor="middle" x="229" y="-1843.2" font-family="Courier,monospace" font-size="11.00">Home</text>
</g>
<!-- \\Controllers\\Home&#45;&gt;\\Controllers\\Controller -->
<g id="edge4" class="edge"><title>\\Controllers\\Home&#45;&gt;\\Controllers\\Controller</title>
<path fill="none" stroke="black" d="M201.992,-1846C180.222,-1846 148.499,-1846 121.666,-1846"/>
<polygon fill="none" stroke="black" points="121.653,-1842.5 111.653,-1846 121.653,-1849.5 121.653,-1842.5"/>
</g>
<!-- \\Entities\\Entity -->
<g id="node6" class="node"><title>\\Entities\\Entity</title>
<polygon fill="none" stroke="black" points="271,-1218 187,-1218 187,-1182 271,-1182 271,-1218"/>
<text text-anchor="start" x="195" y="-1203.2" font-family="Courier,monospace" font-size="11.00">«abstract»</text>
<text text-anchor="start" x="208.5" y="-1191.2" font-family="Courier,monospace" font-size="11.00">Entity</text>
</g>
<!-- \\Interfaces\\Validatable -->
<g id="node21" class="node"><title>\\Interfaces\\Validatable</title>
<polygon fill="none" stroke="black" points="115,-1541 24,-1541 24,-1505 115,-1505 115,-1541"/>
<text text-anchor="middle" x="69.5" y="-1520.2" font-family="Courier,monospace" font-size="11.00">Validatable</text>
</g>
<!-- \\Entities\\Entity&#45;&gt;\\Interfaces\\Validatable -->
<g id="edge5" class="edge"><title>\\Entities\\Entity&#45;&gt;\\Interfaces\\Validatable</title>
<path fill="none" stroke="black" stroke-dasharray="1,5" d="M222.399,-1218.22C203.522,-1279.25 142.333,-1473.88 123,-1496 122.275,-1496.83 121.518,-1497.64 120.734,-1498.42"/>
<polygon fill="none" stroke="black" points="118.417,-1495.8 113.03,-1504.92 122.931,-1501.15 118.417,-1495.8"/>
</g>
<!-- \\Entities\\Generic -->
<g id="node7" class="node"><title>\\Entities\\Generic</title>
<polygon fill="none" stroke="black" points="447.5,-1110 383.5,-1110 383.5,-1074 447.5,-1074 447.5,-1110"/>
<text text-anchor="middle" x="415.5" y="-1089.2" font-family="Courier,monospace" font-size="11.00">Generic</text>
</g>
<!-- \\Entities\\Generic&#45;&gt;\\Entities\\Entity -->
<g id="edge6" class="edge"><title>\\Entities\\Generic&#45;&gt;\\Entities\\Entity</title>
<path fill="none" stroke="black" d="M383.316,-1099.99C368.233,-1104.5 350.158,-1110.87 335,-1119 306.341,-1134.37 277.342,-1157.44 257.103,-1175.03"/>
<polygon fill="none" stroke="black" points="254.709,-1172.47 249.527,-1181.72 259.341,-1177.72 254.709,-1172.47"/>
</g>
<!-- \\Entities\\Location -->
<g id="node8" class="node"><title>\\Entities\\Location</title>
<polygon fill="none" stroke="black" points="451,-1056 380,-1056 380,-1020 451,-1020 451,-1056"/>
<text text-anchor="middle" x="415.5" y="-1035.2" font-family="Courier,monospace" font-size="11.00">Location</text>
</g>
<!-- \\Entities\\Location&#45;&gt;\\Entities\\Entity -->
<g id="edge7" class="edge"><title>\\Entities\\Location&#45;&gt;\\Entities\\Entity</title>
<path fill="none" stroke="black" d="M379.961,-1045.03C365.18,-1049.18 348.3,-1055.53 335,-1065 294.444,-1093.87 261.974,-1142.83 244.393,-1173.18"/>
<polygon fill="none" stroke="black" points="241.304,-1171.53 239.423,-1181.96 247.395,-1174.98 241.304,-1171.53"/>
</g>
<!-- \\Entities\\Offering -->
<g id="node9" class="node"><title>\\Entities\\Offering</title>
<polygon fill="none" stroke="black" points="451,-1326 380,-1326 380,-1290 451,-1290 451,-1326"/>
<text text-anchor="middle" x="415.5" y="-1305.2" font-family="Courier,monospace" font-size="11.00">Offering</text>
</g>
<!-- \\Entities\\Offering&#45;&gt;\\Entities\\Entity -->
<g id="edge8" class="edge"><title>\\Entities\\Offering&#45;&gt;\\Entities\\Entity</title>
<path fill="none" stroke="black" d="M379.815,-1298.94C365.493,-1294.52 349.002,-1288.51 335,-1281 306.341,-1265.63 277.342,-1242.56 257.103,-1224.97"/>
<polygon fill="none" stroke="black" points="259.341,-1222.28 249.527,-1218.28 254.709,-1227.53 259.341,-1222.28"/>
</g>
<!-- \\Entities\\Operator -->
<g id="node10" class="node"><title>\\Entities\\Operator</title>
<polygon fill="none" stroke="black" points="451,-1272 380,-1272 380,-1236 451,-1236 451,-1272"/>
<text text-anchor="middle" x="415.5" y="-1251.2" font-family="Courier,monospace" font-size="11.00">Operator</text>
</g>
<!-- \\Entities\\Operator&#45;&gt;\\Entities\\Entity -->
<g id="edge9" class="edge"><title>\\Entities\\Operator&#45;&gt;\\Entities\\Entity</title>
<path fill="none" stroke="black" d="M379.797,-1243.84C352.011,-1235.71 312.626,-1224.18 281.215,-1214.99"/>
<polygon fill="none" stroke="black" points="281.902,-1211.54 271.321,-1212.09 279.935,-1218.26 281.902,-1211.54"/>
</g>
<!-- \\Entities\\Review -->
<g id="node11" class="node"><title>\\Entities\\Review</title>
<polygon fill="none" stroke="black" points="444,-1218 387,-1218 387,-1182 444,-1182 444,-1218"/>
<text text-anchor="middle" x="415.5" y="-1197.2" font-family="Courier,monospace" font-size="11.00">Review</text>
</g>
<!-- \\Entities\\Review&#45;&gt;\\Entities\\Entity -->
<g id="edge10" class="edge"><title>\\Entities\\Review&#45;&gt;\\Entities\\Entity</title>
<path fill="none" stroke="black" d="M386.878,-1200C359.092,-1200 315.586,-1200 281.431,-1200"/>
<polygon fill="none" stroke="black" points="281.159,-1196.5 271.159,-1200 281.159,-1203.5 281.159,-1196.5"/>
</g>
<!-- \\Entities\\User -->
<g id="node12" class="node"><title>\\Entities\\User</title>
<polygon fill="none" stroke="black" points="442.5,-1164 388.5,-1164 388.5,-1128 442.5,-1128 442.5,-1164"/>
<text text-anchor="middle" x="415.5" y="-1143.2" font-family="Courier,monospace" font-size="11.00">User</text>
</g>
<!-- \\Entities\\User&#45;&gt;\\Entities\\Entity -->
<g id="edge11" class="edge"><title>\\Entities\\User&#45;&gt;\\Entities\\Entity</title>
<path fill="none" stroke="black" d="M388.457,-1153.62C360.702,-1161.75 316.048,-1174.82 281.206,-1185.01"/>
<polygon fill="none" stroke="black" points="279.814,-1181.77 271.2,-1187.94 281.781,-1188.49 279.814,-1181.77"/>
</g>
<!-- \\Helpers\\Cache -->
<g id="node13" class="node"><title>\\Helpers\\Cache</title>
<polygon fill="none" stroke="black" points="442.5,-976 388.5,-976 388.5,-940 442.5,-940 442.5,-976"/>
<text text-anchor="middle" x="415.5" y="-955.2" font-family="Courier,monospace" font-size="11.00">Cache</text>
</g>
<!-- \\Helpers\\CacheItem -->
<g id="node14" class="node"><title>\\Helpers\\CacheItem</title>
<polygon fill="none" stroke="black" points="454,-922 377,-922 377,-886 454,-886 454,-922"/>
<text text-anchor="middle" x="415.5" y="-901.2" font-family="Courier,monospace" font-size="11.00">CacheItem</text>
</g>
<!-- \\Helpers\\DB -->
<g id="node15" class="node"><title>\\Helpers\\DB</title>
<polygon fill="none" stroke="black" points="442.5,-868 388.5,-868 388.5,-832 442.5,-832 442.5,-868"/>
<text text-anchor="middle" x="415.5" y="-847.2" font-family="Courier,monospace" font-size="11.00">DB</text>
</g>
<!-- \\Helpers\\Dispatcher -->
<g id="node16" class="node"><title>\\Helpers\\Dispatcher</title>
<polygon fill="none" stroke="black" points="457.5,-814 373.5,-814 373.5,-778 457.5,-778 457.5,-814"/>
<text text-anchor="middle" x="415.5" y="-793.2" font-family="Courier,monospace" font-size="11.00">Dispatcher</text>
</g>
<!-- \\Interfaces\\Cacheable -->
<g id="node17" class="node"><title>\\Interfaces\\Cacheable</title>
<polygon fill="none" stroke="black" points="108,-1595 31,-1595 31,-1559 108,-1559 108,-1595"/>
<text text-anchor="middle" x="69.5" y="-1574.2" font-family="Courier,monospace" font-size="11.00">Cacheable</text>
</g>
<!-- \\Interfaces\\Layoutable -->
<g id="node18" class="node"><title>\\Interfaces\\Layoutable</title>
<polygon fill="none" stroke="black" points="111.5,-1379 27.5,-1379 27.5,-1343 111.5,-1343 111.5,-1379"/>
<text text-anchor="middle" x="69.5" y="-1358.2" font-family="Courier,monospace" font-size="11.00">Layoutable</text>
</g>
<!-- \\Interfaces\\Loadable -->
<g id="node19" class="node"><title>\\Interfaces\\Loadable</title>
<polygon fill="none" stroke="black" points="105,-1487 34,-1487 34,-1451 105,-1451 105,-1487"/>
<text text-anchor="middle" x="69.5" y="-1466.2" font-family="Courier,monospace" font-size="11.00">Loadable</text>
</g>
<!-- \\Interfaces\\Templatable -->
<g id="node20" class="node"><title>\\Interfaces\\Templatable</title>
<polygon fill="none" stroke="black" points="115,-1433 24,-1433 24,-1397 115,-1397 115,-1433"/>
<text text-anchor="middle" x="69.5" y="-1412.2" font-family="Courier,monospace" font-size="11.00">Templatable</text>
</g>
<!-- \\Layouts\\Dashboard -->
<g id="node22" class="node"><title>\\Layouts\\Dashboard</title>
<polygon fill="none" stroke="black" points="267.5,-330 190.5,-330 190.5,-294 267.5,-294 267.5,-330"/>
<text text-anchor="middle" x="229" y="-309.2" font-family="Courier,monospace" font-size="11.00">Dashboard</text>
</g>
<!-- \\Layouts\\Dashboard&#45;&gt;\\Interfaces\\Templatable -->
<g id="edge12" class="edge"><title>\\Layouts\\Dashboard&#45;&gt;\\Interfaces\\Templatable</title>
<path fill="none" stroke="black" stroke-dasharray="1,5" d="M190.301,-327.252C185.861,-330.508 181.89,-334.392 179,-339 54.9485,-536.755 249.868,-1192.04 123,-1388 122.735,-1388.41 122.463,-1388.81 122.182,-1389.21"/>
<polygon fill="none" stroke="black" points="119.465,-1386.99 115.268,-1396.72 124.616,-1391.73 119.465,-1386.99"/>
</g>
<!-- \\Layouts\\Home -->
<g id="node23" class="node"><title>\\Layouts\\Home</title>
<polygon fill="none" stroke="black" points="256,-438 202,-438 202,-402 256,-402 256,-438"/>
<text text-anchor="middle" x="229" y="-417.2" font-family="Courier,monospace" font-size="11.00">Home</text>
</g>
<!-- \\Layouts\\Home&#45;&gt;\\Interfaces\\Templatable -->
<g id="edge13" class="edge"><title>\\Layouts\\Home&#45;&gt;\\Interfaces\\Templatable</title>
<path fill="none" stroke="black" stroke-dasharray="1,5" d="M203.92,-438.085C194.418,-446.634 184.478,-457.671 179,-470 96.0147,-656.773 234.724,-1216.86 123,-1388 122.734,-1388.41 122.46,-1388.81 122.177,-1389.21"/>
<polygon fill="none" stroke="black" points="119.463,-1386.99 115.241,-1396.7 124.602,-1391.74 119.463,-1386.99"/>
</g>
<!-- \\Layouts\\Minimal -->
<g id="node24" class="node"><title>\\Layouts\\Minimal</title>
<polygon fill="none" stroke="black" points="261,-384 197,-384 197,-348 261,-348 261,-384"/>
<text text-anchor="middle" x="229" y="-363.2" font-family="Courier,monospace" font-size="11.00">Minimal</text>
</g>
<!-- \\Layouts\\Minimal&#45;&gt;\\Interfaces\\Templatable -->
<g id="edge14" class="edge"><title>\\Layouts\\Minimal&#45;&gt;\\Interfaces\\Templatable</title>
<path fill="none" stroke="black" stroke-dasharray="1,5" d="M196.995,-376.978C189.954,-380.94 183.294,-386.177 179,-393 61.0449,-580.434 243.625,-1202.27 123,-1388 122.735,-1388.41 122.461,-1388.81 122.18,-1389.21"/>
<polygon fill="none" stroke="black" points="119.464,-1386.99 115.258,-1396.71 124.61,-1391.74 119.464,-1386.99"/>
</g>
<!-- \\Models\\Endpoints\\DestinationEndpoint -->
<g id="node25" class="node"><title>\\Models\\Endpoints\\DestinationEndpoint</title>
<polygon fill="none" stroke="black" points="488,-222 343,-222 343,-186 488,-186 488,-222"/>
<text text-anchor="middle" x="415.5" y="-201.2" font-family="Courier,monospace" font-size="11.00">DestinationEndpoint</text>
</g>
<!-- \\Models\\Endpoints\\OperatorEndpoint -->
<g id="node26" class="node"><title>\\Models\\Endpoints\\OperatorEndpoint</title>
<polygon fill="none" stroke="black" points="478,-168 353,-168 353,-132 478,-132 478,-168"/>
<text text-anchor="middle" x="415.5" y="-147.2" font-family="Courier,monospace" font-size="11.00">OperatorEndpoint</text>
</g>
<!-- \\Models\\Endpoints\\UserEndpoint -->
<g id="node27" class="node"><title>\\Models\\Endpoints\\UserEndpoint</title>
<polygon fill="none" stroke="black" points="464.5,-114 366.5,-114 366.5,-78 464.5,-78 464.5,-114"/>
<text text-anchor="middle" x="415.5" y="-93.2" font-family="Courier,monospace" font-size="11.00">UserEndpoint</text>
</g>
<!-- \\Models\\ComparOperatorAPI -->
<g id="node28" class="node"><title>\\Models\\ComparOperatorAPI</title>
<polygon fill="none" stroke="black" points="481,-60 350,-60 350,-24 481,-24 481,-60"/>
<text text-anchor="middle" x="415.5" y="-39.2" font-family="Courier,monospace" font-size="11.00">ComparOperatorAPI</text>
</g>
<!-- \\Models\\DBPDO -->
<g id="node29" class="node"><title>\\Models\\DBPDO</title>
<polygon fill="none" stroke="black" points="256,-60 202,-60 202,-24 256,-24 256,-60"/>
<text text-anchor="middle" x="229" y="-39.2" font-family="Courier,monospace" font-size="11.00">DBPDO</text>
</g>
<!-- \\Models\\ComparOperatorAPI&#45;&gt;\\Models\\DBPDO -->
<g id="edge15" class="edge"><title>\\Models\\ComparOperatorAPI&#45;&gt;\\Models\\DBPDO</title>
<path fill="none" stroke="black" d="M349.971,-42C321.91,-42 290.076,-42 266.255,-42"/>
<polygon fill="none" stroke="black" points="266.245,-38.5001 256.245,-42 266.244,-45.5001 266.245,-38.5001"/>
</g>
<!-- \\Models\\Model -->
<g id="node30" class="node"><title>\\Models\\Model</title>
<polygon fill="none" stroke="black" points="111.5,-60 27.5,-60 27.5,-24 111.5,-24 111.5,-60"/>
<text text-anchor="start" x="35.5" y="-45.2" font-family="Courier,monospace" font-size="11.00">«abstract»</text>
<text text-anchor="start" x="52.5" y="-33.2" font-family="Courier,monospace" font-size="11.00">Model</text>
</g>
<!-- \\Models\\DBPDO&#45;&gt;\\Models\\Model -->
<g id="edge16" class="edge"><title>\\Models\\DBPDO&#45;&gt;\\Models\\Model</title>
<path fill="none" stroke="black" d="M201.992,-42C180.222,-42 148.499,-42 121.666,-42"/>
<polygon fill="none" stroke="black" points="121.653,-38.5001 111.653,-42 121.653,-45.5001 121.653,-38.5001"/>
</g>
<!-- \\Templates\\Console -->
<g id="node31" class="node"><title>\\Templates\\Console</title>
<polygon fill="none" stroke="black" points="261,-1514 197,-1514 197,-1478 261,-1478 261,-1514"/>
<text text-anchor="middle" x="229" y="-1493.2" font-family="Courier,monospace" font-size="11.00">Console</text>
</g>
<!-- \\Templates\\Console&#45;&gt;\\Interfaces\\Templatable -->
<g id="edge17" class="edge"><title>\\Templates\\Console&#45;&gt;\\Interfaces\\Templatable</title>
<path fill="none" stroke="black" stroke-dasharray="1,5" d="M196.883,-1480C173.386,-1467.91 140.827,-1451.17 114.641,-1437.7"/>
<polygon fill="none" stroke="black" points="116.164,-1434.55 105.67,-1433.09 112.962,-1440.77 116.164,-1434.55"/>
</g>
<!-- \\Templates\\Fonts -->
<g id="node32" class="node"><title>\\Templates\\Fonts</title>
<polygon fill="none" stroke="black" points="256,-1460 202,-1460 202,-1424 256,-1424 256,-1460"/>
<text text-anchor="middle" x="229" y="-1439.2" font-family="Courier,monospace" font-size="11.00">Fonts</text>
</g>
<!-- \\Templates\\Fonts&#45;&gt;\\Interfaces\\Templatable -->
<g id="edge18" class="edge"><title>\\Templates\\Fonts&#45;&gt;\\Interfaces\\Templatable</title>
<path fill="none" stroke="black" stroke-dasharray="1,5" d="M201.992,-1437.54C181.166,-1433.97 151.232,-1428.84 125.185,-1424.37"/>
<polygon fill="none" stroke="black" points="125.495,-1420.88 115.048,-1422.64 124.312,-1427.78 125.495,-1420.88"/>
</g>
<!-- \\Templates\\Footer -->
<g id="node33" class="node"><title>\\Templates\\Footer</title>
<polygon fill="none" stroke="black" points="257.5,-1406 200.5,-1406 200.5,-1370 257.5,-1370 257.5,-1406"/>
<text text-anchor="middle" x="229" y="-1385.2" font-family="Courier,monospace" font-size="11.00">Footer</text>
</g>
<!-- \\Templates\\Footer&#45;&gt;\\Interfaces\\Templatable -->
<g id="edge19" class="edge"><title>\\Templates\\Footer&#45;&gt;\\Interfaces\\Templatable</title>
<path fill="none" stroke="black" stroke-dasharray="1,5" d="M200.205,-1392.76C179.467,-1396.32 150.467,-1401.29 125.147,-1405.63"/>
<polygon fill="none" stroke="black" points="124.551,-1402.18 115.286,-1407.32 125.733,-1409.08 124.551,-1402.18"/>
</g>
<!-- \\Templates\\Image -->
<g id="node34" class="node"><title>\\Templates\\Image</title>
<polygon fill="none" stroke="black" points="256,-1730 202,-1730 202,-1694 256,-1694 256,-1730"/>
<text text-anchor="middle" x="229" y="-1709.2" font-family="Courier,monospace" font-size="11.00">Image</text>
</g>
<!-- \\Templates\\Image&#45;&gt;\\Interfaces\\Templatable -->
<g id="edge20" class="edge"><title>\\Templates\\Image&#45;&gt;\\Interfaces\\Templatable</title>
<path fill="none" stroke="black" stroke-dasharray="1,5" d="M201.855,-1702.65C193.436,-1698.45 184.795,-1692.67 179,-1685 112.206,-1596.56 191.052,-1529.48 123,-1442 122.528,-1441.39 122.039,-1440.8 121.533,-1440.22"/>
<polygon fill="none" stroke="black" points="123.867,-1437.61 114.179,-1433.32 119.077,-1442.71 123.867,-1437.61"/>
</g>
<!-- \\Templates\\InlinedCss -->
<g id="node35" class="node"><title>\\Templates\\InlinedCss</title>
<polygon fill="none" stroke="black" points="271,-1676 187,-1676 187,-1640 271,-1640 271,-1676"/>
<text text-anchor="middle" x="229" y="-1655.2" font-family="Courier,monospace" font-size="11.00">InlinedCss</text>
</g>
<!-- \\Templates\\InlinedCss&#45;&gt;\\Interfaces\\Templatable -->
<g id="edge21" class="edge"><title>\\Templates\\InlinedCss&#45;&gt;\\Interfaces\\Templatable</title>
<path fill="none" stroke="black" stroke-dasharray="1,5" d="M188.357,-1639.97C184.885,-1637.31 181.679,-1634.33 179,-1631 124.074,-1562.75 178.896,-1509.46 123,-1442 122.399,-1441.27 121.774,-1440.57 121.127,-1439.88"/>
<polygon fill="none" stroke="black" points="123.278,-1437.11 113.467,-1433.11 118.644,-1442.35 123.278,-1437.11"/>
</g>
<!-- \\Templates\\InlinedJs -->
<g id="node36" class="node"><title>\\Templates\\InlinedJs</title>
<polygon fill="none" stroke="black" points="267.5,-1622 190.5,-1622 190.5,-1586 267.5,-1586 267.5,-1622"/>
<text text-anchor="middle" x="229" y="-1601.2" font-family="Courier,monospace" font-size="11.00">InlinedJs</text>
</g>
<!-- \\Templates\\InlinedJs&#45;&gt;\\Interfaces\\Templatable -->
<g id="edge22" class="edge"><title>\\Templates\\InlinedJs&#45;&gt;\\Interfaces\\Templatable</title>
<path fill="none" stroke="black" stroke-dasharray="1,5" d="M190.17,-1586.72C186.082,-1583.85 182.239,-1580.62 179,-1577 135.673,-1528.6 167.015,-1489.77 123,-1442 122.236,-1441.17 121.441,-1440.36 120.618,-1439.58"/>
<polygon fill="none" stroke="black" points="122.562,-1436.65 112.594,-1433.06 118.149,-1442.08 122.562,-1436.65"/>
</g>
<!-- \\Templates\\Table -->
<g id="node37" class="node"><title>\\Templates\\Table</title>
<polygon fill="none" stroke="black" points="256,-1568 202,-1568 202,-1532 256,-1532 256,-1568"/>
<text text-anchor="middle" x="229" y="-1547.2" font-family="Courier,monospace" font-size="11.00">Table</text>
</g>
<!-- \\Templates\\Table&#45;&gt;\\Interfaces\\Templatable -->
<g id="edge23" class="edge"><title>\\Templates\\Table&#45;&gt;\\Interfaces\\Templatable</title>
<path fill="none" stroke="black" stroke-dasharray="1,5" d="M201.853,-1538.47C194.002,-1534.27 185.702,-1529.06 179,-1523 146.526,-1493.66 155.89,-1470.87 123,-1442 121.845,-1440.99 120.644,-1440 119.409,-1439.04"/>
<polygon fill="none" stroke="black" points="121.043,-1435.91 110.833,-1433.08 117.05,-1441.66 121.043,-1435.91"/>
</g>
<!-- \\Views\\AdminDashboard -->
<g id="node38" class="node"><title>\\Views\\AdminDashboard</title>
<polygon fill="none" stroke="black" points="471,-734 360,-734 360,-698 471,-698 471,-734"/>
<text text-anchor="middle" x="415.5" y="-713.2" font-family="Courier,monospace" font-size="11.00">AdminDashboard</text>
</g>
<!-- \\Views\\View -->
<g id="node43" class="node"><title>\\Views\\View</title>
<polygon fill="none" stroke="black" points="271,-653 187,-653 187,-617 271,-617 271,-653"/>
<text text-anchor="start" x="195" y="-638.2" font-family="Courier,monospace" font-size="11.00">«abstract»</text>
<text text-anchor="start" x="215" y="-626.2" font-family="Courier,monospace" font-size="11.00">View</text>
</g>
<!-- \\Views\\AdminDashboard&#45;&gt;\\Views\\View -->
<g id="edge24" class="edge"><title>\\Views\\AdminDashboard&#45;&gt;\\Views\\View</title>
<path fill="none" stroke="black" d="M359.787,-698.608C351.408,-695.603 342.917,-692.359 335,-689 313.431,-679.85 290.192,-668.106 271.073,-657.909"/>
<polygon fill="none" stroke="black" points="272.507,-654.706 262.044,-653.045 269.188,-660.869 272.507,-654.706"/>
</g>
<!-- \\Views\\Error404 -->
<g id="node39" class="node"><title>\\Views\\Error404</title>
<polygon fill="none" stroke="black" points="451,-680 380,-680 380,-644 451,-644 451,-680"/>
<text text-anchor="middle" x="415.5" y="-659.2" font-family="Courier,monospace" font-size="11.00">Error404</text>
</g>
<!-- \\Views\\Error404&#45;&gt;\\Views\\View -->
<g id="edge25" class="edge"><title>\\Views\\Error404&#45;&gt;\\Views\\View</title>
<path fill="none" stroke="black" d="M379.797,-656.922C352.131,-652.873 312.967,-647.142 281.623,-642.555"/>
<polygon fill="none" stroke="black" points="281.722,-639.032 271.321,-641.047 280.709,-645.958 281.722,-639.032"/>
</g>
<!-- \\Views\\Home -->
<g id="node40" class="node"><title>\\Views\\Home</title>
<polygon fill="none" stroke="black" points="442.5,-626 388.5,-626 388.5,-590 442.5,-590 442.5,-626"/>
<text text-anchor="middle" x="415.5" y="-605.2" font-family="Courier,monospace" font-size="11.00">Home</text>
</g>
<!-- \\Views\\Home&#45;&gt;\\Views\\View -->
<g id="edge26" class="edge"><title>\\Views\\Home&#45;&gt;\\Views\\View</title>
<path fill="none" stroke="black" d="M388.457,-611.811C360.702,-615.873 316.048,-622.408 281.206,-627.507"/>
<polygon fill="none" stroke="black" points="280.588,-624.06 271.2,-628.971 281.601,-630.986 280.588,-624.06"/>
</g>
<!-- \\Views\\OfferingList -->
<g id="node41" class="node"><title>\\Views\\OfferingList</title>
<polygon fill="none" stroke="black" points="464.5,-572 366.5,-572 366.5,-536 464.5,-536 464.5,-572"/>
<text text-anchor="middle" x="415.5" y="-551.2" font-family="Courier,monospace" font-size="11.00">OfferingList</text>
</g>
<!-- \\Views\\OfferingList&#45;&gt;\\Views\\View -->
<g id="edge27" class="edge"><title>\\Views\\OfferingList&#45;&gt;\\Views\\View</title>
<path fill="none" stroke="black" d="M366.145,-569.149C355.762,-572.754 344.93,-576.788 335,-581 313.431,-590.15 290.192,-601.894 271.073,-612.091"/>
<polygon fill="none" stroke="black" points="269.188,-609.131 262.044,-616.955 272.507,-615.294 269.188,-609.131"/>
</g>
<!-- \\Views\\OperatorDashboard -->
<g id="node42" class="node"><title>\\Views\\OperatorDashboard</title>
<polygon fill="none" stroke="black" points="481,-518 350,-518 350,-482 481,-482 481,-518"/>
<text text-anchor="middle" x="415.5" y="-497.2" font-family="Courier,monospace" font-size="11.00">OperatorDashboard</text>
</g>
<!-- \\Views\\OperatorDashboard&#45;&gt;\\Views\\View -->
<g id="edge28" class="edge"><title>\\Views\\OperatorDashboard&#45;&gt;\\Views\\View</title>
<path fill="none" stroke="black" d="M351.98,-518.018C346.061,-520.668 340.299,-523.652 335,-527 300.391,-548.865 268.846,-584.373 249.559,-608.663"/>
<polygon fill="none" stroke="black" points="246.647,-606.706 243.263,-616.747 252.17,-611.008 246.647,-606.706"/>
</g>
<!-- \\Views\\View&#45;&gt;\\Interfaces\\Layoutable -->
<g id="edge29" class="edge"><title>\\Views\\View&#45;&gt;\\Interfaces\\Layoutable</title>
<path fill="none" stroke="black" stroke-dasharray="1,5" d="M224.028,-653.309C202.771,-751.293 102.459,-1213.68 76.5954,-1332.9"/>
<polygon fill="none" stroke="black" points="73.1611,-1332.23 74.4613,-1342.74 80.0019,-1333.71 73.1611,-1332.23"/>
</g>
</g>
</svg>
