<?xml version="1.0" encoding="UTF-8"?>
<!-- Generator: Adobe Illustrator 23.1.0, SVG Export Plug-In . SVG Version: 6.00 Build 0)  -->
<svg version="1.1" id="Calque_1" xmlns="http://www.w3.org/2000/svg" xmlns:xlink="http://www.w3.org/1999/xlink" x="0px" y="0px" viewBox="0 0 1024 267" style="enable-background:new 0 0 1024 267;" xml:space="preserve">
<style type="text/css">
	.st0{fill:#E31C18;}
</style>
<g>
	<path class="st0" d="M286.5,1.2c-54.9,2.8-76.2,18.1-76.2,39.3v223.3c0,0,25.2,0,41,0c17.3,0,27.1-12.6,27.1-32.1   c0-10.7,0-2.2,0-162.3c0-13.7,10.4-22,43.4-22c35.9,0,51.5,12.7,51.6,39.3c0.1,27.5-13.9,44.5-44.6,44.5c-7.8,0-31,0-31,0   c-4.1,16.8-1.2,31.4,8.9,51.6c22.7,45.2,76.7,83.7,112.4,83.7c15.6,0,28.4-15.8,33.3-34c-23.7-13-67.9-45.4-81.8-70.7   c45.3-4.7,70.8-36.5,70.8-82.9c0-44.4-34.8-74.7-100.1-77.6C328.6,0.6,312.5-0.1,286.5,1.2z"/>
	<path class="st0" d="M72.2,1.6C17.4,3.6,1.8,17.2,1.8,41.8c0,75.2,0,222.3,0,222.3s27,0,35.6,0c19,0,32.6-10.2,32.6-32.5v-62.8H153   c19.1,0,29.7-9,30.4-23.7c0.5-11.1,0-27.1,0-27.1H70c0,0,0-29,0-37.9c0-17.1,1.8-27.7,26.2-27.7c20.8,0,97.9,0,97.9,0s0-9.1,0-21.9   c0-21.9-13.3-27.7-50.4-29C122.7,0.9,92.2,0.9,72.2,1.6z"/>
	<path class="st0" d="M980.9,1c-35.7,0-53.3,16.5-65,40.8l-37.7,86.4c-3.4,8-15.6,7.3-19.1,0l-36.3-86.4   c-12.9-30.1-29.5-40.5-64.1-40.5c0,0-16.2,0-28,0c-1.5,0-11,0-11,0c-0.8,6.6,0.4,17.2,0.3,26.1c0,0-4.6-1.7-12.9,0.1   c8.8,2.3,13.5,6.7,13.5,6.7c-0.4,11.4-2.5,22.2-8.3,35.7c29.5-51.6,72-22.1,77-3.3c-9.1-2.5-23.6-2.3-35.1,2   c-1.4-2.6-3.6-6.7-5.8-14.1c-2.7,6.2-2.2,13.9-1.6,16.5c-10.8,0.6-21,5-29.8,9.5c55.7,4.2,46.6,56.3,46.6,56.3   c-5.4-9.2-20.9-21-31.1-25.9c2.6-6,2.2-14,2.2-14s-4.5,6.9-8.3,10.4c-4.5-3.3-10.1-5.2-16.3-7c22.5,72,14.4,130.4-4.7,164.1   c0,0,28,0,45.5,0c16.9,0,32.5-11.8,32.5-32.6V84.4c0,0,49.7,117.1,55.8,127.7c9.4,16.2,47.1,16.2,57.2-1.2   c8-13.8,57.1-130,57.1-130s0,136.5,0,150.8c0,19.2,10.2,32.6,27.3,32.6c17.5,0,40.3,0,40.3,0V16.9C1021,8.7,1012.8,1,980.9,1z    M699.6,104.9c-3,2-10.7,10.1-16.1,16.9c-2.9-2-6.5-4.5-11.4-6c2.5,2.7,5.3,9.3,6.8,13.4c-7,6.9-15.7,17.8-19.7,25.9   c-9.8-39.7,6.7-61.2,37.4-69.4c-11.2-0.3-20.6-0.1-30.1,3.3c-2.5-4.2-4.5-8.1-5.4-12.9c-1.5,4.4-1.3,9.8-0.4,14.9   c0,0-15.4,2.8-29.4,11.9c7-42.6,35.3-43.7,63.8-30.1c-4.7-4.1-14.5-14-25.4-17.7c0,0,0.8-7.2,0.4-15c-2.7,4.5-4.9,8.2-7.4,11.3   c-6.9-5.8-16.9-9.4-27.6-11.7c30.7-19,54.5-6.8,65.3,20.1c0.8,2,0.7,1.7,0-0.5c-7.5-25.2-4.1-41.8,7.7-58.1H558.8   c-76.1,0-98.3,39.6-98.3,81.2c0,41.6,0,181.6,0,181.6s29.1,0,38.8,0c19.2,0,28.5-13.5,28.5-32.4v-50.4h96.5v83c0,0,3.5,0,11.7,0   C670.5,264.2,714.1,226.2,699.6,104.9z M624.2,131.4h-96.5V92.8c0-29.3,13.4-42,42-42c15.9,0,54.5,0,54.5,0V131.4z"/>
</g>
</svg>