<?xml version="1.0" encoding="UTF-8"?>
<!-- Generator: Adobe Illustrator 23.0.1, SVG Export Plug-In . SVG Version: 6.00 Build 0)  -->
<svg version="1.1" id="Calque_1" xmlns="http://www.w3.org/2000/svg" xmlns:xlink="http://www.w3.org/1999/xlink" x="0px" y="0px" viewBox="0 0 250 250" style="enable-background:new 0 0 250 250;" xml:space="preserve">
<style type="text/css">
	.st0{fill:#FF3400;}
	.st1{fill:#FFFFFF;}
</style>
<rect y="0" class="st0" width="250" height="250"/>
<g>
	<polygon class="st1" points="44.3,119.1 40.8,115.6 55.4,101.3 24.7,101.3 24.7,96.4 55.4,96.4 40.8,82.1 44.3,78.6 64.6,98.9    44.3,119.1  "/>
	<path class="st1" d="M101.8,119.4c-16.4,0-16.5-8.6-16.5-20.8c0-12.1,0.1-20.7,16.5-20.7c9.4,0,14.6,2.7,14.6,11.4h-5.2   c0-4.9-2-6.4-9.9-6.4c-10.2,0-10.6,4.2-10.6,15.8c0,11.6,0.4,15.7,10.6,15.7c7.9,0,9.9-1.5,9.9-6.4h5.2   C116.4,116.7,111.2,119.4,101.8,119.4L101.8,119.4z"/>
	<polygon class="st1" points="125.4,118.9 125.4,78.4 130.8,78.4 130.8,114 151.3,114 151.3,118.9 125.4,118.9  "/>
	<path class="st1" d="M186.6,107.4c-0.1,2-0.4,3.5-1,4.9c-1.9,4.9-6.9,7-14,7c-7,0-12-2.1-14-7c-0.5-1.4-0.9-2.9-1-4.9   c-0.1-1.9-0.1-4.6-0.1-8.9V78.4h5.4v20.2c0,5.9-0.2,9.8,1,12.3c1.2,2.4,3.7,3.6,8.7,3.6c5,0,7.6-1.2,8.7-3.6c1.2-2.4,1-6.4,1-12.3   V78.4h5.3v20.2C186.7,102.8,186.7,105.5,186.6,107.4L186.6,107.4z"/>
	<path class="st1" d="M210.9,118.9h-14.4V78.4h14c8.1,0,15.7-0.6,15.7,10.2c0,4.6-1.1,8.1-4.1,9.4c3.6,1.6,4.4,5.1,4.4,9.2   C226.6,119.3,218.6,118.9,210.9,118.9L210.9,118.9z M210.1,83.2h-8.3v12.5h8.7c6.4,0,10.3,0.7,10.4-6.3   C221,82.8,217.3,83.2,210.1,83.2L210.1,83.2z M210.5,100.6h-8.6V114h8.6c6.6,0,10.8,0.7,10.8-6.7   C221.3,100.1,217.8,100.6,210.5,100.6L210.5,100.6z"/>
	<path class="st1" d="M159.1,176.7v-37.4h26.6v7.3h-18.4v7.3h17.9v7.3h-17.9v8.2h18.4v7.3H159.1L159.1,176.7z M173.3,135.5h-8.5   l7.2-7.1h8.5L173.3,135.5L173.3,135.5z"/>
	<path class="st1" d="M216.9,176.7l-3-8.5h-13.2l-3,8.5H189l14.2-37.4h8.2l14.1,37.4H216.9L216.9,176.7z M207.2,149.4l-4.1,11.7h8.2   L207.2,149.4L207.2,149.4z"/>
	<polygon class="st1" points="140.8,158 155.9,176.8 140.8,176.8 132,164.1 130.2,164.1 130.2,177 118.3,177 118.3,139 130.3,139    130.3,152.5 132.3,152.5 142.2,139.2 155.4,139.2 140.8,158  "/>
	<path class="st1" d="M115.2,158.1c0,8.9,0,19-15.7,19c-15.7,0-15.7-10.1-15.7-18.9c0-8.8,0-18.9,15.7-18.9   C115.2,139.3,115.2,149.3,115.2,158.1L115.2,158.1z M104.2,158.2c0-8.3-0.4-8.3-4.7-8.3c-4.2,0-4.7,0-4.7,8.4   c0,8.3,0.4,8.3,4.7,8.3C103.7,166.5,104.2,166.5,104.2,158.2L104.2,158.2z"/>
	<path class="st1" d="M80.9,149c0,8.9,0,19-15.7,19c-15.7,0-15.7-10.1-15.7-18.9c0-8.8,0-18.8,15.7-18.8   C80.9,130.2,80.9,140.2,80.9,149L80.9,149z M69.8,149.1c0-8.3-0.4-8.3-4.7-8.3c-4.2,0-4.7,0-4.7,8.4c0,8.3,0.4,8.3,4.7,8.3   C69.3,157.4,69.8,157.4,69.8,149.1L69.8,149.1z"/>
	<polygon class="st1" points="52.4,166.2 52.4,176.7 25.7,176.7 25.7,139.6 36.7,139.6 36.7,166.2 52.4,166.2  "/>
</g>
</svg>