<?xml version="1.0" encoding="UTF-8"?>
<!-- Generator: Adobe Illustrator 21.0.0, SVG Export Plug-In . SVG Version: 6.00 Build 0)  -->
<svg version="1.1" id="Calque_1" xmlns="http://www.w3.org/2000/svg" xmlns:xlink="http://www.w3.org/1999/xlink" x="0px" y="0px" viewBox="0 0 400 400" style="enable-background:new 0 0 400 400;" xml:space="preserve">
<style type="text/css">
	.st0{fill:#00A0A5;}
	.st1{fill:#FFC800;}
	.st2{fill:#FFFFFF;}
</style>
<g>
	<rect y="0" class="st0" width="400" height="400"/>
	<g>
		<g>
			<path class="st1" d="M121.2,216.5c0.2-0.1,0.4-0.3,0.4-0.5c0-0.3-0.1-0.5-0.3-0.8c-0.1-0.1-0.1-0.2-0.2-0.2     c0-0.1-0.1-0.3-0.5-0.8c-0.2-0.2-1-1.1-1.3-1.3l-0.1-0.1c-0.1-0.2-0.3-0.3-0.5-0.3c-0.2,0-0.5,0.1-0.6,0.3     c-0.1,0.1-0.1,0.3,0.1,0.5c0.2,0.3,0.3,0.5,0.4,0.5l0,0c0,0.1-0.1,0.2,0.3,0.6c0.2,0.2,0.3,0.5,0.3,0.6c0,0,0,0.1,0,0.1     c0.1,0.2,1.2,1.4,1.7,1.4C121,216.6,121.1,216.6,121.2,216.5 M121,216.3L121,216.3L121,216.3L121,216.3z"/>
			<path class="st1" d="M124.1,217.8c0,0-1.5-1.4-2-1.8l0,0l0,0c-0.1,0-0.1-0.1-0.1-0.1c-0.1,0-0.2,0-0.2,0.1c0,0,0,0.1,0,0.1     c0,0.1-0.1,0.2-0.3,0.3c-0.2,0.2-0.3,0.3-0.3,0.5c0,0.1,0,0.1,0,0.2c-0.1,0-0.2,0-0.3,0c-0.3-0.1-0.6,0-0.8,0.2     c-0.1,0.2-0.1,0.4,0,0.7c0.1,0.1,0.2,0.4,0.3,0.6c0.4,0.9,0.5,1.1,0.7,1.2l0.1,0c0.2,0,0.3-0.2,0.5-0.6c0.1-0.2,0.3-0.7,0.4-0.8     c0.2,0,0.6,0.5,0.8,0.7c0.3,0.3,0.4,0.5,0.6,0.6c0,0,0.1,0,0.1,0c0.1,0,0.3,0,0.4-0.3c0-0.1,0.1-0.3,0-0.4     c0.1-0.1,0.3-0.1,0.4-0.1c0,0,0.1,0,0.1,0c0.2,0.1,0.4,0.1,0.4,0C124.9,218.7,125,218.6,124.1,217.8"/>
			<path class="st1" d="M211.1,260.2c0.1-0.2,0.2-0.3,0.2-0.5c-0.1-0.2-0.2-0.2-0.7,0c-0.7,0.3-1.6,1.1-1.6,1.4     c0,0.1,0.1,0.2,0.2,0.2c0.1,0,0.1,0,0.2,0c0.4-0.2,0.8-0.2,1-0.2l0,0.1c0,0.1,0.1,0.3,0.3,0.3l0.1,0c0.2,0,0.3-0.2,0.3-0.3     c0-0.1-0.1-0.2-0.2-0.2c0-0.1,0-0.2,0-0.3C211,260.4,211.1,260.3,211.1,260.2"/>
			<path class="st1" d="M221.2,247.5c0,0,0.2-0.2,0.2-0.3c0-0.1,0-0.1-0.1,0.1C221.2,247.4,221.1,247.5,221.2,247.5"/>
			<path class="st1" d="M231.5,242.7c0,0,0.1,0,0.1,0c0.1,0,0,0,0,0C231.6,242.7,231.5,242.7,231.5,242.7"/>
			<path class="st1" d="M221.5,247.5C221.5,247.5,221.4,247.6,221.5,247.5c-0.1,0.2,0,0.2,0,0.1     C221.5,247.6,221.5,247.5,221.5,247.5"/>
			<path class="st1" d="M227.9,245.1c0,0.1,0,0.2,0,0.3c0.1,0.1,0.2,0.1,0.3,0.1c0.1,0,0.1,0,0.2,0c0,0,0.1,0.1,0.2,0.1     c0.1,0,0.1,0,0.5-0.2c0.1,0,0.1,0,0.1,0c0.1,0,0.2,0,0.6-0.2c0.2-0.1,0.5-0.2,0.8-0.2c0,0.1,0.1,0.1,0.2,0.1     c0.3,0,2.9-1.2,4.3-1.9c2.9-1.6,2.9-1.6,2.9-1.8c0-0.1-0.1-0.1-0.2-0.1c0,0-0.1,0-0.1,0c0,0-0.1,0-0.2,0.1     c-0.2,0.1-0.5,0.3-0.7,0.3c-0.1-0.2-0.2-0.4-0.3-0.4c-0.1,0-0.1,0-0.2,0.1c-0.1,0.1-0.1,0.1-0.1,0.2c-0.3,0.2-1.9,0.9-3.2,1     C231.6,242.6,228.1,244.6,227.9,245.1"/>
			<path class="st1" d="M214.3,243.2c-1,0-2,1-2.6,1.7c-0.1,0-0.1,0.2-0.1,0.2c0,0.1,0,0.2,0,0.2c0,0.1,0.1,0.1,0.2,0.1     c0.2,0,0.5-0.1,0.7-0.3c0.3-0.2,2-0.2,2.7-0.2c0.2,0,0.4,0,0.5,0l0.1,0l0.2,0c0,0-0.1,0.1-0.1,0.1c-0.1,0.2-0.5,0.4-0.8,0.6     c-0.5,0.3-0.8,0.5-0.8,0.8c0,0.1,0.1,0.2,0.2,0.3c0.2,0.1,0.5,0.2,0.6,0.2c0.5,0,0.8-0.2,1-0.8c0.2-0.5,3.4-1.5,4.5-1.7     c0.1,0.2,0.3,0.5,0.6,0.5c0.1,0,0.3-0.1,0.3-0.2l0-0.1c0.5-0.9,0.5-0.9,0.5-1l0,0c0,0,0-0.1,0-0.1c0.1-0.1,0.1-0.1,0.1-0.2     c0-0.1,0-0.2-0.9-0.4l-0.1,0c-0.4,0-2.1,0.3-3.7,0.6c-0.4,0.1-0.8,0.1-0.9,0.2C216.1,243.4,214.5,243.2,214.3,243.2"/>
			<path class="st1" d="M124.4,220.4c0.2,0,0.3,0.1,0.5,0C124.7,220.3,124.5,220.2,124.4,220.4"/>
			<path class="st1" d="M173,247.5C173,247.5,173,247.5,173,247.5C172.9,247.6,172.9,247.6,173,247.5C173,247.6,173,247.6,173,247.5     "/>
			<path class="st1" d="M172.9,248.3c0.3,0.1,0.4,0.1,0.2,0c-0.1-0.1-0.6-0.4-0.6-0.3C172.4,248.1,172.6,248.2,172.9,248.3"/>
			<path class="st1" d="M169.5,246.1c0,0.2,0.1,0.6,0.6,0.7c0.3,0.1,0.9,0.4,1.4,0.6c0.8,0.4,1.1,0.5,1.2,0.5c0.1,0,0.1,0,0.2-0.1     c0-0.1,0.1-0.1,0.1-0.2c0-0.1-0.2-0.2-0.4-0.3c-0.2-0.1-0.5-0.2-0.6-0.4c-0.2-0.3-0.4-0.4-0.4-0.4c0-0.1-0.1-0.2-0.1-0.2l0-0.1     c0-0.3-0.9-0.6-1-0.6C169.9,245.6,169.6,245.8,169.5,246.1"/>
			<path class="st1" d="M252.7,244.8c0,0.2,0,0.3,0.5-0.1C253.1,244.8,252.9,244.8,252.7,244.8"/>
			<path class="st1" d="M283.4,214.8c0,0-0.2,0.1-0.3,0.2c0,0,0-0.1,0-0.1c0-0.1-0.1-0.1-0.2-0.1c-0.1,0-0.1,0-0.2,0.1     c-0.1,0.1-0.1,0.2-0.1,0.3c0,0.1,0,0.2,0,0.2c0,0-0.1,0.1-0.3,0.1c0-0.3,0-0.5-0.1-0.7c-0.1-0.1-0.3-0.2-0.4-0.2     c-0.1-0.1-0.1-0.5,0-1.2c0.1-0.6,0.1-0.6,0-0.7c0,0-0.1-0.1-0.2-0.1c-0.2,0-0.2,0-0.4,1c-0.1,0.8-1.8,2.3-2.2,2.5     c-0.3,0-0.6,0.5-0.7,0.9c-0.1,0.4-0.7,0.9-0.9,0.9c-0.1-0.1-0.2-0.1-0.2-0.1c-0.3,0-0.5,0.2-1.4,1.7c-0.8,1.3-3.4,4-3.9,4.5     c-0.2,0.1-0.5,0.4-0.6,0.6c-0.1,0.1-0.1,0.2-0.1,0.3l0,0c-0.3,0-0.6,0.1-1.1,0.4c-0.5,0.3-1.1,1-1.4,1.3c0,0-0.1,0.1-0.1,0.1     c-0.6,0.3-3.4,2.7-4.6,3.8c-1.8,1.7-4.8,3.9-6.2,5c-0.6,0.4-0.8,0.6-0.9,0.7l0,0c-0.1,0.1-0.7,0.5-1.4,0.9     c-0.5,0.3-1.2,1.1-1.7,1.7c-0.1,0.1-0.1,0.1-0.2,0.2c0-0.1-0.1-0.3-0.1-0.3c-0.1-0.1-0.2-0.1-0.2-0.1c-0.1,0-0.2,0-0.2,0.1     c-0.1,0-0.2,0.1-0.3,0.1c0-0.6-0.5-0.8-1.1-0.5c0,0-2.1,1.2-2.2,1.6c0,0-0.1,0.2-0.2,0.4c0,0.1-0.1,0.2-0.1,0.4     c-0.3,0-0.7,0-0.9,0.4c-0.2,0.3-0.9,0.6-1.2,0.7c-0.1-0.1-0.4-0.1-0.6,0c-0.1,0-0.4,0.1-0.7,0.2c-0.4,0.1-1,0.3-1.1,0.3l0,0     c-0.3,0-1.2,0.7-1.2,0.7c-0.1,0.1-0.4,0.2-1.3,0.2c-0.6,0-1.1-0.1-1.2-0.1l-0.1,0c0,0-0.1,0-1.3,0.5c-0.3,0.1-0.7,0.2-1,0.3     c-0.7,0.2-0.8,0.3-0.9,0.4c0,0.1,0,0.1,0.1,0.2c0.1,0.1,0.5,0.2,0.8,0.2c-0.1,0.3-0.4,0.7-0.8,1.2c-1,1.1-6.1,1.5-6.7,1.5l0,0     c-0.1,0-0.2,0-1.3,1.5c-0.1,0.1-0.4,0.2-0.9,0.2c-0.9,0-1.9-0.4-2.2-0.6c0.1-0.1,0.1-0.2,0.1-0.3c0-0.1-0.2-0.2-0.4-0.2     c-0.2,0-0.5,0.1-0.8,0.3c-0.3,0.3-0.4,0.5-0.5,0.6c-0.1,0-0.1,0-0.2,0.1c-0.1,0-0.3,0-0.5,0c-0.4,0-0.9-0.1-1-0.1     c0,0-0.1-0.1-0.2-0.1c-0.1,0-0.2,0-1.3,0.5c-0.5,0.3-1.2,0.7-1.7,0.9c-0.1,0.1-0.3,0.1-0.3,0.2c-0.1,0-0.2,0-0.3,0l0,0     c0,0,0.1,0,0.1,0c0.3-0.1,0.8-0.5,0.7-0.7c0,0,0-0.1,0-0.1c0-0.1,0.1-0.1,0.1-0.2c0,0,0.6-0.8,0.8-1.3l0,0c0-0.1,0-0.2,0-0.2     c0-0.1-0.1-0.1-0.2-0.1c-0.1,0-0.2,0.1-0.2,0.1c0,0.1-0.4,0.2-0.5,0.3c0,0-0.1,0.1-0.1,0.1l-0.1,0c-0.1-0.1-0.2-0.1-0.5-0.2     c-0.2,0-0.6,0-1.1,0.1c-0.9,0.1-1.1,0.3-1.1,0.5c0,0.2,0.3,0.3,0.5,0.3c0.4,0,1.1,0.8,1.3,1c-0.1,0.1-0.1,0.2,0,0.3     c0,0.1,0.1,0.1,0.2,0.2c-0.1,0-0.2,0-0.2,0c0,0-0.1-0.1-0.2-0.1c0,0-0.1,0-0.5,0.1c0,0-0.1,0-0.2,0.1c0,0,0-0.1,0-0.1     c-0.1-0.3-0.6-0.4-0.8-0.4c-0.2,0-0.4,0-0.5,0.2c-0.1,0.1-0.1,0.2-0.1,0.4c0,0.1,0,0.1,0.1,0.1c0.2,0.1,0.4,0.1,0.6,0.2l0,0v0     c0,0.1-0.1,0.3-0.3,0.6c-0.1,0.2-0.6,0.4-0.9,0.6c-0.3,0.1-0.4,0.2-0.4,0.4c0,0.1,0.1,0.1,0.2,0.2c0,0,0.2,0.1,0.2,0.1     c0,0,0,0-0.1,0.1c0,0-0.2,0.1-0.5,0.1c-0.6,0-1.4-0.3-1.6-0.4l0-0.1c-0.1-0.1-0.2-0.1-0.2,0c-0.1,0-0.2,0.1-0.5,0.2     c-0.1,0-0.1,0-0.2,0c-0.3,0-0.6-0.3-0.6-0.4c0,0,0-0.1,0.1-0.1c0.6-0.2,1.6-0.4,2.1-0.5c0,0,0,0.1,0,0.2c0.1,0.2,0.3,0.5,0.8,0.5     c0.3,0,0.5-0.3,0.5-0.6c0-0.5-0.4-1-1.2-1l-0.2,0c-0.2,0-0.4,0-0.6,0c-1.2-0.1-2.8-0.4-3.1-0.8c-0.1,0,0-0.1,0-0.1     s0.5-2.1,0.2-2.4c0-0.1-0.1-0.1-0.2-0.1c-0.1,0-0.1,0-0.2,0.1c-0.1,0.1-0.6,0.2-0.9,0.2c-0.1,0-0.1-0.1-0.1-0.1     c-0.1,0-0.2,0.1-0.2,0.1c0,0,0,0.1,0,0.1c0,0,0,0.1,0,0.1c-0.1,0.1-0.4,0.2-0.5,0.2c-0.2,0.1-0.4,0.1-0.4,0.3     c0,0.1,0,0.1,0.1,0.1c0,0.1-0.2,0.4-0.3,0.6c-0.1,0.1-0.1,0.3-0.2,0.4c0,0-0.1,0-0.4,0c-0.5,0-1.2-0.2-1.4-0.3     c0-0.1,0.1-0.1,0.2-0.2c0.2-0.2,0.3-0.3,0.3-0.5c0-0.1-0.1-0.1-0.1-0.2c0.1,0,0.3-0.1,0.6-0.2c0.6-0.1,1.1-1.2,1.2-1.6l0,0l0,0     c0-0.1,0-0.1,0-0.1c0-0.1-0.1-0.2-0.2-0.2c-0.1,0-0.2,0.1-0.2,0.1c0,0-0.2,0.1-0.4,0.1c-0.1-0.3-0.3-0.6-0.6-0.8     c-0.1,0-0.1,0-0.2-0.1c-0.4,0-1.1,0.4-1.4,0.7c-0.2,0.2-0.2,0.3-0.2,0.4c0,0.1,0,0.2,0.1,0.3c0,0.1,0.1,0.2,0.1,0.3     c-0.2,0-0.3-0.2-0.5-0.3c-0.1-0.1-0.2-0.2-0.3-0.2c-0.1,0-0.2,0.1-0.3,0.2c0,0.1,0,0.1-0.1,0.1h0c-0.1,0-0.1,0-0.2,0     c-0.1,0-0.2-0.1-0.3-0.1c-0.2,0-0.2,0.1-0.3,0.1c-0.2,0.3,0.3,0.7,0.4,0.8c0.1,0.1,0.4,0.2,0.7,0.3c0.2,0.1,0.5,0.1,0.7,0.2     c-0.1,0-0.1,0-0.2,0c-0.4,0-1-0.2-1.3-0.4c-0.4-0.4-1.3-0.5-1.9-0.6c-0.1,0-0.2,0-0.3,0l0-0.1c-0.1-0.2-0.3-0.3-0.6-0.3     c-0.2,0-0.3,0-0.4,0.1c0,0-0.1,0-0.3,0c-0.1,0-0.3,0-0.4,0c-0.1,0-0.2,0-0.3,0.1c0,0,0,0.1,0,0.1c0,0.1-0.2,0.2-0.5,0.3     c-0.2-0.1-0.5-0.3-0.3-0.4c0.2-0.1-0.3-0.2-0.3,0c-0.1,0.2,0.1,0.4,0.4,0.4c0.1,0,0.2,0,0.3,0c-0.1,0-0.1,0-0.2,0.1     c-0.3,0.1-0.9,0-1.3,0l0-0.1c0-0.5-2.3-1.1-3.9-1.2c-1.2-0.1-2.8,0-3.9,0c-0.4,0-0.7,0-0.9,0c-0.1-0.1-0.3-0.1-0.8-0.2h0     c-0.1,0-0.2,0-0.4,0c-0.7,0-1-0.1-1.1-0.1c0,0,0-0.1,0-0.1c-0.1-0.2-0.6-0.2-1.1,0c-0.4,0.1-0.8,0.5-0.8,0.8     c0,0.3,0.1,0.5,0.3,0.6c0.3,0.2,0.9,0.3,1.4,0.4c-0.5,0.2-1.2,0.5-1.7,0.8c-0.2,0.1-0.5,0.3-0.6,0.3c-0.2-0.1-0.9,0.2-1.1,0.4     c-0.1,0-0.2,0-0.3,0c-0.3,0-0.5-0.1-0.6-0.2c0,0,0,0,0.1,0c0.7-0.2,2.1-1.5,2.1-1.8c0-0.1-0.2-0.2-0.3-0.1c0,0-0.1,0-0.1-0.2     c-0.1-0.4,0-0.5,0-0.6c0,0,0,0,0.1,0c0.3,0,0.7-0.1,0.9-0.2c0.1,0,0.2,0,0.2,0l0,0c0.1,0,0.2-0.1,0.2-0.2c0-0.2-0.4-0.5-0.7-0.6     c0,0-0.1,0-0.1,0c-0.3,0-0.9,0.1-1,0.3l0,0c0,0-0.1,0-0.1,0.1c-0.1,0-0.1,0-0.2,0c0.1-0.1,0.1-0.2,0.1-0.3     c-0.1-0.3-0.5-0.8-1.2-0.7c-0.5,0-1.5,0.5-2.1,1c-0.1-0.3-0.2-0.7-0.4-1c-0.2-0.3-0.3-0.4-0.4-0.4c-0.1,0-0.2,0-0.2,0.1     c-0.1,0.1-0.1,0.2,0.1,0.4c0.2,0.2,0.3,0.6,0.4,0.9c0,0.1,0.1,0.1,0.2,0.1c-0.1,0.1-0.2,0.2-0.2,0.2l0,0.1c0,0.4,0,0.6-0.4,0.7     c-0.3,0-0.9,0-1.3,0c-0.5,0-0.7,0-0.9,0c-0.1-0.1-0.2-0.3-0.4-0.6c0-0.1,0-0.1,0-0.1c-0.2-0.2-0.5-0.4-0.8-0.6     c-0.1-0.1-0.4-0.2-0.5-0.3c0,0,0,0,0.1-0.1c0.1-0.2,0.2-0.3,0.3-0.4c0.2,0,0.3-0.1,0.4-0.2c0.1-0.4-0.5-1.2-0.9-1.4     c-0.1,0-0.2-0.1-0.3-0.1c-0.3,0-0.6,0.1-0.8,0.2l0,0c-0.1,0-0.2,0-0.5,0.3c-0.1,0-0.3,0-1-0.4l0,0l-0.2-0.3     c-0.1-0.2-0.2-0.5-0.2-0.7c0.1,0,0.1-0.1,0.1-0.2c0-0.1,0-0.3-1.4-0.9c-0.4-0.1-1.2-0.4-1.9-0.7c-0.6-0.2-1.4-0.5-1.8-0.6     c0,0,0-0.1,0-0.1c0-0.1-0.2-0.2-0.3-0.1c0,0-0.1,0-0.2,0c-0.5,0-1.7-0.1-2.9-0.4c-1.4-0.3-3.3-0.9-3.6-1     c-0.1-0.1-0.2-0.1-0.3-0.1c-0.3,0-0.7,0-1.2,0l-0.1,0c-0.3,0-0.7-0.1-1.2-0.3h0c0.2,0,0.4-0.1,0.4-0.3c0.1-0.6-0.9-1.9-2.7-2.5     c-1.6-0.5-3.8-1.5-4.8-2.1c-0.6-0.3-0.7-0.3-0.8-0.3l0,0c-0.1-0.1-0.2-0.2-0.3-0.4c-0.1-0.2-0.2-0.4-0.2-0.4l0,0     c0,0,0.1-0.2-0.1-0.6c-0.1-0.2-0.1-0.3,0-0.3c0.1,0,0.2,0,0.4,0.1l0.1,0c0.1,0,0.1-0.1,0.1-0.1c0.1,0.1,0.1,0.1,0.1,0     c0,0-0.1,0-0.1,0c0,0,0.1,0,0.1-0.1c0-0.1,0-0.1-0.1-0.1c0.1-0.1,0.4-0.1,0.5-0.1c0.1,0.1,0.3,0,0.3-0.1c0.1-0.2,0.1-0.2-1.7-1.6     c-0.3-0.2-2.6-2-3.2-2.3h0h0c-0.1,0-0.1-0.1-0.1-0.1c-0.1,0-0.1,0-0.1,0.1c-0.2-0.2-0.4-0.3-0.4-0.3c0.1,0,0.3,0.1,0.4,0.3     c0,0-0.1,0-0.1,0c0,0,0,0.1,0,0.1c0,0,0,0.1-0.1,0.1c-0.1,0-0.4-0.2-0.5-0.3l0,0c0-0.1-0.1-0.1-0.2-0.1c-0.1,0-0.1,0-0.7,0.5     l-0.1,0c-0.1,0-0.4-0.1-0.5-0.3c-0.1-0.1-0.1-0.1-0.1-0.1c0.3-0.2,0.4-0.5,0.3-0.8c-0.1-0.4-0.3-0.7-0.6-0.8     c-0.3-0.1-0.7-0.6-0.8-0.7c0-0.2,0-0.2-1.1-0.3c-0.4,0-1.8-0.6-2.2-0.8c0-0.1-0.1-0.2-0.2-0.3l0,0c0.2,0,0.3-0.1,0.4-0.1     c0.1-0.1,0.1-0.1,0.1-0.2c0-0.3-0.6-0.4-0.7-0.4c-0.1,0-0.2,0-0.3,0.1c-0.1,0-0.3,0.1-0.8,0.2c-0.3,0-0.6-0.6-0.7-0.9     c0,0,0.1-0.1,0.1-0.1c0.1-0.2,0.1-0.7,0-0.9c-0.2-0.2-0.8-0.6-1-0.6c0,0-0.1,0-0.1,0c-0.1,0.1-0.2,0.2-0.2,0.3c0,0,0,0.1,0,0.1     c-0.1,0-0.2-0.1-0.3-0.1c-0.1,0-0.2,0-0.3,0.1c-0.2-0.2-0.6-0.8-0.7-1c0-0.2-0.5-0.6-0.9-0.9c-0.4-0.3-1.3-0.4-1.7-0.5     c-0.3,0-0.5,0-0.6,0.1c0,0.1-0.1,0.2,0,0.2c0,0.1,0,0.2,0,0.3c-0.1,0.1-0.2,0.2-0.3,0.2c0,0,0,0,0,0c-0.3,0-0.7-0.3-0.9-0.4     c-0.2-0.1-0.3-0.2-0.4-0.2c-0.1,0-0.2,0-0.2,0.1c-0.1,0.1,0,0.2,0,0.3c0.3,0.5,0.9,1,1.1,1.1c0.1,0,0.2,0,0.2-0.1l0,0     c0.1,0,0.4,0,0.7,0.1c0.2,0,0.5,0.3,0.6,0.5c-0.1,0-0.1,0.1-0.2,0.1c-0.1,0.1,0,0.3,0.1,0.4c0.6,0.8,0.7,0.8,0.8,0.8     c0.1,0,0.2,0,0.2-0.1c0.3,0,0.8,0.2,1.6,0.6c0.8,0.3,0.8,1.7,0.7,2.1c-0.1,0-0.1,0-0.1,0.1c-0.1,0.1-0.1,0.2,0,0.3     c0,0.1,0,0.3,0,0.3l-0.1,0c-0.2,0-0.6-0.1-1-0.2c-0.1-0.1-0.2-0.3-0.5-0.7c-0.1-0.2-0.4-0.4-0.7-0.6c-0.4-0.3-1.1-0.8-1.1-1     c0-0.3-0.6-0.6-1.7-1.1c-0.1,0-0.2-0.1-0.3-0.1c0-0.1-0.1-0.2-0.3-0.3c0,0-0.1,0-0.1,0c-0.2,0-0.3,0.1-0.4,0.3c0,0.1,0,0.1,0,0.2     c-0.6-0.2-1.4-0.3-1.9-0.4c-0.4,0-0.5,0-0.6,0.1c0,0-0.1,0.1-0.1,0.2c0,0.1,0,0.2,0,0.3c-0.1,0.1-0.2,0.4-0.2,0.5     c0,0,0,0.1,0,0.1c-0.1-0.3-0.4-0.5-0.7-0.6c-0.1,0-0.2,0-0.3,0.1c-0.1,0.1-0.1,0.2-0.1,0.3c0.1,0.2,0.3,0.5,0.7,1.1     c0.3,0.4,0.6,0.8,0.7,1.1c0.2,0.4,0.8,0.7,1.3,1c0.2,0.1,0.4,0.2,0.5,0.3c0,0.2,0.1,0.6,0.5,1.6c0.1,0.3,0.3,0.6,0.4,0.9     c0.1,0.4,0.6,1.5,1,1.5c0.1,0,0.1,0,0.2-0.1c0.1-0.1,0-0.2,0-0.2c0-0.1,0.1-0.6,0.3-0.9c0.1-0.1,0.2-0.2,0.3-0.2     c0.4,0,1,0.7,1.2,1c0,0.1,0.1,0.3,0.6,0.8c0.2,0.2,0.5,0.3,0.8,0.4c0.2,0.1,0.7,0.3,0.7,0.4c0,0.1,0,0.1-0.1,0.2     c-0.1,0.2-0.1,0.4,0,0.6c0.1,0.1,0.2,0.2,0.6,0.1l0,0c0.5,0,1.4,1,1.6,1.2c0,0.1,0.2,0.2,0.8,0.2c0,0,0.1,0,0.1,0     c0,0.1,0.1,0.1,0.1,0.1c-0.2-0.1-0.4-0.1-0.5-0.1c-0.1,0-0.3,0-0.4,0.2c0,0.2,0.2,0.3,0.3,0.3c0.2,0.1,0.7,0.3,0.9,0.6     c-0.3,0.1-0.6,0.4-0.8,0.6c-0.1,0.2-0.1,0.4,0,0.5c0,0,0,0,0,0c0,0.1-0.1,0.1-0.2,0.1c-0.2-0.1-1-1.1-1.2-1.3     c0.1-0.2,0-0.6-0.4-0.8c-0.1-0.1-0.3,0-0.3,0.1c-0.3,0.5,2.7,4.4,3.6,5.6c2.5,3.3,5.5,3.6,6,3.6c0.1,0,0.3,0,0.3,0     c0.1,0,0.1,0,0.3,0c1.1-0.1,1.5-0.2,1.6-0.4c0-0.1,0-0.2,0-0.2c0.1-0.1,0.6-0.2,1.5-0.2l0.1,0c0.6,0,1.2,0.5,1.4,0.8     c-0.2,0-0.9,0-0.9,0.3c0,0.3,0.3,0.3,0.5,0.3c0.4,0.1,0.9,0.4,1.4,0.7c0.5,0.3,0.7,0.4,0.9,0.4c0.1,0,0.2,0,0.2,0     c0.1-0.1,0.1-0.2,0.1-0.3c0-0.2-0.1-0.4-0.3-0.6c0,0,0,0,0,0c0.4,0.2,0.7,0.7,0.8,0.8c0,0.1,0.1,0.2,0.6,0.5     c0.1,0.1,0.2,0.2,0.2,0.3c0,0,0,0.1,0,0.1c-0.1,0.1-0.1,0.3-0.1,0.4c0.1,0.2,0.5,0.3,0.8,0.3c0.1,0,0.1,0,0.2,0     c0.1,0,0.1,0.2,0.1,0.2c0,0.3-0.2,0.6-0.4,0.7c-0.3,0-0.6-0.3-0.6-0.4c0,0,0-0.1-0.1-0.1c-0.1-0.1-0.3-0.1-0.3,0c0,0,0,0.1,0,0.1     c-0.1,0-0.2,0.1-0.4,0.2c-0.1,0-0.2,0.1-0.3,0.1c-0.4,0.1-0.7,0.2-0.8,0.5c0,0.2,0.2,0.4,0.3,0.4c0.4,0.3,1.4,0.5,2.3,0.7     c0.4,0.1,0.8,0.2,0.9,0.3c0.3,0.2,1,0,1.1-0.4c0.1-0.2,0-0.3-0.2-0.4c-0.3-0.2-0.5-0.4-0.5-0.4c0-0.1,0.1-0.1,0.2,0     c0.2,0.1,0.6,0.2,0.9,0.2c0.1,0,0.3,0,0.4-0.1c0.2,0.1,0.6,0.3,1.2,0.8c1.4,1.2,1.4,1.2,1.5,1.2c0,0,0.1,0,0.1,0     c0.1,0,0.2,0,0.4,0c0.2,0,0.7,0.3,0.9,0.5c0,0.1,0.1,0.2,1.5,0.5c0.1,0,0.3,0.1,0.2,0.2c0,0.2-0.4,0.5-1.3,0.6l0,0     c-0.1-0.4-0.5-0.5-1.1-0.3c0,0-0.1,0-0.1,0.1c-0.7-0.3-1.2-0.7-1.3-0.9c0,0,0.1,0,0.1,0c0.4,0,0.5-0.2,0.5-0.2     c0.1-0.2-0.1-0.4-0.5-0.6c-0.3-0.1-0.8-0.3-1.2-0.3c-0.4,0-0.5,0.2-0.6,0.3c-0.1,0.4,0,1.5,1,2.2c0.7,0.5,2.7,1.5,3.3,1.6     c0.3,0.2,1,0.5,1.3,0.5c0.1,0,0.2,0,0.2,0c0.1-0.1,0.2-0.1,0.3-0.1l0,0c0.1,0,0.5-0.1,0.7-0.2c0,0,0,0,0.1,0l0.1,0     c0.1,0,0.1-0.1,0.2-0.1c0,0,0-0.1,0-0.1l0,0c0,0,0-0.1,0-0.1c-0.1-0.1-0.2-0.5,0.1-0.8c0,0,0.1,0,0.2,0c0.5,0,1.3,0.4,1.6,0.6     c0,0.1-0.1,0.1,0,0.2c0,0.1,0.1,0.3,0.4,0.3c0.2,0,0.4,0.1,0.5,0.1c0.1,0.1,0.3,0.2,1.3,0.4c0,0,0,0,0.1,0c0,0-0.1,0-0.1,0.1     c0,0.1,0,0.2,0.1,0.2c0.5,0.3,0.9,0.4,1.3,0.5c-0.1,0.1-0.2,0.1-0.3,0.1c-0.1,0-0.3-0.1-0.4-0.1c-0.9-0.3-1.7-0.7-1.9-0.8     c-0.1-0.1-0.2-0.2-0.9-0.5c-0.4-0.1-0.9,0-0.9,0.3c0,0.1,0,0.3,0.4,0.3c0.1,0,0.2,0,0.3,0.1c0,0,0,0.1,0,0.1     c0.1,0.2,0.4,0.7,0.7,0.7c0.1,0,0.5,0.2,0.6,0.3c0,0.1,0.1,0.2,1.8,0.7c0.2,0.1,0.5,0.1,0.9,0.1c0.6,0,1.3,0,2,0c0.5,0,1,0,1.3,0     c0.2,0,0.2,0,0.2,0c0.1,0,0.2,0.1,0.2,0.3c0.1,0.1,0.1,0.3,0.1,0.4c-0.1,0-0.2-0.1-0.3-0.1c-0.2,0-0.7,0-0.7,0.3     c0,0.1,0,0.2,0.2,0.3c0.1,0,0.2,0.1,0.2,0.1c0,0,0,0.1,0.1,0.1c0.1,0.1,0.7,0.3,1.7,0.4c0.5,0.1,1.3,0,2.1,0     c-0.3,0.1-0.6,0.2-0.9,0.4c-0.1,0-0.1,0.1-0.1,0.2c0,0.1,0.1,0.1,0.2,0.1c0.5,0.1,0.9,0.2,1.2,0.3c0.4,0.1,0.9,0.3,1.7,0.3l0,0     c0.1,0,0.1,0,0.2-0.1c0-0.1,0-0.1,0-0.2c-0.5-0.9-1.2-1.2-2-1.1c0.1,0,0.3,0,0.4,0c0.2,0,0.3,0,0.4,0l0.1,0c0,0,0.1,0,0.4-0.1     c0.2,0,0.7,0.2,0.9,0.4c0.2,0.2,0.5,0.3,0.8,0.4c0.2,0.1,0.3,0.1,0.4,0.1c0.1,0.1,0.3,0.1,0.4,0.2l0,0c0.2,0.4,1.2,1.1,2.1,1.6     c0.9,0.6,3.3,0.7,4.6,0.7c0.2,0,0.4,0,0.6,0c0,0,0.1,0.1,0.2,0.1c0.1,0,0.2,0,0.4-0.1c0.8-0.4,0.8-0.5,0.8-0.6c0,0,0-0.1,0-0.1     c0,0,0-0.1,0-0.1c0-0.2-0.3-0.4-0.7-0.4c-0.3-0.1-0.8,0-1.2,0.1c-0.1,0-0.2,0-0.3,0.1c0-0.1,0-0.3,0-0.4c0-0.1-0.1-0.2-0.4-0.2     l-0.1,0c-0.2,0-0.6-0.2-0.8-0.4c-0.2-0.1-0.3-0.1-0.3-0.1c-0.1,0-0.1,0-0.2,0.1c0,0,0,0.1,0,0.1l0,0l0,0l0,0     c-0.2-0.1-0.6-0.2-0.8-0.2c-0.1,0-0.1,0-0.2,0l0,0c0-0.1-0.1-0.2-0.2-0.2l0,0c0-0.1,0-0.2-0.1-0.4c-0.1-0.1-0.3-0.2-0.7-0.2     c-0.3,0-0.5,0-0.8,0.2c-0.1,0-0.2,0.1-0.4,0.1c-0.5,0-1.2-0.3-1.4-0.4l0,0c0.2-0.3,0.3-0.5,0.4-0.5c0.1,0,0.4,0.2,0.5,0.2     c0.1,0.1,0.1,0.1,0.2,0.1c0.1,0,0.2-0.1,0.2-0.1c0,0,0,0,0,0l0.1,0l0.1,0c0.4,0,1.3-0.3,1.4-0.4c0.1,0,0.4-0.1,0.9,0l0,0     c0.4,0,0.8-0.3,1.1-0.6c0.1-0.1,0.2-0.2,0.3-0.2c0.2,0.2,0.3,0.2,0.3,0.3c-0.1,0.1-0.2,0.2-0.1,0.4c0.1,0.2,0.3,0.3,0.8,0.4     c0.6,0.1,0.9,0.2,1.1,0.3c0,0,0,0,0,0c0,0.1,0.1,0.2,0.2,0.2c0.1,0,0.3,0,0.5-0.1c0.1,0,0.4-0.1,0.3-0.3c0-0.2-0.2-0.3-0.5-0.3     c0.1,0,0.2-0.1,0.4-0.1c0.1,0,0.2,0,0.4,0.1c0.4,0.1,1.1,0.2,1.3,0.4c0,0.1,0.1,0.1,0,0.2c-0.1,0.3-0.4,0.7-0.7,1     c-0.3,0.4-0.6,0.6-0.5,0.9c0,0.1,0.1,0.2,0.3,0.2c0.2,0,0.6,0.1,0.8,0.2c-0.4,0.2-0.7,0.5-0.8,0.8c0,0.1,0,0.3,0.3,0.4     c0.4,0.1,1-0.1,1.9-0.4l0.1,0c0,0,0.5-0.1,1.1-0.1c0.2,0,0.3,0,0.4,0c0.5,0.1,1.4,0.5,1.7,0.6c0,0,0,0.1,0,0.1     c0,0.2,0.2,0.3,0.4,0.3c0.1,0,0.2,0,0.4-0.1c0,0,0,0,0.2,0c0.4,0,0.9,0.2,1.1,0.3c0.1,0.3,0.9,0.4,1.1,0.4c0.3,0,0.6,0,0.9,0     c0.2,0,0.4,0,0.7,0c1,0,2.4,0.3,2.8,0.4l0,0c0.1,0.1,0.2,0.2,0.4,0.2c0.1,0,0.2,0,0.4,0c0.3,0,0.6-0.1,0.7-0.3c0-0.1,0-0.2,0-0.2     c0.1-0.1,0.2-0.2,0.5-0.2c0.5-0.1,0.8-0.3,0.8-0.6c0-0.1,0-0.2-0.1-0.3c-0.1-0.1-0.2-0.3-0.5-0.3c-0.2,0-0.3,0.1-0.5,0.2     c0,0-0.1,0.1-0.3,0c-0.2,0-0.5-0.1-0.6-0.2c0.1-0.1,0.1-0.2,0.1-0.4c0-0.2-0.2-0.5-1-0.6c-0.1,0-0.1,0-0.2,0     c-0.6,0-1.2,0.1-1.6,0.2l-0.2,0c-0.1,0-0.2,0.1-0.2,0.1c0,0.1,0,0.1,0,0.2c0,0,0,0.2-0.3,0.3c-0.1,0-0.3,0.1-0.4,0.1     c-0.2-0.1-0.5,0-0.7,0.2l0,0c-0.2,0-0.3,0.1-0.5,0.1c0.2-0.1,0.4-0.1,0.6-0.2c0.5-0.1,1.2-0.8,2.2-2.1l0,0c0.3,0,0.8-0.1,1.3-0.1     c0.2,0,0.4-0.1,0.7-0.1c0.7-0.1,1.7-0.2,2.2-0.2c0.3,0,0.4,0.1,0.4,0.1c0,0,0.1,0.2-0.5,0.9c-0.2,0.2-0.3,0.3-0.2,0.5     c0,0.1,0.2,0.1,0.2,0.1c0.1,0,0.4-0.1,0.7-0.1c0,0.1,0,0.2,0.1,0.3c0,0.1,0.1,0.2,0.4,0.2c0.5,0,1.9-0.4,2.6-1.2     c0.3-0.3,1.4-0.4,3-0.4c0.5,0,1,0.1,1.4,0.1c-0.1,0.1-0.1,0.2-0.1,0.3c0,0.2,0.1,0.4,0.2,0.5l0,0c-0.2,0.1-0.5,0.2-0.5,0.4l0,0.1     c-0.1,0.1-0.3,0.2-0.7,0.4c-0.4,0.2-0.6,0.6-0.5,0.9c0.1,0.3,0.3,0.4,0.6,0.5l0.1,0c0,0,0.1,0,0.1,0c-0.4,0.2-0.9,0.5-0.3,0.6     c0.1-0.3,0.3-0.4,0.4-0.6c0.4,0,0.9-0.2,1.3-0.4c0.1,0,0.2-0.1,0.4-0.1c0,0.1,0,0.2,0.1,0.3c0.1,0.1,0.3,0.2,0.5,0     c0.2-0.2,1.1-0.6,1.6-0.6c0,0,0.1,0,0.1,0c0.1,0,0.1,0,0.2,0c0.4,0,1.3-0.1,1.4-0.4c0,0,0.1-0.2-0.2-0.4     c-0.2-0.1-0.6-0.4-0.6-0.5c0,0,0.1-0.1,0.1-0.1c0.1,0,0.2-0.1,0.3-0.1l0.1,0c0.1,0,0.1-0.1,0.1-0.2l0,0c0.7-0.3,0.4-0.2,0,0     c0-0.1-0.1-0.1-0.2-0.1c-0.1,0-0.3,0.1-0.4,0.1c-0.3,0-0.5-0.1-0.5-0.2c0,0,0,0,0-0.1c0.2-0.2,0.6-0.4,0.9-0.7     c0.2-0.2,0.5-0.3,0.5-0.4c0.1,0,0.2-0.1,0.3-0.2c0,0,0.1-0.1,0.1-0.1c0.1,0,0.2-0.1,0.5-0.1l0.2,0c0.2,0,0.5-0.1,0.7-0.1     c0,0,0.1,0.1,0.1,0.1c0.4,0,2.3-0.6,4.4-1.5c2.2-0.9,7.7-1.7,8.3-1.8c0.2,0.1,0.3,0.1,0.7,0c0.5,0,1.2-0.6,1.2-0.8     c0-0.1,0-0.2-0.1-0.2c0,0-0.1,0-0.1,0c-0.2-0.1-0.3-0.1-0.3-0.1c0.2-0.1,0.6-0.1,1.2-0.1c0.3,0,0.4,0,0.5,0.1c0.1,0,0.1,0,0.2,0     c0.5,0,1.5-0.4,3-1.5c0.9-0.7,2.9-1.8,6-3.4c0.3-0.1,0.4-0.2,0.4-0.3c0.1-0.1,0.1-0.2,0.3-0.4c0,0,0.1,0.1,0.1,0.1     c0,0.1-0.1,0.2-0.2,0.3c-0.3,0.2-0.4,0.5-0.3,0.9c0.1,0.4,0.5,0.8,0.9,0.8c0.2,0,0.3,0,0.4-0.1c0.4-0.2,1.1-0.7,1.5-1.1     c0.1-0.1,0.3-0.3,0.4-0.3c0,0,0,0,0,0c0.3,0,1.1-0.6,1.4-1.1c0.2-0.4,1.3-0.9,2-1.2c0.7-0.4,0.9-0.4,0.9-0.6     c0-0.2-0.1-0.3-0.2-0.3c0.2-0.2,0.9-0.5,1.4-0.6c0,0-0.1,0-0.1,0.1c-0.1,0.1-0.1,0.2-0.1,0.3c0,0,0,0,0,0c0,0,0,0,0.1,0     c0,0.1,0.1,0.1,0.2,0.1c0.1,0,0.1,0,0.2,0c0,0,0,0.1,0,0.2c0,0.1,0.1,0.1,0.2,0.1c0.4,0,3.4-2.6,3.5-2.6c1.8-1.6,4.4-3.4,4.9-3.7     c0.2,0,1.2-0.6,1.6-0.8c0,0,2.9-1.9,2.8-2.3c0-0.1-0.1-0.2-0.2-0.2l-0.1,0c-0.1,0-0.2,0-0.3,0.1c0.2-0.2,0.4-0.5,0.5-0.7     c0,0,0,0.1,0.1,0l-0.1-0.1c0-0.1,0.1-0.1,0.1-0.2c0.1-0.2,0.2-0.5,0.2-0.5c0.3-0.1,0.9-0.5,1.2-0.8c0,0,0.1,0.1,0.1,0.1     c0,0,0.1,0,0.2-0.1c0.1,0,0.1-0.1,0.2-0.1l0.1,0c0.1,0,0.2,0,0.3-0.1c1.1-1.6,1.4-2.1,1.5-2.2c1.6-0.9,2.5-1.4,2.7-1.5     c0,0,0.1,0,0.1-0.1l0,0c0.1-0.2,1.9-2.3,3.2-4c1.4-1.8,2.6-3.2,2.9-3.6c0,0,0.1,0,0.1-0.1c0-0.1,0.1-0.2,0-0.2     c0-0.1-0.1-0.1-0.2-0.1c0-0.1,0-0.2,0.1-0.2c0.4-0.3,0.5-0.4,0.6-0.5c0,0,0.1,0,0.1,0c0.1,0,0.3,0,1.6-1.8     c0.5-0.7,0.9-2.1,1.1-2.8c0-0.2,0.1-0.3,0.1-0.4c0-0.1,0-0.2-0.1-0.2C283.6,214.6,283.5,214.7,283.4,214.8 M210.2,252.4     c-0.2,0-0.3-0.1-0.2-0.3c0-0.2,0.1-0.2,0.2-0.1C210.3,252.1,210.3,252.4,210.2,252.4 M188,251c0,0,0,0.1,0,0.2     c0,0.1-0.1,0.1-0.2,0.1c-0.1,0-1,0.4-1.4,0.6c-0.1,0-0.2,0-0.3,0c-0.1,0-0.4-0.1-0.5-0.3l0-0.1c0-0.1,0-0.2,0-0.4     c0-0.1,0-0.4,0-0.4c0.1,0,0.3,0,0.4-0.2c0,0,0-0.1,0-0.1c0.4-0.1,1.2-0.1,2.5-0.2l0.3,0c-0.4,0.2-0.7,0.4-0.8,0.5     C188,250.9,188,250.9,188,251 M192.9,250.4c-0.1,0-0.1,0-0.2,0c-0.2,0-0.6,0-0.7,0.2c-0.1,0-0.2-0.2-0.3-0.3     c1.3,0,1.4-0.1,1.4-0.2c0,0,0-0.1,0-0.1c0.1,0,0.2-0.1,0.5-0.1c0.3,0,1,0.1,1.4,0.2c0,0-0.1,0.1-0.1,0.1c0,0.1,0,0.2,0,0.3l0,0     c-0.1,0-0.3,0.1-0.4,0.2c0,0.1,0,0.2,0,0.2c0.1,0.1,0,0.3-0.1,0.4c-0.2,0.1-0.3,0.2-0.4,0.3c-0.1,0-0.2,0-0.3,0l-0.1,0     c-0.1,0-0.5-0.4-0.6-0.6c0.1-0.1,0.1-0.2,0.1-0.3C193.2,250.6,193.2,250.5,192.9,250.4 M196.4,251.5c0,0.1,0,0.2-0.3,0.2     c-0.2,0-0.3-0.1-0.2-0.3c0.1-0.1,0.3-0.1,0.3-0.1l-0.1,0C196.2,251.4,196.3,251.4,196.4,251.5 M197.3,253.9     c0.1-0.3,0.4-0.7,0.9-1.1c0.3-0.3,0.8-0.3,1.1-0.3c0.9,0,1.8,0.5,1.9,0.8c0.1,0.2,0.1,0.4-0.1,0.6c-0.2,0.2-0.4,0.3-0.8,0.3     c-0.3,0-0.9-0.1-1.4-0.1c-0.5-0.1-1-0.1-1.3-0.1C197.5,253.9,197.4,253.9,197.3,253.9 M154.2,237.5c-0.1,0-0.2,0.1-0.2,0.2     c-0.1,0.2,0,0.5,0.3,0.9c-0.2,0.1-0.6,0.1-1.3,0.1c-0.6,0-1.1-0.1-1.6-0.2c-1.2-0.3-2.1-0.5-2.3-0.6c-0.1-0.1-0.3-0.3-0.5-0.4     c-0.7-0.4-1.1-0.6-1.2-0.7c0-0.1-0.1-0.3-0.8-0.7c-0.2-0.1-0.4-0.2-0.7-0.4c-0.3-0.2-0.7-0.4-0.8-0.5c0-0.2-0.2-0.5-0.3-0.6     c-0.2-0.2-0.4-0.6-0.5-0.7c0.1,0,0.2,0,0.3,0c0.2,0,0.4,0,0.4,0c0,0,0,0.1,0.1,0.1c0.3,0.1,0.6,0.4,0.8,0.7     c0,0.1,0.1,0.1,0.2,0.1l0,0c0.1,0,0.2-0.1,0.2-0.1c0.1-0.4,0.1-0.7,0-0.8c-0.2-0.2-0.5-0.3-1-0.2c0.1-0.1,0.3-0.2,0.5-0.2l0.1,0     c0.1,0,0.1-0.1,0.2-0.1l0.1,0c0.3-0.1,0.2-0.1-0.1-0.1c0,0,0-0.1,0-0.1c-0.1-0.1-0.1-0.2,0-0.3c0-0.1,0.2-0.2,0.4-0.3l0,0     c0.7,0,1.7,2.2,1.7,2.5c0,0-0.2,0.1-0.2,0.2c0,0.2,0.1,0.2,0.5,0.3c0.5,0.2,1.6,0.8,2.1,1c0.2,0.1,0.3,0.2,0.3,0.2     c0.1,0,0.5,0.2,1,0.4c0.2,0.1,0.3,0.2,0.5,0.2c0.3,0.2,0.4,0.2,0.5,0.2c0.1,0,0.2,0,0.2-0.1c0.1-0.1,0-0.2-0.1-0.3     c0,0,0.2-0.2,0.9-0.2c0.4,0,1,0.7,1.1,1c-0.1,0-0.1,0-0.1,0C154.9,237.6,154.6,237.4,154.2,237.5 M174.3,245.1     c0,0.2,0.2,0.3,0.4,0.5c-0.5,0.2-1.1,0.4-1.2,0.7c0,0.1,0,0.2,0.1,0.3c0.2,0.1,0.4,0.2,0.6,0.3c0.1,0,0.1,0.1,0.2,0.1     c-0.2,0.2-0.5,0.3-0.4,0.6c0.1,0.2,0.4,0.3,0.6,0.3l0.1,0c0.8,0,2.3,0.8,2.6,1c0.1,0.1,0.4,0.3,1.6,0.9c0.1,0,0.2,0.1,0.3,0.2     c-0.1,0-0.2,0.1-0.3,0.2c-0.1,0-0.1,0.1-0.1,0.2c0,0.1,0.1,0.1,0.2,0.1l0.7,0.1c0.3,0.4,0.5,0.8,0.6,1.1c-0.2,0-0.4-0.1-0.4-0.1     c0,0,0-0.1,0-0.1c-0.1-0.1-0.2-0.2-0.6-0.2c-0.4,0-0.9,0-1.5,0.1c-0.1,0-0.3,0-0.4,0c-0.9,0-2.3-0.4-2.8-0.5c0,0-0.1,0-0.2,0     c-0.1,0-0.1,0.1-0.3,0.2c0,0-0.4,0.1-2-0.9l0,0c0,0,0-0.1,0-0.2c0-0.4-0.1-1-1-1.6c-0.8-0.5-2.2-0.6-3.3-0.7l0,0     c0-0.1,0-0.1,0-0.2c0-0.1-0.1-0.1-0.2-0.1c-0.1,0-0.4,0.1-0.6,0.2l-0.1,0c0-0.1,0-0.1,0-0.2c0-0.2,0.1-0.5,0.2-0.5     c0.3,0.1,0.4,0,0.5-0.1c0-0.1,0-0.3-0.7-0.8c-0.5-0.3-1.6-0.1-3.3,0.7c-0.1-0.1-0.3-0.2-0.7-0.3c-0.3-0.1-0.4-0.2-0.5-0.2l0,0     c0-0.1,0-0.2-1.6-0.5c-0.7-0.1-2.1-1.6-2.3-2l0,0c0-0.1,0-0.2-1.1-0.8c-0.3-0.2-0.7-0.7-0.6-1.1c0-0.3,0.2-0.4,0.4-0.5     c0.3-0.1,0.4-0.1,0.6,0.1c0.1,0.2,0.1,0.5,0.1,0.6l-0.1,0c0,0-0.1,0.1-0.1,0.1c0,0.3,0.9,0.4,1.1,0.4c0.1,0,0.2,0,0.3,0l0.1,0     c0.5,0,1.3,0.8,1.5,1c0,0.1,0,0.1,0,0.1c0.1,0.3,0.5,0.6,1.2,0.9c0.6,0.2,1.2,0.2,1.5-0.1c0.1-0.1,0.2-0.3,0.2-0.7     c0,0,0-0.1,0.1-0.2c0.2-0.2,0.7-0.4,1-0.4c0,0.1,0.1,0.1,0.1,0.2c0.1,0,0.2,0.2,0.2,0.3c-0.2,0.1-0.6,0.2-0.6,0.5     c0,0.1,0.1,0.2,0.2,0.2l0.1,0c0.1,0,0.3,0.1,0.4,0.1c0,0.1,0.1,0.2,0.6,0.3c0.1,0,0.2,0.1,0.3,0.1c0.2,0,0.3-0.1,0.3-0.2     c0,0,0.1,0,0.2,0c0.3,0,1.1,0.1,2.1,0.3c0.6,0.2,1.4,0.3,1.9,0.3c0,0,3,0.1,3.3-0.4C174.1,244.9,174.2,245,174.3,245.1      M178.4,255c0.2-0.2,0.4-0.4,0.6-0.4l0,0c0.3,0.1,0.9,0.3,1.1,0.5c-0.3,0.1-0.7,0.2-0.9,0.3c0,0-0.1,0-0.1,0.1     c-0.2,0.1-0.6,0.3-0.8,0.3c-0.1,0-0.1,0-0.1,0C178.1,255.5,178.2,255.2,178.4,255 M169.5,253.6c-0.1,0-0.2-0.1-0.2-0.1     C169.3,253.5,169.4,253.5,169.5,253.6C169.5,253.5,169.5,253.6,169.5,253.6"/>
			<path class="st1" d="M225.6,257.5L225.6,257.5L225.6,257.5C225.6,257.5,225.6,257.5,225.6,257.5"/>
			<path class="st1" d="M132.6,231.2c0,0,0,0,0.1,0c0.1,0,0.2,0,0.1-0.1C132.8,231.1,132.6,231.1,132.6,231.2"/>
			<path class="st1" d="M131.2,229.5c0.2,0.2,0.3,0.3,0.3,0.3l0,0c0-0.1,0-0.1-0.1-0.2c-0.8-0.4-1.3-0.5-1.6-0.5c-0.1,0-0.1,0-0.1,0     c-0.1,0-0.2,0-0.2,0.1c-0.1,0.1-0.1,0.1,0,0.2c0.2,0.5,0.6,0.7,1.2,0.7c0.2,0,0.5,0,0.7-0.1c0.1,0,0.1-0.1,0.1-0.1l0,0     c0.1,0.1,0.1-0.5-0.1-0.6C131.1,229.3,131,229.3,131.2,229.5"/>
			<path class="st1" d="M227,257.9c-0.3,0-0.9,0.1-1.2,0.1h0c-0.2-0.3-0.9-0.5-1.5-0.3c-0.1,0-0.2,0-0.4,0c-0.5,0-1.3-0.2-1.8-0.3     c-0.3-0.1-0.4-0.1-0.5-0.1c-0.1,0-0.2,0-0.2,0.1c0,0.1,0,0.2,0,0.2l0,0c0.1,0.1,0.2,0.3,0.2,0.4c-0.1,0.1-0.5,0.1-0.7,0.2     c-0.4,0.1-0.7,0.1-0.8,0.3c0,0.1,0,0.2,0.1,0.2c-0.8,0.2-1.1,0.3-1.1,0.5c0,0,0,0.1,0.1,0.2c-0.1,0-0.2,0.1-0.2,0.2     c0,0,0,0.1,0,0.2c-0.5,0.1-0.6,0.1-0.6,0.2l0,0c-0.1,0.1-0.1,0.2-0.1,0.3c0,0.1,0.2,0.2,0.5,0.2c0.1,0,0.3,0,0.3,0l0.1,0     c0,0,0.1,0,0.2,0c0.1,0,0.1,0,0.2,0.1c0.1,0,0.2,0,0.3,0.1c0.4,0,1.4-0.1,1.5-0.4c0,0,0-0.1,0-0.1c0.2-0.1,0.7-0.1,1.6-0.1l0.2,0     c1.2,0.1,3.7-1.7,3.7-2.1c0,0,0-0.1-0.1-0.1C227.2,258,227.1,257.9,227,257.9"/>
			<path class="st1" d="M127.4,220.1c-0.1-0.1-0.3-0.2-0.4-0.3c-0.1,0,0,0.1,0.2,0.2C127.4,220.2,127.5,220.2,127.4,220.1"/>
			<path class="st1" d="M130.2,216.7c0.2-0.1,0.3-0.1,0.3-0.3c0-0.1,0-0.2-0.1-0.3c-0.1-0.2-0.8-0.4-1.1-0.5c-0.2,0-0.4-0.1-0.6-0.1     c-0.2,0-0.4,0.1-0.5,0.2c-0.1,0.1-0.1,0.3,0,0.6c0.2,0.6,0.8,0.7,1,0.7l0,0c-0.1,0.1,0,0.2,0.4-0.1c-0.1,0-0.2,0-0.3,0     c0.1,0,0.1,0,0.1-0.1c0,0,0-0.1-0.1-0.2L130.2,216.7L130.2,216.7z"/>
			<path class="st1" d="M131.2,216.5c0.1-0.3-0.1-0.4-0.6-0.4C130.5,216.4,130.7,216.5,131.2,216.5"/>
			<path class="st1" d="M150.4,244.7c-0.1,0-0.3,0.1-0.4,0.1c0,0-0.2,0-0.4,0c-0.3,0-0.6-0.1-0.8,0.1c-0.1,0.1-0.1,0.1-0.1,0.2     c0,0.3,0.2,0.5,0.5,0.5c0.1,0,0.2,0,0.3,0c0,0,1-0.3,1.1-0.5c0-0.1,0-0.2,0-0.2C150.6,244.8,150.5,244.7,150.4,244.7"/>
			<path class="st1" d="M155.4,248.3l0.6,0.5C155.9,248.3,155.7,248.1,155.4,248.3"/>
			<path class="st1" d="M151.6,231.1c-0.2-0.5-0.5-0.6-0.9-0.3L151.6,231.1z"/>
			<path class="st1" d="M154,237.3l-0.6-0.1C153.5,237.2,154,237.8,154,237.3"/>
			<path class="st1" d="M159,237.6c-0.1-0.7,1.1,0.3,0.6-0.4C158.9,236.9,159,237.3,159,237.6"/>
			<path class="st1" d="M164.8,244.6c-0.3-0.1-0.5-0.4-0.7-0.4C164.3,244.6,164.4,244.6,164.8,244.6"/>
			<path class="st1" d="M178.1,249.9c0-0.3-0.7-0.3-1-0.4C177.5,249.6,177.6,250.4,178.1,249.9"/>
			<path class="st1" d="M179.2,243.7C178.3,244,179.1,243.9,179.2,243.7"/>
			<path class="st1" d="M204.3,261.3c0.3,0.3,0.6,0.2,1-0.2C205,260.8,204.7,260.9,204.3,261.3"/>
			<path class="st1" d="M199.3,246.4C198.7,246.3,199.3,246.4,199.3,246.4L199.3,246.4z"/>
			<path class="st1" d="M250,249.6c0.3-0.1,0.4-0.3,0.4-0.4c0-0.2,0-0.5-0.6-0.8c-0.5-0.3-1.6,0.2-2.5,0.7c-0.5,0.2-1,0.5-1.1,0.5     l-0.1,0c-0.3,0-0.7,0.3-1.1,0.7c-0.1,0.1-0.1,0.1-0.2,0.2c-0.1,0-0.1,0-0.1,0c-0.3,0-0.9,0.3-1,0.4c-0.4,0.3-1.3,0.8-1.5,0.9     c-0.1,0-0.2,0-0.6,0.3c-0.3,0.1-1.3,0.6-1.9,0.9c0,0,0-0.1,0-0.1c0-0.1-0.1-0.1-0.2-0.1c-0.1,0-0.2,0.1-0.3,0.2     c-0.1,0.1-0.6,0.3-0.9,0.3c0-0.1-0.1-0.2-0.3-0.2c-0.1,0-0.2,0.1-0.5,0.3c-1.8,1.4-1.8,1.6-1.7,1.7c0,0.1,0.1,0.2,0.2,0.3     c-0.1,0-0.1,0.1-0.2,0.1c0,0,0,0-0.1,0c-0.1,0-0.2,0-0.3-0.1c0-0.1,0-0.1,0-0.2c0-0.1-0.1-0.1-0.2-0.2c-0.1,0-0.2,0-0.3,0.1     c0-0.1,0-0.2-0.1-0.3c-0.1-0.1-0.2-0.2-0.4-0.2c-0.2,0-0.5,0.1-0.8,0.2c-0.8,0.4-1.4,1.8-1.2,2.6c0.1,0.3,0.3,0.5,0.6,0.5     c0,0,0.1,0,0.1,0c0.8-0.1,2.3-0.7,3.2-1.1c0.3-0.1,0.6-0.2,0.6-0.2l0,0c0.3,0,2.4-0.6,4.9-1.7c1.6-0.7,9.1-4.2,9.1-4.7     c0-0.1-0.1-0.2-0.1-0.2C250.3,250,250.1,249.8,250,249.6"/>
			<path class="st1" d="M229.8,257.2l-0.1,0c-0.3,0-0.4,0-0.6,0.1c0.3-0.2,0.3-0.3,0.3-0.4c0,0,0,0,0,0c0.1-0.1,0.2-0.2,0.5-0.3     c0.1,0,0.1-0.1,0.3-0.2c0.1-0.1,0.1-0.2,0.1-0.3l0,0c0.1-0.1,0.3-0.2,0.4-0.2c0.2-0.3,0,0-0.4,0.2c-0.1-0.1-0.1-0.1-0.2-0.1     c-0.5,0.2-1,0.4-1.3,0.4c-0.2-0.2-1.1-0.4-1.5-0.4c-0.3,0-0.5,0-0.6,0.1c-0.4,0.3-0.4,0.5-0.4,0.6c0,0,0.1,0.1,0.1,0.1     c-0.1,0.1-0.1,0.2,0,0.3c0.1,0.3,0.9,0.7,1.6,0.7c0.2,0,0.3,0,0.4-0.1c-0.2,0.3-0.4,0.6-0.4,0.9c0,0.1,0.1,0.2,0.2,0.2     c0.2,0,0.4,0,0.5,0.1c0.7,0,1.2-0.1,1.4-0.4c0.2-0.3,0.3-0.7,0.1-1.1C229.9,257.3,229.8,257.2,229.8,257.2"/>
			<path class="st1" d="M230.1,258.4c0.1,0,0.3,0.1,0.5,0c0.1,0,0.1-0.4-0.2-0.4C230,258.1,229.9,258.3,230.1,258.4"/>
			<path class="st1" d="M230.4,246.4c0,0.1,0.1,0.1,0.2,0.1l0.1,0c0.3-0.1,0.4-0.1,0.5-0.1c0.2,0,0.3,0,0.7-0.2     c0.1,0,0.1-0.1,0.1-0.2c0-0.1,0-0.1-0.1-0.2c-0.1-0.1-0.3-0.1-0.4-0.1c-0.5,0-0.9,0.3-1.1,0.4l0.1,0.2l-0.1-0.2     C230.4,246.2,230.4,246.3,230.4,246.4"/>
			<path class="st1" d="M260.4,242.5c-0.9,0.3-1.8,2-1.7,2.3l0,0.1c-0.1,0.1-0.4,0.4-0.9,0.8c-0.1,0.1-0.1,0.1-0.2,0.1l0,0     c-0.1-0.3-0.6-0.4-1.1-0.4c-1-0.1-2.3,0.2-3.4,0.7c-1.8,0.8-1.7,2.3-1.6,2.7c0.1,0.3,0.3,0.9,0.6,0.9c0.1,0,0.2,0,0.2-0.1     c0.1-0.1,0.2-0.2,0.2-0.2l0,0c0.2,0,0.5-0.2,0.7-0.3c0.2-0.1,0.5-0.4,0.4-0.6c0-0.1,0-0.1-0.1-0.1c0.1-0.1,0.3-0.2,0.7-0.2     c0.6,0,1.8-0.6,2.3-0.8c0.1-0.1,0.2-0.1,0.2-0.1c0.1,0,0.4-0.2,2-1.2c0.7-0.4,4.3-3.3,4.2-3.8c0-0.1-0.1-0.2-0.2-0.2     C262.4,242,261.3,242.2,260.4,242.5"/>
			<path class="st1" d="M271.6,235.1C271.6,235.1,271.6,235.1,271.6,235.1c-0.1,0-0.2,0-0.2,0c-0.2,0-0.3,0.1-0.4,0.6     c-0.1,0.2,0,0.4,0.1,0.4c0.1,0.1,0.2,0.2,0.3,0.2c0.2,0,0.4-0.1,0.6-0.2c0.3-0.1,0.4-0.4,0.3-0.7     C272.2,235.1,271.8,234.9,271.6,235.1"/>
			<path class="st1" d="M269.6,235.9c-0.2,0.2-0.5,0.7-0.3,0.9c0.1,0.1,0.2,0.1,0.2,0.1c0.1,0,0.1,0,0.2-0.1     c0.1-0.1,0.1-0.2,0.1-0.4c0,0,0-0.2,0.4-0.7c0.1-0.1,0.1-0.2,0.1-0.3c-0.1-0.1-0.2-0.1-0.3,0C270,235.6,269.8,235.8,269.6,235.9"/>
			<path class="st1" d="M263.9,241.5c0.1,0,0.3-0.1,0.3-0.2c0-0.1-0.1-0.1-0.3,0C263.7,241.4,263.7,241.5,263.9,241.5"/>
			<path class="st1" d="M266.3,240l-0.5,0.2c-0.4-0.1-0.8,0.1-1.2,0.5c-0.1,0.1-0.1,0.2,0,0.3c0.2,0.2,0.5,0.4,0.8,0.4     c0.3,0,0.6-0.1,1-0.4c0.1-0.1,0.1-0.2,0-0.2c-0.1-0.2-0.3-0.3-0.4-0.4C266.1,240.2,266.2,240.1,266.3,240"/>
			<path class="st1" d="M235.2,241.4c-0.1,0.2-0.2,0.3-0.1,0.3c0,0,0.2-0.1,0.3-0.2C235.5,241.3,235.3,241.2,235.2,241.4"/>
			<path class="st1" d="M269.4,238.1c-0.2,0.1-0.5,0.2-0.6,0.4C268.9,238.8,269.2,238.4,269.4,238.1"/>
			<path class="st1" d="M279.4,213.6c-0.3,0.3-0.3,0.7-0.2,0.9c0.1,0.1,0.2,0.2,0.3,0.2c0.1,0,0.2,0,0.2-0.1     c0.2-0.2,0.3-0.5,0.4-0.8l0,0c0.1-0.1,0.1-0.2,0.1-0.3c0-0.1,0-0.2,0-0.2c0-0.1-0.1-0.1-0.2-0.1     C280,213.1,279.8,213.1,279.4,213.6"/>
		</g>
		<g>
			<path class="st1" d="M295.9,119.3c0,0-0.1-0.1-0.1-0.1c0.1-0.1,0.1-0.2,0.1-0.2c-0.2-0.3-0.3-0.6-0.3-0.7c0-0.1,0.1-0.2-0.3-0.8     c-0.2-0.2-0.3-0.6-0.3-0.9c0-0.1,0-0.2,0-0.2c0-0.1-0.2-0.1-0.3-0.1c-0.1,0-0.1,0.1-0.1,0.2c0,0-0.1,0-0.1,0l0,0     c-0.1,0-0.4-0.2-0.6-0.3c-0.5-0.4-0.8-0.4-0.9-0.2c-0.1,0.1,0,0.3,0.1,0.5c0.2,0.4,1.7,2.8,2,2.8c0.1,0,0.1,0,0.2-0.1     c0,0,0-0.1,0-0.1c0.1,0,0.3,0.1,0.5,0.2c0,0,0.1,0.1,0.1,0c0,0,0.1,0,0.1,0l0,0C296.1,119.8,296.2,119.8,295.9,119.3"/>
			<path class="st1" d="M292.9,113.4c0.1,0,0.1,0.1,0.2,0.1c0.4,0.2,0.7,0.2,0.9,0c0.1-0.2,0.1-0.5,0-0.9c-0.1-0.2-0.2-0.5-0.3-0.9     c-0.4-1.1-0.5-1.5-0.7-1.6c0,0-0.1,0-0.1,0c-0.2,0-0.3,0.1-0.5,0.3c-0.2,0.2-0.4,0.5-0.7,0.5c-0.1,0-0.2,0-0.3-0.1     c-0.4-0.3-1.1-0.7-1.3-0.8c-0.1-0.1-0.2-0.2-0.3-0.4c-0.2-0.3-0.5-0.2-0.6,0c-0.2,0.3-0.1,1.1,0.4,1.8c0,0,1.8,2.3,2.4,2.9     c0,0,0,0.1,0,0.1l0,0c0.1,0.1,0.1,0.1,0.1,0.1c0.1,0,0.2-0.1,0.2-0.1c0,0,0-0.1,0-0.1c0,0,0.1-0.2,0.2-0.2     c0.2-0.1,0.3-0.3,0.4-0.5C292.9,113.6,292.9,113.5,292.9,113.4"/>
			<path class="st1" d="M165,77.8c-0.4-0.1-1,0.2-1.4,0.4c-0.1,0-0.1,0.1-0.1,0.1l-0.1,0c-0.1,0-0.2,0-1.1,0.8l-0.5,0.4l-0.1,0     c-0.1-0.1-0.2,0-0.6,0.1l-0.1,0c-0.1,0-0.1,0-0.1,0.1c0,0-0.1,0.1-0.1,0.1c-0.3,0.3-0.6,0.5-0.7,0.7c0,0.1,0,0.2,0,0.3     c0,0.1,0.1,0.1,0.2,0.1c0.3,0,0.8-0.3,1.2-0.7c0.1-0.1,0.3-0.2,0.4-0.3c0.2,0,0.7-0.2,1.6-0.5c0.5-0.2,1.6-0.7,1.6-1.2     C165.3,78.1,165.2,77.9,165,77.8"/>
			<path class="st1" d="M159.9,81.8l0.4-0.7C159.9,81.1,159.7,81.4,159.9,81.8"/>
			<path class="st1" d="M158.3,82.6c-0.1,0-0.2,0-0.3,0.1c-0.1,0.2-0.6,0.5-0.8,0.5c0-0.1-0.1-0.2-0.2-0.2c-0.5,0-2.6,2.2-3.6,4.1     c-1,1.9-4.8,4.3-6,4.8c0.1-0.2,0.1-0.5,0-0.6c-0.1-0.2-0.3-0.2-0.7,0c-0.4,0.2-0.5,0.8-0.4,1.2c-0.5,0.1-1.4,0.6-1.5,0.9     c-0.1,0.3-0.6,1.5-0.3,2c0,0,0,0.1,0.1,0.1c-0.4,0-1,0.2-1.6,0.8c-1,0.9-2.1,3.6-1.9,4.1c0,0.1,0.1,0.2,0.2,0.2c0,0,0.1,0,0.2,0     c0.3-0.2,1.1-0.2,1.3-0.2l0,0l0,0c0.1,0,0.2-0.1,0.2-0.2l0-0.1c0-0.2,0.2-0.6,0.5-1.1c0.2-0.3,0.4-0.5,0.5-0.6     c0.1,0,0.2-0.1,0.2-0.1c0,0,0-0.1,0-0.1c0-0.1,0.1-0.2,0.2-0.4c0.1-0.3,0.8-0.6,1.1-0.6c0.2,0.1,0.6-0.2,0.8-0.5     c0.2-0.3,0.7-0.9,0.9-1.2c0,0,0.1,0,0.2,0.1c0.3,0,0.8-0.5,1.2-1c0.4-0.5,1.6-1.2,2.2-1.5c0.3-0.2,0.4-0.2,0.4-0.3     c0.3-0.2,1.6-1,3.2-1.8c1.9-0.9,4.8-7.4,4.7-7.7c0-0.1-0.2-0.2-0.3-0.1l-0.1,0c-0.2-0.1-0.4-0.1-0.5,0h0c0,0,0-0.1,0-0.3     C158.5,82.8,158.4,82.7,158.3,82.6"/>
			<path class="st1" d="M148.2,90.9c0.1,0,0.1-0.1,0.1-0.1C148.3,90.8,148.2,90.8,148.2,90.9C148.1,90.9,148.1,90.9,148.2,90.9"/>
			<path class="st1" d="M150.8,86.9c0,0-0.1,0-0.1,0.1c-0.1,0-0.2,0.1-0.6,0.5c-0.2,0.2-1.2,0.7-1.6,0.8c0,0-0.1,0-0.1,0     c-0.1,0-0.2,0-4,3.4c-1.9,1.7-3.3,3.6-3.2,4c0,0.1,0.1,0.1,0.2,0.1c0,0,0.1,0,0.2-0.1l0.2-0.1c0.2-0.2,0.7-0.6,0.9-0.7     c0.2,0.2,0.2,0.2,0.3,0.2c0.1,0,0.2,0,0.2-0.1c0.1-0.1,0-0.2-0.1-0.3c0.1-0.1,0.3-0.4,0.7-0.9c0.1-0.1,0.1-0.2,0.2-0.2     c0.2-0.2,1.3-1.1,3.1-2.7c0.8-0.6,1.7-1.4,2.6-2c1.8-1.4,2.5-1.9,2.6-2.2c0-0.1,0-0.2-0.1-0.2C151.9,86.2,151.5,86.4,150.8,86.9"/>
			<path class="st1" d="M167.4,81.1c-0.1,0-0.2-0.1-0.2,0c-1.3,0.8-4.7,2.6-5.8,3.2c-0.1-0.2-0.4-0.3-0.6-0.3     c-0.2,0-0.4,0.1-0.5,0.3c-0.2,0.6-0.3,0.9-0.4,1.1c-0.1,0-0.1,0.2-0.1,0.2c0.1,0.2,0.3,0.2,0.4,0.2c0.4,0,1.1-0.1,1.7-0.4     c0.6-0.3,2.2-1,3.5-1.6c0.6-0.3,1.2-0.5,1.4-0.7c0,0,0.1,0,0.1,0c0,0.1,0.1,0.1,0.2,0.1l4,0.2c0.1,0,0.2,0,0.2-0.1     c0.6-1.3,0.8-2.2,0.5-2.8c-0.1-0.2-0.3-0.2-0.4-0.3c0.1,0,0.1-0.1,0.2-0.1c0,0-0.1,0-0.3,0.1c-0.1,0-0.1-0.1-0.1-0.1     c0,0-0.1,0-0.1,0c0,0-0.1,0-0.1,0c-0.1,0-0.1,0-0.2,0l0,0l0,0l0,0l0,0l0,0l-0.1,0l-0.3,0.1c-0.8,0.3-2.2,0.8-2.8,0.9     C167.5,81.2,167.4,81.1,167.4,81.1C168.7,80.3,167.9,80.5,167.4,81.1"/>
			<path class="st1" d="M245.9,70.3c0-0.1-0.1-0.2-0.4-0.4C245.6,70.1,245.7,70.2,245.9,70.3"/>
			<path class="st1" d="M289.6,107.8c-0.1,0.1-0.2,0.2-0.2,0.4c0,0.4,0.2,1.1,0.8,1.2c0.2,0,0.5,0.1,0.7,0.1c0.4,0,0.6-0.1,0.7-0.2     c0-0.1,0-0.2,0-0.3c0,0,0-0.1,0-0.2c0.1-0.4,0.3-1.1-0.3-1.7c-0.6-0.7-2.1-1.5-2.5-1.5c-0.2,0-0.2,0.1-0.2,0.1     c-0.1,0.2,0.1,0.3,0.1,0.4C289.1,106.5,289.6,107.5,289.6,107.8"/>
			<path class="st1" d="M291.6,109.4C291.5,109.3,291,110.4,291.6,109.4"/>
			<path class="st1" d="M288.5,108.1c-0.2-0.1-0.3-0.3-0.5-0.5C287.9,108,288.1,108.2,288.5,108.1"/>
			<path class="st1" d="M225.3,70.2L225.3,70.2l0.1,0c0.1,0,0.2-0.1,0.3-0.1c0.1-0.2,0-0.4-0.2-0.7c-0.2-0.3-0.7-0.4-0.9-0.4     c-0.1,0-0.4,0-0.5,0.2c0,0.1,0,0.2,0.2,0.3c0.2,0.1,0.3,0.1,0.3,0.1c-0.1,0.1-0.1,0.2-0.1,0.3C224.7,70.1,225,70.2,225.3,70.2"/>
			<path class="st1" d="M228.3,71.5c0.3,0,0.7,0,0.9,0.1c0,0,0.1,0,0.1,0c0.3,0,0.5-0.1,0.5-0.2c0.1-0.2-0.1-0.4-0.6-0.7     c-0.6-0.3-1.9-0.4-2.5-0.5c-0.3,0-0.5,0-0.5,0.2c0,0.1,0,0.2,0.1,0.2c0.2,0.1,0.6,0.5,0.7,0.6l0,0     C227.1,71.4,227.1,71.4,228.3,71.5"/>
			<path class="st1" d="M280.2,94.9C280.2,94.9,280.2,94.9,280.2,94.9c-0.2-0.2-0.2,0.5,0.2,0.7c0.3,0.2,0.4,0.1,0.1-0.1     C280.3,95.2,280.1,95,280.2,94.9L280.2,94.9c0,0.1,0,0.2,0.1,0.2c0.7,0.4,1.1,0.6,1.5,0.8c0.5,0.3,0.7,0.4,0.9,0.7     c0,0.1,0.1,0.1,0.2,0.1c0,0,0.1,0,0.1,0c0.1,0,0.1-0.1,0.1-0.2c-0.4-1.3-1.2-1.8-2.6-1.7C280.3,94.8,280.3,94.9,280.2,94.9"/>
			<path class="st1" d="M282.8,108.6c0.1,0.1,0.5,0.2,0.5,0.2s-0.1-0.1-0.2-0.1C282.9,108.5,282.6,108.5,282.8,108.6"/>
			<path class="st1" d="M283.6,108.6c-0.1,0-0.1,0-0.2,0c-0.2-0.3-0.4-0.6-0.7-0.7c0.1,0.4,0.3,0.6,0.6,0.8c0,0.1-0.1,0.1,0,0.2     c0.2,0.4,0.5,0.8,0.7,1.2c0.2,0.4,0.5,0.9,0.7,1.2c0,0.1,0.1,0.1,0.2,0.1c0,0,0.1,0,0.1,0c0.1-0.1,0.2-0.2,0.2-0.3     C284.8,109.9,284.3,109.1,283.6,108.6"/>
			<path class="st1" d="M150.1,73.5c0,0,0.1,0,0.1,0l0.2-0.1c0.3-0.1,1.1-0.5,1.3-0.5c0.1,0.1,0.2,0.1,0.3,0.1c0.3,0,1-0.1,1.5-0.5     c0.5-0.3,1.5-0.5,2.2-0.7c0.8-0.2,0.9-0.2,0.9-0.4l0-0.1c0.1-0.1,0.5-0.4,0.8-0.6c0.8-0.6,1-0.7,0.9-0.9c0-0.1-0.1-0.2-0.2-0.2     c1.2-0.6,1.4-0.7,1.3-0.9c0,0,0-0.1-0.2-0.2c0.1-0.1,0.2-0.2,0.2-0.3c0-0.1-0.1-0.1-0.2-0.2c0-0.1,0-0.1,0-0.2l0.1,0     c0.4,0,0.8-0.2,1-0.6c0,0,0-0.1,0-0.1c0-0.1,0-0.2-0.1-0.2c0,0-0.1-0.1-0.3-0.1c-0.3,0-0.8,0.2-1.2,0.4l-0.1,0c0,0-0.1,0-0.1,0     c0,0,0,0.1-0.1,0.1l0,0l-0.1,0c-0.7,0-2.2,0.7-2.4,1.1c0,0.1,0,0.1,0,0.2c-0.2,0.3-1.2,1.1-2.8,2.1c-0.8,0.5-1.7,1.1-2.5,1.6     c-1.3,0.8-1.3,0.8-1.3,1C150,73.4,150,73.5,150.1,73.5"/>
			<path class="st1" d="M179,63.8l0.1,0c0.3-0.1,0.6-0.2,0.7-0.3c0.4,0,1.7-0.2,2.2-0.2c0.8-0.1,1.8-0.5,2.4-0.6l0.2-0.1     c0.1,0,0.2-0.1,0.1-0.2c0-0.1-0.1-0.2-0.2-0.2c0,0-0.1,0-0.1-0.1c-0.1-0.1,0-0.2,0.1-0.2c0.2-0.2,0.5-0.6,0.4-0.9     c-0.1-0.1-0.3-0.3-0.8-0.2c-0.5,0.1-1.7,0.1-2.4,0.1c-0.2,0-0.3,0-0.4,0c0-0.1-0.1-0.1-0.3-0.1c-0.2,0-0.5,0.1-0.8,0.1     c-0.8,0.2-0.8,0.4-0.8,0.5c0,0,0,0.1,0.1,0.2c-0.1,0.1-0.3,0.2-0.6,0.4c-0.3,0.1-0.5,0.4-0.6,0.7c-0.1,0.4,0.1,0.9,0.5,1.3     C178.9,63.8,178.9,63.8,179,63.8"/>
			<path class="st1" d="M152.2,73.3L152.2,73.3C152.2,73.3,152.1,73.2,152.2,73.3C152.1,73.3,152.1,73.3,152.2,73.3"/>
			<path class="st1" d="M287.4,103.8c-0.2-0.5-1.2-1.2-2-1.8c-0.1-0.1-0.3-0.2-0.3-0.2c0-0.2-0.3-0.4-0.5-0.5     c-0.1-0.1-0.1-0.5,0-0.7c0,0,0.1,0,0.1-0.1c0,0,0.1-0.2-0.5-1.6c-0.1-0.3-0.9-2-1.2-2c-0.1,0-0.1,0-0.2,0.1c0,0-0.1,0.1,0,0.2     c0,0,0,0.2-0.2,0.4c-0.1,0.1-0.3,0.3-0.7,0.2c-0.5-0.2-1.4-1.2-1.6-1.5c0-0.1-0.1-0.3-0.7-1c-0.2-0.3-0.7-0.5-1.2-0.7     c-0.3-0.1-0.6-0.3-0.7-0.4c0-0.1,0.1-0.2,0.1-0.4c0.1-0.3,0.2-0.6,0.3-0.8l0,0c0.2,0,0.7,0.2,1.1,0.3c0.6,0.2,1.1,0.3,1.4,0.3     c0.1,0,0.2,0,0.3-0.1c0-0.1,0.1-0.1,0.1-0.2c0-0.5-1.4-1.7-2-1.8l-0.1,0c-0.2,0.1-0.4,0.3-0.6,0.5c-0.7-0.9-1.8-1.8-2.4-2.1     c-0.1-0.1-0.2,0-0.3,0c-0.1,0.1-0.1,0.2,0,0.3c1.9,1.7,2.3,2,2.5,2.1c-0.1,0.1-0.2,0.2-0.2,0.3l0,0.1l-0.1,0     c-0.2,0.2-0.4,0.3-0.5,0.3c-0.6,0-2.2-1.8-2.4-2.1c0-0.1-0.1-0.2-0.9-0.4c-0.1,0-0.3-0.2-0.3-0.3c0.3,0.1,0.6,0.2,0.8,0.2     c0.1,0,0.2-0.1,0.3-0.2c0-0.2-0.2-0.3-0.4-0.4c-0.3-0.1-0.9-0.6-1.3-0.9c0.4,0,0.8-0.2,0.9-0.3c0,0,0.1,0.1,0.1,0.1     c0.3,0.3,1.4,1,1.6,1l0,0c0.1,0,0.2-0.1,0.2-0.2c0-0.1,0-0.3-0.6-0.5c-0.2-0.1-0.7-0.6-1.1-1c-0.6-0.6-0.7-0.7-0.8-0.7     c-0.1,0-0.2,0.1-0.2,0.2l0,0c-1-1-2.9-2.7-4.8-4.5c-2.7-2.4-7-4.8-7.4-4.8c-0.1,0-0.2,0-0.2,0.1c0,0,0,0,0,0     c-0.5,0-1.5-0.2-2.7-0.6c0,0,0,0-0.5-0.2c0.4-0.1,0.5-0.2,0.5-0.3c0-0.3-0.4-0.4-0.8-0.5c-0.5-0.1-1.2-0.5-1.8-0.8     c-0.7-0.4-1.1-0.6-1.3-0.6c-0.1,0-0.2,0.1-0.2,0.1c0,0.1-0.1,0.1,0,0.3c0.1,0.1,0.1,0.2,0.2,0.4c0,0,0.1,0.1,0.1,0.1     c-0.5-0.3-1-0.8-1.2-1c0-0.1-0.2-0.2-0.8-0.6c-0.3-0.2-0.4-0.4-0.4-0.5c0,0,0-0.1,0-0.1c0.1-0.1,0.1-0.2,0.1-0.3     c-0.1-0.3-0.9-0.4-1.2-0.4c-0.3,0-0.4-0.4-0.4-0.6c0,0,0-0.4,0.3-0.4c0.4,0,0.8,0.4,1,0.6c0,0,0,0.1,0.1,0.1c0,0,0.1,0.1,0.2,0.1     c0.1,0,0.1,0,0.2-0.1c0,0,0-0.1,0-0.1c0.1,0,0.2-0.1,0.4-0.2c0.1,0,0.2,0,0.4-0.1c0.4-0.1,0.8-0.2,0.9-0.4     c0.1-0.2-0.2-0.4-0.4-0.6c-0.7-0.5-2.4-0.8-2.9-0.8c-0.1,0-0.3,0-0.3,0.2l0,0c-0.1,0-0.1-0.1-0.2-0.1c-0.4-0.2-1.3-0.4-1.7-0.5     c-0.2,0-0.3,0.1-0.3,0.2c0,0.2,0.1,0.3,0.2,0.3c0.4,0.2,0.7,0.5,0.7,0.6c-0.1,0-0.2,0-0.3,0c-0.2-0.1-0.9-0.3-1.3-0.3     c-0.1,0-0.3,0-0.4,0.1c-0.2-0.1-0.8-0.4-1.7-1c-0.6-0.4-1.3-0.9-1.8-1.2c0.1,0,0.1,0,0.2,0.1c0.5,0.2,1.3,0.4,1.7,0.4     c0.5,0,0.6-0.2,0.6-0.3c0-0.4-0.4-1.6-1.7-2.3c-1.2-0.6-4.3-1.8-4.9-1.8c0,0-0.1,0-0.2,0c-0.1-0.1-0.2-0.2-0.3-0.4     c-0.1-0.1-0.3-0.2-0.7-0.2c-0.9,0-2.4,0.3-3.6,0.6c-0.4,0.1-0.7,0.1-0.9,0.2c-0.1,0-0.2,0-0.3,0c0.1-0.1,0.1-0.2,0.1-0.3     c0-0.1-0.1-0.3-0.5-0.4c-0.4-0.1-0.6-0.1-0.7-0.2c-0.1-0.1-0.5-0.2-1.9-0.4c0.1,0,0.2-0.1,0.2-0.2c0-0.1,0-0.2-0.1-0.2     c-0.4-0.2-0.7-0.3-1-0.4c0.1,0,0.2,0,0.3,0.1c1.3,0.3,2.4,0.7,2.7,0.8c0.1,0.1,0.4,0.2,1.2,0.5c0.6,0.2,1.1,0,1.1-0.3     c0-0.1,0-0.3-0.5-0.4c-0.2,0-0.4-0.1-0.5-0.1c0,0,0,0,0-0.1c0-0.3-0.7-0.8-1-0.8c-0.2,0-0.8-0.3-1-0.4c-0.1-0.1-0.2-0.1-0.3-0.1     c-0.4,0-1.7,0-3.3,0.2c-0.1,0-0.2,0-0.3,0c-1.2,0-3.2-0.8-4.3-1.3c0.2,0,0.3-0.1,0.4-0.3c0,0,0-0.2-0.3-0.2     c-0.2,0-0.4-0.1-0.4-0.1l0-0.1c0-0.1-0.2-0.2-2.3-0.4c-0.9,0-2.7,0.1-3.7,0.2c-0.3,0-0.4,0-0.5,0c-0.2-0.1-0.6-0.2-1.8-0.5     c-0.4-0.1-1-0.2-1.7-0.2c-0.3,0-0.5,0-0.6,0c-0.1,0-0.3,0-0.3,0c-0.4-0.4-2.1-1-3.1-1.4c-0.4-0.1-1-0.2-1.8-0.2     c-1.5,0-3.4,0.1-4.6,0.2c-0.3,0-0.6,0-0.7,0.1c-0.1-0.1-0.3-0.1-0.6,0.1c-0.9,0.5-0.9,0.6-0.9,0.7c0,0,0,0.1,0,0.1     c0,0.1,0,0.1,0,0.2c0.1,0.3,0.7,0.4,1,0.4c0.4,0,1-0.1,1.6-0.2c0.2-0.1,0.4-0.1,0.6-0.1c0,0.1,0,0.2,0,0.3     c0.1,0.1,0.2,0.3,0.6,0.2c0.3,0,0.9,0.1,1.3,0.2c0.2,0.1,0.3,0.1,0.4,0.1c0.1,0,0.2,0,0.2-0.1c0,0,0-0.1,0-0.1c0,0,0.1-0.1,0.3,0     c0.2,0,0.4,0.1,0.7,0.1c0.3,0,0.5,0,0.6-0.1c0,0,0.1,0.1,0.1,0.1c0.1,0.1,0.1,0.1,0.2,0.2c0,0.1,0,0.2,0.2,0.4     c0.1,0.1,0.3,0.1,0.5,0.1c0.3,0,0.9,0,1.8-0.4c0.1-0.1,0.3-0.1,0.5-0.1c0.8,0,2,0.6,2.2,0.9c-0.4,0-1.3-0.1-1.7-0.1     c-0.1,0-0.2,0-0.3,0c-0.1,0-0.2,0.1-0.2,0.2l0,0c-0.1,0-0.2,0-0.3,0c-0.4,0-1.4,0.3-1.4,0.7c0,0.1,0,0.2,0.3,0.2h0     c0,0.1-0.2,0.3-1.3,0.5c-0.9,0.2-1.7,0.1-2.1,0.1c-0.4,0-0.7,0-0.8-0.1c0-0.1,0-0.2,0-0.2c-0.1-0.2-0.4-0.3-1.2-0.3     c-0.8,0-1.4-0.1-1.6-0.1c0-0.1-0.1-0.1-0.2-0.1c-0.2,0-0.5,0.1-0.6,0.1c-0.1,0-0.4,0.1-0.4,0.3c0,0.2,0.3,0.2,0.6,0.2     c0.1,0,0.1,0,0.2,0c-0.1,0.1-0.3,0.1-0.6,0.1c-0.1,0-0.1,0-0.2,0l-0.4,0c-0.4,0-1.5-0.1-1.8-0.4c-0.1-0.1-0.1-0.1-0.1-0.2     c0-0.4,0.6-0.9,1-1.2c0.4-0.3,0.6-0.5,0.5-0.7c0-0.1-0.1-0.2-0.3-0.2l-0.1,0c-0.4,0-0.8,0-1.1-0.1c0.3-0.2,0.6-0.5,0.6-0.8     c0-0.1-0.1-0.3-0.5-0.4l-0.1,0c-0.8,0-2.4,0.7-2.5,0.8c0,0-0.3,0.2-0.5,0.4c-0.2,0-0.8,0-1.5,0l-0.2,0c-0.9,0-1.9-0.1-2.4-0.2     l0,0c0-0.1-0.2-0.2-0.4-0.2c-0.2,0-0.4,0.1-0.5,0.2c-0.1,0.1-0.6,0.2-1.3,0.1c-0.4,0-0.6,0-0.7-0.1l0,0c0,0,0-0.1,0-0.1     c0-0.1-0.2-0.5-0.6-0.3c-1.2,0.3-1.2,0.5-1.2,0.6c0,0,0,0.2,0.2,0.2c0.1,0,0.4,0.2,0.6,0.3c0,0-0.1,0-0.1,0l0,0     c-0.2,0.1-0.3,0.1-0.5,0.2c-0.2,0.2-0.1,0.4,0.1,0.6c0.2,0.4,0.4,0.7,0.1,1.1c-0.5,0.6-2.9,0.9-3.2,0.9l0,0     c-0.2,0-1.7,0.4-1.9,0.5c-0.2,0.1-0.5,0.2-0.9,0.3c-1.1,0.3-2.8,0.9-3.4,0.9c-0.1,0-0.1,0-0.1,0c-0.1-0.1,0-0.3,0.6-1     c0.2-0.3,0.3-0.3,0.2-0.4c0-0.1-0.2-0.2-0.3-0.1c-0.1,0-0.5,0.2-1.1,0.3c-0.1-0.1-0.2-0.1-0.4-0.1c-0.1,0-0.3,0.1-0.3,0.2     c0,0.1,0,0.1-0.1,0.2c-1.6,0.5-2.9,0.9-3.9,1.2c-0.7,0.2-1.6,0.4-2.3,0.5c0.5-0.3,1.2-0.9,1.5-1.1c0.6-0.5,1.2-1.5,1-2     c-0.1-0.2-0.3-0.3-0.5-0.2c-0.3,0.1-1.9,0.9-2,1.2c-0.1,0.3-0.8,1.1-1,1.4l-0.1,0.2c-0.2,0.3-0.2,0.5-0.1,0.7c0,0,0.1,0,0.1,0.1     c-0.5,0.1-1,0.2-1.4,0.2c0,0,0-0.1,0-0.1l0-0.1c0.1-0.1,0.4-0.3,0.8-0.6c0.4-0.3,0.6-0.7,0.5-1c-0.1-0.3-0.5-0.5-1-0.3     c-0.6,0.2-1.6,0.8-2.2,1.1c-0.1,0.1-0.2,0.1-0.2,0.1c-0.1,0-0.1,0-0.5,0.2c-0.6,0.2-1.5,0.6-2,0.6c-0.6,0.1-2.4,0.7-2.4,1.2     c0,0.1,0,0.2,0.3,0.3c0.6,0.1,0.6,0.2,0.6,0.2s0,0.2-0.5,0.6l-0.4,0.3c-0.5,0.4-0.5,0.4-0.5,0.5c0,0.1,0.1,0.1,0.2,0.1     c0.1,0,0.1,0,0.5-0.3l0.5-0.4c0.5-0.3,0.9-0.4,1.3-0.4c0.2,0,0.2,0,0.2,0s0,0-0.1,0.1c-0.3,0.2-0.7,0.7-1.1,1.1     c-0.2,0.2-0.5,0.5-0.5,0.6c-0.1,0-0.2,0.1-0.2,0.2l-0.1,0.2c-0.4,0.1-1.6,0.5-6.2,2.2c-2.8,1-8.4,5.4-10.5,7.1     c-0.3,0.2-0.5,0.4-0.6,0.5c-0.1,0-0.3,0.1-0.8,0.3c-0.2,0.1-0.8,0.5-1.7,1.1c-1.1,0.8-2.7,1.9-4.1,2.8c-1.1,0.7-2.5,2.4-4.3,5     c0,0-2.3,3.5-2.4,3.9c0,0.1-0.1,0.3-0.2,0.6c0,0.1-0.1,0.1-0.2,0.1c0,0,0-0.2,0.2-0.4c0.2-0.2,0.3-0.6,0.1-0.9     c-0.2-0.4-0.6-0.7-1-0.7c-0.2,0-0.5,0-0.8,0.4c-0.4,0.5-1,1.3-1.4,1.9c-0.2,0.3-0.4,0.5-0.5,0.7l0,0c-0.4,0-2,1.2-2.2,1.4     c-0.8,0.7-2.4,4.3-2.3,4.7c0,0.2,0.3,0.3,0.6,0.1c-0.3,0.4-0.9,0.9-1.2,1.2c0-0.1,0.1-0.1,0.1-0.2c0.1-0.1,0.1-0.2,0-0.3l0,0     l0.1-0.1c0.1-0.1,0,0-0.1,0.1c-0.1,0-0.2-0.1-0.3,0c-0.1,0.1-0.2,0.2-0.2,0.2l0-0.1c0,0-0.1-0.1-0.2-0.1c-0.3,0-1.6,2.5-2.6,4.6     c-1.3,2.7-4,7.1-4.4,7.6c-0.2,0.1-0.5,0.5-1.6,2.1c-0.5,0.8-1.9,3.6-1.7,4c0,0.1,0.1,0.1,0.2,0.1c0.1,0,0.2-0.1,0.3-0.1     c0.1-0.1,0.3-0.2,0.3-0.2c0,0.1,0.2,0.3-0.1,1.1c-0.2,0.7-0.7,1.7-0.9,2.2l-0.1,0c-0.5,0-2.6,5.2-3.8,9.1c0,0.1,0,0.2,0.1,0.2     c0.1,0,0.2,0,0.3-0.1c0.2-0.3,0.4-0.6,0.5-0.7c0,0.2,0,0.9-0.5,3.3c-1.1,4.8-2.1,8.8-2.4,9.7c0,0-0.1,0.1-0.1,0.2     c0,0.1,0,0.1,0,0.2c0,0.1,0.1,0.1,0.1,0.1l0.1,0c0,0.1,0,0.2,0,0.3c0,0.1-0.1,0.3-0.1,0.5c-0.1,0.2-0.1,0.5-0.2,0.6     c-0.2,0-0.3,0.1-0.5,3.1c0,1.2,0.4,3,0.6,3.9l0.1,0.4c0,0.1,0.1,0.1,0.2,0.2l0,0l0,0l0,0.1c0,0,0,0,0-0.1c0.1,0,0.2-0.1,0.2-0.2     l0-0.1c0-0.2,0-0.3,0.1-0.4c0.1,0,0.2,0,0.2-0.1c0.1-0.1,0.1-0.2,0-0.3c0-0.1,0.2-0.4,0.3-0.5c0.1,0.4,0.4,0.6,0.6,0.6     c0.1,0,0.2,0,0.3-0.1c0.1,0.1,0.4,0.5,0.6,1.3c0.3,0.8,0.3,0.8,0.4,0.8c0.1,0,0.1,0,0.2-0.1c0.1-0.1,0.1-0.1-0.3-1.3     c-0.3-1.1,0.3-4.1,0.4-4.5c0,0,0,0,0,0c0.2-0.2,0.2-0.9,0-1.4c-0.1-0.5,0.2-1.6,0.4-1.8c0.1,0.1,0.2,0,0.3-0.1     c0.2-0.2,0.2-0.6,0.2-2.8c0-2.1,1.5-7,1.7-7.8c0.2-0.2,0.3-1,0.3-1c0-0.2,0-0.4,0-0.6c0.3-0.2,0.7-0.8,0.9-1.2     c0.3-0.7,0.6-1.9,0.8-2.5c0-0.1,0.1-0.2,0.1-0.2c0.8-1,3.1-6.5,3.4-7.2c1.3-3,3.4-7.1,4.5-9.4c0.6-1.3,0.8-1.5,0.7-1.6     c0,0,0-0.1,0-0.2c0.3-0.4,0.3-0.5,0.2-0.6c0,0,0,0-0.1-0.1c0.1-0.5,0.2-1.1,0.4-1.7c0.3-1.1,1.6-2.3,2-2.5     c0.1,0.1,0.2,0.2,0.3,0.2c0.1,0,0.2,0,0.4-0.3c0.1-0.1,0.2-0.3,0.4-0.4c0.1,0.2,0.3,0.4,0.6,0.5c0.3,0,0.5-0.1,0.8-0.5     c0,0,2.1-2.7,2-3l0,0c0-0.1,0-0.2,0.1-0.4c0.1-0.2,0.1-0.4,0.1-0.6c0.3-0.1,0.8-0.4,0.9-0.9c0.1-0.5,1.2-1.2,1.4-1.3     c0,0,0.1,0,0.1,0c0.2,0,0.6-0.3,2-1.9c0.2-0.2,0.3-0.4,0.4-0.4v0c0.3-0.2,0.8-1,1.1-1.3c0.4-0.6,2.6-1.4,2.9-1.5l0,0     c0.1,0,0.2,0,1.5-1.2c0.2-0.2,0.5-0.4,0.8-0.7c0.9-0.7,1.1-0.9,1-1.1c0,0,0-0.1-0.1-0.1c0.1-0.3,1-1.5,3-3.2     c2-1.7,4.2-3.2,4.7-3.4l0,0c0.1,0,0.4-0.1,0.8-0.4c0.1-0.1,0.2-0.2,0.3-0.3c0.4-0.4,0.9-1,1.6-1c0.6,0,1.3-0.3,2.4-1     c0,0,0.1,0,0.2,0c0.3,0,0.8-0.2,1.1-0.6c0.3-0.4,0.4-0.7,0.4-0.8c0.1-0.1,0.2-0.1,0.4-0.2c0.5-0.2,1.5-0.5,1.9-0.6     c0.1,0.1,0.2,0.1,0.2,0.2c0.1,0,0.2-0.1,0.3-0.1c0.1-0.1,0.3-0.2,0.5-0.3c0.2-0.1,0.4-0.3,0.4-0.3l0,0c0.2-0.1,0.5-0.4,0.8-1     c0.3-0.5,1.6-1.4,1.8-1.5l0,0c-0.3,0.2-0.7,0.4-1,0.7c-0.1,0.1-0.1,0.2,0,0.2c0,0.1,0.1,0.1,0.2,0.1l0,0c1-0.2,1.8-0.7,2.1-1.6     c0.1,0,0.2-0.1,0.5-0.3c0.1-0.1,0.2-0.1,0.4-0.2c0,0.1,0,0.1,0,0.2c0.1,0.1,0.2,0.1,0.4,0.1c0.4,0,1.1-0.1,1.3-0.4     c0.1-0.1,0.1-0.3,0-0.4c-0.1-0.1-0.2-0.1-0.3-0.1c-0.3,0-0.5,0-0.7,0.1v0c0-0.1,0.1-0.3,0.2-0.7c0.1-0.2,0.7-0.7,1-0.9     c0.3-0.2,0.4-0.3,0.4-0.4c0-0.1-0.2-0.1-0.3-0.1c0,0-0.1,0-0.1,0c-0.1,0-0.2,0-0.2,0s0-0.1,0.2-0.2c0.4-0.3,1.8-0.5,2.6-0.5     l0.1,0l0,0c0,0.1,0.2,0.2,0.3,0.1c0,0,0.3-0.2,0.9-0.4c0.3-0.1,0.5-0.1,0.7-0.1c0.4,0,0.6,0.2,0.6,0.2c0,0,0,0.1-0.2,0.1     c-0.4,0.2-1.2,0.5-1.8,0.9c-0.3,0.2-0.6,0.3-0.9,0.4l0-0.1c-0.1-0.3-0.6-0.5-1-0.3c-0.3,0.1-0.5,0.4-0.4,0.7     c0.1,0.4,0.4,0.7,1,0.8c0.2,0,0.5,0,0.8-0.1c1-0.3,3.1-0.6,4.4-0.6c0.7,0,0.9,0.1,0.9,0.2c0,0-0.1,2.1,0.2,2.4     c0,0,0.1,0.1,0.2,0.1c0.1,0,0.2,0,0.2-0.1c0.2-0.2,0.9-0.5,1.2-0.6c0,0,0.1,0,0.1,0c0.1,0,0.2-0.1,0.2-0.1c0,0,0-0.1,0-0.2     c0,0,0-0.1,0-0.1c0.1-0.1,0.5-0.3,0.7-0.4c0.3-0.2,0.4-0.2,0.4-0.4c0-0.1-0.1-0.1-0.1-0.1c0-0.2,0.1-0.4,0.2-0.6     c0.1-0.2,0.1-0.4,0.2-0.5c0.1-0.2,1.5-0.4,2.4-0.4c0.1,0,0.1,0,0.2,0c0,0.1-0.1,0.1-0.1,0.2c-0.2,0.2-0.3,0.4-0.2,0.6     c0,0,0.1,0.1,0.2,0.2c-0.1,0.1-0.3,0.2-0.6,0.3c-0.7,0.3-1.1,1.4-1.3,2l0,0c0,0.1,0,0.1,0,0.2c0,0,0.1,0.1,0.2,0.1     c0.1,0,0.2-0.1,0.2-0.2c0.1-0.1,0.4-0.3,0.6-0.3c0.1,0.2,0.5,0.5,0.9,0.6l0.1,0c0.5,0,1.5-0.7,1.8-1.2c0.2-0.2,0.2-0.3,0.2-0.4     c0-0.1-0.1-0.2-0.2-0.3c0-0.1-0.1-0.2-0.2-0.2l0,0c0.1,0,0.3,0,0.5,0c0.8,0,2.1,0,3.1-0.5c0.9-0.4,2.6-0.5,3.4-0.6     c0.6,0,0.6,0,0.7-0.2c0,0,0-0.1,0-0.1c0.1-0.1,0.3-0.3,1-0.6c0.5-0.2,1.4-0.3,1.9-0.3c0,0,0,0,0,0c0,0.1,0,0.3,1.7,0.4     c1.5,0.1,3.2-0.1,4.7-0.3c1.6-0.3,2.2-0.4,2.5-0.4c0.2-0.1,0.2,0,0.3,0l0.2,0c0.5,0,1.4,0,2-0.1c0.2,0,0.3,0,0.5,0     c0.1,0.1,0.3,0.1,0.5,0.1c0.2,0,0.3,0,0.6,0c0.2,0,0.5,0,0.8-0.1c0.5-0.1,1-0.1,1.3-0.1l0,0c0,0,0,0,0,0c0.2,0.2,0.7,0.1,1.4-0.1     c0.4-0.2,0.9-0.5,0.9-0.9c0-0.1-0.1-0.4-0.6-0.5c-0.2-0.1-0.4-0.1-0.7-0.2c-0.6-0.1-1.7-0.3-1.8-0.6c0-0.1,0.1-0.2,0.3-0.3     c0.3-0.2,0.7-0.3,1.3-0.3c1,0,2.1,0.5,2.4,0.7c-0.2,0.2-0.4,0.6-0.3,0.8c0,0.1,0.1,0.1,0.2,0.1c0,0,0.1,0,0.2-0.1     c0,0,0.1,0,0.1,0c0.2,0,0.3,0.1,0.5,0.2c0.2,0.1,0.2,0.3,0.2,0.4c0,0.1-0.1,0.1-0.3,0.1c-0.4,0-1,0.2-1.8,0.5l0,0     c-0.1,0-0.2,0.1-0.2,0.2c0,0.2,0.7,0.5,1.1,0.5c0.4,0,1.4-0.2,1.4-0.5l0,0c0.1,0,0.2-0.1,0.3-0.2c0.1,0,0.2-0.1,0.3-0.1     c0,0.1,0,0.1,0,0.2c0,0.4,0.6,0.9,1.5,0.8c0.9-0.1,2.5-1,2.9-1.4c0.5,0.3,0.6,0.5,0.7,0.5l0,0c-0.1,0.1-0.3,0.4,0,0.7     c0.1,0.1,0.2,0.2,0.3,0.3c0.3,0.2,0.5,0.4,0.7,0.3c0.1,0,0.1-0.1,0.1-0.2c0-0.2-0.1-0.3-0.2-0.4c-0.1-0.1-0.1-0.1-0.2-0.2     c0.1-0.1,0.4-0.1,0.9-0.1c0.3,0,0.6,0.1,0.8,0.1c0.4,0.1,0.9,0.2,1.6,0.2c0.4,0,0.6,0,0.9,0c0,0-0.1,0.1-0.1,0.1     c0,0.4,1.9,0.8,1.9,0.8c0.1,0,0.2,0,0.3,0c0.1,0,0.4,0,0.4-0.2c0-0.2-0.2-0.3-0.4-0.4c-0.2-0.1-0.8-0.3-1.4-0.4     c0.2-0.1,0.2-0.1,0.2-0.2c0,0,0-0.2-0.2-0.2c-0.3,0-0.5-0.1-0.6-0.2c0,0,0-0.1,0-0.1c0.1-0.2,0.2-0.4,0.1-0.6c0,0,0,0,0,0     c0.9-0.1,2.4-0.4,2.5-0.8c0-0.1,0-0.2-0.2-0.3c-0.2-0.1-0.6-0.2-0.8-0.3c-0.1,0-0.2-0.1-0.3-0.1c0.3-0.2,0.5-0.4,0.4-0.6     c-0.1-0.3-0.4-0.3-0.7-0.3c-0.1,0-0.2,0-0.4,0c-1.1,0-3.4-0.8-3.7-1c-0.2-0.1-0.7-0.3-2.4-0.9c-1-0.3-2.1-1.4-2.4-1.8     c0.3,0,0.7,0.1,0.8,0.1c0.1,0.2,0.4,0.2,0.7,0.2c0.5,0,1.3,0,2.1-0.2c0.2,0,0.5,0,0.8,0c1.3,0,3.1,0.3,3.6,0.4c0,0,0.1,0,0.1,0     l0.1,0c0.1,0,0.2-0.1,0.3-0.2c0,0,0.1,0,0.2,0c0.6,0,1.8,0.5,2,0.6c0.3,0.3,3.2,0.4,3.2,0.4c0.4,0,0.8,0,1.3,0l0.1,0     c1.1,0,2,0.9,2.4,1.4c0.6,0.7,0.9,1.5,1,1.8c-0.4-0.1-0.7-0.1-0.8,0.1c0,0.1,0,0.2,0.1,0.4c0.1,0.1,0.3,0.2,0.5,0.4     c-0.2,0-0.5,0.1-0.7,0.1c-0.1,0-0.2,0-0.2,0.1c0,0.1,0,0.2,0.1,0.2c0.2,0.1,0.4,0.2,0.6,0.2c0.3,0,0.6-0.1,0.8-0.3l0,0     c0,0,0.4-0.1,1-0.2c0.5-0.1,2.9-0.5,3.3-0.5c0.2,0.1,0.4,0.2,1.1,0.4c0.4,0.1,0.7,0.2,0.8,0.3c0,0.1,0.2,0.2,2.2,0.5     c1,0.2,3.1,1.9,3.5,2.3c0,0.1,0.1,0.3,1.5,0.9c0.6,0.2,1.1,1,1.1,1.4c0,0.1,0,0.3-0.5,0.4c-0.4,0.1-0.7,0-0.9-0.3     c-0.2-0.2-0.2-0.4-0.2-0.5l0,0c0-0.1,0.1-0.1,0.1-0.2c0-0.3-1.2-0.5-1.6-0.6l-0.2,0c-0.7,0-2.1-1-2.3-1.3c0,0,0,0,0-0.1     c-0.1-0.3-0.7-0.6-1.7-0.9c-0.9-0.3-1.6-0.2-1.9,0.2c-0.1,0.1-0.2,0.3-0.1,0.7c0,0,0,0.1,0,0.1c-0.2,0.2-0.9,0.4-1.3,0.4     c0-0.1-0.1-0.1-0.2-0.2c-0.1,0-0.3-0.2-0.4-0.3c0.2-0.1,0.7-0.2,0.7-0.4c0,0,0-0.2-0.3-0.2c-0.2,0-0.6-0.1-0.7-0.2     c0-0.1-0.1-0.2-0.8-0.4c-0.3-0.1-0.4-0.1-0.4-0.1c-0.1,0-0.2,0.1-0.2,0.2l0,0l0,0c-0.7,0-1.8-0.2-3.1-0.5     c-0.5-0.1-1.2-0.2-1.9-0.2c-1.6,0-4.5,0.2-4.7,0.8c0,0.1,0,0.2,0.2,0.4c0.6,0.3,0.9,0.5,1,0.7c-0.2,0.1-0.3,0.1-0.3,0.3     c0,0.3,0.4,0.5,0.6,0.6c0.6,0.2,1,0.4,1.2,0.5l0,0c0,0.1,0,0.3,1.9,1c1.7,0.6,5,1.6,5.2,1.7l0,0c0.2,0.1,1.1,0.2,4,0.6     c2.1,0.2,5.1,1.2,5.5,1.3c0.1,0.1,0.3,0.2,1.9,0.2c0.8,0,3.1,1.1,3.4,1.4c-0.1,0.1-0.1,0.3-0.1,0.4c0.1,0.4,0.9,1.2,2.6,1.7     c1.5,0.5,4.4,2.3,5.9,3.2C258,88,258,88,258.1,88l0,0c0.1,0.1,0.3,0.2,0.5,0.5c0.2,0.3,0.3,0.4,0.3,0.6l0,0     c0,0.1-0.1,0.2,0.2,0.7c0.1,0.1,0.1,0.2,0.1,0.3c0,0-0.1,0.1-0.2,0.1l0,0c-0.1-0.1-0.1-0.1-0.2-0.1c-0.1,0-0.2,0.1-0.2,0.2     c0,0,0,0.1,0,0.1c-0.1,0-0.3,0-0.4,0c-0.2,0-0.3,0-0.3,0c-0.1-0.1-0.3,0-0.3,0.1c-0.1,0.2-0.1,0.2,3.2,3c1.6,1.4,3.4,2.5,3.9,2.7     l0,0l0,0c0.1,0,0.1,0,0.1,0c0.1,0,0.2-0.1,0.2-0.1c0-0.1,0-0.2-0.1-0.2c-0.1,0-0.1-0.2-0.1-0.3c0.2,0.1,0.5,0.4,0.6,0.5l0,0     c0,0.1,0.1,0.1,0.2,0.1c0.1,0,0.1,0,0.7-0.4c0.1,0,0.4,0.2,0.6,0.4c0.2,0.2,0.2,0.3,0.2,0.3c-0.2,0.1-0.3,0.3-0.3,0.6     c0,0.4,0.3,1.1,0.7,1.3c0.4,0.2,1,0.9,1.1,1.1c0,0.2,0.1,0.2,1.4,0.7c0.6,0.2,2.2,1.1,2.7,1.5c0,0.1,0.1,0.3,0.3,0.3l0.1,0     c-0.1,0-0.3,0-0.5,0.1c-0.1,0.1-0.1,0.1-0.1,0.2c0.1,0.3,0.8,0.5,0.9,0.5c0.1,0,0.1,0,0.2,0c0.1,0,0.3,0,0.5,0c0.1,0,0.3,0,0.5,0     c0.4,0,0.9,0.9,1,1.3c-0.1,0-0.1,0.1-0.1,0.1c-0.2,0.2-0.1,0.8,0,1c0.2,0.3,1,0.9,1.2,0.9c0,0,0,0,0.1,0c0.2,0,0.2-0.2,0.2-0.4     c0,0,0-0.1,0-0.1c0.3,0.2,0.5,0.2,0.6,0.1l0,0c0.3,0.3,0.9,1.3,1,1.6c0,0.3,0.6,0.9,1,1.3c0.6,0.6,1.8,1.1,2.3,1.1     c0.1,0,0.2,0,0.3-0.1c0-0.1,0.1-0.2,0-0.2c0-0.1-0.1-0.2-0.1-0.3c-0.1-0.1-0.2-0.4-0.2-0.5c0.1-0.1,0.2-0.2,0.2-0.4     c0-0.2,0-0.5-0.5-0.7c-0.2-0.1-0.4-0.4-0.5-0.7c0.1,0,0.2,0,0.3-0.1c0.1-0.1,0-0.3-0.1-0.4c-0.3-0.4-0.7-1.1-0.9-1.1     c-0.1-0.2-0.4-0.4-0.7-0.9c-0.5-0.7-1.6-2.1-2.1-2.6c0-0.1-0.1-0.1-0.1-0.1c0-0.1,0-0.2,0-0.3c-0.1-0.2-0.4-0.4-0.6-0.5     c-0.1-0.1-0.7-0.6-1.5-1.4c-0.2-0.2-0.5-0.5-0.9-0.7c0.2,0.1,0.4,0.3,0.7,0.5l0.2,0.2c0.7,0.5,2.3,1.2,3,1.5c0,0,0.1,0,0.1,0     c0,0.1,0.2,0.4,0.7,1c0.3,0.4,1.3,1.1,1.8,1.5c0.1,0.1,0.2,0.2,0.3,0.2l0,0c0.3,0.3,1.2,0.8,1.2,0.9c0.5,0.3,1.1,1.5,1.2,1.9     c0,0,0,0,0,0.1c0,0.1,0.1,0.3,0.3,0.5c0.2,0.2,0.5,0.1,0.6-0.2c0-0.1,0.1-0.3,0-0.5c0.2,0.1,0.4,0.3,0.6,0.4c0,0,0,0.1,0,0.1     c0,0.1,0,0.2,0.1,0.2c0.2,0.1,0.3,0.1,0.5,0.2c0.1,0.1,0.2,0.1,0.3,0.1c0,0,0.1,0,0.1,0h0l0.1,0c0.3,0.1,0.5,0.3,0.5,0.3     c0.2,0.1,0.6,0.1,0.7-0.1c0.1-0.1,0.1-0.2,0.1-0.4c0-0.2-0.1-0.3-0.1-0.4c0.1-0.2,0.2-0.5,0.2-0.6l0,0c0.1,0.4,0.5,0.8,0.9,0.8     c0.1,0,0.2,0,0.2-0.1c0.1-0.1,0.1-0.2,0-0.3c-0.1-0.3-0.4-0.8-0.7-1.5C287.9,104.8,287.5,104.2,287.4,103.8 M255.6,83.1     c0-0.2-0.2-0.4-0.3-0.5c-0.2-0.3-0.6-0.6-1-0.6c-0.2,0-0.3,0.1-0.5,0.2c0,0-0.1,0.1-0.1,0.1c-0.1-0.1-0.2-0.1-0.3-0.2     c-0.4-0.2-0.6-0.3-0.7-0.3c-0.1,0-0.2,0.1-0.2,0.1c-0.1,0.1,0,0.3,0.1,0.3c0.1,0.1,0.1,0.1,0.1,0.1c0,0-0.3,0.1-0.9,0.1l-0.1,0     c-0.5,0-1.2-0.6-1.6-0.9c0.1-0.1,0.2-0.2,0.3-0.3c0.2-0.4,0.3-0.9,0-1.2c-0.1-0.1-0.2-0.3-0.3-0.4c0.4,0.1,0.9,0.3,1.5,0.6     c0.9,0.4,3.6,1.1,5.1,1.5c0.4,0.1,0.7,0.2,0.8,0.2c0.1,0.1,0.3,0.3,0.7,0.5c0.4,0.3,1.4,0.9,1.7,1.1c0,0.1,0.1,0.3,1,0.9     c0.2,0.1,0.6,0.4,0.9,0.6c0.4,0.3,1,0.6,1.2,0.8c0,0.2,0.2,0.5,0.4,0.7c0.3,0.3,0.6,0.7,0.7,1c-0.1,0-0.2-0.1-0.3-0.1     c-0.2,0-0.4-0.1-0.5-0.1c-0.1,0-0.1,0-0.1,0.1c0-0.1,0-0.2-0.1-0.2c-0.4-0.2-0.8-0.6-1.2-1.1c0-0.1-0.1-0.1-0.2-0.1     c-0.1,0-0.2,0.1-0.2,0.2c-0.1,0.4,0,0.8,0.2,1c0.2,0.2,0.5,0.4,1,0.4c0.1,0,0.2,0,0.3,0c0,0,0,0,0,0s0,0,0,0.1     c-0.1,0.1-0.2,0.1-0.5,0.1l0,0c-0.1,0-0.2,0-0.2,0c-0.1,0-0.2,0-0.2,0.1l0,0c-0.1,0-0.1-0.1-0.2-0.1c-0.4,0-0.2,0.1,0.2,0.1     c0,0.1,0,0.1,0,0.2c0.1,0.1,0.1,0.2,0.1,0.4c-0.1,0.1-0.2,0.2-0.5,0.2c-0.9,0-2.3-2.6-2.4-3c0.2-0.5-0.4-0.8-0.9-1     c-0.6-0.3-1.9-1-2.5-1.4C255.8,83.2,255.7,83.1,255.6,83.1 M242.2,69c-0.3,0-1.1-0.4-1.4-0.5c0-0.1-0.3-0.2-2-0.6     c-0.3,0-0.5-0.2-0.5-0.3c0-0.2,0.5-0.6,1.8-0.5c0.1,0,0.3,0,0.5,0c1.7,0.2,2.8,1,3,1.3c-0.6-0.1-0.7,0.1-0.8,0.2     c0,0.2,0.1,0.3,0.3,0.4c-0.1-0.1-0.2-0.1-0.2-0.1l-0.1,0C242.7,69,242.5,69,242.2,69 M215.7,62.2c0.1,0.1,0,0.3-0.1,0.5     c-0.2,0.3-0.5,0.6-0.9,0.6l0,0c-0.4,0-0.7-0.3-0.8-0.5c0-0.1,0-0.3,0.2-0.4c0.2-0.1,0.4-0.2,0.7-0.3l0,0c0.1,0.1,0.4,0.1,0.6,0     l0,0C215.5,62.1,215.7,62.1,215.7,62.2 M218.9,62.8c0.3,0,0.6,0,0.8,0c-0.1,0-0.2,0.1-0.3,0.2C219.3,62.9,219.1,62.8,218.9,62.8      M220.2,62.7c0.2,0,0.5-0.1,0.7-0.1c-0.1,0.1-0.3,0.2-0.7,0.3c-0.2,0.1-0.5,0-0.7,0L220.2,62.7z M206.4,68.2     c-0.3,0.1-0.6,0.1-1.1,0.2c-0.1,0-0.3,0-0.5-0.1c-0.5,0-0.8,0.1-0.8,0.2c-0.5,0.1-0.9,0.1-1.5,0.2c0.5-0.3,1-0.5,1.2-0.8     c0.1,0,0.2,0.1,0.3,0.1c0,0.1,0,0.1,0.1,0.2c0,0,0.1,0.1,0.2,0.1c0.1,0,0.3-0.1,0.4-0.2c0.1-0.2,0.1-0.4,0.1-0.6     c0-0.2,0-0.3,0-0.3c0.5-0.1,0.7-0.2,0.8-0.3c0.1,0,0.2,0,0.4-0.1l0.1,0c0.3,0,0.6,0.1,0.7,0.2c0,0.1,0,0.3,0.1,0.5     c0,0.1,0.1,0.3,0.1,0.3C206.6,67.9,206.4,67.9,206.4,68.2C206.4,68.2,206.4,68.2,206.4,68.2 M202.8,67.7c-0.3,0-0.5,0.1-0.3,0     C202.5,67.7,202.7,67.7,202.8,67.7 M196.9,69.8c-0.1,0.1-0.3,0.2-0.7,0.3c-0.1,0-0.2,0-0.4,0c-0.4,0-1.1-0.1-1.5-0.2     c0-0.1-0.1-0.1-0.1-0.1l0.1,0c0.2,0,0.3-0.1,0.3-0.1c0.1-0.2,0.1-0.4,0.1-0.5c0-0.1,0-0.2,0-0.2c0.3-0.2,0.4-0.4,0.4-0.4     c0.1,0,0.3-0.1,0.5-0.1c0.3,0,0.8,0.2,1,0.4c0,0.1-0.1,0.2,0,0.3c0,0.1,0.1,0.3,0.5,0.3c0.4,0,1-0.1,1.1-0.4     c0.1,0,0.3,0.1,0.6,0.2c-1.8,0.3-1.9,0.4-1.9,0.5C196.8,69.7,196.9,69.8,196.9,69.8 M192.3,69.2c0,0-0.2-0.1-0.3-0.1     c-0.1-0.1,0-0.2,0.3-0.3c0.3-0.1,0.5,0,0.4,0.1C192.6,69.1,192.4,69.2,192.3,69.2 M187.3,68.4c0-0.1-0.1-0.3-0.2-0.3     c-0.1,0-0.1-0.1-0.1-0.2c0.1-0.2,0.4-0.6,1.1-0.6c2-0.1,2-0.2,2.1-0.3c0,0,0-0.1,0-0.1c0,0,0.1,0,0.1-0.1     c-0.1,0.3-0.4,0.9-1.1,1.5c-0.6,0.5-1.9,0.9-2.8,1.1C186.9,69.1,187.4,68.7,187.3,68.4 M173.7,72.4c0,0.2-0.2,0.2-0.3,0.2     c-0.1-0.1-0.2-0.3,0-0.4C173.6,72.1,173.8,72.2,173.7,72.4 M171.3,72.6c0,0-0.2,0.1-0.3,0.1c-0.1,0-0.1,0,0.1,0     C171.3,72.7,171.4,72.6,171.3,72.6 M167.5,67.7c0,0-0.2,0.2-0.4,0.3c-0.3,0.1-0.5,0-0.2-0.1c0.3-0.1,0.4-0.2,0.3-0.2     C167.1,67.8,167.4,67.7,167.5,67.7"/>
			<path class="st1" d="M147.3,77.1c0.3,0,0.6-0.1,1-0.3c0.9-0.5,1.3-1.8,1.1-2.4c-0.1-0.3-0.3-0.4-0.4-0.4c-0.1,0-0.2,0-0.4,0.1     c-1.2,0.9-1.1,1-1.1,1.1c0,0,0.1,0.1,0.1,0.1c-0.1,0.1-0.3,0.3-0.6,0.6c-0.3,0.3-0.4,0.6-0.3,0.8C146.9,77,147.1,77.1,147.3,77.1     "/>
			<path class="st1" d="M286.3,108.6c0.1,0,0.2,0,0.2-0.1c0-0.1,0-0.2,0-0.2l-0.8-0.9c-0.1,0-0.2-0.1-0.2-0.1     c-0.1,0-0.1,0.1-0.1,0.2C285.3,108.2,285.6,108.6,286.3,108.6"/>
			<path class="st1" d="M285,112.5c0.1-0.2-0.1-0.4-0.1-0.5c-0.1-0.1-0.1-0.1-0.1-0.2l-0.1-0.1c0,0-0.1-0.1-0.1-0.1l0,0     c-0.1-0.1-0.2-0.1-0.2-0.1c-0.1-0.2-0.2-0.3-0.2-0.4c0.4,0.1,0.2,0,0,0c0,0-0.1-0.2-0.1-0.2c0-0.1-0.3,0.3,0,0.4     c0.1,0,0.2,0.1,0.3,0.2c-0.1,0-0.1-0.1-0.2-0.1c-0.3,0-0.8,0.1-0.9,0.4c0,0.1-0.1,0.3,0.2,0.5c0.3,0.2,0.8,0.4,1.1,0.4     C284.8,112.7,284.9,112.6,285,112.5"/>
			<path class="st1" d="M282,111.6c0.2,0.2,0.3,0.2,0.3,0c-0.1-0.2-0.7-0.4-0.7-0.4C281.6,111.3,281.8,111.4,282,111.6"/>
			<path class="st1" d="M276.6,88.9c0.2-0.3-0.5-0.5-0.9-0.7C275.9,88.5,276.1,88.8,276.6,88.9"/>
			<path class="st1" d="M256.1,74.8L256.1,74.8c0.4-0.1,0.6-0.4,0.5-0.8c-0.1-0.4-0.7-0.6-1.2-0.6c-0.2,0-0.3,0.1-0.4,0.3     C255,74.1,255.8,74.8,256.1,74.8"/>
			<path class="st1" d="M247.6,69.9l-0.9-0.6C246.8,69.9,247.1,70.1,247.6,69.9"/>
			<path class="st1" d="M216.6,60.5c0.1,0,0.2-0.1,0.2-0.2l0,0c0.6,0,1.1-0.1,1.2-0.1c0.1,0,0-0.3-0.7-0.4l0,0     c0-0.1-0.1-0.2-0.2-0.2c-0.5,0-1,0.3-1,0.6c0,0.1,0,0.2,0.1,0.2C216.4,60.5,216.5,60.5,216.6,60.5"/>
			<path class="st1" d="M123.4,94l0.1,0c0.4-0.1,0.9-0.1,1.1,0c-0.2,0.2-0.3,0.2-0.2,0.3c0,0.1,0.1,0.1,0.2,0.1c0.1,0,0.1,0,1.4-0.9     c0.5-0.4,1.1-0.8,1.5-1.1c0.3-0.2,0.6-0.4,0.8-0.5l0.1,0c0.2,0,0.5,0,0.9-0.1c0.4-0.1,0.7-0.7,1.1-1.4c0.1-0.1,0.1-0.3,0.2-0.4     c0.4,0,1-0.7,1.2-1.1c0.4-0.6,1.4-1.6,1.6-1.7c0.1,0,0.3-0.1,0.7-0.6c0.3-0.3,1.5-1.4,2.2-1.9l0,0.1c0,0,0.1,0.1,0.2,0.1     c0.1,0,0.2-0.1,0.3-0.3c0.2-0.3,0.9-0.8,1.1-0.8c0,0,0.1,0,0.1,0c0.2,0,0.4-0.2,1-1.1c0.7-1,1-1.7,1-2c0-0.1-0.1-0.2-0.1-0.2     c0.1-0.1,0.2-0.2,0.4-0.4c0.1-0.1,0.4-0.2,0.6-0.2c0,0,0,0.1,0,0.1c0,0.1,0.1,0.1,0.2,0.1c0.1,0,0.3-0.1,0.4-0.2     c0,0.1,0.1,0.1,0.1,0.2c0.2,0.3,0.7,0.2,1.4-0.5c0.8-0.7,1.3-2.3,0.9-3.1c-0.2-0.4-0.6-0.5-1.1-0.3c-1.2,0.6-5.8,4.6-10.4,8.5     l-0.5,0.5l0,0c-0.1,0-0.1,0-2.1,1.8c0,0,0,0.1,0,0.1c0,0,0,0,0,0.1l-1.3,1.2c-5.1,4.9-5.3,5.2-5.2,5.4     C123.3,93.9,123.4,94,123.4,94"/>
			<path class="st1" d="M147.6,74.8c0.1,0,0.2,0,0.3-0.1c0.3-0.2,1-0.6,1.2-1c0-0.1,0-0.2,0-0.3c-0.2-0.2-0.9-0.3-1.5-0.1     c-0.4,0.1-0.6,0.4-0.5,0.8C147,74.5,147.3,74.7,147.6,74.8"/>
			<path class="st1" d="M146,74.8c0.3-0.2,0.4-0.5,0.3-0.5c-0.2,0-0.4,0.1-0.6,0.2C145.5,74.6,145.7,75,146,74.8"/>
			<path class="st1" d="M146,74.3C146.3,74.2,145.9,74.3,146,74.3L146,74.3z"/>
			<path class="st1" d="M115.5,105.7L115.5,105.7c0.7-0.1,1.2-0.5,1.2-0.9c0-0.4-0.2-0.5-0.4-0.6c0.1-0.3,0.3-0.7,0.7-1.4     c0.4-0.8,1.3-1.5,1.7-1.5c-0.1,0.3-0.6,1-0.9,1.5c-0.6,0.9-0.6,1-0.6,1.1c0,0.1,0.2,0.1,0.2,0.1c0.4-0.1,2.4-2,4.5-4.5     c1.6-1.9,1.3-3.3,1-3.7c-0.2-0.4-0.4-0.6-0.7-0.6c-0.1,0-0.2,0-0.3,0.2c-0.1,0.2-0.2,0.3-0.3,0.4c-0.1,0-0.3,0.1-0.7,0.7     c-0.4,0.5-0.3,0.7-0.3,0.8c0,0,0.1,0.1,0.1,0.1c-0.1,0.2-0.4,0.5-0.9,0.7c-0.7,0.4-1.8,1.6-2.4,2.2c-0.1,0.1-0.2,0.2-0.2,0.2     c-0.2,0.2-0.5,0.6-1.6,2.2c-0.7,1-1,2.2-0.8,2.7C115.2,105.6,115.3,105.7,115.5,105.7 M115.5,105.5L115.5,105.5L115.5,105.5     L115.5,105.5z"/>
			<path class="st1" d="M105.7,124.4c0.1,0,0.1,0.1,0.2,0.1c0.1,0,0.2,0,0.2-0.1c0.1-0.1,0.2-0.4,0.2-0.5c0-0.1,0.1-0.3,0.2-0.4     c0.1,0.1,0.2,0,0.3,0c0,0,0.1-0.1,0-0.8c-0.1-0.5-0.3-0.5-0.5-0.5c-0.2,0-0.5,0.2-0.7,0.5c-0.3,0.4-0.2,1-0.2,1.2     C105.5,123.9,105.6,124.2,105.7,124.4"/>
			<path class="st1" d="M111.9,111.6c0.1-0.2,0.1-0.3,0-0.2c-0.2,0.1-0.3,0.2-0.3,0.4C111.6,111.9,111.8,111.8,111.9,111.6"/>
			<path class="st1" d="M111.7,112.3c0-0.2-0.2-0.2-0.3,0c-0.1,0.2-0.2,0.4,0,0.4C111.5,112.8,111.8,112.5,111.7,112.3"/>
			<path class="st1" d="M110,114c-0.1,0.1-0.2,0.3-0.2,0.6c0.2-0.2,0.3-0.4,0.5-0.6c0.4-0.1,0.8-0.3,1-1.3c0-0.1-0.1-0.2-0.2-0.2     c-0.1,0-0.3,0-0.4-0.1c-0.6,0-1,0.4-1.4,1.2c0,0.1,0,0.2,0.1,0.2C109.7,113.9,109.9,114,110,114"/>
			<path class="st1" d="M139,100.5c0,0,0.1,0,0.3-0.2c0.1-0.1,0.4-0.4,0.3-0.9c0-0.3-0.2-0.5-0.6-0.5c-0.5,0-1.1,0.3-1.6,0.9     c-0.8,0.8-1.3,1.9-0.9,2.5c0.3,0.4,1.4,1.1,2.1,1.1c0.2,0,0.3,0,0.4-0.1c0.4-0.3,0.6-1,0.9-1.8c0.1-0.2,0.1-0.3,0.1-0.4     c0.1-0.1,0-0.2,0-0.3c-0.1-0.1-0.3-0.1-0.3-0.1c-0.2,0-0.3,0-0.5,0.1c-0.2,0-0.4,0.1-0.5,0l0,0     C138.8,100.7,138.9,100.6,139,100.5L139,100.5z"/>
		</g>
	</g>
	<path class="st2" d="M151.9,151.8c3.6-5.1,9.1-12.5,12.2-13c3.5-0.5,4.1,3.4,4.1,4.8v58.6c0,1.1,1,2.2,2.3,2.2   c17.7,0,28.1-29.6,30.5-36.1c4.2-11.6,12.5-28.8,18.1-29.7c3.5-0.6,3.4,5,3.4,5v58.6c0,1.1,1,2.2,2.3,2.2   c17.7,0,28.1-29.6,30.5-36.1c4.2-11.6,12.6-29.1,18-29.6c3.4-0.3,3.6,3.6,3.6,5v59c0,1,0.9,1.8,2,1.8h8.9c1,0,1.9-0.8,1.9-1.8v-59   c0-6.8-3-10.9-5.4-13.1c-3.2-2.8-7.9-4.3-12.2-4.1c-13.8,1.4-20.4,19.1-27.3,37.8c-2.3,6.2-6.7,16.1-9.4,20.2v-40.9   c0-6.9-3.1-11-5.7-13.2c-3.3-2.8-7.8-4.3-12-3.9c-13.8,1.4-20.3,19.1-27.1,37.8c-2.3,6.2-6.8,16.1-9.5,20.2v-40.9   c0-7.1-3.2-11.2-5.9-13.4c-3.5-2.9-8.3-4.2-13-3.5c-9,1.3-16.2,12-20.9,18.3c-33.9,45.2-54.1,59.5-68.2,63.2   c-2.2,0.6-3.9,1.9-4.5,3.6c-0.4,1-0.3,2.1,0.3,3c1.6,2.1,3.8,2.3,7,2.3C95.3,217.1,126.3,188.2,151.9,151.8"/>
	<g>
		<path class="st2" d="M44.1,357.9c-0.5,0-0.8,0.1-1.4,0.4c-0.1,0-0.2,0.1-0.3,0.2c-0.9,0.5-2.9,1.5-6.5,1.5c-6,0-9.8-5.3-9.8-13.5    c0-8.6,3.5-13.6,9.7-13.6c4,0,5.9,1.2,6.6,1.5c0.1,0.1,0.2,0.1,0.3,0.2c0.4,0.2,0.8,0.3,1.1,0.3c0.8,0,1.4-0.7,2.1-1.9    c0.4-0.8,0.7-1.7,0.7-2.3c0-0.7-0.6-1.3-2.1-2c-0.1,0-0.1-0.1-0.2-0.1c-0.9-0.4-3.4-1.6-8.5-1.6c-9.8,0-16.3,7.8-16.3,19.4    c0,11.5,6.5,19.3,16.1,19.3c5.6,0,8.8-1.7,9.4-2c1.4-0.7,2-1.2,2-2c0-0.6-0.3-1.3-0.9-2.4C45.6,358.8,45,357.9,44.1,357.9z"/>
		<path class="st2" d="M71.2,359.5H56.5V330c0-0.7,0-1.2-0.5-1.6c-0.5-0.5-1.7-0.6-2.7-0.6c-0.9,0-2.1,0.1-2.6,0.6    c-0.4,0.4-0.5,0.9-0.5,1.6v32.9c0,0.8,0.1,1.2,0.5,1.6c0.5,0.4,1.2,0.6,2.5,0.6h17.1c0.8,0,1.6-0.1,2.1-0.9l0,0    c0.4-0.6,0.5-2,0.5-2.9c0-0.4,0-1-0.4-1.4C72.3,359.7,71.9,359.5,71.2,359.5z"/>
		<path class="st2" d="M100.4,327.7c-0.9,0-2.2,0.1-2.7,0.6c-0.4,0.4-0.5,0.9-0.5,1.6v23.8c0,3.1-2,6.5-7.7,6.5    c-5.7,0-7.7-3.3-7.7-6.5V330c0-0.7,0-1.2-0.5-1.6c-0.5-0.6-1.9-0.6-2.6-0.6c-1.4,0-2.3,0.2-2.7,0.6c-0.4,0.4-0.5,0.9-0.5,1.6v23.2    c0,5.8,2.4,12.7,14,12.7c11.6,0,14-6.9,14-12.7V330c0-0.7,0-1.2-0.5-1.6C102.5,327.8,101.3,327.7,100.4,327.7z"/>
		<path class="st2" d="M130.7,344.8c2.4-1.7,3.7-4.3,3.7-7.8c0-5.8-4.3-9.1-11.8-9.1h-9.7c-1.3,0-2.1,0.2-2.5,0.6    c-0.4,0.4-0.5,0.8-0.5,1.6v32.7c0,0.8,0.1,1.2,0.5,1.6c0.5,0.4,1.2,0.6,2.5,0.6h10.6c7.6,0,12.7-4.4,12.7-11    C136.2,348.4,132.9,345.9,130.7,344.8z M129.7,353.8c0,3.6-2.6,5.8-7,5.8H116V348h5.8C128.8,348,129.7,350.9,129.7,353.8z     M116,342.5v-9.1h5.9c5.5,0,6.1,2.4,6.1,4.2c0,2.7-0.5,5-6.8,5H116z"/>
		<path class="st2" d="M183.6,327.7c-1.5,0-2.3,0.2-3,1.3l-9.9,16.5L160.1,329c-0.7-1.1-1.9-1.3-3.8-1.3c-2.3,0-3.4,0.5-3.4,1.6    c0,0.7,0.1,0.8,0.6,1.6l1,1.7v30.5c0,0.7,0,1.2,0.5,1.6c0.4,0.4,1.3,0.6,2.5,0.6c0.9,0,2.2-0.1,2.7-0.6c0.4-0.4,0.5-0.9,0.5-1.6    v-22.7l6.6,10.6c0.2,0.4,0.4,0.6,0.6,0.7l0.1,0.1c0.5,0.4,1.2,0.6,2.6,0.6c1.2,0,2.1,0,2.7-0.6l0.2-0.2c0.2-0.2,0.4-0.4,0.5-0.7    l6.7-11.3v23.4c0,0.7,0,1.2,0.5,1.6c0.5,0.6,1.9,0.6,2.6,0.6c1.4,0,2.2-0.2,2.6-0.6c0.4-0.4,0.5-0.9,0.5-1.6V330    c0-0.7,0-1.2-0.5-1.6C185.8,327.9,185,327.7,183.6,327.7z"/>
		<path class="st2" d="M208.2,329.1c-0.4-1.1-1.2-1.5-3.4-1.5c-2.1,0-3,0.4-3.3,1.5l-11.6,33.4l0,0.1c-0.2,0.5-0.3,0.9-0.3,1.2    c0,0.2,0,0.6,0.4,1c0.4,0.4,1.3,0.6,2.6,0.6c0.9,0,2-0.1,2.5-0.6c0.3-0.3,0.5-0.8,0.7-1.4l2.7-8.1H211l2.7,8.1    c0.2,0.6,0.4,1.1,0.7,1.4c0.6,0.6,1.9,0.6,2.6,0.6c0.9,0,2.2-0.1,2.6-0.6c0.1-0.1,0.5-0.5,0.5-1c0-0.2,0-0.5-0.1-0.9L208.2,329.1z     M209.2,349.9h-9l4.5-13.6L209.2,349.9z"/>
		<path class="st2" d="M240.1,349.2c6.1-2.1,7.4-6.9,7.4-10.6c0-7.2-4.4-10.6-13.4-10.6H226c-1.3,0-2.1,0.2-2.5,0.6    c-0.4,0.4-0.5,0.8-0.5,1.6v32.9c0,0.7,0,1.2,0.5,1.6c0.4,0.4,1.3,0.6,2.6,0.6c0.9,0,2.2-0.1,2.7-0.6c0.4-0.4,0.5-0.9,0.5-1.6V350    c1.3,0.1,2.6,0.2,4.3,0.2l9.8,14.1c0.5,0.8,1.2,1,3.2,1c1.7,0,2.3-0.1,2.7-0.4c0.5-0.2,0.8-0.7,0.8-1.1c0.1-0.5-0.1-0.9-0.4-1.4    L240.1,349.2z M229.2,333.4h4.9c6.1,0,7,2.5,7,5.2c0,4.2-2.3,6-7.5,6c-1.8,0-3.1,0-4.4-0.1V333.4z"/>
		<path class="st2" d="M282.3,327.7c-1.5,0-2.3,0.2-3,1.3l-9.9,16.5L258.7,329c-0.7-1.1-1.9-1.3-3.8-1.3c-2.3,0-3.4,0.5-3.4,1.6    c0,0.7,0.1,0.8,0.6,1.6l1,1.7v30.5c0,0.7,0,1.2,0.5,1.6c0.4,0.4,1.3,0.6,2.5,0.6c0.9,0,2.2-0.1,2.7-0.6c0.4-0.4,0.5-0.9,0.5-1.6    v-22.7l6.6,10.6c0.2,0.4,0.4,0.6,0.6,0.7l0.1,0.1c0.5,0.4,1.2,0.6,2.6,0.6c1.2,0,2.1,0,2.7-0.6l0.2-0.2c0.2-0.2,0.4-0.4,0.5-0.7    l6.7-11.3v23.4c0,0.7,0,1.2,0.5,1.6c0.5,0.6,1.9,0.6,2.6,0.6c1.4,0,2.2-0.2,2.6-0.6c0.4-0.4,0.5-0.9,0.5-1.6V330    c0-0.7,0-1.2-0.5-1.6C284.5,327.9,283.6,327.7,282.3,327.7z"/>
		<path class="st2" d="M306.9,329.1c-0.4-1.1-1.2-1.5-3.4-1.5c-2.1,0-3,0.4-3.3,1.5l-11.6,33.3l0,0.1c-0.2,0.6-0.3,1-0.3,1.2    c0,0.2,0,0.6,0.4,1c0.4,0.4,1.2,0.6,2.6,0.6c0.9,0,2-0.1,2.5-0.6c0.3-0.3,0.5-0.8,0.7-1.4l2.7-8.1h12.6l2.7,8.1    c0.2,0.7,0.4,1.1,0.7,1.4c0.5,0.6,1.9,0.6,2.6,0.6c0.9,0,2.1-0.1,2.6-0.6l0,0c0.1-0.1,0.5-0.5,0.5-1c0-0.2,0-0.5-0.1-0.9    L306.9,329.1z M307.9,349.9h-9l4.5-13.6L307.9,349.9z"/>
		<path class="st2" d="M338.8,349.2c6.1-2.1,7.4-6.9,7.4-10.6c0-7.2-4.4-10.6-13.4-10.6h-8.1c-1.3,0-2.1,0.2-2.5,0.6    c-0.4,0.4-0.5,0.8-0.5,1.6v32.9c0,0.7,0,1.2,0.5,1.6c0.4,0.4,1.3,0.6,2.6,0.6c0.9,0,2.2-0.1,2.7-0.6c0.4-0.4,0.5-0.9,0.5-1.6V350    c1.3,0.1,2.6,0.2,4.3,0.2l9.8,14.1c0.5,0.8,1.2,1,3.2,1c1.7,0,2.3-0.1,2.7-0.4c0.5-0.2,0.8-0.7,0.8-1.1c0.1-0.5-0.1-0.9-0.4-1.4    L338.8,349.2z M327.8,333.4h4.9c6.1,0,7,2.5,7,5.2c0,4.2-2.3,6-7.5,6c-1.8,0-3.1,0-4.4-0.1V333.4z"/>
		<path class="st2" d="M381.4,362.8l-11.7-33.8c-0.4-1.1-1.2-1.5-3.4-1.5c-2.1,0-3,0.4-3.3,1.5l-11.6,33.4l0,0.1    c-0.2,0.6-0.3,0.9-0.3,1.2c0,0.2,0,0.6,0.4,1c0.4,0.4,1.2,0.6,2.6,0.6c0.9,0,2-0.1,2.5-0.6c0.3-0.3,0.5-0.8,0.7-1.4l2.7-8.1h12.6    l2.7,8.1c0.2,0.7,0.4,1.1,0.7,1.4c0.5,0.6,1.9,0.6,2.6,0.6c0.9,0,2.2-0.1,2.6-0.6l0,0c0.1-0.1,0.5-0.5,0.5-1    C381.5,363.5,381.5,363.3,381.4,362.8z M370.7,349.9h-9l4.5-13.6L370.7,349.9z"/>
	</g>
</g>
</svg>